<svg xmlns="http://www.w3.org/2000/svg" viewBox="0 0 2378.04 770.45"><defs><style>.cls-1{fill:#f9f5dd;}</style></defs><title>cloud_left</title><g id="Layer_2" data-name="Layer 2"><g id="Layer_1-2" data-name="Layer 1"><path class="cls-1" d="M489.67,512.59c-16.39-.35-34-2.83-50.08.57-7.88,1.66-15.49,0-23.42,1.09-10,1.38-19.6,3.35-29.72,4.21C369,519.94,352,520.7,335.4,526.41S301.25,534,286,543.59c-12.25,7.66-14.92,19.77-12.16,33.58s14.43,21.3,26.86,26.13c17.06,6.63,33.91,7.37,51.81,9.28,8.23.87,15.63-1,23.72-2,8.8-1.06,17-.33,25.9-2,9.64-1.83,18.36-2.24,28.11-2.59s18.46-4.83,28.31-4.64c19.21.37,38.86-.24,57.87-3.38,9.58-1.59,19.08-.38,28.72-1.08s18.84-3.79,28.33-5.32c11.9-1.91,25.39-6.36,37.5-3.32,18.51,4.65-8.7,16.88-15.27,18.77-12.48,3.57-26.5,6.17-36.43,15.23-9.44,8.6-12.09,23.29-2.73,33,10.32,10.75,29.08,13.26,43,11.34,9.75-1.35,19.73-2.65,29.54-3.55,10.53-1,21.21.47,31.77-.51,8.69-.8,17.14-2.84,25.59-4.94,11.14-2.76,22.41-4.13,33.59-6.55,18.51-4,37.18-6.7,56-9,9.3-1.11,18.17-1.75,27.56-2.16,8.11-.37,15.73-.83,22.89,3.62,9.63,6,.87,12.24-5.45,17a93.27,93.27,0,0,1-22.48,12c-8,3.16-16,6-24.16,8.77a109.24,109.24,0,0,0-11.85,4.49c-5.1,2.4-9.12,6.23-14.65,7.63-36,9.15-73.59,11.79-109.57,22.4-8.17,2.41-16.29,1.83-24.59,3.3-10.24,1.82-20.41,3.61-30.49,6.15-13.93,3.52-31.09,4.18-36.81,20.13-10.17,28.31,45.71,25.91,60.57,23.64,21.31-3.27,42.11-9.4,63.47-12,20.23-2.47,40.54-9.67,60.9-10.39,8.29-.3,15.81-.53,24.08-1.53,9.55-1.15,18.92,0,28.47-1.78,18.59-3.44,38.12-.27,56.53-4.31s38.51-3.44,57.31-3.37c21.84.09,43.25-.28,65-2.16,7.83-.68,15.58.08,23.41-1,10.68-1.54,20.75-1.54,31.49-1.36,19.53.33,38.74-4.23,58.12-4.61s34-.82,51.08-10.84c12-7,24.17-16.14,22.12-31.52C1146.77,668,1133.47,666,1119.69,666c-8.79,0-16.9-3.06-25.87-2.81-9.9.28-19.15,3.5-29.16,2.15-19.94-2.69-39.56-1.11-59.59-2-4.43-.2-28.25-.81-23.61-10.49,3.2-6.68,16.95-9,23.29-10.88,9.38-2.75,18.21-5.81,28-6.73s19.24-1.48,28.81-3.53c10.07-2.15,20-5.34,30.25-6.47,7.67-.84,16.3-3,23.87-2.91,8.38.07,15.9-2.39,24.26-3.11,9.42-.81,18.77-3.13,28-5,8.89-1.77,17.25-2.93,26.25-3.89,4.74-.51,9.4-1.66,14.16-1.86,5.85-.24,11.73.78,17.57.27,3.52-.31,6.69-1.68,10.13-2.24,4.76-.77,9.82,0,14.67-.26,10.26-.57,20.56-1.44,30.81-2.14,8.62-.58,16.67-2.62,25.39-2.28,9,.35,17.11-1.33,25.93-2.83,10.36-1.75,20.6-1.34,31-2.14,10.14-.78,20.17-2.49,30.2-4.09,21.06-3.37,43-8.6,64.34-9.39,8.76-.33,16.71-1.64,25.42-2.85,10.15-1.41,20.39-1.15,30.51-2.73s19.64-4,30.06-3.73c9.18.26,18.6,1.34,27.78.89,9.81-.49,19-2.84,29-2.8,10.8.06,21.57.38,32.36.67a100.54,100.54,0,0,0,24.54-2.3c10.45-2.29,20.34-2.28,30.91-3.19,19.53-1.67,39-2.47,58.6-3.27A95,95,0,0,0,1773.4,559c8.77-2.94,17.57-3.88,26.67-5.51s17.93-3.59,26.92-5.2c10-1.78,19.65-.9,29.61-3.15,8.47-1.91,16.83-3.68,25.18-6.07,8.93-2.55,18-3.34,26.39-7.69,10.35-5.38,20.33-12.73,18.13-25.81-2-12.1-11.15-20.58-22.51-24.14-12.28-3.85-25.81-2.63-38.49-2.55-9.47.05-19,.41-28.47.11-9.79-.32-18.88-3.32-28.75-2.08s-19.23,2.46-29.27,2.61c-10.23.16-20.16,2.24-30.42,2-8.56-.19-19.86,1.64-28.1-.46-7-1.78-4.85-3.83-.28-6.61a49.86,49.86,0,0,1,11-4.73c18-5.57,36.44-7.47,54.92-9.92,8.37-1.11,17-2.69,25.42-3.5,4.65-.46,9.37.41,14,.05,5.82-.46,11.46-1.92,17.31-2.11,9.26-.3,18.47,1.08,27.74.26s18.2-4.12,27.45-5.54a305.64,305.64,0,0,0,30.46-5.8c9.46-2.46,18.27-5.71,28.09-6.62,17.91-1.66,34.9-5.78,52.61-9,18-3.23,35.94-3.89,53.91-6.89a245.7,245.7,0,0,1,29.57-2.79c9.62-.4,18.68.8,28.27-.84,20.52-3.49,41-7.38,61.77-8.29,19.81-.88,40.27-6,59.81-9.42,20-3.49,41.61-4,60.81-10.68,14.27-5,28.33-6.26,37.56-19.64,8.18-11.84,4.78-22.28-6.93-29.61-13.57-8.49-30.1-15.18-46.21-15.31-10.27-.08-20.93.92-31.13-.25-9.3-1.07-18.57-2.31-27.9-3.3a227.2,227.2,0,0,0-28-.95c-10.53.18-20.65,3.08-31.22,2.74-9-.29-17.48-.73-26.43.89-9.81,1.77-19.6.16-29.42,1.56-14.58,2.09-28.89,4.49-43.66,5.07-11.59.46-23.49.29-34.92,2.44-8.19,1.54-4.72,14,3.44,12.5,11.75-2.21,24.32-1.44,36.22-1.89,14.88-.56,29.52-4.16,44.25-5,8.34-.47,16.48.69,24.77-.75,10.14-1.77,19.24-.73,29.45-.73,9.29,0,18.24-2.54,27.52-2.62a269.72,269.72,0,0,1,31.4,1.39c7.86.84,15.65,2,23.49,2.9,10.54,1.18,21.52.2,32.12.29,9.13.08,46.72,9.22,42.15,21.35-2.88,7.63-12.16,9.8-19,11.34-9.34,2.11-17.88,6.06-27.44,7.65-19.31,3.19-38.71,5.93-58.05,8.92-10,1.55-19.92,3.51-29.89,5.26-10.3,1.82-20.67,1.32-31,2.73-8.55,1.16-17,2.87-25.54,4.13-10.59,1.57-21.57,4.77-32.29,4.44-18.59-.57-36.28,2.76-54.66,4.09-17.7,1.28-35,4.23-52.72,6.45-8.09,1-15.42,3.22-23.26,5.42-8.5,2.39-17.48,1.86-26.2,3.09s-16.65,4.12-25.09,6.32c-10.58,2.74-21.64,4.43-32.44,6-8.6,1.27-16.64,4.56-25.36,5-10.41.55-20.82-1.19-31.2.1-16.66,2.06-33.2,2.71-49.88,5-17.6,2.39-34.57,4.61-51.91,8.75-10.72,2.57-27.2,7.47-32,18.8-5.73,13.53,10.56,21.53,21.51,22.09,18,.93,35.71-1.09,53.63-1.8,8.92-.35,17.51-.16,26.33-1.69,10.16-1.75,18.17.06,28.19.89,16.34,1.35,33-.17,49.39-.09,6.42,0,13.12.17,19.28,2.19,5.73,1.88,14.55,8.11,12.63,15.53-1.42,5.49-13,10-17.51,11.36-8.3,2.52-17.15,4.22-25.58,6.37-17.93,4.58-35.71,4.85-53.73,8.37-8.21,1.6-16.48,3.15-24.74,4.49-9.66,1.57-18.26,4.08-27.66,6.45-19.18,4.84-39.53,3.24-59.11,4.23-16.52.84-33.74,2.09-49.91,5.62-19.75,4.32-41.11.77-61.24,1.18-8.35.17-16.28,2.78-24.59,2.81-9.77,0-19.56-1.05-29.34-1-8.49.07-16.39,2.19-24.69,3.65-10.46,1.85-21.11,1.59-31.64,3-18.11,2.42-36,4.23-54.2,6.75-20.36,2.82-40.66,7.08-61.12,9-9.84.92-19.75.28-29.55,1.47-9.28,1.13-18.4,3.92-27.78,3.93-17.41,0-34.83,1.94-52.21,3.69-8.12.82-17-.61-24.89,1-5.11,1-8.89,2.24-14.27,2.22-4.69,0-9.35-.48-14-.06-18.09,1.6-35.41,4.75-53.22,8.26-8.14,1.61-16.67,1.56-24.68,3.54-7.73,1.9-15.24,1-23,3-8,2-16.66,1.82-24.86,3.46-9.55,1.91-18.89,4.87-28.52,6.35-8.93,1.36-18,1.26-26.94,2.72-9.59,1.57-19,4.93-28.29,7.8-10.75,3.32-25.28,9.14-28.62,21.19-3.57,12.85,9,21.15,19.81,23.66,18.87,4.36,38.78,1.56,57.93,1.92,8.51.16,16.78,2.21,25.23,2.45,10,.27,19.45-3.14,29.43-2.53,8.23.49,15.81,2.39,24.19,2.56,4.9.1,9.88,0,11.75,5.12,1.73,4.77-.48,8.45-3.74,11.73-14.79,14.87-34.07,17.07-53.74,17-18.84,0-37.54,4.57-56.46,4.67-18.57.1-36.68,1.5-55.18,2.2-9.36.36-18.56,2.13-28,2.31-10.73.2-21.47.06-32.2.06-9.55,0-19.14-.54-28.69-.35-9.19.18-18.16,2.27-27.35,2.6-8.46.3-16.37,2.92-24.82,2.9-9.75,0-19,1.13-28.68,1.56-8.9.39-17.76,2.61-26.6,2.58s-16.85,1-25.58,1.88c-8.29.81-16.13,0-24.46,1.51-10,1.79-20,3.35-29.91,5.47-9.55,2.05-19.13,3.13-28.79,4.5-10.43,1.47-20.42,4.56-30.72,6.61-18,3.58-36.92,8-55.2,4.33-2.88-.58-15.35-1.56-16.53-4.72-1-2.7,5-6.82,6.93-7.84,4.82-2.55,10.73-2.84,16-3.93,9-1.86,17.77-4.13,26.86-5.65s18.49-1.35,27.4-3.28c17.81-3.86,35.15-8.7,53.17-11.89,8.81-1.56,17.4-4.78,26.36-5.5,3.73-.3,7.42.1,11.12-.57,5-.89,9.41-3.27,14.31-4.42,8.11-1.89,14.75-2.19,21.81-6.88,8.4-5.56,18.25-7.6,27.57-11.11,14.9-5.6,65.71-23.36,53.59-47.87-4.87-9.86-18.07-15-28.37-15.78-17.07-1.23-34.52,1.27-51.39,3.14-18.56,2.06-36.61,7-55,10-19.86,3.16-39,10-59.26,10.14-18.79.16-36.73,2.81-55.38,4.31-8.52.69-20.2-1.32-26.93-7-11.19-9.41,5.61-18.92,13.35-21.92,16-6.2,53.74-9.66,50-35.21-3.37-22.79-38-14.47-52.33-12.3-8.77,1.33-17.26,3.24-25.94,5-10.06,2-20,.51-30.09,1.26-18.59,1.38-37.42,5.47-56.12,4.72-8.69-.35-16.38-.36-24.77,2-9.7,2.71-18.88,1.39-28.71,2.69-8.31,1.11-16.48,4.45-24.94,4.55-9.14.12-17.59,1.59-26.69,2.19-8.81.58-19.82-.89-28.65-1.76-7.7-.76-15.51-3-22.86-5.35-6.73-2.19-15.31-5.26-19.94-11-5-6.11-6.08-19.61-.15-25.29,13.06-12.47,36.48-13.56,52.81-19.21a80.63,80.63,0,0,1,24.6-4.32c8.86-.27,17.55-2,26.39-2.49,7.84-.48,15.19-2.74,22.89-4.08,7.9-1.36,15.74.52,23.6-1.1,16.34-3.37,33.28-2.36,49.95-2.66,6.57-.12,6.58-10.07,0-10.21Z"/><path class="cls-1" d="M532.5,506.84c6.56,0,6.57-10.21,0-10.21s-6.58,10.21,0,10.21Z"/><path class="cls-1" d="M505.3,104.24c-6.12,0-12.67.62-18.19-1.12A176.56,176.56,0,0,1,469,95.83c-15.31-6.9-36.62-22.65-24.59-41.67,4.84-7.66,16.84-15.25,25.59-15.88,11.71-.85,22.33-4.56,34.3-4.53,19.36,0,39.41-1.55,58.73-.08,7.11.54,13.39,2.35,20.74,2.36,7.64,0,15.29-.05,22.93,0s13.82-2.32,21.41-2.27c7.39,0,15.32.73,22.63-.19,33.7-4.25,68.87-2.08,103-2.08h99.36c13.5,0,28.25-1.56,41.05,1.77,11.67,3,27,.39,39.11.49A74.91,74.91,0,0,0,948.78,32c3.76-.72,7.63.32,11.25-.38s6-2.06,9.61-2.4A88.33,88.33,0,0,0,982.78,27c7.69-1.91,14.1-2.34,22.22-2.34,3.61,0,7.34.28,10.93.08,4.53-.25,8.28-2.17,12.76-2.41,8.74-.46,17.25.57,25.7-1.08A77.15,77.15,0,0,1,1066,20.2c4.89-.26,9-2.3,13.93-2.42,8.73-.22,16.63-2.23,25.52-2.22,4,0,8.59.52,12.56-.19,4.76-.85,8-2.12,13.08-2.07,30.49.29,61,0,91.49,0h20.49c3.37,0,6.74,0,10.11,0,5.06.05,8-1.12,12.65-2.07,6.43-1.33,14.48-.2,21.07-.2,7.34,0,14.77-.34,22.11,0s14,2.32,21.54,2.3c7.37,0,14.8-.65,21.85,1.14,15.48,3.92,34.87,1.13,50.9,1.13H1458c9.27,0,18.58.27,27.85,0,4.84-.11,8.92-1.95,13.65-2.44,5.93-.61,12.33.12,18.3.12,8.44,0,17.71,1.14,26,.12,4.77-.59,8.8-2.31,13.7-2.45s9.78,0,14.65,0h24.63c7.82,0,17.46,1.53,25-.5,14-3.76,30.61-1.77,45.35-1.77,6.85,0,13.75.24,20.59,0,7-.25,13-2.25,20.35-2.26q59-.06,117.89,0h48c20.36,0,40.61-1.24,60.29,3.4,7.42,1.75,15.47,2.2,22.94,3.42,5,.81,10.25,1.54,15.2,2.79,5.49,1.38,7.63,4,11.89,7.22,2.91,2.24,7.76,3.21,8.91,7.27,1.57,5.58-5.64,8.29-9.49,10.62a64,64,0,0,1-25.57,8.48c-4.11.44-7.41,2.1-11.56,2.36-4.57.28-9.4-.71-13.95-.21-8.34.93-16.24,3.9-24.42,5.81-17.53,4.09-35.35,6.54-52.38,11.93-17.29,5.48-35.31,8-52.92,11.43-7.18,1.42-15.2.51-22.51.51-12,0-24.1.16-36.15,0-3.74,0-5.45-.86-8.88-1.76-3.75-1-7.66-.45-11.53-.51-3.64-.06-5.57-.88-8.94-1.76-5.1-1.33-10.85-.52-16.13-.51-2.77,0-6.21.6-8.92.12-3.3-.58-5.6-2.24-9.05-2.44-8.26-.5-16.72.05-25,.05-7.63,0-13.73.11-20.9,1.77-4.45,1-8.88,1.2-13.18,2.27s-9.13.52-13.65.51c-3.77,0-7.84-.51-11.55-.06-3.44.42-6.07,1.91-9.48,2.45-8.42,1.32-18.26-.12-26.79-.12-18,0-36,.09-54,0-8.31,0-15.15,2.31-23.31,2.27-3.2,0-7-.49-10.21-.08-5.1.65-9.38,2.48-14.81,2.41-21.9-.29-44,2.92-65.35,7.33-5.72,1.19-47.75,19-40.18,27.86,3.57,4.17,17.22,4.63,22.27,5.65,10.21,2.05,20.73,3.76,31.17,5,6.33.73,11.47,2.45,18,2.16,5.88-.26,11.32-2.24,17.16-2.47,7.94-.3,16,.09,24,.09h44.22c6.16,0,13.31-1,19.25.5,9,2.36,17.78,1.27,27.37,1.69,6.14.27,11.48,2.34,17.7,2.41,3.16,0,6.33-.06,9.49-.05h63.67c13.56,0,27.39.78,40.92.05,3.48-.19,5.78-1.86,9.1-2.44,2.83-.5,6.2.11,9.09.11,10.16,0,20-1.48,30.07-2.15,6.08-.4,11.46-2.45,17.68-2.45,6.06,0,12.13,0,18.19.06,12.44,0,24,2.34,36.33,2.28,10.77-.06,21.21,1.63,31.94,2.21,4,.22,7.43,2.07,11.38,2.45a166.53,166.53,0,0,1,17.61,2.15c9.16,1.88,19.07,4.38,28.36,4.6,11.58.27,20.68-2.2,31.77-4.59,10.74-2.32,21.08-1.27,31.82-2.79,11-1.56,22.82-3,34.12-1.88,10.89,1,22,2.77,32.57,4.47,7.11,1.13,14.37,1.27,21.49,2.34,4.41.66,8.21,1.94,12.79,2.33,4.14.36,8.18,1.61,12.24,2.62,7.91,2,14.82,2,23.11,2,11.78-.06,22.93,2.26,34.76,2.27q17.07,0,34.13,0h126.47c10.19,0,20-.59,29.9,1.71,8.65,2,17.32,3.65,25.87,5.33,6.21,1.22,16.9-3.2,21.48,1.77,6.92,7.5,0,18.49-7.38,22.39-7.83,4.13-18.94,5-27.46,6.77-4.54.91-9,.38-13.63.45-6.14.1-11.46,2.25-17.63,2.38-9.83.2-19.71-.05-29.55-.05-4.67,0-9.36-.11-14-.06-7.65.09-14.68,2.49-22.34,2.38-6.1-.08-12.21-.17-18.3-.1-5,0-8.87,1.78-13.65,2.44-2.9.4-6.05-.39-9-.17-5.3.39-11.93-.95-17.41-.67-4.92.25-9.16,2-14,2.39-5.42.47-11.2-.12-16.65-.12-4.32,0-8.71-.23-13,0-6.3.26-11.76,2.46-18.19,2.38-5-.07-10.34-.72-15.28-.17s-9.38,2.26-14.44,2.44c-9,.32-17.73,2.18-26.62,2.27-5.32.06-10.65-.24-16-.1-4.64.12-7.83,1.73-12.27,2.44-11.33,1.83-24.61-.07-36.09-.11-7.17,0-13.4,1.95-20.36,2.32-7.47.4-15.19-1-22.57.45-5.54,1.06-9.9,1.89-15.57,1.77-4.78-.1-8.09,1.28-12.77,2.08-7.51,1.28-13.9.21-21.29,3-6.83,2.61-14.05,7.84-11.72,16.59,2.13,8,11.18,11.57,17.26,15.33,4.17,2.59,5.9,4.56,10.65,5.77,3.79,1,7.72,1.41,11.52,2.26,7.54,1.68,14.73,6.52,22.67,6.41,6.59-.09,11.79,2.33,18.39,2.27,8.23-.08,17.85-1.34,25.92.19,36.4,6.93,73.47-2.46,110.08-2.46,15.63,0,29.43-1.45,43.42,6.74,9.92,5.81,10,10.83,1.18,17.65-6.92,5.36-19.5,8.59-28,10.75-7.41,1.9-14.73,3.3-22,5.12s-15.35,1.08-22.73,2.72-14.05,1.69-21.1,4.61c-6.6,2.73-18.77,5.56-21.54,13.19,1.45,2.67,7.67,5.7,10.5,7.21.43,5.24-8.14,8.18-12.33,8.67-7.36.86-14.31.63-21.68,2.47a79.6,79.6,0,0,1-20.83,2,67.31,67.31,0,0,1-13.25-1.83c-5.39-1.08-10.5.14-15.86-.38-8.89-.87-17-3-26.25-2.48-3.44.18-6,1.61-9.25,2.16-4.58.79-9.75.2-14.44.2-9,0-18.3-.67-27.3-.12-9.9.61-19.66,4.24-29.62,4.79-15.59.86-30.84,2.15-46.59,2.15-6.43,0-12.86,0-19.29,0-8.74,0-16.58,1.4-25.07,2.27-7.07.74-14.8,1.33-21.79,2.47-9.23,1.5-18.92,4.07-28.25,4.44-6,.24-12.19-.82-18,.42-8.47,1.81-16.41,1.3-25.16,1.72-5.49.26-10.34,2.26-15.92,2.31-5.85.06-11.72.07-17.58,0-8.1-.06-15.2,2.41-23.27,2.27-10.45-.19-20.28,2.37-30.8,2.27-7.71-.07-14.22,2-21.63,2.33-2.58.13-5.25-.38-7.82-.14-3.62.34-6.83,2-10.43,2.47-10.9,1.4-22.2-1.63-32.85,1-5,1.25-9.84,1.18-15.13,1.15-8.62-.05-16.54,2.25-25,2.2-8.75,0-17,2.38-25.81,2.33-7.2,0-14.4,0-21.6,0-2.74,0-6.42-.65-9.09-.12-2.45.49-4.36,2.07-6.83,2.51-4.91.87-10.89-.1-15.91-.11-2.07,0-4.94-.75-6.88.22-3.64,1.82-3.71,7.13-5.82,10.09-4.74,6.63-12.29,10.37-18.08,15.83-10.35,9.74-18.86,23-32.88,26.7-11.5,3-23.17,8.43-35.05,8.54-6.06.06-10.89,2.34-17.2,2.27-8.05-.09-15,1.72-22.66,2.33-14.51,1.17-29.64,0-44.21,0-7.65,0-13.94,1.57-21.35,2.39s-15.8-.12-23.31-.12c-8.15,0-16.29.08-24.43,0-10.24-.09-19.8,2.38-30.07,2.27-9-.11-17.29,2.15-26.16,2.29-6.11.1-12.24,0-18.35,0-13.55,0-26.15,2.26-39.57,2.27-16,0-31.79,2.18-47.49,4.33-14,1.92-27.66,1.28-41.62,2.38-4.92.38-9.45,2.25-14.41,2.47-3.8.17-7.63-.37-11.43-.14a95,95,0,0,0-20.41,3.49,126.74,126.74,0,0,1-17.59,3.51c-3,.39-6.1-.58-9.08-.24-3.82.44-6.9,2.16-10.7,2.45-3.24.24-6.58-.18-9.83-.11-4.14.09-5.94,1.34-9.63,2.13-5.71,1.23-12.38,0-18.24.17-8,.21-16,2.5-23.86,4.06-4,.8-7.79.13-11.81.39-5.23.33-10.74,1.92-15.92,3-9,1.78-17.93,2.62-27,4.24-9.74,1.75-19.3,5.07-29.1,6.35-8.76,1.14-16.62,3.19-25.33,5.39s-17.76,2.81-26.59,4.42c-12.47,2.27-26.18-.26-38.35,2.91-6,1.57-11.31.47-17.36,1.2-7.49.91-14.2.16-21.66,1.71-6.46,1.34-12.45-.17-18.77,2.15a95.77,95.77,0,0,1-24.6,5.29c-11.72.91-24.38-2.13-35.64,1-5.23,1.46-12.22.79-14.94-3.31-2.43-3.68-2.09-5.41-1-9.2,1-3.54.67-6.06,1-9.6.8-7.84,3.85-11.42-1-18.92-3.37-5.22-9.38-5.95-14.8-8.71-11.06-5.62-23.56-3.7-35.76-3.69-8,0-14.83.24-22.5,2A101.77,101.77,0,0,1,389.26,468c-5.81,0-12.4,1-18.1.17-5.92-.81-10.71-4.67-17-5.15a39.07,39.07,0,0,1-7.22-1c-8-2.11-9.35-7.07-10.75-14.51-.23-1.22-1.37-4.45-1.28-5.74.15-2.28,1.55-2.73,1.95-4.68,1-4.84.29-7.55,2.23-11.85-7.87-2.4-18.77-.34-27-.46-4.76-.06-6.94,1.66-11.27,2.32-5.07.78-10.87,0-16,0H257.47c-9.65,0-17.76-2.26-27.29-2.27-4.54,0-9.1-.07-13.64,0-5.07.06-8.75-2-13.63-2.31-4.2-.29-5.54,1.6-9,2.43-4.62,1.12-11.23-.11-16-.11-7.81,0-15.69.53-23.25-1.13-2.11-.47-4.33-.72-6.37-1.16-1.48-.31-4-1.55-5-1.76-5.13-1-10.39-1-15.41-3.22-7.09-3.17-11.27-11.1-14.25-17.75-2.69-6-.91-5.22,2.37-9.6.78-1,1.41-3.35,2.11-4.54,1.93-3.32,4.29-4.57,7.05-6.93,2.43-2.09,3.92-4.68,7.21-5.76,2.5-.82,4.61.22,7-.32,2.07-.48,2.25-2,4.31-2.52,4.26-1,9.45.74,13.82.17s6.65-2.39,11.32-2.32c4.06.06,9.85,1.05,13.75.11,2.06-.5,2.26-2,4.31-2.51s4.82.28,6.94.17c9.19-.46,17.65-4.79,27.29-4.61,5.09.1,8.74-2,13.64-2.31,4.5-.25,9.13.05,13.64.05,9.61,0,17.78-2.34,27.29-2.28,2.44,0,4.49-.45,6.82-.62,2.52-.18,4.45.9,6.82.81,2.53-.11,4.33-2.13,6.82-2.58,2-.36,4.74.11,6.82.12,9.85.07,19.71-.08,29.56,0,8.55.07,16.45-2.34,25-2.27,4.55,0,9.09,0,13.64,0,5.88,0,10.33-1.65,15.92-2.28,8.33-.92,16.77-2.93,25-4.66,2.16-.45,4.67.44,6.87.17s3.43-1.48,5-1.82c5.14-1.11,10.28-.24,15.53-1.65,6.77-1.82,15.53-2,22.62-2.34,8.66-.46,18.54-.55,27.28-2.83,8.55-2.23,18.19.83,26.78-1,1.54-.33,2.83-1.54,5-1.82a50.84,50.84,0,0,1,6.87.05,67.65,67.65,0,0,0,13.65-1.13c17.14-3.31,34.76-2.61,51.79-6.2,1.51-.32,2.84-1.54,5-1.83s4.27,0,6.54-.51c1.09-.22,3.43-1.6,6-1.73,3.09-.15,18.72-.51,14.5-8.55-1.32-2.52-10.75-4.53-13.35-5.13-4.37-1-7.19-1.52-11.37-3.86a55,55,0,0,1-10.8-8c-3.13-2.94-6.73-5.22-9.78-7.91-2.84-2.52-4-5.9-4.48-9.67-1-7.86,1.93-9.69-6.78-7.37-5.2,1.39-10.69-.54-15.9.38-5,.87-8.35,2.43-13.65,2.39s-10.68.44-15.9.06c-4.7-.34-9-2.05-13.66-2.39-4-.3-9.68-.79-13.64-.06-2.7.5-4.57,2-7.33,2.51-4.21.75-8.87-.74-13.12-.24-6.49.77-11.49,2.39-18.2,2.4h-52.8c-5.49,0-11.09.31-16.57,0-4.65-.25-6.8-1.85-10.71-3.95-7.59-4.06-17.65-8.7-21.22-16.55,2.23-1.88,1.66-5.87,4.11-8.51,3.09-3.34,7-5.72,10.84-8,7.74-4.58,16.24-8,25-8.41,4.14-.18,7.21-2.21,11.35-2.39A36.64,36.64,0,0,0,418.9,227c7.57-2.64,16.14-2.15,23.28-6.14,5.52-3.09,4.05-6.05-1.67-7.33-1.91-.42-3.85.35-5.7,0-2.49-.53-4.3-2.08-6.82-2.52-4.37-.77-9.25.65-13.69.18-4.76-.51-8.61-2.36-13.59-2.33-8.62.06-19-1.72-27.29.5-10.09,2.69-21.13,1.78-31.83,1.77-9.57,0-17.69-2.3-27.16-2.27-4.54,0-9.38.65-13.76-.51-5.56-1.47-10.18-.94-15.92-1.7-4.93-.66-8.57-.07-13.64-.08-5.84,0-10.25-1.63-15.92-2.38-9.34-1.24-20.1.12-29.56.12-5.13,0-10.27,0-15.41,0-5.58,0-8.92,1.47-14.14,2.39-10,1.75-19.69-2.45-29.55-2.39-9.1.05-20.89-2.2-29.69-.12-3.63.86-7.31,3.16-11.25,4.16-4.35,1.1-9.14.5-13.64.51-5.32,0-10.87-.63-16-.63-4,0-8.88.65-13.53.63-5.27,0-10.65.33-15.91,0-4.87-.27-8.61-2.39-13.65-2.32s-11.07,1-15.91.11c-2.53-.45-4.29-2.12-6.82-2.52-4.22-.66-5,.59-8.59-2.1-3.4-2.54-8.42-6.17-11.3-9.59-3.21-3.83-1-10.59-4.06-13.19,2.12-2-.66-2.13-.55-4.56.17-3.68,0-2.05,1.21-5.1a27.22,27.22,0,0,1,5-8.48,61.21,61.21,0,0,1,25.12-17.74c14.56-5.18,28.32-14.25,44.34-16.5,4-.57,8,.43,12-.42,1.52-.33,2.84-1.54,5-1.82a37.33,37.33,0,0,1,4.6,0c4.46,0,9.33.61,13.64-.51,4.56-1.18,9.09-1.08,13.64-2.27a42.8,42.8,0,0,1,12.51-1.77c4.13,0,8.51.54,12.5-.5,9.12-2.39,17.51-4,27.28-4.05q52.31,0,104.59,0c8.25,0,17.24-1.21,25-.62,8.23.63,16.64.62,25,.62h25c4.4,0,9.28.63,13.64.07,4.89-.63,8.84-1.59,13.64-2.46,9.05-1.65,20.35.12,29.56.12h27.28c9.21,0,19.12.93,27.91-1.14,3.53-.84,7.2-.74,10.74-1.64,2.69-.68,3.89-1.68,6.82-1.83,2.51-.12,4.91.81,7-1-.48.09-.53-.31-.16-1.19"/><path class="cls-1" d="M505.3,97.86a75.39,75.39,0,0,1-45.59-15c-6-4.44-12.87-11-11.78-19.13,1.22-9,11.69-15.85,19.77-18,36.75-9.68,76.65-4.7,113.89-2.7,18.23,1,36-2.41,54-2.05,18.4.37,36.75-2.65,55.18-3,39.75-.68,79.6.41,119.36.37,19.13,0,38.26,0,57.4-.34,17.62-.34,34.35,4,52,3,16.32-.89,32.61-1.32,48.53-4.75a256.88,256.88,0,0,1,25.61-4.48c8-.88,16.06.3,24-.64,17.17-2,34.65-2.19,51.85-4.82,8.4-1.28,16.7-2.47,25.18-3.41,8.9-1,17.93,0,26.73-1.57,18.64-3.42,38.72-1.38,57.66-1.44q28.9-.11,57.8-.16c15.76,0,30.94-2.79,46.58-2.39,18.7.47,37.23,1.74,55.9,2.17,8.85.21,17.38,2.58,26.22,3.12s17.43-.06,26.13-.44c19.75-.84,39.59-.36,59.35-.38,9.24,0,18.48.15,27.72.11,8.92,0,17.24-2.57,26.05-2.77,17-.38,33.07.75,50-1.61s35.58-.45,52.64.05c7,.2,13-.86,19.79-2.06,10.43-1.85,21.09-1.09,31.61-.82,18.18.48,35.84-2,53.85-2.13,21.22-.19,42.45,0,63.67,0q58.56,0,117.13-.15c19.15,0,37.18,3.43,56,5.92,7.82,1,18,1.3,25,5.17a39.79,39.79,0,0,1,7.53,5.64c3,3,4.13,2,.61,5.3-12.28,11.49-34.91,9.86-50.09,11-8.21.62-16.11,3.52-24,5.52-10.11,2.54-20.4,4.31-30.6,6.45-19.11,4-37.58,10.15-56.8,13.74s-37.15,4-56.6,4c-17.76.06-34.52-2.31-52-4.51-6.63-.83-13.3.8-19.87.22-8.42-.74-15.73-2.89-24.44-2.78-9,.11-18.24-.2-27.19.91-8.73,1.07-17.38,3.74-26.19,4-7.24.23-14.52-1.13-21.68.36a105.32,105.32,0,0,1-27.36,1.92,672.7,672.7,0,0,0-105,4.1c-28.62,3.35-57.74,1.49-84.64,13.68-8.8,4-39.79,17.31-28.65,31.72,5.79,7.5,19.28,6.8,27.65,8.27,16.1,2.81,34.36,8.11,50.76,6.69a642.92,642.92,0,0,1,110.13-.38c34.61,3,69.21,2.7,104,2.67,17.44,0,36.58,2.7,53.61-1.28,15.6-3.65,32.91-1.48,49-4.15,19.1-3.17,38-.6,57.17.52,18.87,1.1,37.15,3.32,55.86,5.29,18.16,1.92,35.33,7.87,53.78,5.6,8.39-1,16.52-3.46,24.88-4.66,10.41-1.49,21-1.37,31.45-2.71,19.95-2.56,38.41-.28,58.21,2.67,17,2.52,33.67,4.52,50.48,8,7.53,1.55,15,1.65,22.67,1.77,10.17.17,20.21,1.71,30.35,2.13,18.85.78,37.87.06,56.73,0,39,0,78-.22,116.94-.18,18.25,0,35.9,8.07,53.93,7.09,5.25-.29,6.82-2.19,9.17,3.44,2.91,7-3.39,10.38-9.79,12.42a104.11,104.11,0,0,1-26.35,4.42c-18.1.72-35.78,2.25-54,2.09-7.76-.07-15.41-.26-23.12.77-10.63,1.43-20.91.69-31.56,1.27-6.69.36-12.94,2.22-19.65,2.25-8,0-16.06-1.39-24-.38-16.35,2.1-32.81.39-49.09,2.85-8.54,1.29-16.85.12-25.36,1-9.73,1-19.38,2.7-29.15,3.69-8.39.85-16.62.36-25,.6-8.19.24-15.86,3-24.08,3.14-8.77.15-17.51-1.12-26.27-1-9.9.17-19.44,2.32-29.41,2.15-16.56-.27-32.69,3.5-49.08,5-11.27,1-24.93,2.89-31,14-5.66,10.27.14,21.22,8.8,27.4a142.47,142.47,0,0,0,16.43,10.17c7.21,3.72,15.54,3.82,23.14,6.46a125.53,125.53,0,0,0,46.59,6.9c18-.7,35.83,3.59,54,3,19.91-.6,39.67-3.45,59.56-4.42,8.19-.4,16.42-.47,24.61-.43,7.54,0,22.72-.46,28.22,5.87,3.87,4.46.24,5.7-4.14,8-4,2.12-8.64,3.41-13,4.68-8.37,2.42-16.9,4.32-25.41,6.19-15.92,3.5-32.63,3-48.17,8.46-9.67,3.4-20.92,6.84-25.87,16.58a7.6,7.6,0,0,0,1.13,8.8c3.21,3.78,7.64,6.05,12,8.32l-3.32-8.18c-.87,5.61-18.87,4.44-22.65,5-7,1.06-13.68,2.77-20.89,2.95-6.72.17-12.94-1.42-19.57-2-8.38-.71-16.59-.52-25-1.61-13.41-1.74-25.45,1.71-38.79,1.44-15.87-.32-30.48.18-46,3.07-32.14,6-65.28,2.06-97.63,5.8-29.71,3.43-59,8.4-88.88,9.49-31.33,1.14-62.49,5.91-93.86,7.35-12,.55-25.09.89-36.84,3.26-9,1.82-16.79,1.5-25.93,1.55-7.93,0-15.55,1.91-23.44,2.35-14.45.82-28.94,1.87-43.31,3.71s-29.34-.95-43.59,1.18c-4.56.69-8.44,2.47-13.23,2.63-3.8.13-7.7-.79-11.49-.58-3.54.2-6.63.9-9.14,3.58-3.37,3.59-4,8.83-7.4,12.55-5,5.43-11.73,9.09-17,14.32-9.49,9.5-16.71,19.38-30,23.72a255.89,255.89,0,0,1-43.24,9.7,316.53,316.53,0,0,1-46,3.61c-7.39,0-14.79-.39-22.18-.41-10.05,0-19.56,2.21-29.54,2.76-13.18.72-26.65-.28-39.87-.33-17.11-.05-34.56,1.9-51.58,3.54-16.27,1.57-32.74.51-49.08,1.79-16,1.24-31.93,1.08-47.88,2.9-16.58,1.9-32.84,3.29-49.51,4-7.17.29-13.74,1.52-20.8,2.45-8,1-16,.11-24,1.34-6.48,1-12.66,2.93-19,4.28-6.72,1.41-13.14.73-19.8,1.52-12.93,1.53-26.53,4.86-39.6,4.55-14.56-.34-28.54,3.17-43,4.1-15.85,1-33.13,4.88-48.63,8.17-32.06,6.81-63.84,15.39-96.74,16.31-8.69.24-17,2.11-25.57,2.69-9.15.62-18.37.58-27.5,1.53C576,503,568.1,503,560.59,505c-9.17,2.42-17.37,5-27,5.26-8.67.23-17.29-1.19-26-.2-2.28.26-5.13,1.19-7.28,1.27-7.38.28-8.87-3.6-8-10.21,1.4-10.8,4.68-23-4.19-31.57s-24.82-11.81-36.44-12.11a220.47,220.47,0,0,0-44.3,3.37,159,159,0,0,1-29.1,2c-8.2-.12-14.75-3.68-22.66-5.21-8.33-1.62-14-4.11-14.48-13.27-.24-4.76,1.68-12.7,3.34-17.54a5.68,5.68,0,0,0-3.93-6.93c-16.36-3.73-31.75,2.23-47.8,2.43-11,.13-22.05.08-33.05.1-10.68,0-21.15-2.16-31.83-2.37-8.71-.17-18.23-3-26.72-2.32-3.62.3-6.67,2.17-10.25,2.62-4.8.61-10.18-.55-15-.61-9.43-.12-18.38-.36-27.57-2.76-11.7-3-21.65-3.53-27.81-15.55-2.74-5.34-1.29-4.23.37-8.29,1.85-4.5,4.47-7.26,8.27-10.32,4.52-3.65,13.52-6.72,19.57-7.13,3.43-.23,6.78.68,10.24.17,4.61-.67,8.36-1.94,13.11-1.93,8,0,14.13-1.95,21.69-2.4,9.25-.55,18.06-3.77,27.29-4.6,10.51-1,20.73-1.79,31.32-2.4,8.93-.5,17.74-2,26.7-2.38,3.9-.16,7.87.57,11.71.23,4.09-.37,7.92-2,12.12-2.25,9.8-.6,19.74.27,29.56,0,11.42-.3,22.63-2.1,34.1-2.27,18.6-.27,38.53-4.38,56.63-7.84,37.15-7.13,76-6.92,113.37-10.71,19.53-2,40.44-3,59.53-7.6,6.26-1.49,12.67-2.75,19-3.65,4.33-.6,9.09-1,12.68-3.75,8.67-6.76,2.37-15.9-5.77-18.88-6-2.2-12.53-2.59-18.31-5.54-4.21-2.15-7.63-5.47-11.2-8.49-6.38-5.39-9.43-8.22-11.08-16.79-.78-4-.68-7.45-5.22-9.13-2.76-1-6,.26-8.71.57-5.37.61-10.74-.3-16.12.53-11.33,1.74-21.68,3.17-33.14,1.16-8.67-1.51-16.89-2.5-25.55-.61-9.92,2.17-21.05,2.71-31.35,3.67-12.16,1.14-24.79.21-37,.21-20.57,0-50.68,4.21-63-17.44v6.07c5.85-9.53,11.84-15.05,22.42-19.09,9.83-3.74,20.85-4.06,31.09-6.25,8.87-1.89,37.32-4,36.5-17.73-.3-5.05-5-7.53-9.37-8.72-8.12-2.23-16-2.42-24.39-2.52-8.16-.1-16.45-2.29-24.71-2.64-11-.46-20.48,1.8-31.25,2.53a171.42,171.42,0,0,1-30-.62c-10.52-1.15-21.13-.9-31.56-2.25a192.76,192.76,0,0,0-25.52-1.65c-10.81,0-21.18-2.95-32.08-2.75-9.51.18-19,.48-28.53.63-11.5.18-21.83,3.45-33.4,1.7-15.88-2.41-35-5.39-50.36.26-12.35,4.54-24.69,1.68-37.57,2.17-11.24.43-22.1,1.28-33.2-.84a54.72,54.72,0,0,0-12.66-.59c-6.16.23-10.93-1.15-16.79-2.7-5-1.32-10-3.07-13.4-7.48S14,181,11,176.42v5.7c2-4,.06-5.76.67-9.65,1.39-8.93,13.92-17.27,21.1-21.05,6.81-3.58,14.39-6,21.41-9.18,8.92-4,18-8.43,27.84-9.45,14.55-1.5,29-1.79,43.54-4.23a178.17,178.17,0,0,1,23.36-2.5c8.62-.34,16.8-3.41,25.4-4.24,18.35-1.77,37.4-.39,55.83-.38,19.63,0,39.31.43,58.93,0,32.35-.75,66.51,4,98.42-1.52,9.37-1.63,18.41-.5,27.82-.15,10.27.38,20.56.08,30.83.21,9.4.12,18.47.41,27.79-.91,8.65-1.23,18.31-1.89,26.5-4.71,3.87-1.34,5.34-4.56,4.81-8.47l-.17-1.19c-1.19-8.74-14.45-5-13.27,3.66l.16,1.19,4.81-8.47c-16.58,5.72-35.61,5.64-52.9,5.66-17.75,0-36.94-2.38-54.5.19-35.74,5.21-73.05,2.83-109.21,2.84H218.81c-19.07,0-38.74-1.53-57.52,2.42-8.69,1.83-17.1,1.46-25.8,2.71-9.17,1.32-18.17,4.06-27.49,4.18-14.48.17-29.89,1.3-43.64,6.42-16,6-35,12.58-48.33,23.56-8,6.61-21.1,20.32-14,31.52v-5.7c-5.84,11.71,6.39,25,15.23,31,5.21,3.55,12,5,18.16,6.22,4.54.89,9,.26,13.51.24,5.55,0,10.56,1.34,16,2,8.54,1,17.5.2,26.08-.24,9.83-.51,19.65,1,29.47.53,9.54-.5,17.44-5.59,27.16-5.6,11.41,0,22.91,1.42,34.15,3,9.29,1.29,16.5-.63,25.53-1.62,10.81-1.19,22.17-.48,33.07-.8,10.5-.32,20.29,2.5,30.66,2.81,10.65.31,20.75,1,31.37,2.16,8.47.9,17,.26,25.49,1.3A196,196,0,0,0,359.74,217c9.89-.42,19.28-3.13,29.23-2.77,9.67.34,19.15,2.87,28.73,2.88,2.29,0,4.65-.66,6.93-.46,2.87.24,5.87,2.45,8.6,2.54a36.08,36.08,0,0,0,4.41.22l1.53-3.72a29.29,29.29,0,0,1-8.08,2.57c-10.81,2.55-21.75,4.81-32.65,6.9s-20.4,3.92-30.26,9.65a57.16,57.16,0,0,0-9.61,6.62c-4.08,3.66-4.69,7.49-7.51,12.06a6.07,6.07,0,0,0,0,6.07c6.15,10.87,21.78,20.75,34,23.07,9.08,1.72,19.26.41,28.46.42l35.07,0c9.51,0,18.38-1.71,27.75-2.24,4.5-.25,8.88.6,13.37,0,5.94-.78,10.68-3,16.88-2.56,8.45.55,16.32,2.78,24.88,2.68,10.06-.11,19.63-2.42,29.56-2.62,3.41-.07,9.07.57,12.3-1.28-3.5,2-1.41-6.13-3.77-.42-.33.81.29,3.44.43,4.26,1.73,9.79,8.59,14.21,15.84,20.18,5.55,4.57,10.82,8.95,17.69,11.44,2.8,1,5.72,1.51,8.6,2.24,1.41.35,3,.92,4.44,1.12,1.9.28,3.73-.54,2-.14-15.1,3.33-31.14,6.46-46.53,7.83-9.94.88-19.8,1.67-29.67,3.17-9,1.37-17.8.75-26.53,2.81-9,2.14-18.65-.13-27.91,1.48-11.12,1.93-22,2.27-33.25,3a409.34,409.34,0,0,0-54.43,7.69c-11,2.23-22.38,4.23-33.56,4.53-11.43.31-22.71,2-34.1,2.29-10.4.29-20.87,0-31.27-.1-7.91-.08-15.87,1.69-23.85,2.25-20.2,1.43-40.31,2.56-60.36,4.86-9.66,1.1-18.75,3.52-28.43,4.24-3.41.25-4.81,1.67-8,2.49-4.77,1.24-10-.4-14.91.19-3.14.38-6,1.57-9.18,1.9-4.27.45-8.57-.88-12.82,0-5.24,1.09-12.31,2.29-17,5.14-7.81,4.77-21.64,18.76-19.58,28.87,1.47,7.24,7.21,15.66,12.76,20.32,7,5.86,15.86,6,24.33,8A122.12,122.12,0,0,0,174,430c5.1,0,10.24.58,15.32.42,4.29-.14,8.11-1.73,12.33-2.18,5.06-.55,9.8,1.2,14.91,1.45,6.52.32,13.06-.29,19.59.17,11.74.84,23.18,2,35,2.12,11.22.13,22.93,1.71,34-.41,10.14-1.94,22.29-3.2,32.51-.86l-3.94-6.93c-6.21,17.88-6,41.1,16.87,44.6,7.18,1.09,13.49,4.55,20.63,5.48,6,.77,12.12.05,18.1-.16,16.26-.57,31.91-4.28,48.21-4.55,13.11-.22,44.21-1.87,45.15,17.39.49,10.26-7.32,21.95.26,31.12,7.07,8.55,17.52,4.67,26.7,3.71,8-.82,16,.65,24,.47,9-.21,17.59-2,26.21-4.35,30.65-8.19,64.41-5,95.83-8.63,34.77-4,68.69-13.92,103.24-19.44,14.86-2.37,29.89-3.64,44.57-6.69,8.71-1.82,16.67-1.73,25.46-1.85,6.88-.1,13.29-2.35,20.1-2.69,12.15-.6,24.71-1.52,36.7-3.91,7.89-1.56,15.46-4.21,23.5-5.06s16.09-.15,24.23-1.63c16-2.93,32.59-1.72,48.77-3.81,18.42-2.38,36.45-3.52,54.93-4.58,17.74-1,35.81-.88,53.47-2.38,17.23-1.47,34.53-4.16,51.84-4.66,14.62-.41,29.36,1.06,43.94.41,8.44-.38,16.68-2.35,25.15-2.56,8.84-.22,17.73.55,26.57.66,30.06.39,61.41-3.62,90.1-12.34,11.39-3.45,19.26-8.45,27.59-17,4.68-4.79,9-10,14.18-14.24s11.57-7.82,15.57-13.52c1-1.36,1.51-3.21,2.51-4.46,3-3.86,5.17-3.71,10.17-4,4-.23,7.94.76,12,0,3.32-.62,6.37-2.31,9.77-2.69,6-.67,13,.35,19.11.37,10.23,0,20-1.31,30.11-2.06,14-1,28.4-1.14,42.33-2.88,9.24-1.16,17.5-1.06,26.76-1.05,8.42,0,16.18-2.33,24.52-2.69,15.18-.66,30.37-2.88,45.56-4,16.59-1.24,33.1-1.57,49.68-2.51,17.23-1,34.56-4.35,51.85-4.4,17.91-.05,35.18-4.47,53-6.27,36.32-3.69,73.88,0,109.82-6.84,19.12-3.65,37.86.11,56.8-2.59,9.32-1.33,16.61-2.19,26.15-.85,7.13,1,14.1.62,21.21,1.19,8.83.71,16.73,2.73,25.74,2.13,8.53-.58,16.84-2.71,25.33-3.58,10.18-1.05,25.94-1.61,28-14.66.49-3.1-.29-6.58-3.33-8.18-3.27-1.72-6.58-3.2-9-6.08l1.14,8.8c5.71-11.14,30.31-13.35,41.11-14.76,17.47-2.29,34.42-4.86,51.42-9.93,10.92-3.25,28.48-9.26,30.18-22.58,1.65-13-15-20-25.11-22.6-16.05-4-34.43-2.43-50.76-1.38-19.87,1.28-39.64,4.14-59.57,4.45a193.39,193.39,0,0,1-31-2.21c-8.81-1.27-17.22-.43-26.06-.47a117,117,0,0,1-26-3.16c-3.84-1-7.41-2.91-11.19-4.09-5-1.55-10.4-1.59-15.27-3.3-5.91-2.07-13.42-6.7-18.26-10.64-13.14-10.7,7.92-14.8,16-15.52,17.44-1.53,34.27-4.82,51.85-5,9-.07,17.79-2.45,26.81-2.44,9.45,0,18.87,1.26,28.33.59,7.5-.53,14.57-2.94,22.08-3.15,10.77-.3,21.12-.73,31.88-1.75,8.24-.78,16.72-2.9,24.92-3.23s15.82,0,24.13-1.33c9.63-1.5,19.33-.51,29-.52,8.63,0,16.85-2.9,25.43-2.52,16.6.76,32.07-1.79,48.58-1.83,8.57,0,16.55-1.66,25-2.29,10.14-.76,20.54-.09,30.71-.06a298.49,298.49,0,0,0,52.59-4.16c12.64-2.24,27.51-4.35,34.11-17,4.55-8.73,2.65-20.52-7.56-23.89-5.67-1.86-11.49.38-17.23.14-10.46-.44-20.88-4.43-31.17-6.12-19-3.13-39.36-1.13-58.55-1.15l-60.93-.07q-29.85,0-59.71-.06c-18.95,0-39.21-.59-58-2.94-35.87-4.49-72.43-16.39-109-12.95-18.79,1.78-37.46,2.9-56,6.7-20.19,4.14-37.59-1.35-57.46-3.75-19.52-2.35-38.47-4.77-58.22-5.7-17.79-.84-35.8-3.91-53.63-1.78-9.18,1.1-18.23,2.53-27.47,3.33-8.38.73-17.51-.57-25.74.9-19.55,3.5-39.3,2.15-59.26,2.14-18.67,0-37.33-.11-56,0-7.58,0-14.73-1.52-22.23-2.22-9.9-.93-19.51-.51-29.4-2-17.51-2.62-36.68-.42-54.4-.42-8.94,0-17.89-.25-26.83-.19-10.94.06-21.41,3.44-32.32,1.78-16.07-2.45-32.15-4.9-48.19-7.52-1.07-.17-7.52-.65-7.85-1-.49-.47,1.25-1.85,3.22-3.42,4.25-3.38,9.35-5.92,14.18-8.35a102.54,102.54,0,0,1,29-9.67c10.28-1.88,20.62-3.38,31-4.23,9.08-.74,18.45,0,27.45-1.26,37.82-5.38,75.93-3.66,114.14-3.46,7.93,0,15-2.79,22.74-3.16s15.29.78,23-.48c19.25-3.15,41-7,60.38-3,6.69,1.37,12.2,1.44,19.07,1.34,8.46-.11,16.48,2,24.92,2.33,8.67.32,16.73,2.37,25.57,2.41,10.27,0,20.55-.21,30.82,0,38.2.77,75.48-13.75,112.56-21.31,9.23-1.88,18.24-4.34,27.37-6.62,8.83-2.2,17.37-.71,26.16-2.12,14.85-2.38,31.26-5.66,43.43-15.23,9-7.08,6.43-16.4-2.13-22.2-4.38-3-8.88-6.83-13.76-8.93-7.21-3.11-15.79-3.68-23.49-4.74-18.18-2.5-35.76-6.25-54.2-6.51-19.6-.28-39.23.11-58.83.11-42.82,0-85.65-.44-128.47,0-9.16.09-18,1.91-27.11,2.31-9.57.42-19.27,0-28.84-.26-17.93-.54-35.3,3.48-53,2.74-16.32-.69-34.52-2.17-50.72.13-9.17,1.31-17.37,2.42-26.71,2.09-9.11-.32-18.73-1.35-27.8-.28-38.54,4.53-78,1.61-116.88,2.94a127.83,127.83,0,0,1-27.57-1.7c-9.4-1.7-18.58-.84-28-1.59C1307.84,5.11,1289.41,3,1271,4.08c-7.17.41-13.9,2.48-21.12,2.6-9.83.16-19.68,0-29.51,0-20.59,0-41.18.11-61.77.08-35.7-.06-70.59,3.58-106,8-18.26,2.26-36.93,2.21-55.26,3.3-16.56,1-33.09,5.26-49.47,7.22-18.59,2.23-37.33,3.71-55.83.48-17.89-3.12-36.72-1.19-54.79-1.2-41.32,0-82.62-.12-123.94-.59a529.48,529.48,0,0,0-60.4,2.25c-8.35.86-16.48.21-24.83.43-8.74.23-17.22,2.19-26,2.23-39,.19-78.05-6.92-117,0-15.75,2.79-30.14,3.85-41.94,15.93-8.25,8.44-11.59,20.4-6.67,31.42,10.66,23.84,45.07,34.88,68.78,34.43,8.19-.15,8.22-12.82,0-12.75Z"/></g></g></svg>