<svg xmlns="http://www.w3.org/2000/svg" viewBox="0 0 2759.31 804.91"><defs><style>.cls-1{fill:#f9f5dd;}</style></defs><title>cloud_right</title><g id="Layer_2" data-name="Layer 2"><g id="Layer_1-2" data-name="Layer 1"><path class="cls-1" d="M2326,30c-8.67-.85-16.18,4.31-25,4.72s-18-.17-26.94-.17c-19.18,0-35.89-.43-54.39-4.16-27.59-5.55-61-.13-89.24-.39-18.65-.16-35.83,4.65-54.73,4.54s-37.82,0-56.73,0H1694.25c-22.8,0-45.6-.17-68.4,0-11.81.08-20.36-1.25-31.73-3.51-14.27-2.85-30.16-1-44.69-1-44.12,0-86.7-9.2-130.62-9.09-17.78,0-33.54-4.71-51-4.53-18.16.18-35,.63-52.28-3.55-30.1-7.31-64,2.48-94.68-3.29-18.26-3.44-36.77-2.27-55.4-2.27-19.75,0-42.17-3.14-61.65-.24-10.34,1.54-17.13,5.12-28.18,4.91-12.19-.24-21.29,1.36-32.95,3.41-23.26,4.09-49.18,1-72.88,1H909.5c-11.4,0-22.83.24-34.23.11-12.89-.16-24.57-4.36-37.49-4.76-19.27-.6-38.7.1-58,.1-8.58,0-17.23-.27-25.81-.1-12.4.24-24.37,6.17-36.6,5-9.47-.91-17.59-4.64-27.3-5-10.76-.39-21.67.17-32.45.11-18.31-.09-34.46,4.42-52.8,4.53-15.06.1-27.82-4.63-43.31-4.54-16.3.1-32.6,0-48.9,0-12,0-25.3-1.67-37.16-.23-7.88,1-17.49,3.46-25.25,5.22-6.89,1.56-22.58,4.31-27.1,8.83-14.79,14.79-3.55,25.8,10.95,33.29,8,4.15,14.63,3.49,23.08,5.47,9.26,2.18,17.45,6.89,27.2,8.22,63.47,8.67,130.81,4.41,195.64,4.41,15.87,0,30.31-.19,45.22,3.54,15.15,3.79,34.45,1,50,1,15.9,0,31.8.12,47.7,0,18.82-.14,35.83,4.58,54.91,4.54,15.11,0,28.7-.35,42.8,3.53,17.33,4.78,40.22,1,58.34,1h46.72c16.89,0,30.64,2.31,47,4.54,10.67,1.46,43,4.27,44.37,18,1.9,19.56-33.38,32.33-46,33.07-37.52,2.19-72.21-9.19-109.27-9.2-20.21,0-41.63,2.37-61.21-2.28-20.22-4.8-46.85-4-67.87-2.44-10.05.73-18.66,4.58-28.93,4.82-8.32.2-16.69-.1-25-.1-18.61,0-35.84.51-53.69-3.54-15.69-3.56-28.1,1.53-42.79,3.71-7.76,1.15-17.34-.13-25.18-.17-12.78-.06-21.57,2-33.76,4.15-29.3,5.09-63.7.39-93.56.39-16.33,0-32.66.1-49,0-17.33-.1-32.2,4.62-49.91,4.55-34.06-.13-68.13,0-102.19,0-19.82,0-39.63.06-59.44,0-16.84,0-31.76,4.66-48.45,4.55-14-.1-29.5,1.91-43.39.17-8.73-1.1-15.93-4.47-25.06-4.82s-18.26.09-27.33.1c-16.15,0-30.57,4.74-46.42,4.53-16.21-.21-30.29,0-45.49,5.45-4.62,1.65-8.35,5.79-12.85,7.34-1.86.64-7.29.45-9.15,1.65C-.06,172.33,11,179.87,17.64,185c14.42,11.19,32.36,4.13,50.05,4.15a249.92,249.92,0,0,1,48.45,4.42c9.61,1.85,16,4.64,26.25,4.78,9.44.13,19-1.25,28.17.91,15.65,3.69,30.19,3,46.72,3.43,9.24.23,15.37,3.74,24.15,4.82,8.08,1,17.3-.17,25.52-.17,19.4,0,38.81.14,58.21,0,20.23-.14,38.73,4.81,59.23,4.52,7.57-.1,10.94-1.58,17.85-3.5,9.12-2.53,14.62.42,22.84,2.51s15.84-.16,24,.77c9.8,1.13,17,4.9,27.18,4.77,5.57-.07,16.55-2.05,21.78.47,10.29,4.95,10.49,26.34,4.34,33.82-10.25,12.48-34.9,11.13-49.7,11.1-35.22-.06-70.44,0-105.65,0-31.06,0-74.76-7.66-101.46,11.73-17,12.34-13.79,20.37,6.75,24.86,15.48,3.39,31.29,4.39,46.59,8,7.77,1.82,15,0,22.72.78C329.05,308,336,311,343.24,312a264.61,264.61,0,0,1,45.59,10.21,174.62,174.62,0,0,0,47.74,8c19.6.43,36.41,2.58,55.61,5.5,20.28,3.09,39.41,8.19,60.25,8.09,26.26-.13,51,4.61,77.18,4.56,22.07,0,44.15.2,66.22-.05,9.74-.11,13.84,2.12,22.56,4.21,8.47,2,19,.38,27.85.39,32.64,0,69.55-4.62,101.88-.24,9.15,1.24,16.93,4.67,26.38,4.89,6.34.14,12.74-.11,19.09-.11,15.87,0,31.91-.75,47.75,0,14.62.65,27.77,4.77,43,4.61,17-.19,34.14,4.19,50.5,8.08,10.52,2.5,28.31,2.2,36.37,9.66,6.37,5.89,6.57,16.8,12.06,23.51,4.23,5.17,17.4,14.61,24.07,17.07,7,2.57,13.17,2,20.44,5.28s14.2,7.5,22.39,8.8c15.68,2.5,30.54,4.83,45.81,9,14,3.82,28.41,5.06,43,5,18.84-.09,37.22,2.39,55.79,4.31,8.15.85,14.52,4.49,22.73,4.89,8.62.42,17.48-.1,26.11-.1h54.7c18.32,0,36.64,0,55,0,16.12,0,30.18-4.72,46.14-4.54,39,.44,78.12.41,117.12-.12,19.8-.27,39,4.65,59.13,4.66q31.88,0,63.75,0c115.56.05,231.33,3,346.85.1,9.12-.23,14.95-3.5,23.59-4.82,16.82-2.57,35.5,1.22,52.51.34,7.48-.39,13.1-3.75,20.25-4.89,8.89-1.41,19.62.17,28.72.17,18.11,0,36.22.05,54.33,0,43.77-.11,86.66,9.25,129.82,13.88,18.45,2,34-3.62,51.61-4.95,17-1.29,34.54.78,51.6.27,13.29-.39,98.72-12.25,68.67-40.36-10.93-10.22-29.69-9.72-43.35-9.76-3.83,0-7.72-.4-11.54-.18-4.46.25-10.41,4.06-13.83,4-12-.07-9.37-8.74-2.33-14.88,12.45-10.83,31.74-7.15,47-7.16,16.22,0,29.61-4.75,45.47-4.54,14.79.21,27.24-4.71,41.94-4.54,15.88.18,37,3.48,52.29-.36,13.28-3.33,37.7-11.4,33.51-28-5.58-22-30.41-26-48.41-29.8-14.75-3.09-30.45-.05-45.46-.91-8.83-.5-15.34-4.29-24.16-4.82-9.92-.6-20.23.17-30.19.17-19.89,0-40.75-1.88-60.54-.17-11.28,1-20,5-31.8,4.82-12-.14-24.65-1.38-36.35.91-38.85,7.6-81.87,3.53-122,3.53H2121.26c-30.37,0-65.55,5-95.33-.34-8.29-1.49-16.47-6-24.66-8.25-6.91-1.92-16.22-3.5-21.27-9.38-14.82-17.25,21.29-30.4,32.24-31.06,15-.9,30.35.08,45.37.11,18.7,0,35.18-4.66,53.66-4.55,14.32.08,31.11,2.21,45.1-.4,14.92-2.78,30.43-1.56,45-5.81,13.88-4.06,37-6.94,47.68-17.4,11.9-11.63,10.45-25.36.13-36.48-21.94-23.65-62.06-18.31-91.4-18.31h-40.93c-11.25,0-38.39,4.82-47.86-.79,14.26-10.79,31-10.52,45.44-21.15,6.79-5,16.61-14.94,19.8-23.32,3.25-8.58-1.4-18.31,1.27-26.92,21.2-5.83,51.44-.58,73.43-.58,11.46,0,24,1.53,35.13-1a119,119,0,0,1,29.68-3.54c21.64.09,43.28,0,64.92,0,10.64,0,22.81,1.77,33.08-1a91,91,0,0,1,27-3.53c20.58.18,47.34-5.47,65.81-15.84,8-4.49,13.65-15,12-25.2-2-12.17-18-19.12-28.81-21.7-11.51-2.76-23.69-1.94-35.28-4.48-12.69-2.78-27-5.48-40-5.65-11.88-.15-20.23-3.4-31.72-4.67-9.05-1-19.19.23-28.3.23"/><path class="cls-1" d="M2326,26c-8.74,0-16.35,3.64-25,4.53-8.82.92-18.1-.21-26.94-.37-21.22-.38-41-3-62-5.86-17.81-2.4-35.81-1.26-53.69-.48-19.33.85-38.44,1-57.68,3.31-40.5,4.89-82.66,1.83-123.41,1.75q-60.55-.11-121.13-.21H1726.65q-32,0-64-.07c-20.81,0-41.66,1.07-62.26-2.35-17.18-2.86-33.66-2.2-51-2.15-22.74.07-45.4-2.52-68-4.88-19.1-2-38.17-3.8-57.37-4.19-19.72-.41-39.06-4.58-58.76-4.55S1327.44,8.25,1308,5.39c-18-2.63-36-.62-54,0-19.66.62-38.56-3.58-58.12-4.12s-39.22-.19-58.86-1c-16.05-.66-31.08.15-46.69,3.72-9.73,2.22-19.2,1.67-29,2.65-11,1.09-21.75,3.67-32.77,4.48-17.93,1.31-35.94-.36-53.88-.63-20.83-.31-41.69-.06-62.52,0-19.82,0-38.87.44-58.49-2.8-19.1-3.15-38.64-2.08-57.92-1.87-19,.21-38.3-1.53-57,2.22C728.49,10,720,11.25,709.86,9.3c-10-1.93-18.76-3.71-29-3.73A413.18,413.18,0,0,0,628.9,8.31c-9.62,1.2-19.28,2.42-29,1.9-11.19-.6-22.11-3.62-33.3-4.27-17.9-1.06-36.05.1-54-.15-19.3-.26-36.83-1-55.77,3.28C439.74,13,404.32,17.53,410.7,43.81c2.7,11.12,15.7,19.22,25.67,22.7,6.21,2.17,12.81,2.29,19.16,3.77,9.28,2.18,17.76,6.58,27.2,8.23,39.08,6.82,80.2,6,119.71,5.61,39.89-.38,81.77-4.89,121.12,2.44,15.86,3,31.31,1.7,47.34,1.33,20.52-.47,41.65-1,62.14.33,20,1.34,39.42,3.76,59.48,4.27,18.58.48,36,6.24,54.66,5.9,39.88-.74,79.25-3.11,119,2.37,10.19,1.41,20.57,2.32,30.51,5.07,5.61,1.55,14.23,3.45,13.88,10.61s-10.37,12.71-15.62,15.54c-29.34,15.81-65.42,5.65-96.56,1.54A353.12,353.12,0,0,0,942.89,131c-18.79.44-35.75-2.51-54.27-4.82-16.52-2.07-33.26-1.73-49.84-.72a136.87,136.87,0,0,0-20.16,2.76c-11.75,2.46-22.89,2.46-34.85,2.38-19.32-.15-37.86,0-56.95-3.35-18.51-3.21-34.48,3.76-52.75,3.94-15,.15-29-.39-43.83,2.19-19.49,3.37-38.52,4-58.25,3.24-36.5-1.42-74.76-4.72-111.1.05-41.76,5.49-84.72,3-126.8,3-19.81,0-39.62-.07-59.42,0-21.24.11-42.13,4.07-63.38,4.73-8.12.26-16.27,1-24.4.66-9.87-.39-18.73-3.42-28.38-4.85-15.77-2.34-33.57-1.31-49.34.73-19.39,2.51-38.84,1.89-58.13,4.4-6.87.89-14,2.18-20.4,4.88-2.66,1.13-4.71,2.75-7.24,4-4.06,2.08-8,2.36-12,4-29.19,11.69,5.15,37.57,21.73,39.25,16.27,1.65,33-2.44,49.46-1.63,20.31,1,39.75,8.07,59.84,8.8,9,.32,17.49-.71,26.5.68,8.31,1.28,16.26,2.75,24.7,3.17,10.06.51,20.5-.54,30.44,1.39,7.27,1.41,14.06,3.86,21.52,4.27,19.28,1.05,39.11-.44,58.44-.43a600.54,600.54,0,0,1,60.43,3.4c8.5.85,17.23,1.71,25.75.63,9-1.14,16.41-5.1,25.68-2.91,6.4,1.52,12.2,3.17,18.85,3.27,12.27.16,23,2.76,35,4.19,12.86,1.54,30.47-5.74,30.44,13.54,0,19.79-23.55,19.65-38.28,19.71-38.27.15-76.58.26-114.85-.09-29.69-.27-61.75-6-90.27,5-14.86,5.72-43.38,27.09-18.46,40.13,14.35,7.52,32.93,7.15,48.64,10,8.85,1.59,16.64,2.82,25.6,3,11.63.21,22.23,3.42,33.65,5.34,16.82,2.83,32.68,7.6,49.13,11.93,17.11,4.5,34.16,5.31,51.71,6.28,21.34,1.18,42.42,4.63,63.43,8.42,19.4,3.5,38,4.24,57.58,5.31,20.56,1.12,41,4,61.58,4.19,20.37.19,40.75,0,61.12.07,15.85,0,30.24,5.44,46.24,4.91,20.93-.68,41.87-1.53,62.81-2.17,18.49-.57,37.18-.74,55.35,3.14s35.78,3.34,54.37,3.09c41.43-.56,83,4.31,123.5,12.59,6.93,1.41,14,1.86,21,3.31,10.73,2.24,14.14,6.31,18.2,16.3,4.76,11.7,12.74,18.91,23.46,25.58,12.05,7.5,26.63,9.08,39.6,14.82,18,8,39.8,8.73,58.92,13.33,16.73,4,32.82,4.88,50,5.27a332.29,332.29,0,0,1,64.62,7.81c17.42,3.86,37,1.26,54.77,1.26h59.79c18.54,0,36.55,0,54.92-2.55,21.16-3,42.47-1.72,63.79-1.67q29.28.07,58.57-.21c22.06-.22,43.18,2.7,65.11,4.1,41.19,2.65,83.13.31,124.41.57,41.81.26,83.62.74,125.43,1,42.69.28,85.39.36,128.07-.23,17.19-.23,35.87,1.43,52.76-2.13,9.37-2,17.87-4.38,27.6-4.41,11.26,0,22.48,1.69,33.73,1.38,7.47-.2,13.53-1.85,20.67-3.76,8.41-2.25,16.28-1.72,24.86-1.36,20.78.87,41.65.16,62.45.29,40.23.25,79.66,7.85,119.47,12.71,20.09,2.45,37.4-1,57.21-3.29,19.06-2.21,38.15.8,57.24-.21a198.14,198.14,0,0,0,49.22-9.24c12.27-3.94,32.41-11.26,31.88-27.22-.76-23.07-32.28-27.26-49.47-27.55-6.7-.11-14-1-20.59,0-.89.13-10.94,3.3-10.85,3.45-1.55-2.5,6.23-5.67,8-6.32,15-5.69,33.85-.63,49.54-2.56s31.82-2.57,47.5-4.9c10.07-1.5,19.75-3.35,30-3.08,10.47.27,20.9,1.56,31.38,1.36,18.34-.36,53.38-6.94,57.3-29.34,4.16-23.84-22.88-36.65-41.52-41.12-16.68-4-32.14-3.82-49.21-3.53-8.58.14-16-1.38-24.26-3.24-10-2.24-20-1.76-30.13-1.53-19.37.43-38.73-1-58.1-.46-19.69.53-38.18,5.56-58,5.22-17.4-.3-34,3.72-51.28,5-21.33,1.57-42.74.91-64.1.39-40.09-1-80.2-.33-120.3-.12-41.29.21-82.78-1.14-124,.57-18.58.77-37.19,2.24-55.8,1.35-18.29-.87-36.59-6.26-53.62-12.92-21-8.22-3.73-19.47,8.31-23.71,16.11-5.68,34.42-2.76,51.16-2.62,18.09.15,35.68-3.76,53.69-4.39,17.34-.61,34.37,1.78,51.66-.67,18.41-2.6,36.11-3.79,54.24-8.15,12.67-3,26.88-5.57,37.54-13.62,23-17.37,12.92-45-8.86-57.72-23.73-13.84-53.43-10.5-79.67-10.21-16.38.18-32.89-.73-49.25.19-12,.67-28.61,5.14-39.92-.19v10.47c16-11,35.83-12.45,50.72-25.47,6.19-5.42,12.41-12.06,15.88-19.62,4.55-9.91.74-19.63,2.59-29.95l-4.15,4.16c36.14-8.77,74.26,5.09,110.71-2.15,20.88-4.15,42.21-2.79,63.41-2.82,19.47,0,40.69,2.85,59.85-.79,18.73-3.55,37.63-3.07,56.37-6.6,14.94-2.82,35.8-7.56,46.72-19.14,21.73-23-1-46.63-24.88-52.31-12.26-2.92-25.06-2.58-37.42-4.94-10.17-1.93-20.25-4.08-30.59-4.94-11.62-1-22.73-2.43-34.25-4.27s-23-.84-34.61-.63c-7.54.15-7.57,11.88,0,11.74,12.19-.23,23.87-1.05,36,1A269.47,269.47,0,0,0,2376.78,45c11.57.74,22.71,3.16,34.06,5.29,11.66,2.19,23.73,1.74,35.28,4.47,7.75,1.84,19.28,5.65,23.24,13.36,7.94,15.49-10.13,24.87-21.62,29.11-21.27,7.85-41.71,6.69-63.63,9.63-11.48,1.54-21.9,4.42-33.64,4-11.44-.37-22.85-.38-34.3-.36-20.83,0-42.56-1.72-63.19,1.64-20.88,3.4-40.73,3.48-61.85,2.13-19.11-1.21-38.41-3-57.23,1.47a5.86,5.86,0,0,0-4.16,4.15c-1.7,9.39,1.62,19.76-2.18,28.68-3.07,7.21-11,14.18-17.28,18.6-13.48,9.48-30.68,11.08-44.37,20.45-3.42,2.34-4.43,8.37,0,10.47,10.32,4.89,22.26,3.69,33.33,2.83,16.13-1.24,32.11-1.25,48.29-1.26,28.33,0,65.55-6.83,90.35,10.36,21,14.57,13.71,34.58-7.83,42.19a218.53,218.53,0,0,1-48.53,11c-17.39,1.76-34.73,4.23-52.22,3.62-19.39-.68-37.55,1.22-56.8,3.1-28.5,2.78-59.18-5.61-85.48,8.81-15.85,8.68-23.44,26.91-4.72,37.89,4.86,2.86,10.55,3.91,15.89,5.46,7.49,2.17,14.55,5.64,22.07,7.67,17,4.59,35.71,3.93,53.11,3.33,38.83-1.35,77.49-1.87,116.35-1.89,42.62,0,85.25.3,127.87.48,36.46.15,73.19,3.33,109.49-1.43,8.68-1.14,17.22-3,26-3.35,9.24-.34,18.51.94,27.75.27s17.84-3.57,26.91-4.56c10-1.09,20.21-.72,30.23-.46,18.43.47,37.13-.46,55.51.52,8.66.46,16.42,3.34,24.91,4.6,9.81,1.45,19.76.26,29.62.12,14.73-.2,31.15,2.32,44.81,8.3,6.18,2.71,12.6,6.71,15.41,13.17,4.84,11.12-4.43,16.3-13.46,20-13.68,5.63-27.7,6.2-42.3,5.47-7.25-.36-14.51-1.13-21.77-1.12-11,0-21.5,2.84-32.38,4-16.37,1.77-33.83,4.07-50.25,4.89-14.61.73-29.79-2.61-44,2.12-8.33,2.77-18.46,9.61-20.31,18.95s6.24,15.19,14.9,15c7.42-.19,13.8-3.88,21.53-3.95,6.85-.05,13.85-.07,20.68.54s32.35,6.27,23.77,17.33c-9.2,11.86-36.87,14.54-50.54,16.68-26,4.07-52.23-1-78.27,2.79-19.56,2.85-36.24,4.31-55.86,1.79-20.73-2.66-41.36-6-62.12-8.51-39-4.65-77.68-2-116.72-3.88-16.85-.82-31.66,5.5-48.17,5.2-17.91-.33-35.2-2.74-52.86,1.62-18.34,4.52-37.66,3.36-56.49,3.63q-32,.45-64,.46c-40.93.06-81.85-.29-122.77-.65-41.79-.36-83.57-.69-125.36-.7-20.22,0-40.58.72-60.78-.09-19.94-.79-39.43-4.62-59.45-4.47-19.52.14-39,.36-58.56.36-20.68,0-42-1.68-62.62.11-17.5,1.52-34.1,4.12-51.75,4.12q-29.93,0-59.86,0c-18.51,0-37.23,1-55.72.26-9.66-.36-18.43-3.73-27.93-5-10.88-1.5-21.92-2.48-32.86-3.34-19.9-1.57-39.87-.05-59.48-4.52-8.32-1.9-16.51-4.18-24.9-5.82-11-2.14-22.87-2.62-33.39-6.47-6.45-2.36-12.24-6.24-18.84-8.25-8-2.44-15.48-2.83-22.83-7.39-5.5-3.42-11.63-7.42-15.21-13-4-6.18-4.41-13.88-9.16-19.75-7.19-8.87-19.14-10.47-29.75-11.94-18.09-2.52-35.55-8.3-53.83-9.81-17.7-1.46-35.44-3.94-53.17-5-20.67-1.22-41.4.74-62.08.21-18.43-.48-36.22-6.23-54.89-6.71-19.71-.51-39.39.91-59.07,1.62-17.55.63-35.6,2.49-52.68-1.78s-35.1-2.23-52.45-2.25c-39.39-.06-78.74-2.25-118-4.85-19.66-1.3-39-6.22-58.5-8.95-18.59-2.61-37.07-3.17-55.73-4.62-19.3-1.5-36.79-7.94-55.42-12.41-7.57-1.82-15.22-3.16-22.89-4.45-9.33-1.57-18.56-4.85-28-5.69-8.83-.79-17.26-.24-26.13-1.65-10.36-1.64-20.77-3.13-31.11-4.89-3.43-.59-20.43-1.83-22.13-6.05-2.83-7,16-14.82,21.4-16.63,29.48-9.91,63.43-3.3,93.93-3.32,36.95,0,74.19,1.32,111.11-.08,22.65-.85,45.94-8.43,44-35.25-2.22-30.71-31.47-20.91-52.79-25.52a102.1,102.1,0,0,0-20.45-2.08c-9.1-.18-16.65-2.5-25.45-3.67-7.53-1-13.27,1.15-20.52,2.74-9.57,2.09-19.39,1.14-29.06.18-38.4-3.84-76.08-2.57-114.61-2.87-9.33-.08-17.41-3.28-26.47-4.63-7.52-1.12-15.24-.69-22.81-.86a190.7,190.7,0,0,1-28.3-2.93c-10.06-1.73-19.72-.73-29.84-1.12-16.82-.66-33.35-6.63-50.24-8.18-18.57-1.71-36.56,1.87-54.92,1-4.67-.21-22.25-4.35-23-11.15-.42-4,9-4.49,12.53-6.3,9.74-5,17.49-8.58,28.69-9.73,9.27-1,18.56-.26,27.84-.68,17.07-.78,33.65-4.34,50.82-4.56,10-.13,19.35-.19,29.18,1.91,8,1.71,15.39,3.32,23.56,3.6a327.29,327.29,0,0,0,54.21-2.52c22.09-3,43.73-2.83,66-2.84,41.24,0,82.59.82,123.81,0,16.77-.34,33.15-4.24,49.91-4.54,19.3-.36,38.78-.34,58.08.13,17.42.42,34.81,1.89,52.24,1.86,18.13,0,35.07-3.68,52.91-5.79,15.57-1.84,31,1,46.46-2,8.43-1.62,16.85-4,25.53-3.53,11.1.58,22,3.72,33.2,4.36a499.05,499.05,0,0,0,54.56.46c16.8-.93,32.9-5.48,49.91-5.91s33,1.25,49.72,4.23c17.82,3.17,35.73,1.76,53.7,1.57,38.07-.39,75.91,12.56,113.95,9.14,17.62-1.58,41.79-10.94,50-27.83,10.33-21.33-13.17-30.3-29.76-33.39-30.35-5.65-60.73-7.18-91.53-7.16-17.58,0-35,1-52.57,1.38-18.56.37-36.13-5.37-54.66-5.82S856.34,77.82,838,76.12c-21.36-2-43.49-1.09-64.94-.71-19.14.33-36.15.49-55.11-2.59-17.56-2.84-35.64-2-53.36-1.86-39.71.35-79.44,1.79-119.15.45-18.68-.63-37.55-1.62-56.08-4.21-9.51-1.33-17.58-4.91-26.68-7.57-8.4-2.44-17.51-2.25-25.54-5.91-11.26-5.13-22.36-17.64-5.86-25.82,4.64-2.31,10.47-3,15.52-4.14,18.45-4.14,35.27-7,54.28-6.21,18.49.77,37.05.31,55.56.36,19.55.05,38.4,5.54,58,4.07,17.54-1.32,34.6-4,52.25-4.16,7.69-.09,15.51-.65,23.19-.05,10.78.84,21,5.34,31.87,5.12,8.33-.17,16.25-3,24.4-4.29,9.33-1.49,18.88-.82,28.28-.76,21,.12,42.19-1.39,63.14-.09,17.65,1.1,34.33,4.87,52.16,4.77q29.87-.15,59.74-.13c19.74,0,39.42.83,59.16,1.07,19.44.24,37.69-4.07,56.93-5.29,6.71-.42,13.36,0,20-1,9.18-1.5,17.79-4.35,27.16-5,19.11-1.38,38.41,1.24,57.55,1.15a397.13,397.13,0,0,1,54.94,3.05c19.09,2.52,38.22.06,57.35-.27,17.63-.3,34.07,4.23,51.46,5.75,19.94,1.75,39.71.21,59.63,2.9,18.74,2.53,37.53,2.07,56.36,3.48,20.85,1.56,41.59,4.29,62.43,6,19,1.6,37.68,1.56,56.67,1.26s37.43,4.8,56.51,5c82.15,1,164.41.12,246.57,0,80.81-.13,162.65,3.49,243.06-4.24,17.39-1.67,35.15-1.48,52.61-2.47,18.9-1.07,36.67-.75,55.36,2.19,16.83,2.66,33.66,3,50.66,3,8.92,0,18,.76,26.94,0,8.6-.77,16.25-4.79,25-4.91,5.19-.06,5.2-8,0-8.06Z"/><path class="cls-1" d="M1228.43,441.19c-26.59,0-53.2,1-79.79,1.6-11.82.24-23.68.13-35.5.59s-23.77,2.26-35.66,3.36c-13.78,1.27-27.58.89-41.39.85-27.4-.08-54.79,0-82.19,0-24,0-48.54-1.91-72.16,2.5-15.86,3-33.94,2-43.76,17.55-8.82,14,2,26.55,15.09,32,10.29,4.27,21.4,4.78,32.39,4.59,12.38-.21,24.77-.37,37.16-.6,26.64-.5,53.38-1.26,79.77,3.09a96,96,0,0,0,32.4-.14,129.78,129.78,0,0,1,40-.76c10.24,1.4,20.26,2.61,30.54.68a209,209,0,0,1,39.29-3.9c24.53,0,48.9,2.08,73.44,1.17,25.26-.94,51.08-3.22,76.19.76,6.38,1,12.73,2.41,19.09,3.56,5.66,1,15.52,1.93,19.67,6.35,9.08,9.68-27.17,13.61-31.94,13.94-21,1.44-41.89,3.9-62.95,5-12.54.65-25,2.59-37.45,3.6-12.27,1-24,4-36.15,5.44-15,1.81-39.72,8.48-37.15,28.56,2.06,16.09,26.6,21.87,39.58,25.5,8.76,2.46,17.84,3,26.89,3.25,7,.23,13.65.39,20.48,1.91,5.9,1.32,11.57,3,17.64,3.42,12.17.81,24.54-.15,36.73-.14l45.33,0c24.81,0,51.57-2.74,76.08,1.7,5.11.93,10,2.59,15.06,3.72,3.52.79,8.5.87,11.49,3,8.29,5.85-4.47,18.93-10.09,22.5-4.69,3-10.65,3.83-15.92,5.26-4.54,1.24-8.92,3.09-13.5,4.17-11,2.59-22.64.88-33.83,2.71-12.77,2.1-24.27,3.72-37.28,3.27a235.31,235.31,0,0,0-37.8,2c-12.54,1.57-25,1.36-37.54,2.59-11.7,1.15-22.66,4.63-34.52,4.33a197.64,197.64,0,0,0-33.94,1.83c-13.28,1.91-26.48,1.55-39.75,3.06a149.2,149.2,0,0,0-30.23,6.84c-7.22,2.41-17.91,3.5-22.5,10.45-10.42,15.79,11.66,30.18,24.55,32.8,9.92,2,20.31,1.35,30.34,2.91,12.77,2,25.5,1.94,38.39,2q39.78.06,79.55.06c12.93,0,25.89-.22,38.78.84,12.19,1,24.08,3.93,36.31,4.49,25.35,1.16,51.11-.66,76.51-.6,26.47.06,53,.65,79.47-.18,24.33-.75,49.43-3,73.44,2.23,6.28,1.36,12.39,3.2,18.7,4.43,6.64,1.3,14.3,2.22,20.38,5.36,1.06.54,3.45,2.77,3.27,1.4.3,2.34-4.37,5.56-5.9,6.64-8.45,5.94-16.8,4.28-26.2,6.4-15.94,3.61-28.26,20.69-20.53,36.38,4.12,8.36,10.61,8.2,18.74,8.61,11.77.58,23.37,2.93,35.2,3.07,25.69.31,51.23-1.44,77-.59,27.46.9,55,3.82,82.43,3.93,55,.22,110,.86,165.06,1.44q81.62.86,163.24,1c25,0,49.31-3.48,74.37-2.59,12.24.44,24.48.34,36.72.35,13.62,0,27.69,1,41.21-.85,5.68-.78,11.22-2.78,16.86-3.5s11.37,0,17.13-1a218.45,218.45,0,0,0,34.44-8.41c8.95-3,18-6.17,23.5-14.35,5-7.33,5.21-16.27-.46-23.31-12-14.88-35-15.1-52.29-14.49-23.29.84-46.19-1.51-69.46-1.51H2083.21c-13.32,0-27,1.5-40.28.76a50.93,50.93,0,0,1-29.7-11c-8.24-6.46-18.48-18-3.07-22.85,8.63-2.72,18-1.72,26.95-2,13.5-.43,26.44-3.24,39.8-4.41,6.11-.53,12.23.53,18.35.09,5.23-.37,10.31-1.79,15.51-2.27,10.56-1,21.16-2.72,31.75-2.39,11.27.34,21.47-2.37,32.53-2.57,13.08-.23,26.19.29,39.27.29,12.21,0,24.33.59,36.53.8,11.32.19,21.93-3.15,33.24-3.12,12.7,0,25.14-1.75,37.8-2.2,13.54-.48,27.16-.08,40.71-.09,26.38,0,52.79.43,79.17.13,10.46-.12,20.4-2.79,30.84-2.78,7.08,0,13.55-1.11,20.56-1.79,6.73-.65,13.5.17,20.24-.5,10.37-1,20.68-3.51,30.93-5.37,11.75-2.12,26.28-2.81,36.93-8.55,6.68-3.6,13.61-9.37,19.18-14.57,6.73-6.29,10.33-15.12,5.52-23.76-4.64-8.35-11.79-12-20.93-12.32-10.82-.42-21.91-3.64-32.83-5-11.93-1.45-23.49-4.89-35.45-6.11-13.06-1.34-26.31-.26-39.41-.17-12.79.09-24.29-1.92-36.9-3.44-12.36-1.48-24.78-.67-37.18-1.54-12.81-.91-25.42-2-38.28-2.27s-25.64-2.72-38.64-2.56c-11.79.15-23.43.76-35.23.16-11.09-.56-20.7,2.7-31.55,3.53-3.8.29-9.93.8-10.16-4.08-.19-3.93,4.68-7.63,7.52-9.52,9.8-6.52,22.67-8.76,34-10.9,10.74-2,21.51-4.52,32.48-4.62,5.61-.05,11.12.15,16.71-.61,7.11-1,14-3.36,21.14-4,23.95-2.11,47.87,2.07,71.85-.94,22.57-2.83,45.92-5.68,68.68-5.74,11.9,0,23.34-2.61,35.17-2.51,11,.09,21.19.83,31.77-1.81,4.89-1.22,10.38-.36,15.47-1.06,6.73-.91,13.43-2.1,20.18-2.85,12.66-1.42,25.51-1.45,38.23-2.5s25.3-1.13,38-3.18c6.27-1,12.49-1.93,18.8-2.66,6.62-.77,13-3,19.62-3.64,9.74-.89,16.31-2.24,23.69-9.45a59.45,59.45,0,0,0,15.1-25.13c5.83-20.31-6.55-38.3-25.22-45.71-8.14-3.23-16.83-4.56-25.54-5.07-12.83-.75-25.17-2.27-38.08-2.18-11.21.08-22.49.74-33.7.39-4.91-.15-9.38-1.29-14.22-1.93-6.54-.85-13.1-.17-19.67,0-10.2.2-20.46-1.56-30.55.61a77,77,0,0,1-18.36,2.23c-12.27-.08-24.53-.12-36.79-.19-7.85,0-7.86,12.16,0,12.21,12.54.07,25.12,1,37.66,1.45,5.37.21,10.27.41,15.59-.7,11.53-2.41,22.29-.72,34-.67,5.31,0,10.81-.48,16.08.34,4.36.67,8.45,2.07,12.89,2.39,12.27.89,24.79.15,37.09.28,11.54.13,22.5,1.62,34,2.46,10,.73,20.17,1.6,28.92,7.05,10.85,6.75,12.48,17.41,7,28.36a43.12,43.12,0,0,1-7.4,10.81c-5.12,5.28-8.6,4.75-15.58,5.54-10.83,1.23-21.8,3.7-32.63,5.44-13.64,2.19-27,2.66-40.7,3.79-24.39,2-48.81,4-73.11,5.91-4.67.35-8.55,2.43-13.23,2.69-5.28.3-10.76-.28-16-.37-12-.22-23.38,2.4-35.24,2.41-22.46,0-44.72,3.19-67,5.22-11.09,1-21.74,2.4-32.94,2.1-12.36-.32-24.76-.91-37.12-.77-12.06.13-23.24,4.29-35.15,4.86-12.11.58-23.18,1-35.18,3.18-18.26,3.37-40.72,5.84-55.12,18.89-12.12,11-15.27,32.19,2.45,39.38,8.36,3.39,17.59,2,26.16.24,11.74-2.36,22.48-1.21,34.36-1.35,11.58-.13,23.2-1.31,34.76-.29,13.15,1.16,26.07,1.87,39.26,2.46,11.39.51,22.68,2.22,34.1,2.38a241,241,0,0,1,38,3.25c24.54,4.17,49.71-2.07,74.17,3,11.19,2.33,22.3,4,33.56,5.81,5,.82,9.88,1.46,14.82,2.73,3.53.9,15.94-.16,16.55,3.72.76,4.83-14,14.17-18,16.16-10.38,5.09-25,5.4-36.29,7.42-10.87,1.95-21.55,4.38-32.62,4.43-12.61,0-25.33,1.29-37.92,2-5.32.28-10.32,1.75-15.56,2.42-6.17.78-12.62.38-18.83.34-13.05-.08-26.11-.17-39.16-.17-25.68,0-51.86-1.49-77.47.46-11.34.87-22.46,1.73-33.85,1.73s-21.91,3.45-33.34,3c-25.15-1-51-2.16-76.14-.92-9.94.49-18.91,2.78-29,2.49-10.79-.32-21.05,1.58-31.75,2.38-5.22.4-10.3,1.84-15.51,2.28-5.43.46-10.85-.43-16.27-.27-12.79.39-25.43,3.85-38.3,4.44-16.68.77-39.4-2.2-51.25,12.66C1976,712.3,1991,729.69,2004.5,740c18.43,14.1,38.72,13.33,60.92,12.68,26.24-.77,52.6,0,78.85,0,25.74,0,51.89-1.31,77.58.42,10.91.74,21.73,2.09,32.69,1.79,9.67-.28,19.33-1.17,29-.75,6.45.27,20.61.89,24.52,7.33,4.64,7.63-21.45,13.55-25.75,14.8-12,3.47-23.66,3.45-35.89,4.87-5.4.63-10.59,2.45-16,3.34-7.27,1.2-14.66.89-22,.89-25.66,0-51.38-1.12-77-.85-11.22.12-22,2.94-33.15,3.14-12.28.21-24.58,0-36.86,0-53.73,0-107.46-.54-161.19-1.08-53-.54-106.47.93-159.46-1.27-26.85-1.12-53.64-3.19-80.52-3.87-24.29-.61-48.58,1.64-72.82.89-10.67-.33-21.22-2.39-31.88-3-3.56-.19-5.76.87-4.57-4,.91-3.75,7.27-7.29,10.79-8.17,8.08-2,15.45-.89,23.4-4.47,7.52-3.39,15.24-8.78,18.9-16.43,13-27-36.71-31.94-52.58-35.35-23.39-5-47.51-3.83-71.24-3-25,.91-49.94.59-74.9.65-24.81,0-49.55.51-74.35,1-24.11.46-47.65-5.22-71.84-5.32-26.49-.12-53,0-79.48.06-12.1,0-24.23.29-36.33-.11-11.95-.4-23.57-3-35.52-3.47-4.65-.19-9.25-.24-13.69-1.76-2.57-.88-10.17-3.71-10.56-7.11-.3-2.53,5.39-3,8.34-4,5.63-1.93,11.13-4.1,16.88-5.65,12.43-3.35,24.46-3.3,37.16-4.26,12.15-.92,24-4.05,36.24-4.49,11.18-.41,21.78.81,32.86-1.28,12.11-2.28,23.69-2.81,35.94-3.67,11.52-.81,22.89-3,34.41-3.87,12.55-1,25.1.77,37.63-.13,11-.8,21.71-4.31,32.78-4.83,12-.56,21.62-.82,33.12-4.47,8-2.56,16.88-3.64,24.22-8.08,6.6-4,12.45-10.83,16.06-17.61,8.16-15.32-.26-27.31-16.08-30.82-9.1-2-18-4.66-27.31-5.74-11.91-1.39-24-1-35.93-1l-81.21,0c-12.15,0-24.61,1.19-36.73.2-11.92-1-23-4.81-35.16-5.19-10-.3-19.79-.6-29.42-3.73-6.47-2.11-24.39-6.24-26.87-13-4.4-11.9,20.33-14.81,26.9-15.59,12.37-1.48,24.25-4.37,36.7-5.55,23-2.18,46.38-2.8,69.16-6.5,16.14-2.63,32.5-1.43,48.56-5,11.11-2.49,26.81-8.26,24.72-22.54-1.76-12.06-16.49-15.78-26.52-17.78-16.76-3.33-33.58-6.1-50.7-6.51-24.25-.6-48.44,1.92-72.68,1.81-24-.11-48.12-2.88-72.12-.7-10.68,1-21.21,4.46-31.93,4.33-12.19-.14-24.12-3.48-36.33-3.5-11,0-21.67,3.05-32.6,4.11-12.92,1.27-25.94-2.46-38.82-3.56-25.42-2.17-51-.67-76.41-.39-10.81.12-21.72.92-32.52.44-8.73-.39-30.83-3.05-30.55-15.35.18-8.07,11.4-13.22,17.82-14.74,4.79-1.13,9.81-1.17,14.68-1.78,5.78-.73,11.4-2.53,17.17-3.13,12.14-1.27,25.1,0,37.3,0q20.05,0,40.1-.06c26.2,0,52.4-.15,78.6-.1,23.43,0,46.42-4.38,69.81-4.63,11.3-.13,22.6-.43,33.9-.71,24.54-.6,49.11-1.6,73.66-1.7,6.39,0,6.41-9.94,0-9.94Z"/></g></g></svg>