<svg id="Layer_1" data-name="Layer 1" xmlns="http://www.w3.org/2000/svg" viewBox="0 0 153 153"><defs><style>.cls-1{fill:#62a097;}</style></defs><title>email_content_button</title><path class="cls-1" d="M136.51,34.19H18.76a9.48,9.48,0,0,0-9.47,9.48v70.14a9.47,9.47,0,0,0,9.47,9.47H136.51a9.47,9.47,0,0,0,9.47-9.47V43.67A9.48,9.48,0,0,0,136.51,34.19Zm-2.77,18.9L87.46,94a13.64,13.64,0,0,1-17.89.27L20.34,53.16A3.6,3.6,0,1,1,25,47.63L74.19,88.77a6.41,6.41,0,0,0,8.5-.13L129,47.69a3.6,3.6,0,0,1,4.77,5.4Z"/></svg>