<?xml version="1.0" encoding="utf-8"?>
<!-- Generator: Adobe Illustrator 24.3.0, SVG Export Plug-In . SVG Version: 6.00 Build 0)  -->
<svg version="1.1" id="Calque_1" xmlns="http://www.w3.org/2000/svg" xmlns:xlink="http://www.w3.org/1999/xlink" x="0px" y="0px"
	 viewBox="0 0 85.7 73.5" style="enable-background:new 0 0 85.7 73.5;" xml:space="preserve">
<style type="text/css">
	.st0{fill:#ED74AE;stroke:#F2F2ED;stroke-width:5;stroke-miterlimit:10;}
</style>
<g id="_x39_6fVC9.tif_4_">
	<g>
		<path class="st0" d="M23.4,2.5c5.8-0.4,10.5,2,14.7,5.8c1.1,1,2.2,2,3.2,3.2c1.2,1.5,1.9,1.1,3.2-0.2c4-4.2,8.4-7.9,14.6-8.6
			c7.4-0.8,13.3,2,17.9,7.6c8.3,10,7.8,20.9,1.5,32.2c-4.4,8-11.2,13.9-18.7,19c-5,3.4-10.2,6.2-15.5,9c-1,0.5-1.8,0.6-2.9,0.1
			c-7.7-4.1-15.4-8.4-22.1-14.1c-8.6-7.2-15-15.8-16.6-27.3C1.4,18.9,8.5,5.9,20,3C21.1,2.7,22.3,2.7,23.4,2.5z"/>
	</g>
</g>
</svg>
