<svg id="Layer_1" data-name="Layer 1" xmlns="http://www.w3.org/2000/svg" viewBox="0 0 153.18 153.18"><defs><style>.cls-1{fill:#62a097;}</style></defs><title>linkedin_content_button</title><path class="cls-1" d="M121.19,24.92H32.09a9.54,9.54,0,0,0-9.54,9.54v89.1a9.54,9.54,0,0,0,9.54,9.54h89.1a9.54,9.54,0,0,0,9.54-9.54V34.46A9.54,9.54,0,0,0,121.19,24.92ZM55.12,116.26c-4.37-.05-8.73-.06-13.1,0-1.07,0-1.24-.36-1.24-1.31q0-23.62,0-47.24c0-1.09.32-1.37,1.37-1.36q6.48.09,13,0c1,0,1.28.25,1.28,1.28,0,7.91,0,15.83,0,23.75s0,15.75,0,23.62C56.4,116,56.11,116.28,55.12,116.26Zm-6.56-56.5a9,9,0,1,1,9-9A9.1,9.1,0,0,1,48.56,59.76Zm64.37,56.5c-4.27-.06-8.55-.07-12.82,0-1.18,0-1.38-.35-1.37-1.43q0-12.82,0-25.65A15.36,15.36,0,0,0,97.57,83a6.41,6.41,0,0,0-5.87-4,10.45,10.45,0,0,0-5.27.78c-3.35,1.61-4.33,4.65-4.68,8-.58,5.56-.19,11.15-.26,16.73,0,3.55,0,7.11,0,10.66,0,.8-.09,1.2-1.06,1.18q-6.69-.08-13.37,0c-.87,0-1-.3-1-1.09q0-23.82,0-47.65c0-.89.25-1.16,1.13-1.15q6.28.06,12.56,0c1,0,1.24.31,1.2,1.24-.06,1.74,0,3.49,0,5.24a16.61,16.61,0,0,1,10.65-7.17c5.6-1.07,11-.65,15.9,2.7,3.47,2.39,5,6,5.89,10a45.86,45.86,0,0,1,1,10.18c.07,8.78,0,17.55,0,26.33C114.35,116,114.05,116.28,112.93,116.26Z"/></svg>