<svg id="Layer_1" data-name="Layer 1" xmlns="http://www.w3.org/2000/svg" viewBox="0 0 408 408"><defs><style>.cls-1{fill:#2e2e2e;}.cls-2{fill:#f9f5dd;}.cls-3{fill:#4cac83;}</style></defs><title>linkedin_home_button</title><rect class="cls-1" x="85.23" y="85.47" width="243.94" height="243.94" rx="28.26"/><rect class="cls-2" x="79.09" y="78.59" width="238.49" height="238.49" rx="21.03"/><path class="cls-3" d="M207.72,184.26c5.94-8.37,13.59-13.93,23.48-15.82,12.33-2.36,24.36-1.43,35.05,5.95,7.64,5.27,10.95,13.31,13,22,1.73,7.38,2,14.92,2.1,22.43.15,19.35,0,38.7.11,58,0,2.5-.66,3.14-3.12,3.11-9.42-.15-18.85-.17-28.27,0-2.59,0-3-.77-3-3.16q.12-28.26-.07-56.54a34.12,34.12,0,0,0-2.49-13.66c-2.48-5.62-6.86-8.55-12.95-8.92-4-.24-7.93-.06-11.62,1.72-7.37,3.54-9.55,10.24-10.31,17.57-1.27,12.26-.41,24.57-.58,36.86-.11,7.84-.06,15.68,0,23.51,0,1.76-.19,2.64-2.34,2.61q-14.73-.18-29.47,0c-1.92,0-2.27-.66-2.27-2.39q.08-52.53,0-105.06c0-2,.55-2.55,2.5-2.53q13.84.14,27.68,0c2.12,0,2.73.68,2.65,2.73C207.62,176.55,207.72,180.4,207.72,184.26Z"/><path class="cls-3" d="M153.62,225.13c0,17.36,0,34.71.06,52.07,0,2.26-.61,2.79-2.81,2.76-9.62-.12-19.24-.14-28.86,0-2.36,0-2.73-.79-2.73-2.89q.09-52.06,0-104.14c0-2.39.7-3,3-3q14.28.18,28.56,0c2.21,0,2.83.54,2.82,2.8C153.58,190.22,153.62,207.67,153.62,225.13Z"/><path class="cls-3" d="M116.71,135.45a19.83,19.83,0,1,1,39.66.17,20.06,20.06,0,0,1-20,19.78A19.85,19.85,0,0,1,116.71,135.45Z"/></svg>