<svg id="Layer_1" data-name="Layer 1" xmlns="http://www.w3.org/2000/svg" viewBox="0 0 4349.4 621.6"><defs><style>.cls-1,.cls-2,.cls-3,.cls-5{fill:none;stroke:#f9f5dd;}.cls-1,.cls-3{stroke-miterlimit:10;}.cls-1{stroke-width:5px;}.cls-2,.cls-5{stroke-linecap:round;stroke-linejoin:round;}.cls-2{stroke-width:6px;}.cls-3,.cls-5{stroke-width:4px;}.cls-4{fill:#f9f5dd;}</style></defs><title>logos</title><path class="cls-1" d="M1008.17,380c.68-1.18,1.08-1.95,1.54-2.67,9-14.11,18-28.19,26.89-42.34a4.13,4.13,0,0,1,4.09-2.19c7.87.11,15.74.05,23.62.05h3.17c-11.57-18.38-22.85-36.33-34.35-54.59-2.78,4.4-5.35,8.45-7.9,12.51q-42.09,67.15-84.14,134.34a5.45,5.45,0,0,1-5.32,3Q815.4,427.93,695,428h-3.38l60.23-95.21h-44c.69-1.22,1.13-2.07,1.63-2.88,9-14.23,17.93-28.44,26.82-42.7a4.17,4.17,0,0,1,4.09-2.21q89.24.09,178.49.05h3c-.54,1-.86,1.72-1.26,2.36-9,14.39-18.11,28.75-27.08,43.18a4.11,4.11,0,0,1-4,2.24c-25.68-.07-51.36,0-77-.1a4.84,4.84,0,0,0-4.75,2.49c-9,14.08-18.16,28.08-27.26,42.11-.47.72-.87,1.48-1.49,2.53,1.19,0,2,.12,2.89.12q63.6,0,127.22,0a4.16,4.16,0,0,0,4.07-2.2q59.07-93.4,118.23-186.75c.47-.75,1-1.49,1.73-2.66L1184.47,427.7a19.4,19.4,0,0,1-2.11.28c-17.54,0-35.07,0-52.61,0a3.48,3.48,0,0,1-3.35-2c-9.15-14.63-18.38-29.21-27.49-43.86a4.1,4.1,0,0,0-4.05-2.22q-41.46.09-82.94,0Z"/><path class="cls-1" d="M993.05,190.23c-3,4.68-5.66,9-8.38,13.26q-10.08,15.84-20.13,31.68a3.52,3.52,0,0,1-3.33,2.05q-95.78.19-191.56.51c-.35,0-.7,0-1.53-.09.53-.93.9-1.65,1.33-2.34q13.56-21.57,27.09-43.15a3.76,3.76,0,0,1,3.62-2.08q95.25.08,190.49.05C991.26,190.12,991.87,190.18,993.05,190.23Z"/><path class="cls-2" d="M253.84,210.31c-24.17-14-50.82-22.58-77.45-24.32-17.75,39-20.31,86.43-7,130.19,8.88,29.25,24.94,56.63,45.55,79.22,16.32,17.9,35.37,33.83,56.58,44.29a89.47,89.47,0,0,0,38.51,9"/><path class="cls-2" d="M161.23,273.75c-30.47.83-60.14,8.63-85.27,23.15C82.86,339.18,107.1,380,142.47,409c23.64,19.38,52.21,33.22,81.9,40.55,23.51,5.8,53.9,5.44,76.77-.6"/><path class="cls-2" d="M368.49,210.31c24.16-14,50.82-22.58,77.44-24.32,17.76,39,20.32,86.43,7,130.19-8.88,29.25-24.94,56.63-45.55,79.22-16.32,17.9-35.37,33.83-56.58,44.29a89.55,89.55,0,0,1-38.52,9"/><path class="cls-2" d="M461.1,273.75c30.47.83,60.14,8.63,85.27,23.15C539.46,339.18,515.22,380,479.85,409c-23.63,19.38-52.2,33.22-81.89,40.55-23.51,5.8-53.91,5.44-76.77-.6"/><path class="cls-2" d="M311.89,448.62a39.86,39.86,0,0,0,5.2-.25c23.23-2.63,39.08-25.92,50-46.73,12.11-23.08,19.32-49.35,22.2-75.79a199.51,199.51,0,0,0,.72-35.5C386,232.3,355.78,177.2,311.18,146.44c-35.24,24.36-61.77,63.77-72.81,108.16C231,284.26,230.73,316,236.83,346c4.83,23.73,13,47.18,25.86,67C274.44,431.19,291,448.24,311.89,448.62Z"/><path class="cls-3" d="M3436,403.5c-14.23-71.12,3.77-162,64.45-199.28,26.37-16.2,54.09-20.73,83.47-14,28.22,6.43,45.47,32.06,41.6,58.87-3.7,25.62-25.41,43.49-51.13,42.09-21.28-1.15-32.22-15.19-28.78-30.72,10.22,4.43,21,12.52,31.86,12.59,6.66,0,16.28-11,19.49-19.14,6-15.18-2.15-27.87-15-36.29-18.28-12-37.5-8.59-56.2-.5-38,16.42-57.57,49.1-68.59,85.85C3446.64,338.11,3441.77,375,3436,403.5Z"/><path class="cls-3" d="M3405.12,415.31c.78-67.38-17.13-123.12-61.91-168.53-17.52-17.75-37.94-30.43-63.78-31.67-22.63-1.08-39.69,14-38.94,34.11s15.35,29.7,40.52,26.36c-13.84,19.94-41.75,20.05-56.85.21-19.09-25.08-12.07-61.91,16.08-76.75,35.16-18.54,68.6-10,98.87,11.88C3396.29,252.34,3426.18,342.27,3405.12,415.31Z"/><path class="cls-3" d="M3275.27,153.36h290.15c-97,18.24-194,36.8-290.77,6.06Q3275,156.39,3275.27,153.36Z"/><path class="cls-3" d="M3379.74,423c-9-25.34-17-56.8-31.25-85.13-13-26-31.06-28.86-55.29-16.68-4.81-22.45,15-39.81,37.44-29.05,14.44,6.91,27.68,21.49,35.55,35.87C3383.6,359.81,3383.25,395.16,3379.74,423Z"/><path class="cls-3" d="M3550.83,321.63c-21.28-14.05-44.2-10.86-55.84,12.59-13.49,27.18-22,56.83-31.21,81.49-10.42-22,7.25-103.17,33.74-116.21,11.69-5.76,27.19-9.29,39.38-6.62,8.1,1.77,13.4,16.32,20,25.15Z"/><path class="cls-3" d="M3347,441.18c-22.19-76-55.51-90.34-83.54-70.44-1.76-21.24,13.48-35.58,33-26.66,14.72,6.73,29.58,19.72,37.18,33.8,10.13,18.76,13.29,41.29,19.44,62.19Z"/><path class="cls-3" d="M3582.31,368.86c-40.27-20-65.69,1.61-89.13,76-1.91-33.27,6.68-60.84,25.33-84.95,15.28-19.77,41-23.9,54.83-9.17C3577.76,355.41,3579.4,362.74,3582.31,368.86Z"/><path class="cls-3" d="M3490.82,478.47H3356.39C3389.28,455.13,3474.35,453.78,3490.82,478.47Z"/><path class="cls-1" d="M1926.22,234.64s412.28-85,417.75,23.05c5.76,113.8-239.13,190.15-239.13,190.15s253.53-70.58,322.68-190.15S2004,198.63,1926.22,234.64Z"/><path class="cls-1" d="M2210.78,338.1c-1.4,7.46-2.58,15.49-4.63,23.29-.48,1.83-3.83,4.05-5.94,4.14-24.55,1-49.18,3.73-73.15-5.07-37.3-13.68-47.46-46.66-23.71-78.71,14.51-19.58,35.38-28.85,58.35-33.33s46.08-5.53,69,4l-4.85,27.24c-15.93-7.42-31.69-10.37-48.27-6-13.14,3.48-23.78,10.34-30.88,22.1-11.25,18.62-3.21,38.58,18.48,41.9C2179.47,339.86,2194.33,338.1,2210.78,338.1Z"/><path class="cls-4" d="M1762.26,219.51h0m-.62.55c.16.19.36.43.59.74l.12.16c.15.2.35.48.41.58,4.67,10,9.12,20.78,10,32.44.78,10.22-2.27,19.64-9.31,28.79a70.94,70.94,0,0,1-17.51,15.79c-12.47,8.25-27.24,14.65-46.5,20.15-18.53,5.29-39.13,9-63,11.33-17.21,1.68-35.35,2.5-55.47,2.5q-3.64,0-7.52,0H1572c-19.31,0-39.66-.91-58.85-2.64-42.86-3.84-77-10.76-107.45-21.76-19.39-7-34.33-14.69-47-24.15a74.27,74.27,0,0,1-16.67-16.76c-3.59-5.12-4.41-9.94-2.57-15.18,1-2.72,1.89-5.49,2.79-8.16,1.18-3.49,2.4-7.11,3.67-10.62a7.58,7.58,0,0,1,.73-1.49c.13.28.25.58.37.89,5,13.48,14.07,24.7,27.69,34.31,12.6,8.9,27.13,15.77,45.74,21.62,24.09,7.58,49.76,11.9,78.47,13.21,4.42.2,9,.31,13.62.31a429.57,429.57,0,0,0,47.49-2.92,582.1,582.1,0,0,0,105.09-21.71c24.6-7.47,43.73-15.39,60.2-24.93,12.46-7.22,21.09-13.95,28-21.84,1.77-2,3.38-4.19,4.93-6.26.89-1.19,1.81-2.42,2.72-3.59.27-.33.49-.59.67-.78m-413.77,10.09h0m413.81-14.53c-1.19,0-2.4.92-3.85,2.75-2.53,3.21-4.84,6.61-7.53,9.69-7.62,8.74-17,15.25-27,21-18.69,10.82-38.78,18.32-59.35,24.56a575.09,575.09,0,0,1-104.37,21.56,430.55,430.55,0,0,1-47,2.9q-6.71,0-13.43-.3c-26.36-1.21-52.25-5.1-77.46-13-15.84-5-31-11.43-44.64-21.06-11.8-8.34-21.13-18.68-26.24-32.44a13.49,13.49,0,0,0-1.77-3.36,2.91,2.91,0,0,0-2.22-1.43,2.78,2.78,0,0,0-2,1.13,13.74,13.74,0,0,0-2.61,4.3c-2.24,6.23-4.27,12.55-6.46,18.8-2.41,6.85-1,13,3.07,18.81a78,78,0,0,0,17.55,17.66c14.62,10.92,31,18.54,48.05,24.71,35.06,12.67,71.48,18.67,108.44,22,20.31,1.82,40.66,2.65,59.21,2.65h1.45q3.79,0,7.51,0c19.58,0,37.73-.75,55.86-2.52,21.55-2.11,42.84-5.51,63.68-11.46,16.77-4.79,33-11,47.6-20.66a75.19,75.19,0,0,0,18.48-16.69c7.15-9.28,11-19.71,10.13-31.54-.91-12-5.31-23-10.37-33.83a9.28,9.28,0,0,0-.93-1.41c-1.38-1.87-2.56-2.81-3.77-2.81Z"/><path class="cls-4" d="M1779.74,303.34c0,15.91-1.85,30.13-5.76,43.35-1.92,6.5-5.58,12.8-11.2,19.26-9,10.4-21,19.09-37.51,27.34-16.29,8.12-34.45,14.11-57.17,18.86a485.67,485.67,0,0,1-77.07,9.47c-12.39.58-23.66.87-34.46.87-8.27,0-16.37-.17-24.07-.52-33.15-1.48-62.92-6-91-13.9-27.83-7.79-51.62-18.21-72.73-31.84a162.27,162.27,0,0,1-21.48-16.78c-8.6-7.86-12.84-18.06-13-31.18v-.21c0-1,0-1.91,0-2.81,19.29,26.13,46.26,44.36,82.43,55.72a278,278,0,0,0,57.18,11.3c10.27,1,21.09,1.49,32.15,1.49,13.71,0,28.08-.74,43.91-2.27a539.68,539.68,0,0,0,114.58-24.08c30.09-9.77,53.55-19.82,73.82-31.64,8.91-5.19,17.44-11.16,25.34-16.84a81.85,81.85,0,0,0,16-15.59m-445,19h0m447-27.4a41.11,41.11,0,0,0-3.05,3.29,80.42,80.42,0,0,1-17.22,17.43c-8.12,5.85-16.38,11.6-25,16.64-23,13.43-47.75,23.08-73,31.29a534.07,534.07,0,0,1-113.72,23.9c-14.51,1.4-29,2.25-43.53,2.25-10.58,0-21.17-.45-31.76-1.47A275.3,275.3,0,0,1,1418,377.15c-32.5-10.2-60.51-27-80.91-55a7.88,7.88,0,0,0-1.66-1.91,6.51,6.51,0,0,0-2.58-1.27.65.65,0,0,0-.29.06,4.4,4.4,0,0,0-1.9,2.9,36.17,36.17,0,0,0-.29,6.34c.13,13.29,4.19,24.87,14.27,34.09a168.05,168.05,0,0,0,22,17.19c22.86,14.76,47.71,25,73.82,32.34,30,8.42,60.78,12.65,91.91,14q12.12.54,24.24.52c11.55,0,23.1-.33,34.65-.88a493,493,0,0,0,77.7-9.55c20.1-4.2,39.68-10,58.13-19.19,14.52-7.23,28-15.91,38.75-28.3,5.34-6.14,9.7-12.9,12-20.74,4.65-15.71,6.22-31.83,5.88-48.16a25.57,25.57,0,0,0-.83-4.36l-1.2-.35Z"/><path class="cls-4" d="M1712.72,150h0m-.5,1c7.82,6.89,16.69,15.34,23.48,25.85,5,7.73,5.27,16,.88,25.22-3.08,6.47-8,12.12-15.65,17.77-9.24,6.87-20.35,12.4-34,16.91a240.88,240.88,0,0,1-59.49,11.81c-10.27.69-20.75,1.21-28.41,1.59l-7.47.38c-55.38-.75-98.32-6-139.22-17.15-17-4.6-31.45-10.06-44.32-16.67-9-4.61-15.69-9.13-21.18-14.24-5.85-5.44-9.24-10.75-10.67-16.69a10.12,10.12,0,0,1,1.47-8.86,102.72,102.72,0,0,1,16.38-18.13,8.68,8.68,0,0,1,1.9-1.34,2.52,2.52,0,0,1,1.08-.32c.41,0,.69.92.76,1.2a46.76,46.76,0,0,1,1,5.36c1.7,12.14,8,22.38,18.55,30.4,8.58,6.49,18.88,11.19,32.42,14.78,15.19,4,31.48,6.08,51.27,6.46,3.39.07,6.81.1,10.16.1a459.28,459.28,0,0,0,108.08-12.48c21.38-5.18,40.11-12,57.26-20.82a112,112,0,0,0,22.72-14.89c5-4.38,10.09-9.37,13-16.24m-.56-4.64c-1.23,0-2.25.94-3,2.78-2.53,6.26-7.12,10.8-12,15.08a109.49,109.49,0,0,1-21.93,14.36,252.79,252.79,0,0,1-56.37,20.49,453.14,453.14,0,0,1-107.14,12.36c-3.35,0-6.72,0-10.08-.1-17-.33-33.84-2-50.32-6.33-11.13-2.95-21.75-7.07-31-14.1s-15.36-16-17-27.77a49.85,49.85,0,0,0-1.08-5.83c-.72-2.7-2.44-4.17-4.63-4.17a6.44,6.44,0,0,0-2.86.74,12.58,12.58,0,0,0-2.78,1.93,107.86,107.86,0,0,0-17,18.83,14.17,14.17,0,0,0-2.08,12.09c1.83,7.6,6.28,13.5,11.84,18.68,6.57,6.11,14.13,10.78,22.07,14.87a230.09,230.09,0,0,0,45.1,17c43.9,11.92,88.73,16.6,140.35,17.29,7.87-.42,22-1,36.06-2a243.81,243.81,0,0,0,60.48-12c12.53-4.15,24.46-9.58,35.11-17.5,7-5.2,13.08-11.29,16.87-19.26,4.68-9.85,4.9-19.77-1.13-29.11-6.64-10.27-15.29-18.85-24.44-26.89a4.73,4.73,0,0,0-3-1.43Z"/><path class="cls-4" d="M1558.46,86.36v4h0c5.52,0,11.13.2,16.69.61,35.87,2.58,68.75,12.69,97.71,30a57.66,57.66,0,0,1,8.12,5.62c3,2.55,3.31,5.17,1.11,8.24a37.33,37.33,0,0,1-7.43,7.58c-5.69,4.44-12.4,7.32-18.8,9.77-14.41,5.51-30.31,9.42-50,12.3-18,2.62-36.56,3.79-60.26,3.79h-1c-27.67-.12-52.69-3.08-74.35-8.79-7.7-2-16.65-4.72-24.7-9.35a86.18,86.18,0,0,1-11.69-8.55,13.91,13.91,0,0,1-2.83-4.23,6.12,6.12,0,0,1,1.08-7.62,41,41,0,0,1,7.4-6.13,182.7,182.7,0,0,1,36.35-18,235.24,235.24,0,0,1,82.66-15.28v-4m0,0a238.11,238.11,0,0,0-84.07,15.54,187.07,187.07,0,0,0-37.13,18.38,45.14,45.14,0,0,0-8.12,6.72,10.09,10.09,0,0,0-1.74,12.17,17,17,0,0,0,3.84,5.5,89,89,0,0,0,12.26,9c8,4.59,16.77,7.4,25.67,9.75,26.43,7,53.43,8.83,75.35,8.92h1c23.73,0,42.35-1.13,60.84-3.83,17.36-2.54,34.45-6.24,50.88-12.52,7-2.69,13.9-5.72,19.84-10.36a41.46,41.46,0,0,0,8.23-8.4c3.45-4.83,2.71-9.74-1.75-13.6a61.66,61.66,0,0,0-8.69-6c-30.64-18.35-64-28-99.48-30.58q-8.54-.63-17-.62Z"/><path class="cls-4" d="M1747.29,407.09c-.11.3-.25.62-.35.86l0,.08a44.91,44.91,0,0,1-3.42,6.54c-6.75,10.6-15.63,19.71-27.14,27.85-15.95,11.27-34.56,20-56.89,26.62-28,8.31-60.38,13.69-82.6,13.69l-1.93,0c-50.8-.57-84.52-4.28-116.4-12.78-22.19-5.93-41-13.47-57.38-23.06A135,135,0,0,1,1375,427.55c18.13,11.36,38.78,20,62.81,26.27,28.65,7.48,58.33,11.12,90.73,11.12,6.57,0,13.33-.16,20.11-.47a506.6,506.6,0,0,0,95-13.15c37.66-9.05,69.14-22.08,96.26-39.85a73.32,73.32,0,0,1,6.56-3.92l.38-.2.49-.26m.87-4.4a8.41,8.41,0,0,0-3.59,1.3c-2.37,1.24-4.66,2.66-6.9,4.13-29.18,19.12-61.29,31.21-95,39.31a499.71,499.71,0,0,1-94.26,13.05q-10,.45-19.92.46c-30.28,0-60.21-3.28-89.72-11-25.19-6.58-49-16.39-70.33-31.55a7.65,7.65,0,0,0-2.15-1.33,16.51,16.51,0,0,0-3.16-.26c.07,1.16-.29,2.64.29,3.44a75.83,75.83,0,0,0,7,8.46c8.5,8.6,18.28,15.54,28.69,21.62,18.3,10.68,38,18,58.37,23.46,34.08,9.1,68.87,12.37,117.39,12.92l2,0c20.47,0,52.45-4.55,83.74-13.86,20.69-6.15,40.33-14.66,58.06-27.19a103.45,103.45,0,0,0,28.2-29,47.65,47.65,0,0,0,3.73-7.11c.81-1.9,1.77-4.07-.15-5.92a3.14,3.14,0,0,0-2.27-1Z"/><path class="cls-5" d="M1685.35,479.21c-.92,2.58-3,3.88-4.9,5.26A178.76,178.76,0,0,1,1649.07,502a234.38,234.38,0,0,1-86,20.4c-37.47,1.7-73.36-4.81-107.51-20.43-4.35-2-8.47-4.49-12.63-6.87-1.55-.88-3.13-1.94-3.06-4.26"/><path class="cls-2" d="M3009.9,421.76l-405.16.41"/><path class="cls-2" d="M2913.55,382.8c-.44-9.57-.93-19.09-3.49-28.45a105.26,105.26,0,0,0-23.78-43.79,101.7,101.7,0,0,0-39.46-27.3,117.75,117.75,0,0,0-29.22-6.8c-16.91-1.85-33,1.13-48.55,7.29a102,102,0,0,0-40.31,29.15,106.34,106.34,0,0,0-22.8,45.83,83.74,83.74,0,0,0-2.08,24.27"/><path class="cls-2" d="M3064.79,384.8l-514.94,0"/><path class="cls-2" d="M2808.47,183.38l.16,67.92"/><path class="cls-2" d="M2882.1,194.79l-25.79,67.27"/><path class="cls-2" d="M2989.51,302.23,2928,329.14"/><path class="cls-2" d="M2626.06,309c19.72,7.7,40.91,19.34,61.61,23.67"/><path class="cls-2" d="M2729.14,195.28q13.08,34,27.49,67.42"/><path class="cls-2" d="M2948.78,240.64q-22.26,24.53-46.86,46.79"/><path class="cls-2" d="M2668.49,241.25a228.79,228.79,0,0,0,48,47.27"/></svg>