<?xml version="1.0" encoding="utf-8"?>
<!-- Generator: Adobe Illustrator 26.0.2, SVG Export Plug-In . SVG Version: 6.00 Build 0)  -->
<svg version="1.1" id="Layer_1" xmlns="http://www.w3.org/2000/svg" xmlns:xlink="http://www.w3.org/1999/xlink" x="0px" y="0px"
	 viewBox="0 0 1350.4 1230.5" style="enable-background:new 0 0 1350.4 1230.5;" xml:space="preserve">
<style type="text/css">
	.st0{fill:#2E2E2E;stroke:#2E2E2E;stroke-width:8;stroke-miterlimit:10;}
	.st1{fill:#5BBEB0;}
	.st2{fill:#2E2E2E;}
	.st3{clip-path:url(#SVGID_00000103260158448995231180000015602253139078499250_);}
	.st4{fill:#F9F5DD;}
	.st5{fill:#2E2E2E;stroke:#2E2E2E;stroke-linecap:round;stroke-linejoin:round;}
	.st6{font-family:'Exotic350BT-DemiBold';}
	.st7{font-size:230px;}
</style>
<g id="Layer_2_00000033331876329332705660000001172057731250488452_">
	<g id="Layer_1-2">
		<path class="st0" d="M947.9,1088.2c-227.7,51.1-553.8,77.7-752.4-86.8C29.2,863.7-28.9,637.5,50.1,419.7
			C173.2,80.5,544.4,25.4,825,55.7c183.5,19.8,388.6,107,477.1,309.8c99.9,228.8,24.6,521.9-166.6,652.7c-7.6,5.2-11,15.7-8.1,25.3
			c14.5,48.1,29.4,96,44.2,143.9c3.3,10.7,6,24.4-1.3,32c-14.8,15.3-56-15.5-69.3-23.8c-25.6-15.8-49.9-34.3-74.2-52.5
			c-17.4-13-34.6-26.5-52.2-39.1C969,1100.1,955.3,1086.6,947.9,1088.2z"/>
		<path class="st1" d="M1151.8,1187.2c-16.8,0-40-15.3-53.8-24.4c-2.5-1.7-4.7-3.1-6.4-4.1c-23.6-14.6-46.4-31.6-68.4-48.2l-6.1-4.6
			c-5.8-4.4-11.7-8.8-17.4-13.2c-11.3-8.6-23-17.5-34.7-25.9c-1.3-1-3-2.3-4.9-3.9c-4.8-4-13.7-11.3-18-11.3c-0.1,0-0.3,0-0.4,0.1
			c-114.2,25.6-227.6,39.2-327.9,39.2c-182.3,0-326.3-42.7-427.9-126.8c-82.1-67.6-140.3-159.8-166-263
			C-6.5,596.9,0.2,485.1,39.1,377.8C87.4,244.8,177.3,145.2,306.2,82c55.1-27,117.6-47.4,185.6-60.4C552.5,9.9,617.8,4,685.8,4
			c44.2,0,88.4,2.4,132.4,7.2c101.7,11,197,41,275.8,86.8c94.5,55,163.3,130.8,204.6,225.4c24.6,56.3,39.2,117.4,43.3,181.5
			c4,61.9-1.8,124.1-17.3,184.2c-15.4,60.4-39.8,116.2-72.3,165.8c-33.7,51.4-74.7,93.8-121.8,126.1c-6.2,4.2-8.9,13-6.6,20.9
			c12.1,40,24.6,80.5,36.7,119.7l7.5,24.2c3.4,10.9,6.8,26.6-2.3,35.9C1162.4,1185.3,1157.7,1187.2,1151.8,1187.2z"/>
		<path class="st2" d="M685.8,8c44.1,0,88.2,2.4,132,7.2c183.5,19.8,388.6,107,477.1,309.8c99.9,228.8,24.6,522-166.6,652.7
			c-7.6,5.2-11,15.7-8.1,25.3c14.5,48.1,29.4,96,44.2,143.9c3.3,10.7,6,24.4-1.3,32c-2.9,3-6.7,4.2-11.2,4.2
			c-18.5,0-47.4-21.3-58.1-28c-25.6-15.8-49.9-34.3-74.2-52.5c-17.4-13-34.6-26.5-52.2-39.1c-5.3-3.8-17.7-16-25.3-16
			c-0.4,0-0.9,0-1.3,0.1c-97,21.8-211.8,39.1-327,39.1c-155.3,0-311.3-31.4-425.4-125.9C21.9,823.2-36.1,597,42.9,379.2
			C147.4,91.2,430.9,8,685.8,8 M685.8,0C617.5,0,552,5.9,491,17.6c-68.3,13.1-131.1,33.6-186.6,60.8c-129.9,63.7-220.4,164-269,298
			C-3.8,484.5-10.6,597.1,15.8,702c26,104,84.6,196.9,167.4,265.1c54.4,45.1,121.8,78.7,200.2,99.9c68.2,18.4,145.7,27.8,230.3,27.8
			c54.2,0,111.9-3.8,171.4-11.4c51.3-6.6,104.2-15.9,157.1-27.8c3.3,0.4,12.4,7.9,15.4,10.4c2,1.6,3.7,3,5.1,4.1
			c11.7,8.4,23.3,17.2,34.7,25.8c5.7,4.3,11.6,8.8,17.4,13.2l6,4.5c22.1,16.6,44.9,33.7,68.7,48.4c1.6,1,3.8,2.4,6.3,4.1
			c14.2,9.4,38.1,25.1,56,25.1c8.7,0,14-3.6,16.9-6.6c10.6-10.9,6.9-28,3.2-39.9l-7.5-24.4c-12.1-39.1-24.6-79.6-36.7-119.5
			c-1.9-6.2,0.2-13.1,5-16.4c47.6-32.6,89-75.4,122.9-127.2c32.7-50,57.2-106.2,72.8-167c15.5-60.5,21.4-123.1,17.4-185.5
			c-4.2-64.5-18.9-126-43.7-182.8c-21.4-49.1-51-94.3-87.6-133.4c-33.6-35.9-73.5-67.5-118.7-93.8c-79.1-46.1-175.1-76.3-277.3-87.3
			C774.5,2.5,730.2,0,685.8,0z"/>
		<g>
			<defs>
				<path id="SVGID_1_" d="M939.8,1046c-227.3,51.1-553,77.7-751.3-86.8C22.3,821.5-35.7,595.2,43.2,377.4
					C166.1,38.3,536.8-16.8,817,13.4c183.3,19.8,388,107,476.5,309.8c99.8,228.8,24.5,521.9-166.4,652.8c-7.6,5.2-11,15.7-8.1,25.3
					c14.5,48.1,29.4,96,44.1,143.9c3.3,10.7,6,24.4-1.3,32c-14.8,15.3-55.9-15.5-69.2-23.8c-25.6-15.8-49.8-34.3-74.1-52.5
					c-17.4-13-34.5-26.5-52.1-39.1C960.8,1057.8,947.1,1044.3,939.8,1046z"/>
			</defs>
			<clipPath id="SVGID_00000067215453624584280910000004083778299996506802_">
				<use xlink:href="#SVGID_1_"  style="overflow:visible;"/>
			</clipPath>
			<g style="clip-path:url(#SVGID_00000067215453624584280910000004083778299996506802_);">
				<path class="st4" d="M197.3,229.3c4.3,8.8,8.7,17.5,13.1,26.2l6.6,12.9c1.9,3.7,3.8,7.3,5.4,11.1c5.7,13.5,9.5,29.3,21.8,38.5
					c6.4,4.8,14.3,6.6,22,8.5c8.5,2.1,16.5,5.5,24.6,8.9s16.3,7,24.7,9.9c7.8,2.7,15.6,5.3,23.4,7.8c15.9,5.1,31.8,9.9,47.2,16.3
					c1.7,0.7,3.3,1.4,5,2.2c1.2,0.7,2.7,0.3,3.4-0.9c0.7-1.2,0.3-2.7-0.9-3.4c-15-6.7-30.7-11.7-46.3-16.7s-31.6-9.9-46.9-16.3
					c-8.5-3.6-17-7.8-25.8-10.6c-7.3-2.3-15.1-3.2-22.1-6.5c-6.8-3.2-11.6-8.4-15.2-14.9s-5.9-13.4-8.6-20.2
					c-3.1-7.9-7.1-15.4-11-23c-4.3-8.5-8.7-17-12.9-25.5c-1.1-2.2-2.2-4.4-3.3-6.7c-0.7-1.2-2.2-1.6-3.4-0.9
					C197.1,226.6,196.7,228.1,197.3,229.3L197.3,229.3z"/>
				<path class="st4" d="M285.2,306.1c13,5.8,21.4,18.3,33.7,25.2c14.7,8.4,30.1,15.5,45,23.7c14.2,7.8,27.7,16.9,41.4,25.4
					c13.5,8.6,27.7,16.1,42.4,22.5c6.9,2.9,14.1,4.6,21.5,2.6c6.5-1.8,12.4-5.2,18.9-6.7c1.3-0.3,2.7-0.5,4-0.5c3.2,0,3.2-5,0-5
					c-6.6,0-12.7,3.2-18.7,5.5c-2.8,1.2-5.8,2.1-8.8,2.6c-3.6,0.3-7.3-0.1-10.7-1.3c-3.5-1.2-6.8-2.7-10.1-4.3
					c-3.6-1.7-7.3-3.4-10.9-5.2c-7.1-3.6-14-7.6-20.9-11.8c-13.7-8.4-27-17.4-40.9-25.4c-14.5-8.3-29.8-15.4-44.5-23.4
					c-3.4-1.7-6.6-3.7-9.7-5.8c-2.8-2.1-5.5-4.3-8.1-6.6c-5.3-4.7-10.5-9.6-16.5-13.3c-1.4-0.9-2.9-1.7-4.5-2.4
					c-1.2-0.7-2.7-0.3-3.4,0.9C283.6,303.9,284,305.5,285.2,306.1L285.2,306.1z"/>
				<path class="st4" d="M330.9,292.3c2.2,7.7,6.1,14.7,12.2,19.8c5.6,4.7,12.3,7.7,18.9,10.6c9.9,4.4,19.7,8.8,29.5,13.1
					c10.4,4.6,21,9.1,31.2,14.2c17.4,8.6,32.4,20.8,47.6,32.6c7.7,6,15.5,12,23.7,17.4c4.1,2.7,8.3,5.2,12.6,7.5
					c4.1,2.2,8.1,4.5,12.2,6.6s8.5,3.9,13.2,4.2c4.7,0.2,9.3-1,13.4-3.4c7.8-4.3,13.8-11.1,20.8-16.5c1.5-1.2,3.1-2.2,4.7-3.1
					c2.8-1.6,0.3-5.9-2.5-4.3c-7.3,4.1-13,10.6-19.7,15.7c-3.2,2.7-6.8,4.7-10.8,6c-4.3,1.2-8.5,0.5-12.5-1.1s-7.8-4-11.7-6.1
					c-4.1-2.2-8.3-4.4-12.3-6.9c-8.1-5.1-15.9-10.6-23.4-16.5c-15.1-11.6-29.7-23.9-46.3-33.2c-9.3-5.2-19.3-9.4-29-13.7
					c-10.4-4.7-20.8-9.2-31.2-13.9c-6.9-3.1-14.1-5.9-20.5-9.9c-5.8-3.6-10.4-8.8-13.2-15c-0.8-1.9-1.5-3.8-2.1-5.7
					C334.7,287.9,329.9,289.2,330.9,292.3L330.9,292.3z"/>
				<path class="st4" d="M448.3,282.9c17.1,16.4,36,30.7,53.8,46.3c8.7,7.6,17,15.5,24.9,23.9c7.2,7.7,14.1,15.6,21.3,23.3
					c7.1,7.8,14.8,15,23.1,21.6c8.7,6.8,18.2,11.6,28,16.7c22,11.4,43.8,23,65,35.7c14.2,8.5,29.4,18,46.3,19.6
					c8.2,0.8,16.5-1.1,23-6.3c6.9-5.6,11.6-13.5,13.3-22.3c2.7-16.2-8.3-29.9-19.4-40.2c-5.6-5.2-11.7-10-17.6-14.9
					c-8.7-7.2-17.3-14.6-26-22c-18.7-15.9-37.7-31.7-54.5-49.6c-16.2-17.4-31-36-46.9-53.6c-15.6-17.2-31.1-34.6-44.2-53.8
					s-23.3-40.2-32-61.7c-4.3-10.7-8.3-21.6-12.1-32.4c-3-8.7-5.9-17.4-9.5-25.8c-2.8-6.4-6-13.6-5.9-20.8c-0.1-2.9,1.1-5.7,3.3-7.6
					c2.9-2.3,6.8-3.1,10.4-2.2c8.5,2.1,14.8,10,21.5,15.1c9.1,7,19.7,12.3,29.7,17.8c10.6,5.8,21.1,11.6,31.1,18.2
					c9.7,6.3,20.2,11.4,31.2,14.9c16.1,5.3,32.5,7.9,49.4,5.5c15.7-2.2,31.3-9,41.4-21.6c5.4-6.8,9.8-15.4,10.1-24.3
					c0.3-8.5-4.1-15.8-10.7-20.8c-4.1-3.1-8.8-5-13.4-7.2c-5.5-2.6-11.1-5.2-16.6-7.9c-11.1-5.5-21.5-12.1-32.7-17.3
					c-10.3-4.8-21-8.7-31.5-13.2c-2.9-1.3-5.5,3-2.5,4.3c10.7,4.6,21.6,8.6,32.2,13.5c11,5.1,21.2,11.6,32,17
					c5.5,2.7,11,5.3,16.6,7.9c4.5,2.2,9.4,4.1,13.4,7.2c6.5,5,9.5,12.5,7.8,20.6c-3.5,16.2-17.3,28.2-32.5,33.5
					c-14.2,5-30,5.6-44.7,2.7c-10.3-2.1-20.3-5.3-29.9-9.7c-10.7-4.8-20.2-11.8-30.3-17.7c-10.3-6-20.9-11.5-31.2-17.4
					c-5-2.9-10-5.8-14.7-9.1c-3.6-2.5-6.7-5.6-10-8.4c-6.3-5.2-14-10.6-22.7-8.4c-6.9,1.6-11.7,7.8-11.6,14.9
					c-0.1,7.3,2.9,14.4,5.7,21.1c3.4,8.1,6.2,16.4,9.1,24.7c7.5,21.4,15.4,42.7,25.5,63c10.2,20.4,22.6,39.6,37.1,57.3
					c14.5,17.9,30.6,34.4,45.5,52c15.4,18,30.5,36,48,52c18.1,16.5,37,32.1,55.6,48c11.7,10,25.1,19.1,34.3,31.7
					c4.3,5.9,7.6,12.7,7.5,20.1c-0.1,8.4-4.8,16.8-11,22.4c-13,11.7-32.5,4.4-46-2.5c-7.2-3.6-14-7.8-20.9-11.9
					c-10.5-6.3-21.2-12.3-32-18.1c-10.9-5.9-21.9-11.7-33-17.4c-9.7-5-19-9.9-27.4-16.9c-16.2-13.2-29.3-29.8-43.6-44.9
					c-15.8-16.6-33.7-31-51.3-45.7c-8.7-7.3-17.3-14.6-25.5-22.4C449.5,277.1,446,280.6,448.3,282.9L448.3,282.9z"/>
				<path class="st4" d="M656.5,55.5c-1.5,3.9-2.6,7.9-3.3,12c-0.8,4.1-1.9,8.2-3.2,12.1c-1.4,4.1-4.2,9.3-1.4,13.4
					c1.6,2.3,4.1,4,6.3,5.6c3.2,2.3,6.6,4.2,10.3,5.4c6.1,2.1,12.8,1.5,18.5-1.7c7.2-4,12.2-11.1,16.1-18.1c1.6-2.8-2.7-5.3-4.3-2.5
					c-3.1,5.6-7,11.4-12.3,15c-4.2,3.1-9.5,4.2-14.6,3c-3.2-0.8-6.2-2.2-9-4c-2.4-1.4-4.5-3.1-6.5-5c-0.2-0.2-0.3-0.3-0.4-0.5
					s0.3,0.4,0.1,0.1c0-0.1-0.1-0.1-0.1-0.2s-0.2-0.3-0.3-0.5s0.1,0.3,0.1,0.3c0-0.1-0.1-0.2-0.1-0.3c0-0.2-0.1-0.3-0.1-0.5
					c0.1,0.3,0,0.5,0,0.1c0-0.2,0-0.4,0-0.5s0-0.2,0-0.3c0-0.3-0.1,0.5,0,0.2c0.5-2.3,1.3-4.4,2.1-6.7c1.4-4.1,2.5-8.3,3.4-12.6
					c0.8-4.3,1.9-8.5,3.4-12.5c0.4-1.3-0.4-2.7-1.7-3.1s-2.7,0.4-3.1,1.7L656.5,55.5z"/>
				<path class="st4" d="M693.5,454.4c6.2-4.9,11.6-10.8,17.8-15.7c0.5-0.4,1.3-1,2.1-1.6s1.6-1.1,2.4-1.6s1.6-1,2.5-1.4l0.6-0.3
					c0.1,0,0.6-0.3,0.3-0.2s0.3-0.1,0.3-0.1l0.6-0.2c0.7-0.2,1.5-0.4,2.2-0.6c0.2,0-0.5,0,0,0h0.5c0.4,0,0.7,0,1.1,0
					c0.3,0,0.3,0.1,0,0l0.5,0.1c0.3,0.1,0.7,0.2,1,0.3c0.1,0-0.4-0.2,0,0c0.1,0.1,0.3,0.1,0.4,0.2s0.3,0.2,0.4,0.3
					c0.5,0.3-0.2-0.2,0.1,0.1c0.3,0.3,0.6,0.6,0.9,0.9c0.1,0.1,0.5,0.6,0.3,0.4c0.1,0.2,0.2,0.4,0.3,0.5c0.3,0.4,0.6,0.9,0.8,1.4
					c0.2,0.4,0.4,0.8,0.6,1.3c1.1,2.9,1.8,6,2.2,9.1c0,1.4,1.1,2.5,2.5,2.5c1.4,0,2.5-1.1,2.5-2.5c-0.7-5.5-1.8-11.5-5.4-15.8
					c-2.4-2.9-6.2-4.2-9.9-3.5c-3.8,0.6-7.3,2.7-10.4,5c-3.7,2.7-7.3,5.7-10.6,8.9c-3.4,3.1-6.6,6.3-10.2,9.1c-1,1-1,2.6,0,3.5
					C691,455.4,692.5,455.4,693.5,454.4L693.5,454.4z"/>
				<path class="st4" d="M1284.8,805.8c-3.3-9.2-6.7-18.4-10.2-27.6c-3.2-8.5-6.8-16.9-9.4-25.5c-4.4-14.3-6.4-31.2-17.8-41.9
					c-5.8-5.5-13.2-8.4-20.5-11.2c-3.6-1.4-7.1-2.9-10.5-4.7c-4.2-2.2-8.2-4.6-12.3-7c-7.7-4.6-15.4-9.1-23.4-13.2
					c-7.4-3.8-15-7.4-22.6-10.9c-15.4-7.2-31-14.3-45.7-22.8c-1.7-1-3.3-2-5-3c-2.8-1.7-5.3,2.6-2.5,4.3
					c14.2,8.7,29.4,15.8,44.4,22.8c15.3,7.2,30.7,14.3,45.3,22.9c7.8,4.6,15.4,9.7,23.7,13.4c6.9,3.1,14.2,5.2,20.7,9.2
					c13.2,8.3,16.1,24.6,20,38.6c2.2,8.2,5.4,16,8.4,23.9c3.4,9,6.8,18,10.1,27.1c0.8,2.3,1.7,4.6,2.5,7c0.4,1.3,1.8,2.1,3.1,1.7
					C1284.4,808.5,1285.1,807.1,1284.8,805.8L1284.8,805.8z"/>
				<path class="st4" d="M1205.4,717.1c-5.9-3.6-10.6-8.9-15.1-14.1c-4.7-5.4-9.4-10.8-15.1-15.2c-13.8-10.5-28.5-19.7-42.5-29.9
					c-13-9.5-25.2-20.2-37.8-30.4c-12.4-10.3-25.6-19.6-39.4-28c-6.3-3.8-13.3-6.6-20.8-5.6c-6.7,0.9-13,3.7-19.7,4.3
					c-1.5,0.2-2.9,0.2-4.4,0c-1.4,0-2.5,1.1-2.5,2.5c0,1.4,1.1,2.5,2.5,2.5c6.6,0.9,13.3-1.8,19.6-3.3c2.9-0.8,6-1.2,9-1.2
					c3.5,0.3,7,1.3,10.1,3c3.3,1.7,6.4,3.8,9.6,5.7c3.4,2.2,6.9,4.3,10.2,6.6c6.6,4.5,13,9.4,19.2,14.4
					c12.6,10.1,24.7,20.7,37.6,30.5c13.6,10.3,28.1,19.5,41.9,29.5c3.1,2.2,6.1,4.5,8.9,7.1c2.6,2.4,4.9,5,7.3,7.7
					c4.6,5.2,9.1,10.7,14.7,15.1c1.4,1.1,2.8,2.1,4.3,3C1205.7,723.1,1208.2,718.8,1205.4,717.1L1205.4,717.1z"/>
				<path class="st4" d="M1159.1,724.8c-1.5-8-4.7-15.5-10.3-21.5c-5.1-5.4-11.5-9.3-17.8-13.1c-9.3-5.7-18.7-11.4-28-17.1
					c-9.7-5.9-19.6-11.7-29-18.1c-16.2-10.8-29.7-25-43.4-38.7c-6.9-6.9-13.8-13.7-21.2-20.1c-7.2-6.2-14.9-11.6-22.6-17.1
					c-3.5-2.7-7.4-4.7-11.6-6c-4.5-1.2-9.2-0.9-13.5,0.6c-8.7,3.1-15.7,9.4-23.5,14.1c-1.6,1-3.3,1.9-5,2.7
					c-1.3,0.4-2.1,1.8-1.7,3.1c0.4,1.3,1.7,2.1,3.1,1.7c8.2-3.3,14.8-9.5,22.5-13.9c3.6-2.1,7.6-3.9,11.8-4.1c4,0,7.9,1.1,11.3,3.3
					c3.7,2.2,7.1,5,10.6,7.5c3.8,2.7,7.6,5.4,11.2,8.3c7.4,6,14.3,12.6,21.1,19.3c13.6,13.5,26.8,27.6,42.2,39.1
					c8.6,6.4,17.9,11.8,27,17.4c9.8,6,19.6,11.9,29.3,17.9c6.5,4,13.7,7.8,19.5,12.6c5.5,4.4,9.7,10.3,11.8,17
					c0.6,2.1,1.2,4.2,1.5,6.3c0.4,1.3,1.7,2.1,3.1,1.7C1158.7,727.5,1159.5,726.2,1159.1,724.8L1159.1,724.8z"/>
				<path class="st4" d="M1169,1165.3c8.3,6.3,16.1,13.3,23.4,20.7c7.9,7.9,14.7,16.8,20.3,26.4c2.9,5.1,5.2,10.6,6.8,16.2
					c0.8,3.1,5.7,1.8,4.8-1.3c-3-10.8-8.7-20.8-15.4-29.7c-7-9.2-14.9-17.6-23.5-25.2c-4.5-4-9.1-7.8-13.9-11.5
					c-1.2-0.7-2.7-0.3-3.4,0.9c0,0,0,0,0,0C1167.4,1163.1,1167.8,1164.6,1169,1165.3L1169,1165.3z"/>
				<path class="st4" d="M1042.1,719.1c-15.7-19.1-33.4-36.4-49.8-54.9c-7.9-9-15.4-18.3-22.5-28c-6.4-8.9-12.6-17.9-19.1-26.6
					c-6.4-8.8-13.6-17-21.4-24.6c-8.5-7.9-18.4-14.1-27.9-20.7c-20.2-14-39.9-28.6-59.3-43.7c-7.2-5.6-14.6-11.2-22.6-15.6
					c-7.5-4.2-15.9-7.7-24.7-7.9c-18.1-0.4-33.7,17.6-32.3,35.4s15.3,32,26.9,44.2c16.2,17,32.1,34.3,47.8,51.8
					c8.5,9.6,17.1,19.2,24.9,29.4c7.6,9.9,14.5,20.3,21.4,30.6s13.8,20.8,21,30.9c7,9.9,14.1,19.8,20.8,29.9
					c13.8,20.6,25.6,42.2,34.5,65.4c8.6,22.7,14.8,46.2,20.3,69.8c2.1,8.9,4.1,17.8,6.7,26.6c2,6.6,4.4,14.1,3.4,21
					s-8,10.1-14.3,7.6c-8-3.1-13.4-11.5-19.2-17.5c-8-8.1-17.8-14.7-27-21.4c-10.3-7.5-20.5-15-30.2-23.3
					c-8.8-7.5-18.6-13.7-29-18.7c-8.3-4-17-7.5-26-9.5c-16-3.5-33.5-3.4-48.8,3c-7.7,3.2-14.4,8.3-19.7,14.7
					c-6,7.4-10.6,16.9-9,26.7c1.5,9.4,8.6,15.9,16.2,20.9c10.9,7,21.9,13.9,32.4,21.5c5,3.6,9.8,7.5,14.9,10.9
					c5,3.3,10.1,6.3,15.3,9.3c10.3,5.9,21.1,11.2,30,19.3c7.8,7.1,14.3,15.4,21.7,23c2.2,2.3,5.8-1.2,3.5-3.5
					c-7.5-7.7-14.3-16.3-22.3-23.5c-8.6-7.7-18.9-13-28.9-18.7c-5.2-3-10.3-6-15.4-9.2s-9.9-7.1-14.8-10.7
					c-10.2-7.5-21-14.2-31.6-21.1c-7.8-5-16-11.1-16.4-21.2c-0.3-9.3,5.6-18.3,12.1-24.5c12-11.4,29.2-14.7,45.2-13.8
					c18.4,1.1,36,8.3,51.6,17.8c10.3,6.3,19.1,14.5,28.6,21.9c9.7,7.5,19.8,14.5,29.5,21.9c4.7,3.4,9.2,7.1,13.5,11.1
					c3.1,3,5.8,6.3,8.8,9.4c5.4,5.8,12.4,12.2,21,11.3c7-0.8,12.2-5.5,13.2-12.5c1.1-7.2-0.9-14.6-2.9-21.4
					c-5.7-19.7-9.6-39.9-15-59.6c-6.3-23-14.1-45.7-24.9-67c-10.8-21.6-24.6-41.5-38.5-61.2c-14.2-20-27.2-40.9-41.6-60.8
					c-14.7-20.4-31.9-38.9-49-57.4c-8.1-8.8-16.2-17.6-24.3-26.4C793,573,787,567,781.6,560.5s-10.6-14-12.9-22.2
					c-2.5-8.3-0.8-17.3,4.4-24.2c5.4-7.4,13-12.3,22.4-11.9c8.8,0.4,17.1,4.5,24.5,8.9c7.5,4.6,14.6,9.8,21.4,15.3
					c9.4,7.4,18.9,14.6,28.5,21.6c10.3,7.6,20.8,15,31.3,22.3c9.5,6.6,19.1,12.8,27.3,21c15.3,15.2,26.8,33.8,39.6,51.1
					c14.2,19.2,30.7,36.5,47,53.9c8,8.6,16,17.3,23.5,26.4C1040.6,725.2,1044.1,721.6,1042.1,719.1L1042.1,719.1z"/>
				<path class="st4" d="M813.8,920c3.7-7.1,5.2-15.1,8.4-22.4c1.2-2.7,2.6-5.3,3.6-8c0.8-2,0.7-4.2-0.1-6.1c-1-2.3-3.1-4.1-4.9-5.8
					c-2.9-2.9-6.2-5.3-9.8-7.2c-5.8-3-12.5-3.8-18.8-1.3c-7.9,3.1-13.7,9.7-18.5,16.4c-0.7,1.2-0.3,2.7,0.9,3.4
					c1.2,0.7,2.7,0.3,3.4-0.9c3.7-5.2,8.1-10.4,13.9-13.4c4.7-2.5,10.3-2.7,15.2-0.5c3.1,1.4,6,3.3,8.5,5.6c1.2,1.1,2.4,2.2,3.5,3.4
					c0.4,0.4,0.8,0.8,1.1,1.2c0.1,0.1,0.4,0.5,0.2,0.2l0.4,0.6c0.1,0.2,0.2,0.4,0.3,0.5c0.2,0.4-0.1-0.4,0,0c0,0.1,0.1,0.3,0.1,0.5
					c0.2,0.6,0.1-0.2,0,0.1c0,0.2,0,0.3,0,0.5c0,0.5,0,0,0,0.1c-0.1,0.4-0.2,0.8-0.3,1.2s-0.4,1-0.4,1c0.1-0.2-0.2,0.5-0.2,0.6
					l-0.4,0.8c-0.6,1.3-1.2,2.7-1.8,4c-1.7,3.8-3.2,7.7-4.4,11.8c-1.1,3.9-2.5,7.7-4.3,11.3C807.9,920.4,812.3,922.9,813.8,920
					L813.8,920z"/>
				<path class="st4" d="M818,515.8c-6.7,4.1-12.6,9.3-19.3,13.5c-1.7,1-3.4,2-5.2,2.8l-0.7,0.3c-0.5,0.2,0.3-0.1-0.2,0.1
					s-0.9,0.3-1.3,0.5c-0.8,0.3-1.6,0.5-2.3,0.7l-0.6,0.1c-0.5,0.1,0.1,0,0,0c-0.4,0-0.8,0.1-1.2,0.1c-0.3,0-0.7,0-1,0s-0.5-0.1,0,0
					l-0.5-0.1c-0.3-0.1-0.6-0.2-1-0.3s0.4,0.2,0,0l-0.5-0.3c-0.2-0.1-0.9-0.7-0.4-0.2c-0.3-0.2-0.6-0.5-0.9-0.8
					c-0.2-0.2-0.3-0.3-0.5-0.5c0.3,0.4,0,0-0.1-0.2c-0.3-0.4-0.5-0.8-0.8-1.3l-0.3-0.7c-0.1-0.3,0,0,0,0.1l-0.2-0.5
					c-0.2-0.6-0.4-1.2-0.6-1.8c-0.8-3.1-1.1-6.2-1.1-9.4c-0.1-3.2-5.1-3.2-5,0c0.2,8.2,2,21.4,13,21c4-0.1,7.8-1.8,11.2-3.7
					c3.8-2.2,7.5-4.6,11-7.3c3.6-2.6,7.1-5.4,10.9-7.7C823.2,518.4,820.7,514.1,818,515.8L818,515.8z"/>
			</g>
		</g>
		<path class="st5" d="M277.7,664.3c-0.2,2-1.7,3.6-3.7,3.7h-9.8v55.3c0,3.7,3.7,5.6,5.6,5.6c2.1,0.2,3.7,1.8,3.9,3.9
			c-0.2,2-1.9,3.6-3.9,3.7c-7.1,0.2-13.1-5.4-13.3-12.5c0-0.2,0-0.5,0-0.7V668H247c-3.7,0-3.7-1.9-3.7-3.7s0-3.7,3.7-3.7h9.5v-28.2
			c0.1-2,1.7-3.6,3.7-3.7c2.1,0.1,3.8,1.7,4,3.7v28.2h9.8C276,660.7,277.6,662.3,277.7,664.3z"/>
		<path class="st5" d="M372.3,664.3v68.4c0,1.4-0.7,2.8-2,3.4c-1.8,0.9-4.1,0.2-5-1.6c-0.3-0.5-0.4-1.1-0.4-1.7v-11.3
			c-6.6,9.3-17.2,14.9-28.5,15c-20,0-36-17.2-36-38s16-38,36-38c11.3,0.1,22,5.6,28.5,14.9v-11.1c0-2.1,1.7-3.7,3.7-3.7
			S372.3,662.3,372.3,664.3z M364.8,698.6c0-17-12.9-30.7-28.5-30.7c-15.5,0-28.5,13.6-28.5,30.7s13,30.5,28.5,30.5
			C352,729.1,364.8,715.6,364.8,698.6z"/>
		<path class="st5" d="M407.8,632c-0.1-2.1,1.6-3.9,3.7-4c0.2,0,0.3,0,0.5,0c1.9,0.2,3.3,1.8,3.4,3.7v101.1c0,1.9-1.5,3.5-3.4,3.7
			c-2.1,0.2-4-1.4-4.2-3.5c0-0.2,0-0.3,0-0.5V632z"/>
		<path class="st5" d="M445.3,631.9c0-1.9,1.4-3.4,3.2-3.8c2.1-0.3,4,1.1,4.4,3.2c0,0.2,0,0.3,0,0.5v73l45-44.8
			c1.5-1.4,3.9-1.3,5.3,0.2c1.3,1.4,1.3,3.6,0,5l-29.3,29.3l29.5,35.8c1.4,1.4,1.4,3.7,0,5.1c-0.7,0.7-1.8,1.1-2.8,1.1
			c-1.2,0.1-2.3-0.4-3-1.4L468.4,700l-15.5,15.5v17.4c-0.1,2.1-1.8,3.8-3.9,3.7c-0.2,0-0.3,0-0.5,0c-1.8-0.4-3.2-2-3.2-3.8V631.9z"
			/>
		<path class="st5" d="M526.8,720.7c1.3-1.6,3.6-1.8,5.2-0.5c0,0,0,0,0.1,0.1c5.3,3.9,13.6,8.8,23.2,8.8c5.2,0.1,10.3-1.5,14.4-4.7
			c3.7-2.5,5.7-5.9,5.7-9.3c-0.2-3.6-1.5-6-5.4-9.3c-3.2-2.5-8.7-4.3-16.1-5.6l-0.3-0.2c-6.8-1.2-12.9-2.8-17.2-5.9
			c-5-2.7-8.1-7.9-8.2-13.6c0-6,3.4-11.3,8.2-14.9c4.5-3.1,10.8-5.1,18.6-5.1c9.8,0,16.7,4.5,22.6,8.2c1.7,1.2,2.2,3.5,1.1,5.3
			c-1.1,1.7-3.4,2.2-5.1,1.1c-5.6-3.7-11.2-7.6-18.6-7.6c-6.2,0-11.2,1.7-14.4,4.3c-3.1,2.5-4.8,5.6-4.8,8.7s1.4,5.3,4.3,7.6
			c3.4,2.3,8.5,4.2,15.5,5.3h0.4c6.5,0.9,12.7,3,18.4,6.2c5.2,3.4,8.4,9.2,8.5,15.5c0,6.3-3.6,11.5-8.7,15.3c-5.5,4-12.1,6.1-18.9,6
			c-12.2-0.2-21.9-5.9-28.1-10.8C525.8,724.4,525.6,722.2,526.8,720.7C526.8,720.7,526.8,720.7,526.8,720.7z"/>
		<path class="st4" d="M860.5,328.8c2.8,27.4,17.8,55,49.4,58.3c-30.4,4.1-42.8,22.5-53.4,51.3c-4.4-22.4-11.7-38.2-45.6-54.8
			C852.2,379.3,849.8,356.3,860.5,328.8z"/>
		<path class="st4" d="M858,328.8c1,11.2,4.2,22.1,9.5,32c5.3,9.6,13,18,22.8,23c6.1,3.1,12.8,5,19.6,5.7l-0.7-4.9
			c-10.6,1.5-20.8,5-29.3,11.7c-7.9,6.2-13.7,14.6-18.2,23.4c-2.9,5.8-5.4,11.8-7.7,17.9h4.8c-1.7-8.5-4-16.9-8.2-24.4
			c-4.8-8.5-11.8-15.3-19.7-20.9c-6-4.2-12.3-7.9-18.8-11l-1.3,4.7c12-1.3,24.7-4.3,33.3-13.3c6.8-7.1,10-16.6,12.8-25.8
			c1.8-5.9,3.6-11.8,5.9-17.5c0.4-1.3-0.4-2.7-1.8-3.1c-1.3-0.3-2.7,0.4-3.1,1.7c-3.7,9.5-6,19.4-9.8,28.9l-0.1,0.3
			c0-0.1,0.2-0.4,0,0.1c-0.1,0.2-0.2,0.4-0.3,0.6c-0.2,0.5-0.5,1.1-0.7,1.6c-0.5,1-1,2-1.5,3s-1.1,1.8-1.7,2.7
			c-0.5,0.8-1.1,1.6-1.7,2.3c-2.9,3.5-6.6,6.4-10.7,8.3c-6.2,3-13.5,4.4-20.5,5.2c-1.1,0-2.1,0.8-2.4,1.8c-0.3,1.1,0.2,2.2,1.2,2.8
			c10.2,5,20.3,10.9,28.4,19.1c3,3,5.5,6.3,7.7,9.9c1.1,1.8,2,3.6,2.9,5.5c0.7,1.5,1.4,3.2,2,5.1c1.5,4.5,2.6,9.1,3.5,13.7
			c0.3,1.1,1.3,1.8,2.4,1.8c1.1,0,2.1-0.8,2.4-1.8c3.6-9.8,7.8-19.5,13.9-28.1c5.2-7.4,12.3-13.2,20.6-17c5.5-2.3,11.3-3.8,17.2-4.6
			c1.2-0.3,2-1.5,1.8-2.7c-0.2-1.2-1.2-2.1-2.5-2.2c-10.5-1.1-20.4-5.6-28-12.9c-7.3-7.1-12.3-16.2-15.3-25.8
			c-1.8-5.6-3-11.3-3.6-17.1c0-1.4-1.1-2.5-2.5-2.5C859.1,326.4,858,327.5,858,328.8z"/>
	</g>
</g>
<rect x="203.3" y="608.7" class="st1" width="460.3" height="205"/>
<text transform="matrix(1 0 0 1 58.5814 767.4)" class="st6 st7">Mentions</text>
</svg>
