<svg id="Layer_1" data-name="Layer 1" xmlns="http://www.w3.org/2000/svg" xmlns:xlink="http://www.w3.org/1999/xlink" viewBox="0 0 7680 4320"><defs><style>.cls-1{opacity:0.27;}.cls-2{fill:#f9f5dd;}</style></defs><title>mountain</title><image class="cls-1" width="7680" height="4320" xlink:href="../Portfolio%20Assets/SVGs/home-mountain.png"/><path class="cls-2" d="M12.88,2755l.62,3.27a4,4,0,0,0,3.76,2.86c28.3,2.1,59-13.33,86.24-20.05,33.11-8.16,66.28-11.5,98.49-21.45,37.92-11.72,78.79-13.43,117.08-24.3,40.18-11.41,81.16-20.83,123-22.21,26.21-.87,52-8,77.91-11.94,36.9-5.68,75.28-3,110.69,8.74,54.57,18,109.29-9.69,156.89-35.79,29-15.93,57.57-31,89.66-40.18,12.13-3.48,24.69-2.12,36.85-5.66,14-4.06,27.17-12.86,39.94-19.47,70.2-36.35,142-51.82,219.45-64,64-10,129.18-11.74,192.8-24.48,31.27-6.26,63.49-11.49,93.8-21.38s53.27-23.46,80.28-38.74c28-15.83,54.14-22,79.76-42.61,24.57-19.73,49.29-42.3,72.11-64.06,26.76-25.5,55.49-51.14,80.51-78.39,23.61-25.7,51.12-61,82.19-76.29,35.85-17.68,75-31,112.81-43.81,35.77-12.12,74.16-17.6,107.22-36.59,24.8-14.25,47.06-29.8,70.28-46.23,12.76-9,27.07-16.14,39.74-25.12,13-9.23,21.56-22.48,35.7-30.55,23.77-13.56,48.77-19.27,72.07-35,13.92-9.39,25.61-21.82,39.62-31.14,14.22-9.47,31-14.91,46.37-22.46,67.09-33,137.11-58,198-102.54,22.88-16.76,41.74-34.28,69.5-42.58,31.68-9.48,66.14-11.6,99-9.2,36.89,2.69,72.85,12,104.23,32,32.43,20.68,55.76,51.08,83.19,77.42,47.67,45.8,116.65,67.68,174.37,98.65,26.61,14.28,49.67,24.2,78.94,32.21,38.46,10.51,73.65,28.52,111.75,39.67s76.34,13.69,115,19.8c39.18,6.19,78.18,8.17,115.16,24.92,63.57,28.82,128.43,53.15,191.35,83.54,35.72,17.26,70.64,36.22,106.57,53.05,30.4,14.25,59.22,19.51,90.78,28.15,29.12,8,57.95,17.6,88.26,20.63,35.61,3.55,72.56,1.74,107.67,8.46,60.29,11.53,125.13-7.15,186.32-4.83,31.2,1.18,60.95,5.78,92.65,4.6,33.43-1.23,65.77-8.58,99.24-8.35,35.12.24,68-.79,102.77,4.58,31.92,4.92,64.33,9.49,96.54,11,68.25,3.1,138.62,21.4,197.4,56,60.09,35.36,121.61,62.53,184.25,91.22,34.46,15.79,67.92,34.58,103.24,49.22,32.56,13.51,66.64,18.07,99.73,29.22,70.91,23.89,146.65,31.66,215.78,61.18,68.82,29.4,126.11,73.95,187,115.48,54,36.83,106.05,82.84,167.62,107.44,60.9,24.33,122.43,53.13,186.55,68.9,66.9,16.46,135,26.54,201.61,44.35,59.23,15.83,113.8,28.57,175.36,27.81,61.85-.76,123.31,8.13,185.61,7.77,50.21-.28,101.09,5.83,149.85,14.2,56,9.61,107.63,32.63,162.93,46.9,24.51,6.33,49.64,9.4,74.42,14.93,31.81,7.11,66.5,1.44,99.32,2.46,125.28,3.9,250.26,12.13,375.55,15.2,68.29,1.66,139.27-.93,207.18,6.64,6.78.76,6.66-9.76,0-10.57-69.81-8.53-143.34-7.93-213.72-9.1-61.31-1-124.08-4.94-185.26-8.22-31.57-1.7-62.75.7-94.26-2.59a926.76,926.76,0,0,0-96.55-5c-35.3.06-69.11,2.05-103.48-5.54-31.16-6.88-62.38-11.18-93.42-18.63-44.87-10.77-86.36-33.64-131.15-42-47.69-8.85-97.33-12.5-145.85-12.51-64.28,0-127.12-6.1-191.17-7.92-23.53-.66-53.28-.39-76.53-3.61-38.06-5.28-74.45-18.27-111.78-27.68-70-17.64-142.15-27.8-211.22-48.5-33.63-10.08-65.69-23.63-97.6-38.29-32.92-15.14-68.05-23.15-99.48-41.75-119.5-70.72-220.25-177.37-355.92-219.16-30.47-9.39-63.34-18-94.6-24.38-39-7.9-75.23-24.83-113.78-33.58-37.81-8.58-69.85-17.78-105.59-34.31-18.85-8.72-37.34-17.21-55.3-27.28-15.74-8.83-31.32-11-48.24-18.7-61.2-28-118.8-62.75-177.57-95.5-24.94-13.9-48.75-17.69-76.68-22.95-34.19-6.44-65-14.87-99.67-15.76-36.74-.94-75.35-10.19-111.77-15-28.8-3.78-59.24-.6-88.32-.71-29.56-.12-57.8,6-87.12,8.26-33.31,2.54-65.65-3.56-98.6-4.43a601,601,0,0,0-85.21,3.53c-40.57,4.6-77.82,2.67-118-2.21-33.76-4.11-68.42-1.48-102.29-6.49-30.64-4.53-59.49-16.65-89.6-22.15-43.18-7.89-80.51-27.69-119.6-47.44-38-19.18-77-36.19-114.91-55.4-26.59-13.49-54.34-22.56-82-34-33.34-13.75-65.89-32-101.21-40.51-27-6.5-56.7-7.5-84.34-11-42.85-5.38-85.49-11.22-126.2-27-34.25-13.25-66.75-25.08-102.19-35.11-40.75-11.53-75.94-36.4-113.84-54.84-29-14.11-61.05-26.35-88.39-43.5-32.12-20.14-54.84-54.21-82.65-79.51-40.1-36.49-89.6-54.42-143.24-58.27-48.34-3.47-104.24,1.26-145.09,29.6-28.86,20-54.88,42.43-85.7,59.77-33.62,18.92-70.48,29.52-104.77,46.79-29.17,14.69-62.53,26.52-89,45.54-27.8,20-51.46,40.38-83.71,52.6-23.62,9-35.88,21.26-54.58,36.75-25.06,20.76-56.9,40.16-84.9,56.59-35.7,21-67.08,34.2-106.67,45.8-36.46,10.67-72.25,24.37-107.38,38.75-27.91,11.42-52.93,19.76-73,42.87-25.31,29.17-53,58.35-82.2,83.82-56,48.82-102.21,109-171.19,139.8-26.71,11.91-50.28,29-77.4,39.71-33.21,13.11-68,21-102.8,28.57-130.59,28.39-271.83,18.09-395.27,76.39-16.46,7.77-32.35,16.61-48.6,24.81-18.5,9.34-30.63,9.68-49.58,13.67-13.69,2.87-23.49,10-36.79,14.07s-22.91,4.28-35.44,11.58c-32.33,18.83-63.58,38.63-99.53,50.22-16.59,5.36-33.61,10.52-51.24,9.33-19.51-1.32-36.09-11.45-55.13-14.8-62-10.91-117.61,8.86-179,11.45-32.21,1.37-65.54,10.18-96.58,18.27-39.89,10.4-79.77,17-120.18,25.45-20.13,4.22-189.66,44.31-189.15,46.62-1.07-4.86-8.35-2.77-7.42,2.05Z"/></svg>