<?xml version="1.0" encoding="UTF-8" standalone="no"?> <!-- Created with Vectornator for iOS (http://vectornator.io/) --><!DOCTYPE svg PUBLIC "-//W3C//DTD SVG 1.1//EN" "http://www.w3.org/Graphics/SVG/1.1/DTD/svg11.dtd">
<svg height="100%" style="fill-rule:nonzero;clip-rule:evenodd;stroke-linecap:round;stroke-linejoin:round;" xmlns:xlink="http://www.w3.org/1999/xlink" xmlns="http://www.w3.org/2000/svg" xml:space="preserve" width="100%" xmlns:vectornator="http://vectornator.io" version="1.1" viewBox="0 0 300 256">
<metadata>
<vectornator:setting key="OutlineMode" value="0"/>
<vectornator:setting key="DisplayWhiteBackground" value="0"/>
<vectornator:setting key="IsolateActiveLayer" value="0"/>
<vectornator:setting key="SnapToPoints" value="0"/>
<vectornator:setting key="DynamicGuides" value="0"/>
<vectornator:setting key="SnapToEdges" value="0"/>
<vectornator:setting key="GuidesVisible" value="1"/>
<vectornator:setting key="TimeLapseWatermarkDisabled" value="0"/>
<vectornator:setting key="CMYKEnabledKey" value="0"/>
<vectornator:setting key="RulersVisible" value="1"/>
<vectornator:setting key="PencilOnly" value="0"/>
<vectornator:setting key="DimensionsVisible" value="1"/>
<vectornator:setting key="doHistoryDisabled" value="0"/>
<vectornator:setting key="Units" value="Points"/>
<vectornator:setting key="SnapToGrid" value="0"/>
<vectornator:setting key="SnapToGuides" value="1"/>
</metadata>
<defs/>
<g id="Untitled" vectornator:layerName="Untitled">
<path d="M101.5+37.6C87.3+45.1+79.5+52.3+74.6+62.3C71.8+67.9+71.7+68.5+72.4+78C72.8+83.5+72.8+89.5+72.5+91.4L71.8+94.8L64.7+95.4C54.1+96.4+40.7+99+39.1+100.5C38+101.6+38.1+102+39.7+102.8C42.1+104.1+65.4+106.4+70.9+105.8C73.7+105.6+75.1+105.9+75.5+106.8C76.4+109.1+76.1+116+75+118.1C74.1+119.7+74.5+120.8+77.1+124C80.1+127.8+80.3+128.3+80.1+135.9C80+140.3+80.4+144.9+81+146C83.1+149.9+93.2+160.5+94.6+160.2C95.4+160+96+160.5+96+161.3C96+162.1+96.9+163.5+98+164.5C100.1+166.4+100.8+165.2+98.8+163.2C98.2+162.6+97.9+161.7+98.3+161.4C98.6+161+99.6+161.5+100.5+162.4C102.5+164.3+101.4+164.4+108.5+161.9C116+159.3+118.2+158.1+117.6+157.1C116.8+155.8+120.7+152.7+122.1+153.5C122.8+154+123+155.7+122.7+158.1C122.1+162.5+123.9+165+125.7+162.1C126.5+160.8+126.4+159.5+125.2+156.9C124.4+155+123.6+153+123.5+152.4C123.1+150.8+119.7+147+118.6+147C117.4+147+104.7+139+103.8+137.6C103.3+136.9+103+137.2+103+138.2C103+139.2+102.1+140.4+100.9+141.1C99.3+141.9+99.1+142.5+100+143.3C100.8+144.2+101.4+144.1+102.1+142.7C103.4+140.4+105.7+140.5+106.5+143C107.4+145.8+105.6+148.4+101.3+151C99.2+152.2+97.2+153.8+96.7+154.5C95.7+156.4+90.9+155.4+88.7+152.8C87.3+151.2+87+149.2+87.2+143.5C87.4+139.5+87.2+136.4+86.8+136.7C86.3+136.9+86+139.3+86+142.1C86+145.8+85.6+147+84.5+147C83.7+147+83+146.5+83+146C83+145.4+82.9+144.9+82.9+144.7C82.8+144.6+82.4+142.2+82.1+139.5L81.4+134.5L84.5+134.5C88+134.6+89+133.5+89+129.8C89+127.5+88+126.3+83.3+123.3C80.1+121.2+77.4+119.6+77.3+119.5C77.2+119.5+77.5+117.9+77.9+116C78.6+112.7+78.7+112.6+79.8+114.6C80.6+116.1+80.6+117+79.8+117.8C79+118.6+79.6+118.7+82.3+117.9C84.4+117.4+86.5+117.2+87.2+117.6C87.9+118.1+88+117.9+87.5+117C86.9+116.1+87.7+115.9+90.8+116.5C94.8+117.1+101+115.1+101+113.1C101+112.7+102.1+112.5+103.5+112.8C105+113+106+112.8+106+112.1C106+111.4+108.4+111+112.6+111C116.2+111+118.9+110.6+118.6+110.1C118.3+109.6+119.3+108+120.8+106.5C123+104.2+123.1+103.9+121.3+104.8C120.1+105.5+118.9+106.5+118.6+107.2C118.1+108.2+117.9+108.2+117.4+107.3C117+106.4+116.3+106.3+115.1+107C114.1+107.5+111.9+108.2+110.1+108.5C108.4+108.8+105.6+109.2+103.8+109.5C102.1+109.8+100+110.9+99.3+111.8C98.2+113+97.7+113.2+97.4+112.2C97.1+111.6+96.4+111+95.8+111C95.1+111+95.1+111.5+95.9+112.3C98.2+115.1+93.4+116+88.9+113.6C86.6+112.4+86.3+112.4+86.4+113.9C86.5+115.3+85.5+115.6+82.1+115.1C81+115+79.5+111.1+79.8+109.4C79.9+108.9+78.7+107.1+77.1+105.6C74.3+103+73.8+102.8+64.1+102.8C54.6+102.8+41.5+101.5+47+101C48.4+100.9+50.4+100.6+51.5+100.4C56.1+99.3+68.4+97.9+69.5+98.4C71+98.9+72.2+98.1+73.6+95.5C74.3+94.4+75.5+93.6+76.4+93.8C77.3+94+78+93.6+78+93C78+92.5+77.5+92.1+76.8+92.2C75.7+92.5+75.3+88.3+74.9+71.6C74.8+67.6+76.7+62.7+78.1+63.6C78.5+63.8+78.7+63.1+78.5+62C78+59.4+78.9+56.8+80.1+57.5C81.1+58.2+85.1+54.4+84.3+53.6C83.6+53+89.8+47+91.1+47C91.5+47+92.8+46.1+93.9+44.9C95+43.7+96.3+43.1+96.9+43.5C97.5+43.8+98+43.7+98+43.2C98+41.6+104.2+38.1+106.2+38.5C107.3+38.8+107.8+38.5+107.4+37.8C107+37.1+107.8+37+110.1+37.5C111.9+37.9+116.9+38.2+121.2+38.2C125.5+38.2+129+38.6+129+39.1C129+39.6+129.6+40+130.4+40C131.2+40+132.6+41+133.5+42.2C134.5+43.7+135.3+44.1+135.8+43.4C136.3+42.7+138.2+43+141.8+44.5C144.7+45.7+146.7+47+146.3+47.4C145.8+47.8+146+48.1+146.5+47.9C150.6+46.9+154.9+51.4+159.1+60.7C159.8+62.5+160.9+64+161.3+64C161.8+64+161.8+64.5+161.5+65C161.1+65.6+161.4+66.8+162.2+67.7C163.2+69+163.2+69.4+162.3+69.7C161.3+70.1+161.4+70.5+162.5+71.6C163.5+72.7+163.9+74.8+163.7+78.6C163.6+81.6+163.9+84.1+164.4+84.3C164.8+84.4+164.8+86.2+164.2+88.2C163.5+90.7+163.5+92+164.2+92.2C164.8+92.4+164.4+93.2+163.4+94C162.4+94.8+161.9+95+162.3+94.3C162.8+93.5+162.3+93.4+160.3+94.1C154.7+95.9+154+96.3+154+97.2C154+97.7+153.6+97.8+153+97.5C152.5+97.2+152.3+97.5+152.5+98.2C153.1+99.8+147.2+106.2+145.9+105.4C145.4+105.1+145.3+105.6+145.6+106.4C146.2+107.9+147.1+108.3+148.8+107.7C149.2+107.6+149.4+107.2+149.2+106.7C149.1+106.3+149.7+106+150.5+106C151.3+106+152+105.4+152+104.7C152+102.5+158+96+160.1+96C161.1+96+162.8+96.8+163.9+97.9C165.7+99.7+165.8+99.5+166.9+91.5C168+84.5+167.9+82+166.5+74.6C164.6+64.2+163.9+62.5+157.9+53.4C153.3+46.6+153+46.3+145+43.2C140.5+41.4+136.2+40+135.4+40C134.6+40+134+39.6+134+39C134+37.1+129.3+35.7+121.5+35.4C117.1+35.2+112.4+34.8+111+34.5C109.2+34.1+106.3+35.1+101.5+37.6ZM85.2+127.1C86.9+128+87+128.4+85.9+129.1C83.7+130.5+82.3+130.1+81.7+128C81.1+125.7+82.2+125.5+85.2+127.1ZM87+132C87+132.5+86.5+133+85.9+133C85.4+133+85.2+132.5+85.5+132C85.8+131.4+86.3+131+86.6+131C86.8+131+87+131.4+87+132ZM112+145.5C113.2+146.8+114.5+147.8+114.9+147.7C115.9+147.5+120+150+120+150.9C120+151.4+116.9+152+113.2+152.4C108.2+152.9+105.9+153.6+104.7+155C103.8+156.1+102.3+157+101.5+157C100.7+157+100+157.5+100+158C100+159.6+105.3+158.7+107.5+156.7C108.5+155.7+110+155.2+110.7+155.4C111.4+155.7+112.2+155.5+112.6+154.9C112.9+154.3+113.8+154.1+114.5+154.4C115.3+154.7+116.1+154.5+116.4+153.9C116.6+153.4+116.7+153.5+116.6+154.2C116.5+154.9+115.4+155.9+114.2+156.5C113+157+112+158.1+112+158.8C112+159.7+111.4+160+110.5+159.6C109.7+159.3+109+159.5+109+160C109+160.5+107.3+161.2+105.3+161.6C102.1+162.2+101.4+162+99.4+159.5L97.1+156.6L102.3+153.2C105.2+151.3+108.8+149.7+110.4+149.7L113.2+149.7L110.6+148.3C109.1+147.5+108+146.1+108+145C108+142.3+109.2+142.5+112+145.5ZM98+160.2C98+160.8+97.3+160.7+96.5+160C95.7+159.3+95+158.3+95+157.8C95+157.2+95.7+157.3+96.5+158C97.3+158.7+98+159.7+98+160.2Z" opacity="1" fill="#000000"/>
<path d="M138.4+46.3C138+46.9+138+47.2+138.5+46.8C138.9+46.4+139.9+46.5+140.7+47.2C141.4+47.8+142.2+48.1+142.5+47.9C142.7+47.6+142.1+46.9+141+46.2C139.5+45.3+138.9+45.3+138.4+46.3Z" opacity="1" fill="#000000"/>
<path d="M84.8+92.7C85.5+93+86.4+92.9+86.7+92.6C87.1+92.3+86.5+92+85.4+92.1C84.3+92.1+84+92.4+84.8+92.7Z" opacity="1" fill="#000000"/>
<path d="M144+95.8C144+96.5+144.8+97.4+145.8+97.7C146.7+98.1+148.1+99.1+148.8+99.9C149.8+101.2+150+101.2+149.8+100.1C149.5+99.3+148.5+98.2+147.4+97.6C146.4+97+145.2+96+144.8+95.5C144.3+94.9+144+95+144+95.8Z" opacity="1" fill="#000000"/>
<path d="M81.8+98.2C82.3+98.7+83.4+99+84.1+98.8C84.9+98.5+84.4+98.1+83.1+97.7C81.4+97.3+81+97.4+81.8+98.2Z" opacity="1" fill="#000000"/>
<path d="M99+97.4C99+97.6+99.7+98.1+100.6+98.4C101.4+98.7+101.8+98.6+101.5+98C100.9+97+99+96.6+99+97.4Z" opacity="1" fill="#000000"/>
<path d="M108+98C106.7+98.8+106.8+99+108.3+99C109.2+99+110+98.5+110+98C110+96.8+109.9+96.8+108+98Z" opacity="1" fill="#000000"/>
<path d="M113+98C112.1+98.6+112+99+112.7+99C113.3+99+114.2+98.5+114.5+98C115.3+96.8+114.9+96.8+113+98Z" opacity="1" fill="#000000"/>
<path d="M76.6+98.8C76.3+99.3+76.7+99.7+77.5+99.7C78.3+99.7+79+99.3+79+98.8C79+98.4+78.6+98+78.1+98C77.5+98+76.9+98.4+76.6+98.8Z" opacity="1" fill="#000000"/>
<path d="M140+100C140+100.5+140.5+101+141.1+101C141.6+101+141.8+100.5+141.5+100C141.2+99.4+140.7+99+140.4+99C140.2+99+140+99.4+140+100Z" opacity="1" fill="#000000"/>
<path d="M158.9+100.2C156.3+102.4+154+106.8+154+109.6C154+112+153.8+112.1+152.3+110.9C150.8+109.7+150.7+109.7+151.4+111.5C152.9+115.1+152.6+117.5+150.8+117.2C149.8+117+149+117.4+149+118C149+118.6+149.5+118.8+150.1+118.4C150.9+117.9+151.1+118.5+150.8+120.4C150.2+123.3+150.3+123.4+153.1+122C155.3+120.7+155.7+118.5+153.5+119.4C152.2+119.8+152.2+119.6+153+118C153.5+117+154.5+115.8+155+115.5C155.6+115.2+155.7+113.8+155.4+112.4C154.9+110.6+155.2+110+156.4+110C158.6+110+159.6+112.8+158.1+115.1C157.5+116.2+157.4+117+157.8+117C158.9+117+161+112.4+161+110C161+108.4+160.3+108+157.8+108C155+107.9+154.7+107.7+156.1+106.7C156.9+106+157.9+104.7+158.3+103.7C158.6+102.8+159.6+102+160.4+102C164.4+102+164.2+112.6+160.1+118.1C157.7+121.3+158.3+121.9+161.3+119.2C163.3+117.6+163.3+117.6+162.5+119.5C162.1+120.6+161.3+122.8+160.7+124.5C158.3+131.8+158.1+132+155+132C152.7+132+151.7+131.4+151+129.5C150.5+128.1+150.3+126.3+150.7+125.3C151.1+124.2+151+123.9+150.2+124.4C148.7+125.3+148.6+130.2+150.1+131.7C150.7+132.3+151.6+134.3+152+136.2C152.7+139.1+152.8+139.2+152.9+136.9C153+135+153.6+134.1+155.3+133.8C157.3+133.4+157.6+133.7+157.2+136.2C156.9+138.4+157.1+138.9+158.2+138.5C159.4+138+159.9+138.9+160.3+142.1C160.6+144.4+161.4+146.6+162+147C162.6+147.4+163.1+148.1+163.1+148.6C162.8+150.8+167.6+160+168.8+159.5C169.5+159.3+170.3+159.7+170.6+160.4C171.3+162.1+177+164.4+177+162.9C177+162.4+176+161.5+174.8+161C168.9+158.6+165.4+153.1+162.1+141C159.9+133.1+160.2+129.6+164.2+117.6C167.1+108.6+167.3+104+164.8+101.3C162.4+98.7+161+98.5+158.9+100.2Z" opacity="1" fill="#000000"/>
<path d="M125.2+103.3C124.7+104+123.9+105.2+123.5+106C122.7+107.3+122.8+107.3+124.3+106.1C125.8+104.9+126.3+105+128.2+106.6C129.4+107.7+130+108+129.7+107.4C128.6+105.5+131.6+105+134+106.7C135.7+107.9+135.9+108.4+134.9+109.2C133.8+109.9+134+110+135.4+109.8C137+109.6+137.4+110.1+137.6+112.5C137.8+116.9+137.9+117.2+139+116.5C139.6+116.2+140.4+117+141+118.4C142.5+122.4+145+120.7+145+115.6C145+113.3+145.5+110.9+146.1+110.3C146.9+109.5+146.7+108.9+145.4+108.2C143.8+107.4+143.5+107.6+143.4+109.3C143+114.3+142.5+115.8+141.4+115.3C140.7+115+140.4+114.1+140.7+113.3C141.1+112.2+140.9+111.9+140.2+112.4C139.4+112.9+139+112.4+139+111.1C139+109.9+138.7+109+138.3+109C137.8+109+137+107.8+136.3+106.4C135.3+104.2+135.3+104+136.7+105.1C137.5+105.8+139.2+106.5+140.3+106.7C142.1+106.9+142+106.7+139.6+105.4C135.5+103.1+130.2+102.8+128.9+104.8C127.9+106.4+127.9+106.4+128.4+104.8C129+102.8+126.5+101.6+125.2+103.3Z" opacity="1" fill="#000000"/>
<path d="M129.4+113.5C129+114.3+128.3+115+127.6+115C127+115+125.9+115.9+125.2+117C123.3+120.1+125.3+119.3+129+115.5C130.9+113.6+131.8+112+131.2+112C130.5+112+129.7+112.7+129.4+113.5Z" opacity="1" fill="#000000"/>
<path d="M106+116C105.2+116.5+104.2+116.6+103.8+116.4C103.4+116.1+103+116.7+102.9+117.7C102.9+118.7+102.6+119+102.3+118.2C102.1+117.6+101.4+117+100.9+117C100.3+117+100.1+117.3+100.3+117.7C100.6+118.2+99.4+118.6+97.8+118.7C93.9+119+91.3+121+93.2+122.1C94.8+123.2+96.3+123.2+95.7+122.2C95.4+121.8+96.6+121.4+98.3+121.3C102.1+121.1+104.1+120.7+105.7+119.7C107.7+118.4+111.2+117.7+115+117.8C117.7+117.9+118.1+117.7+116.5+117.1C112.8+115.6+107.5+115+106+116Z" opacity="1" fill="#000000"/>
<path d="M119.8+119.7C120.5+120+121.4+119.9+121.7+119.6C122.1+119.3+121.5+119+120.4+119.1C119.3+119.1+119+119.4+119.8+119.7Z" opacity="1" fill="#000000"/>
<path d="M119+121.9C118.2+122.3+116.2+123.4+114.5+124.3C105.9+129+104.7+129.3+103+127.4C102.1+126.3+100.4+124.9+99.2+124.2C97.3+123.2+96.9+123.2+96.4+124.4C96.1+125.2+95.1+125.6+94.2+125.3C92.8+124.9+92.7+125+94+125.8C94.8+126.4+95.8+126.6+96.2+126.4C97.6+125.5+101+127.1+101+128.5C101+130.4+105+132.5+108+132.1C110.6+131.8+122+123.5+122+121.9C122+120.8+121.1+120.8+119+121.9ZM116+124.9C116+125.4+114.8+126.6+113.3+127.5L110.5+129.3L112.9+126.6C115.5+123.8+116+123.5+116+124.9Z" opacity="1" fill="#000000"/>
<path d="M94.1+132.6C94.1+133.7+94.4+134+94.7+133.2C95+132.5+94.9+131.6+94.6+131.3C94.3+130.9+94+131.5+94.1+132.6Z" opacity="1" fill="#000000"/>
<path d="M107.4+135.5C107.7+137.8+108.6+138.1+108.7+136C108.8+134.9+108.5+134+108+134C107.6+134+107.3+134.7+107.4+135.5Z" opacity="1" fill="#000000"/>
<path d="M95+144C92.6+144.8+92.7+144.8+95.8+144.9C97.8+145+98.9+144.6+98.5+144C98.2+143.4+97.8+143+97.7+143.1C97.6+143.2+96.4+143.6+95+144Z" opacity="1" fill="#000000"/>
<path d="M120+144.4C120+144.6+120.7+145+121.5+145.4C122.3+145.7+123+145.5+123+145C123+144.4+122.3+144+121.5+144C120.7+144+120+144.2+120+144.4Z" opacity="1" fill="#000000"/>
<path d="M124+145.9C124+146.4+124.7+147+125.4+147.3C126.4+147.7+126.7+147.4+126.3+146.4C125.7+144.9+124+144.5+124+145.9Z" opacity="1" fill="#000000"/>
<path d="M89.2+148C89.2+149.4+89.4+149.9+89.7+149.2C89.9+148.6+89.9+147.4+89.7+146.7C89.4+146.1+89.2+146.6+89.2+148Z" opacity="1" fill="#000000"/>
<path d="M147.1+152.3C147+153.3+146.6+153.9+146.2+153.6C145.8+153.4+145.3+154.1+145.3+155.2C145.1+157.3+145.1+157.3+146.6+155.1C147.5+153.9+147.9+152.4+147.7+151.7C147.4+151+147.1+151.3+147.1+152.3Z" opacity="1" fill="#000000"/>
<path d="M158.6+161.7C158+163.1+158.1+163.2+159.1+162.3C159.8+161.6+160.1+160.8+159.8+160.5C159.5+160.2+158.9+160.7+158.6+161.7Z" opacity="1" fill="#000000"/>
<path d="M81.7+166C79+168.7+75.9+171+74.9+171C66.6+171+54.8+177.1+45.3+186.3C40.5+190.9+35+200.9+32.7+209C31.2+214.4+29.7+225.2+28.5+239.7C27.9+246.4+27.2+250.2+25.6+254.1C25+255.4+25.8+255.7+30.2+255.7C33.1+255.7+34.1+255.5+32.3+255.3C30.6+255.1+28.9+254.2+28.6+253.4C28.2+252.3+28.4+252.2+29.8+252.9C31.2+253.6+31.6+253.4+31.7+251.9C31.8+250.9+31.5+249.8+30.9+249.5C30.4+249.2+30.3+249.7+30.6+250.7C31.1+252.4+31.1+252.4+30+250.7C28.5+248.3+30.3+245.9+32.2+247.8C33.7+249.3+36.4+249.4+35.5+247.9C35.1+247.3+34.5+247.1+34.2+247.4C33.2+248.5+31+245.7+31+243.3C31+241.3+31.4+241+33.3+241.5C35.4+242.1+35.4+242+33.5+240.8C31.2+239.3+31.1+238.4+32.8+235.3C33.7+233.6+33.7+233.1+32.7+232.7C32+232.4+32.2+232.1+33.2+232.1C34.3+232+34.7+231.5+34.4+230.5C34+229.7+34.3+229+34.9+229C35.9+229+36.4+230.6+36.3+233.7C36.2+234.4+36.6+234.7+37.1+234.4C38.8+233.4+38+236.3+36.3+237.7C34.7+239+34.7+239+36.7+238.1C38.6+237.1+39.1+237.4+40.2+239.7C40.9+241.1+42.2+242.5+43+242.7C44.1+243+44.1+242.8+42.8+241.7C40.9+240.2+40.3+238.5+42+239.5C42.6+239.8+41.7+238.1+40+235.7C38.4+233.2+37+230.7+37+230.1C37+229.6+36+228.6+34.9+227.9C33.7+227.3+33+227.2+33.3+227.7C33.6+228.2+33.4+229.2+32.9+230C32.2+231.1+32+230.4+32.2+227.8C32.4+223.7+32.3+223.7+38.5+228.9C40.2+230.3+39.3+229.1+36.5+226.2C33.8+223.4+32.1+221+32.7+221C33.3+221+34.3+219.6+34.9+217.9C35.5+216.2+36.4+215.1+36.9+215.4C38.9+216.7+39+214+37+210.8C35.9+209+35+207.1+35+206.7C35+205.6+37.3+208+38.7+210.4C39.6+212+39.8+212.1+40.3+210.6C40.7+209.6+40.6+209.1+40+209.5C39.4+209.8+38.9+209.6+38.9+209.1C38.6+206.5+38.5+206.1+37.8+205.4C36.4+204.1+37+203+39+203C40.2+203+41+203.7+41+204.7C41+205.6+41.3+206.1+41.6+205.7C42+205.4+42+204.5+41.8+203.8C41.5+203.1+41.2+202.1+41.2+201.6C41.2+201.1+40.6+200.3+39.8+199.9C38.8+199.2+38.9+199+40.3+199C41.7+199+42+198.5+41.4+196.8C40.8+194.8+40.9+194.7+42.3+195.8C43.6+196.9+44+196.8+44.8+195.4C45.5+194.1+46.1+194+47.9+194.9C49+195.6+50+196.6+50+197.2C50+197.8+50.3+198.1+50.6+197.8C51.5+196.8+49+192.9+47.9+193.5C47.4+193.9+46.7+193.4+46.4+192.6C46.1+191.7+45.4+191.3+44.9+191.6C43.6+192.4+43.8+190.6+45.3+188.6C46.6+186.9+46.8+187+48.9+190.4C50.2+192.4+51.6+194+52.1+194C52.7+194+52.8+193.5+52.5+193C52.2+192.4+52.4+192+52.9+192C53.5+192+54+191.5+54+190.9C54+190.1+53.6+190.1+52.6+190.9C50.4+192.7+48.8+189.2+50+185.4C51+182.6+51+182.6+50.6+185.2C50.5+186.7+50.7+188.5+51.2+189.2C51.9+190.2+52+190.2+51.9+189C51.8+188.2+51.8+186.4+51.9+185.1C52+183+52.2+182.9+53.7+184.1C55.2+185.3+55.3+185.3+54.7+183.7C54.2+182.3+54.5+182.1+56.5+182.4C57.9+182.7+59.3+182.4+59.6+181.8C60+181.2+59.8+181+59.3+181.3C58.7+181.7+58+181.4+57.7+180.6C57.4+179.8+57.8+178.9+58.6+178.6C59.4+178.3+59.9+178.4+59.6+178.9C58.9+179.9+64.8+182.6+65.7+181.6C66+181.3+67+181.6+67.8+182.3C69.1+183.3+69.2+183.2+68.8+182C68.6+181.2+67.2+180.5+65.9+180.4C61.8+180.3+61.4+180.1+61.3+177.9C61.2+176.5+61.5+176.1+62.3+176.8C63+177.3+64.3+178+65.3+178.3C66.8+178.9+67+178.6+66.5+176.9C65.9+175.1+66.2+174.9+68.7+175.2C70.5+175.4+71.4+176+71.2+176.9C70.9+178.1+71.2+178.1+72.4+177.1C73.2+176.4+74.9+176.1+76.2+176.5C78.1+177+78+176.8+75.7+175.5C74.2+174.6+72.5+174.2+72+174.5C71.5+174.8+70.9+174.6+70.6+174.1C70.3+173.6+70.9+173+72+172.7C73.1+172.4+74+172.6+74+173.2C74+173.8+75.1+173.5+76.4+172.6C77.8+171.7+79.1+171.4+79.5+171.9C79.8+172.5+79.3+173.3+78.4+173.8C76.9+174.6+76.9+174.8+78.4+175.3C79.4+175.7+80+175.4+80+174.5C80+172.2+80.2+171.6+82.2+169.6C83.2+168.5+84+167.1+84+166.5C84+165.9+85.5+164.9+87.3+164.2C90.3+163+90.6+163.1+93.3+166.2C95.1+168.4+95.8+168.8+95.4+167.5C95+166.4+96.1+167.5+97.8+170C99.6+172.5+101+174.9+101+175.4C101+177.3+108.9+184+111.2+184.1C112.5+184.1+114.3+184.3+115.4+184.5C116.4+184.7+117.7+184.4+118.4+183.9C119+183.4+121+182+122.9+180.7C126.5+178.4+130.4+172.5+129.5+170.9C129.1+170.4+129.3+170+129.9+170C130.4+170+130.8+168.6+130.8+166.9C130.7+165.1+130.4+164.4+129.9+165.1C129.5+165.8+129.4+167+129.8+167.8C130.1+168.7+129.9+169.1+129.3+168.7C128.7+168.3+128+169.2+127.7+170.8C127+174.1+119.5+182.5+118.1+181.5C117.5+181.2+117+181.4+117+182.1C117+182.9+115.9+183+113.3+182.5C107.5+181.4+106.4+180.5+102.5+173.5C98.3+166+93+161+89.3+161C87.5+161+85.2+162.6+81.7+166ZM44.3+194.5C44+195.4+43.5+195.9+43.3+195.6C43+195.3+43.1+194.7+43.5+194.1C44.4+192.5+45+192.8+44.3+194.5ZM33.7+215.5C33.5+219.1+32+220.5+32+217.1C32+215+33+212+33.6+212C33.8+212+33.9+213.6+33.7+215.5ZM37.8+213.8C38+214.5+37.6+214.8+36.6+214.4C35.7+214.1+35+213.3+35+212.8C35+211.5+37.3+212.3+37.8+213.8Z" opacity="1" fill="#000000"/>
<path d="M181.1+161.9C177.9+162.5+178+162.6+186.6+166.2C191.5+168.3+195.8+170+196.2+170C196.5+170+197.1+168.6+197.5+167C197.9+165.3+198.6+164.3+199.1+164.6C199.7+164.9+199.9+165.8+199.6+166.6C199.3+167.4+199.4+168+199.8+168C200.2+168+200.7+169.1+200.8+170.6C200.9+172+200.6+172.9+200.1+172.6C199.6+172.2+199.4+173+199.8+174.2C200.3+176.3+200.2+176.4+198.5+175C197.5+174.2+196.9+174+197.3+174.7C197.7+175.3+197.4+176.1+196.8+176.4C195.9+176.8+196+176.9+197+176.9C201.5+176.6+203+177.1+203+178.9C203+180+202.6+181.2+202+181.5C200.7+182.3+200.7+184+202.1+184C202.6+184+202.8+183.5+202.5+183C202.2+182.4+202.3+182+202.9+182C203.5+182+203.9+180.1+203.8+177.4C203.6+173.5+203.4+173.1+202.3+174.6C201.2+176.1+201+176.1+201+174.8C201+174+202+172.5+203.2+171.4C204.4+170.4+205+170.1+204.6+170.7C204.2+171.5+204.5+172+205.4+172C206.2+172+207.2+172.5+207.6+173.2C208.1+173.9+207.8+174.1+206.9+173.8C205.9+173.4+205.4+173.9+205.3+175.1C205.2+176.2+205.5+176.8+205.9+176.6C206.3+176.3+207.9+175.9+209.4+175.6C211.6+175.2+212.1+175.4+211.6+176.6C211.3+177.4+211.4+177.9+211.9+177.5C212.4+177.2+213.5+177.7+214.4+178.5C215.3+179.4+216.1+179.6+216.5+179C216.8+178.4+218.4+178.7+220.5+179.7C222.4+180.6+223.7+181.7+223.4+182.2C223.1+182.6+223.6+183+224.4+183C225.2+183+227+184.1+228.4+185.5C229.8+186.9+231.2+188+231.5+188C231.8+188+233.2+188+234.8+188.1L237.5+188.2L235+189C232.4+189.8+233.8+190.4+237.6+190.1C239+189.9+241+191.4+243.3+194.2C246.4+197.9+246.7+198.6+245.2+199.2C243.7+199.8+243.7+200+245.5+200.5C248.4+201.4+250.5+204.9+249.1+206.3C247.4+208+247.8+209.4+249.5+208C251.4+206.4+251.4+207.3+249.5+211C248+213.9+246.6+214.8+245.7+213.2C245.5+212.8+245.5+213+245.6+213.7C245.8+214.4+245.4+215.3+244.7+215.7C243.1+216.7+237.1+216.7+237.7+215.7C237.9+215.3+237.6+215+237.1+215C236.5+215+236+215.7+236+216.5C236+217.6+237.1+218+240.1+218C243.9+218+244.1+218.1+242.9+219.7C241.6+221.3+241.7+221.4+243.2+220.1C244.2+219.4+244.7+218.4+244.4+217.9C243.9+217+245.3+216.6+247.8+216.9C248.4+217+249+216.6+249+216.1C249+215.5+250+214.2+251.2+213C253.2+211.2+253.3+210.6+252.3+207.2C250.2+200.2+248.4+196.1+246.4+193.9C243.7+190.8+236.5+186.1+232.7+184.8C231+184.2+228.4+182.8+227.1+181.8C225.8+180.8+221.5+178.4+217.6+176.6C209.1+172.5+204.6+169.2+199.8+163.2C198.3+161.3+197.1+161+191.3+161.1C187.5+161.2+183+161.5+181.1+161.9ZM194.4+165.1C194.1+165.6+194.4+166+195.1+166C195.8+166+196+166.3+195.7+166.7C195.3+167+193.9+166.7+192.5+166C190.8+165.1+190.4+164.4+191.1+163.9C192.6+163+195.2+163.9+194.4+165.1Z" opacity="1" fill="#000000"/>
<path d="M110.5+164.7C109.4+165+108.2+165.7+107.9+166.2C107.6+166.7+105.9+167.2+104.2+167.2L101.1+167.3L103.3+170C104.5+171.5+105.7+172.8+106+172.8C108.8+172.8+110+173.2+110+174.1C110+174.8+109.2+175.9+108.3+176.6C106.7+177.8+106.7+177.8+108.8+177.3C110+177+111+176.2+111+175.4C111+174.7+111.9+173.6+113+173C114.1+172.4+115+171.5+115+170.9C115+170.3+114.4+170.2+113.8+170.5C113.1+170.9+113.6+170.3+115+169.2C116.4+168+117.2+166.9+116.9+166.5C116.5+166.2+115.5+166.6+114.7+167.5C113.8+168.3+112.4+169+111.5+169C110.3+169+110+169.5+110.4+170.6C110.9+172+110.8+172.1+109.6+171.1C108.8+170.4+107.6+170.1+107+170.5C106.5+170.8+106+170.6+106+170.1C106+169.5+106.3+169+106.8+169C107.2+169+108.9+167.9+110.5+166.5C112.2+165.2+113.3+164.1+113+164.2C112.7+164.2+111.6+164.5+110.5+164.7Z" opacity="1" fill="#000000"/>
<path d="M143.2+166.1C142.5+167.2+142.2+168.6+142.6+169.1C143+169.9+142.5+170+141+169.5C139.5+169+139+169.1+139.4+169.9C139.8+170.5+139.4+171+138.5+171C137.6+171+137.1+171.4+137.5+171.9C138.1+172.9+132.3+177.8+131.3+177.2C130.9+177+130.3+177.6+129.8+178.5C129.3+179.4+127.6+180.6+126.2+181.2C124+182.1+123.8+182.4+125.3+182.7C127.1+183.2+127.1+183.2+125.3+184.6C123.7+185.9+123.8+186+126.7+185.8C128.4+185.7+130.7+186.3+131.7+187.2C133.9+189.1+140+190.6+140+189.2C140+188.6+137.8+187.4+135.1+186.4C132.3+185.4+130.3+184.3+130.6+183.9C130.8+183.5+130.5+182.8+129.9+182.4C129.1+182+130+180.9+132.2+179.6C139.8+174.9+148.9+166+144.2+167.7C142.7+168.3+142.7+168.2+143.9+166.7C144.7+165.7+145.1+164.8+144.9+164.5C144.6+164.3+143.9+165+143.2+166.1Z" opacity="1" fill="#000000"/>
<path d="M170.7+164.7C169.7+165.6+169.9+169+170.9+169C171.4+169+171.8+167.9+171.8+166.5C171.8+163.8+171.7+163.7+170.7+164.7Z" opacity="1" fill="#000000"/>
<path d="M118+170.5C117.3+171.4+117.2+172+117.8+172C118.3+172+119+171.3+119.4+170.5C119.7+169.7+119.8+169+119.6+169C119.4+169+118.7+169.7+118+170.5Z" opacity="1" fill="#000000"/>
<path d="M194.4+173.1C190.6+181.3+180.1+188.7+169+190.8C159.6+192.7+139.3+192.5+133.5+190.6C123.7+187.3+123+187.1+122.4+188.2C122+188.8+122.2+189+122.8+188.6C123.4+188.3+124.1+188.4+124.5+189C124.9+189.6+125.5+189.8+126+189.5C126.5+189.2+127.4+189.5+128.2+190.2C128.9+190.9+130+191.5+130.5+191.6C133.9+191.7+143.8+194.5+142.9+195.1C142.3+195.4+140+195.1+137.8+194.3C135.5+193.5+132.7+193.1+131.6+193.3C130+193.6+130.1+193.8+132.3+193.9C133.8+193.9+135+194.4+135+195C135+195.5+136+195.9+137.3+195.9C138.5+195.8+140.2+196+141.1+196.4C142+196.8+143.4+196.5+144.1+195.8C145.3+194.6+148.5+194.4+154+195C154.8+195.1+154.4+195.6+153+196L150.5+196.8L152.9+196.9C154.3+197+156.2+196.2+157.3+195.2C158.4+194.3+159+194.1+158.6+194.7C158.1+195.6+158.6+196+160.2+196C162.1+196+162.2+195.8+161+194.9C159.8+194.1+160+194+162+194.2C163.4+194.4+164.5+195+164.5+195.7C164.5+196.3+164.9+197.2+165.4+197.7C165.9+198.1+166+198+165.7+197.4C165.3+196.8+165.8+195.6+166.8+194.8C170+192+170.8+191.9+170.3+194.2C170+195.9+170.1+196.1+170.8+195.1C171.3+194.4+172.4+194+173.1+194.2C173.9+194.5+176.3+194.1+178.5+193.3C182.1+192.1+182.6+192.1+183.7+193.6C184.4+194.6+185.2+195.1+185.6+194.8C185.9+194.5+185.5+193.6+184.7+192.9C183.5+191.7+183.9+191+187.4+187.8C189.6+185.8+191+184.1+190.4+184C189.8+184+188.3+185.2+186.9+186.6C184.3+189.3+176.2+193.5+175.2+192.6C174.9+192.3+176.1+191.5+177.8+190.9C179.6+190.3+181+189.4+181+188.9C181+188.4+181.6+188+182.3+188C183.9+188+191.5+181.1+192.2+179C192.5+178.2+193.1+177.8+193.5+178.3C194+178.7+193.8+179.6+193.2+180.2C192.5+180.9+192+181.8+192+182.3C192+182.8+192.9+182.2+193.9+180.9C195.1+179.4+195.5+178.1+194.9+177.4C194.4+176.8+194.5+175.9+195.1+175.3C195.7+174.7+196+173.4+195.8+172.4C195.6+170.9+195.3+171+194.4+173.1Z" opacity="1" fill="#000000"/>
<path d="M130.9+174.7C129.6+176.2+129.7+176.2+131.8+175.1C134.1+173.9+134.6+173+133.1+173C132.6+173+131.6+173.7+130.9+174.7Z" opacity="1" fill="#000000"/>
<path d="M197+180C196.2+181.6+196.2+182+197.4+182C198.2+182+199.1+182.6+199.3+183.2C199.7+184.2+199.9+184.2+199.9+183.3C200+182.7+199.6+181.9+199+181.5C198.5+181.2+198.3+180.3+198.7+179.5C199.5+177.3+198.2+177.7+197+180Z" opacity="1" fill="#000000"/>
<path d="M210.5+180C209.2+180.6+209+180.9+210+180.9C211.3+181+211.3+181.1+210+182C209.2+182.5+208.8+183+209.2+183C209.5+183+210.5+183.3+211.3+183.6C212.4+184+212.8+183.5+212.6+181.6C212.6+180.2+212.5+179+212.5+179.1C212.5+179.1+211.6+179.5+210.5+180Z" opacity="1" fill="#000000"/>
<path d="M214.3+182.5C214+183.4+214+184.4+214.4+184.7C214.7+185.1+215+184.8+215+184.2C215+183.5+215.9+183+217+183C218.1+183+219+183.6+219+184.2C219+185.1+219.3+185+219.9+184C220.5+183.2+220.6+182.2+220.4+181.8C219.5+180.4+215+180.9+214.3+182.5Z" opacity="1" fill="#000000"/>
<path d="M194+182.7C194+184.2+195.8+186.2+196.3+185.4C196.6+184.9+196.2+183.9+195.4+183.2C194.6+182.5+194+182.3+194+182.7Z" opacity="1" fill="#000000"/>
<path d="M57.8+184.7C58.5+185+59.4+184.9+59.7+184.6C60.1+184.3+59.5+184+58.4+184.1C57.3+184.1+57+184.4+57.8+184.7Z" opacity="1" fill="#000000"/>
<path d="M141+186C140.1+186.6+140+187+140.7+187C141.3+187+142.2+186.5+142.5+186C143.3+184.8+142.9+184.8+141+186Z" opacity="1" fill="#000000"/>
<path d="M211+186.1C211+186.6+210.5+186.8+209.8+186.4C209.1+185.9+209+186.1+209.5+187C209.9+187.7+209.7+188.5+209.1+189C208.4+189.4+209.4+189.7+211.2+189.7C213+189.7+213.7+189.5+212.7+189.3C211.5+189+211.1+188.3+211.5+186.9C211.9+185.9+211.9+185+211.6+185C211.3+185+211+185.5+211+186.1Z" opacity="1" fill="#000000"/>
<path d="M223.6+186.7C223.3+187.5+222.5+187.8+221.8+187.4C220.8+186.9+220.8+187+221.6+187.9C223+189.4+227.2+189+227.7+187.4C228.3+185.7+224.2+185+223.6+186.7Z" opacity="1" fill="#000000"/>
<path d="M191.5+187C191.2+187.5+191.3+188+191.9+188C192.4+188+193.2+187.5+193.5+187C193.8+186.4+193.7+186+193.1+186C192.6+186+191.8+186.4+191.5+187Z" opacity="1" fill="#000000"/>
<path d="M203.7+187.6C204.3+189.3+204.5+189.3+205.8+187.7C206.6+186.7+206.4+186.4+205+186.3C203.7+186.2+203.3+186.6+203.7+187.6Z" opacity="1" fill="#000000"/>
<path d="M55.7+187.7C54.5+188.9+55+189.6+57.2+189.7C58.5+189.8+59+189.6+58.5+189.2C57.9+188.8+57.2+188.1+56.9+187.7C56.6+187.3+56+187.3+55.7+187.7Z" opacity="1" fill="#000000"/>
<path d="M214.9+187.9C216.1+188.7+220+188.3+220+187.4C220+187.2+218.5+187+216.8+187C214.5+187+213.9+187.3+214.9+187.9Z" opacity="1" fill="#000000"/>
<path d="M126+192C126+192.5+126.5+193+127.1+193C127.6+193+127.8+192.5+127.5+192C127.2+191.4+126.7+191+126.4+191C126.2+191+126+191.4+126+192Z" opacity="1" fill="#000000"/>
<path d="M225+192C225+192.5+225.5+193+226+193C226.6+193+227+192.5+227+192C227+191.4+226.6+191+226+191C225.5+191+225+191.4+225+192Z" opacity="1" fill="#000000"/>
<path d="M236+192.6C236+194.1+238.6+194.5+239.4+193.1C239.7+192.6+239.1+192+238+191.7C236.7+191.4+236+191.7+236+192.6Z" opacity="1" fill="#000000"/>
<path d="M231.8+192.5C231.5+192.9+231.7+194.2+232.4+195.5C233.2+197.3+234.3+198+236.5+198C238.6+198+239.1+197.7+238.1+197.1C237.3+196.6+236+196.4+235.2+196.8C234.3+197.1+233.9+196.9+234.3+196.3C234.7+195.7+234.3+194.9+233.4+194.6C232.6+194.3+232.2+193.6+232.5+193C233.2+191.9+232.7+191.6+231.8+192.5Z" opacity="1" fill="#000000"/>
<path d="M240.5+194C240.2+194.5+240.4+195+241+195C241.6+195+241.8+195.5+241.4+196.2C241+196.9+241.1+197+241.8+196.6C242.4+196.2+242.7+195.3+242.3+194.5C241.7+192.7+241.3+192.6+240.5+194Z" opacity="1" fill="#000000"/>
<path d="M55+195C53.7+195.8+53.8+196+55.3+196C56.2+196+57+195.5+57+195C57+193.8+56.9+193.8+55+195Z" opacity="1" fill="#000000"/>
<path d="M116+196.1C116+197.3+119.4+197.7+121.5+196.8C123.3+196+123.3+196+121.3+196.4C120+196.6+119+196.5+119+196.1C119+195.7+118.3+195.3+117.5+195.3C116.7+195.3+116+195.7+116+196.1Z" opacity="1" fill="#000000"/>
<path d="M127.5+195.8C126.3+197+127.2+197.5+130.4+197.5C132.3+197.5+133.6+197.2+133.4+196.9C132.9+196+128.2+195.2+127.5+195.8Z" opacity="1" fill="#000000"/>
<path d="M222.5+196C222.2+196.5+222.4+197+222.9+197C223.5+197+224+196.5+224+196C224+195.4+223.8+195+223.6+195C223.3+195+222.8+195.4+222.5+196Z" opacity="1" fill="#000000"/>
<path d="M45.8+197.1C45.5+197.9+46.6+199.8+48.3+201.5C50+203.1+50.8+203.8+50.2+202.9C49.5+202+49.4+200.9+49.8+200.5C50.2+200+50+200+49.3+200.3C48.6+200.7+47.8+199.9+47.3+198.3C46.7+196.5+46.2+196.1+45.8+197.1Z" opacity="1" fill="#000000"/>
<path d="M135.8+197.7C136.5+198+137.4+197.9+137.7+197.6C138.1+197.3+137.5+197+136.4+197.1C135.3+197.1+135+197.4+135.8+197.7Z" opacity="1" fill="#000000"/>
<path d="M147.5+198C147.2+198.5+147.3+199+147.9+199C148.4+199+149.2+198.5+149.5+198C149.8+197.4+149.7+197+149.1+197C148.6+197+147.8+197.4+147.5+198Z" opacity="1" fill="#000000"/>
<path d="M241.4+198.5C240.4+199.3+240+200+240.6+200C241.2+200+242.3+199.3+243+198.5C244.6+196.6+243.9+196.6+241.4+198.5Z" opacity="1" fill="#000000"/>
<path d="M237.5+203C237.2+203.5+237.6+204+238.5+204C239.4+204+239.8+203.5+239.5+203C239.2+202.4+238.7+202+238.5+202C238.3+202+237.8+202.4+237.5+203Z" opacity="1" fill="#000000"/>
<path d="M241+202.8C241+203.3+242.7+204.2+244.7+204.8C247.8+205.7+248.1+205.7+246.9+204.6C245.1+202.8+241+201.6+241+202.8Z" opacity="1" fill="#000000"/>
<path d="M243+209.4C245.8+211.1+249+211.6+247.5+210.1C246.9+209.6+245.2+208.9+243.5+208.5L240.5+207.9L243+209.4Z" opacity="1" fill="#000000"/>
<path d="M239+213C239+213.5+239.9+214+241.1+214C242.2+214+242.8+213.5+242.5+213C242.2+212.4+241.2+212+240.4+212C239.6+212+239+212.4+239+213Z" opacity="1" fill="#000000"/>
<path d="M252.2+213.6C251.4+215+251.6+215.7+252.7+216.5C254+217.5+254+217.9+252.9+219.1C252.1+219.9+251.5+221.2+251.5+222C251.5+222.8+250.9+223.4+250.2+223.2C249.4+223.1+249.1+223.4+249.5+224C250.4+225.4+252.7+225.3+253.3+223.7C253.5+223.1+254.1+222.9+254.6+223.3C255.5+224.2+252.4+226.5+250.4+226.5C249.8+226.5+248.5+227.3+247.6+228.3C246.1+229.8+246.1+230+247.4+230C248.3+230+249+229.3+249+228.5C249+227.3+249.4+227.2+250.8+228.1C253.3+229.7+253.5+236.1+250.9+236.7C249.9+237+249+237.6+249+238.1C249+238.6+248.4+238.8+247.8+238.6C247.1+238.5+246.8+238.5+247.2+238.7C247.6+238.9+247.6+239.9+247.4+240.8C247+242+247.3+241.9+248.7+240.4C249.7+239.2+251.6+237.9+253+237.6L255.5+236.9L253+238.4C251+239.6+250.9+239.9+252.3+240C253.5+240+253.9+240.4+253.3+241.2C252.2+243+252+245+253+245C253.9+245+253.7+247.6+252.7+248.6C251.2+250.1+253.8+255.9+256.1+256C256.4+256+256.5+252.7+256.3+248.7C256+244.8+256.2+239+256.7+236C257.6+230.2+255.9+214.5+254.1+212.7C253.6+212.2+252.8+212.5+252.2+213.6ZM256+230.2C256+232.5+255.7+233.1+255.1+232.1C254.6+231.4+254.4+230+254.5+229.1C255+226.9+254.9+227+255.5+227C255.8+227+256+228.5+256+230.2Z" opacity="1" fill="#000000"/>
<path d="M248.5+219C248.2+219.5+248.3+220+248.9+220C249.4+220+250.2+219.5+250.5+219C250.8+218.4+250.7+218+250.1+218C249.6+218+248.8+218.4+248.5+219Z" opacity="1" fill="#000000"/>
<path d="M243.9+221.7C242.6+223.3+242.7+223.4+244.3+222.1C245.2+221.4+246+220.6+246+220.4C246+219.6+245.2+220.1+243.9+221.7Z" opacity="1" fill="#000000"/>
<path d="M33.7+235.7C33.3+236+33+236.8+33+237.4C33+238+33.5+237.9+34.2+237.2C34.8+236.6+35.1+235.8+34.9+235.5C34.6+235.2+34+235.3+33.7+235.7Z" opacity="1" fill="#000000"/>
<path d="M35.5+243.1C35.1+243.7+35.2+244.6+35.8+245.2C36.4+245.8+36.9+245.6+37.3+244.6C38+242.8+36.4+241.5+35.5+243.1Z" opacity="1" fill="#000000"/>
<path d="M38.5+247C37.7+248.3+40.6+251.8+41.6+250.8C41.9+250.4+41.5+249.2+40.7+248C39.7+246.5+39+246.2+38.5+247Z" opacity="1" fill="#000000"/>
<path d="M246.7+248.9C247.1+250.5+247.5+250.6+248.5+249.7C250+248.3+249.5+247+247.5+247C246.7+247+246.4+247.7+246.7+248.9Z" opacity="1" fill="#000000"/>
<path d="M35.4+251.6C35.7+253.3+38.8+255.6+39.6+254.7C40.2+254.1+36.9+250+35.9+250C35.5+250+35.3+250.7+35.4+251.6Z" opacity="1" fill="#000000"/>
<path d="M42.6+251.9C42.3+252.4+42.7+253+43.5+253.4C44.3+253.7+45+253.5+45+253C45+251.7+43.2+250.8+42.6+251.9Z" opacity="1" fill="#000000"/>
<path d="M246.5+255C246.3+255.3+247+255.6+248+255.7C249.1+255.8+250.2+255.5+250.5+255C250.8+254.5+250.1+254.2+248.9+254.3C247.8+254.4+246.7+254.7+246.5+255Z" opacity="1" fill="#000000"/>
</g>
</svg>
