<svg xmlns="http://www.w3.org/2000/svg" xmlns:xlink="http://www.w3.org/1999/xlink" viewBox="0 0 1343.48 1189.6"><defs><style>.cls-1,.cls-7{fill:none;}.cls-2,.cls-4,.cls-5{fill:#2e2e2e;}.cls-2,.cls-5{stroke:#2e2e2e;}.cls-2,.cls-7{stroke-miterlimit:10;}.cls-2{stroke-width:8px;}.cls-3{fill:#5bbeb0;}.cls-5{stroke-linecap:round;stroke-linejoin:round;}.cls-6{clip-path:url(#clip-path);}.cls-7{stroke:#f9f5dd;stroke-width:6px;}.cls-8{fill:#f9f5dd;}</style><clipPath id="clip-path"><path class="cls-1" d="M1077.61,114.4S884.31-57.24,486.2,35.48C194.29,103.47-28.65,395.4,29.64,698.36c61,317,384.06,480.4,686.32,454.13q7.62-.66,15.23-1.48C860.9,1137,986,1086.8,1091,1009.61c103-75.78,206.85-186.08,226.23-317.6,16.39-111.24-69.49-173.92-159.94-215-42.59-19.36-137.83-32-147.88-88.51a50.55,50.55,0,0,1,17.76-47.28c14.34-11.51,34.2-14.16,52.35-11.25,38,6.08,66,27.33,105.72,11.29,31.27-12.63,39.8-41.53,30.47-72.63C1191.53,188,1077.61,114.4,1077.61,114.4Z"/></clipPath></defs><title>play_button</title><g id="Layer_2" data-name="Layer 2"><g id="Layer_1-2" data-name="Layer 1"><path class="cls-2" d="M1097.86,144.76S904.55-26.88,506.44,65.85c-291.9,68-514.85,359.91-456.56,662.87,61,317,384.07,480.41,686.32,454.14q7.63-.67,15.23-1.49c129.72-14,254.83-64.21,359.79-141.4,103-75.78,206.85-186.08,226.23-317.6,16.4-111.24-69.49-173.92-159.94-215-42.59-19.37-137.83-32-147.88-88.52a50.57,50.57,0,0,1,17.77-47.28c14.33-11.5,34.19-14.16,52.34-11.25,38,6.09,66,27.34,105.72,11.29,31.27-12.63,39.8-41.53,30.47-72.63C1211.77,218.4,1097.86,144.76,1097.86,144.76Z"/><path class="cls-3" d="M652.53,1159.23c-144.94,0-286.43-42.09-398.39-118.53C131.6,957,52.61,838.93,25.71,699.11c-27.88-144.9,6.79-295,97.62-422.62A626.87,626.87,0,0,1,281.26,121.83c63.05-43,131.7-73.4,204-90.24C563.89,13.28,640.34,4,712.52,4,839.9,4,933,33.11,988.64,57.54c58.42,25.63,88.29,51,91.4,53.66a539.7,539.7,0,0,1,60.23,47.12c42.35,38.29,69,75,79.25,109.11,5,16.73,5,32.58-.11,45.82-5.49,14.3-16.79,25.24-32.69,31.67a81.45,81.45,0,0,1-30.94,6.16c-15.59,0-29.65-4.33-44.54-8.92-10.29-3.18-20.94-6.46-32.37-8.3a82.5,82.5,0,0,0-12.84-1c-10.08,0-24.57,2-36.37,11.46a46.73,46.73,0,0,0-16.33,43.46c7.13,40.11,61.81,57.48,105.76,71.44,14.93,4.74,29,9.22,39.84,14.13,54.72,24.88,94.43,51.78,121.37,82.22,34.74,39.25,48.49,85.36,40.87,137.05-9,61.16-36.78,122.25-82.53,181.56-37.64,48.81-86.53,95.47-145.29,138.68a763.52,763.52,0,0,1-171.51,94.91A730.82,730.82,0,0,1,731.62,1155c-5.08.55-10.23,1-15.31,1.49C695.26,1158.31,673.8,1159.23,652.53,1159.23Z"/><path class="cls-4" d="M712.52,8c245.24,0,365.09,106.4,365.09,106.4S1191.53,188,1215.69,268.58c9.33,31.1.8,60-30.47,72.63a77.25,77.25,0,0,1-29.44,5.87c-25.79,0-48.34-12.69-76.28-17.16a85.19,85.19,0,0,0-13.47-1.09c-14,0-28,3.64-38.88,12.34a50.55,50.55,0,0,0-17.76,47.28C1019.44,445,1114.68,457.6,1157.27,477c90.45,41.13,176.33,103.81,159.94,215.05C1297.83,823.53,1194,933.83,1091,1009.61,986,1086.8,860.9,1137,731.19,1151q-7.61.83-15.23,1.48-31.62,2.76-63.43,2.74c-282.59,0-566.15-161.94-622.89-456.87C-28.65,395.4,194.29,103.47,486.2,35.48,570.88,15.76,646.26,8,712.52,8m0-8C640,0,563.28,9.32,484.38,27.69A599.39,599.39,0,0,0,377.13,63.75,624.12,624.12,0,0,0,279,118.53a638.39,638.39,0,0,0-86.52,71,630.65,630.65,0,0,0-72.41,84.67A604.67,604.67,0,0,0,64.25,370a568.58,568.58,0,0,0-36.69,104.6C9.37,549.48,7.42,625.26,21.78,699.87c13.91,72.3,41.77,139.2,82.79,198.83,38.51,56,88.07,104.86,147.31,145.3,112.62,76.89,254.91,119.23,400.65,119.23,21.39,0,43-.93,64.12-2.77,5.11-.44,10.29-.94,15.4-1.49a735,735,0,0,0,191.26-47.51,767.27,767.27,0,0,0,172.41-95.41c59.06-43.43,108.21-90.35,146.09-139.46C1288,816.73,1316,755,1325.12,693.17c4.09-27.73,2.19-54.1-5.65-78.37-7.11-22-19.28-42.82-36.17-61.91C1256,522,1215.83,494.8,1160.58,469.68c-11-5-25.23-9.53-40.28-14.31-42.92-13.63-96.33-30.6-103-68.32a42.6,42.6,0,0,1,14.89-39.64c10.9-8.75,24.43-10.58,33.87-10.58a77.86,77.86,0,0,1,12.2,1c11.16,1.79,21.67,5,31.83,8.17,14.52,4.47,29.53,9.1,45.72,9.1a85.07,85.07,0,0,0,32.43-6.46c17-6.84,29-18.58,34.94-33.93,5.41-14.08,5.48-30.82.2-48.41-5.79-19.31-16.93-39.72-33.1-60.66-12.74-16.51-28.66-33.42-47.29-50.27A535.21,535.21,0,0,0,1082.45,108c-4.23-3.65-34.51-28.81-92.2-54.13A614.16,614.16,0,0,0,874.73,16.81C823.61,5.66,769,0,712.52,0Z"/><path class="cls-5" d="M809.43,686.93V652.58a3.68,3.68,0,0,1,7.35,0v10.65A34.79,34.79,0,0,1,844.68,649c19.8,0,35.55,16.35,35.55,36.45S864.48,722,844.68,722a34.51,34.51,0,0,1-27.9-14.4v42a3.68,3.68,0,0,1-7.35,0Zm7.35-1.5c0,16.2,12.75,29.25,27.9,29.4,15.6-.15,28.2-13.2,28.2-29.4s-12.6-29.1-28.2-29.1c-14.85,0-27.3,12.3-27.9,27.9Z"/><path class="cls-5" d="M906.48,621.08a3.68,3.68,0,0,1,7.35,0v97.8a3.68,3.68,0,0,1-7.35,0Z"/><path class="cls-5" d="M1004.43,652.58v66.3a3.6,3.6,0,0,1-7.2,0v-11a34.31,34.31,0,0,1-27.6,14.55c-19.35,0-34.8-16.65-34.8-36.75S950.28,649,969.63,649a34.17,34.17,0,0,1,27.6,14.4v-10.8a3.6,3.6,0,1,1,7.2,0Zm-7.2,33.15c0-16.5-12.45-29.7-27.6-29.7s-27.6,13.2-27.6,29.7,12.6,29.55,27.6,29.55S997.23,702.23,997.23,685.73Z"/><path class="cls-5" d="M1034.13,652.43a3.49,3.49,0,0,1,3.45-3.45,3.56,3.56,0,0,1,3.75,3.45v39.9a22.5,22.5,0,0,0,22.5,22.65,22.76,22.76,0,0,0,22.8-22.65v-39.9a2.62,2.62,0,0,1,.6-1.8c0-.15.15-.3.15-.45.15,0,.15-.15.3-.15a2.7,2.7,0,0,1,1.35-.9h.3c.15,0,.3-.15.45-.15h.9a9.18,9.18,0,0,1,1.8.75,3.61,3.61,0,0,1,.9,1.2,2.89,2.89,0,0,1,.45,1.5v64.2a34.6,34.6,0,0,1-34.95,34.5,36.76,36.76,0,0,1-15.15-3.45,3.71,3.71,0,0,1-1.5-4.8,3.87,3.87,0,0,1,4.65-1.8,27.18,27.18,0,0,0,12,2.85,27.59,27.59,0,0,0,27.75-27.3v-4.8a30.4,30.4,0,0,1-22.8,10.5,30,30,0,0,1-29.7-30Z"/><g class="cls-6"><path class="cls-7" d="M179.71,95.8h426.8a52.69,52.69,0,0,1,52.69,52.69v672A153.57,153.57,0,0,1,505.64,974.08H179.71A52.69,52.69,0,0,1,127,921.39V148.5A52.69,52.69,0,0,1,179.71,95.8Z" transform="translate(217.12 -105.16) rotate(20.94)"/><rect class="cls-7" x="320.64" y="215.13" width="286.2" height="286.2" rx="19.25" transform="translate(158.64 -142.07) rotate(20.94)"/><rect class="cls-7" x="253.6" y="177.61" width="417.73" height="357.73" rx="53.05" transform="translate(157.93 -141.73) rotate(20.94)"/><rect class="cls-8" x="186.23" y="569.82" width="41.6" height="146.2" rx="14.65" transform="translate(881.48 679.31) rotate(110.94)"/><circle class="cls-7" cx="389.91" cy="751.48" r="31.26"/><circle class="cls-7" cx="484.37" cy="721.55" r="31.26"/><rect class="cls-8" x="187.18" y="570.18" width="41.6" height="146.2" rx="14.65" transform="translate(243.61 -31.85) rotate(20.94)"/><rect class="cls-8" x="231.12" y="825.01" width="16.54" height="44.27" rx="8.27" transform="translate(1116.14 926.29) rotate(110.94)"/><rect class="cls-8" x="288.06" y="846.79" width="16.54" height="44.27" rx="8.27" transform="translate(1213.77 902.68) rotate(110.94)"/><circle class="cls-8" cx="403.81" cy="906.78" r="3.79"/><circle class="cls-8" cx="393.15" cy="934.63" r="3.79"/><circle class="cls-8" cx="422.27" cy="897.48" r="3.79"/><circle class="cls-8" cx="411.61" cy="925.33" r="3.79"/><circle class="cls-8" cx="440.28" cy="889.25" r="3.79"/><circle class="cls-8" cx="429.63" cy="917.1" r="3.79"/><circle class="cls-8" cx="459.6" cy="880.62" r="3.79"/><circle class="cls-8" cx="448.95" cy="908.47" r="3.79"/><circle class="cls-8" cx="466.34" cy="899.45" r="3.79"/><circle class="cls-8" cx="484.35" cy="891.22" r="3.79"/><circle class="cls-8" cx="473.7" cy="919.07" r="3.79"/><circle class="cls-8" cx="493.02" cy="910.44" r="3.79"/><circle class="cls-8" cx="438.74" cy="934.02" r="3.79"/><circle class="cls-8" cx="456.75" cy="925.79" r="3.79"/><circle class="cls-8" cx="446.1" cy="953.64" r="3.79"/><circle class="cls-8" cx="465.42" cy="945.01" r="3.79"/><circle class="cls-8" cx="483.26" cy="935.93" r="3.79"/><circle class="cls-8" cx="400.79" cy="952.67" r="3.79"/><circle class="cls-8" cx="418.8" cy="944.45" r="3.79"/><circle class="cls-8" cx="427.92" cy="961.36" r="3.79"/></g></g></g></svg>