<?xml version="1.0" encoding="UTF-8" standalone="no"?> <!-- Created with Vectornator for iOS (http://vectornator.io/) --><!DOCTYPE svg PUBLIC "-//W3C//DTD SVG 1.1//EN" "http://www.w3.org/Graphics/SVG/1.1/DTD/svg11.dtd">
<svg style="fill-rule:nonzero;clip-rule:evenodd;stroke-linecap:round;stroke-linejoin:round;" xmlns:vectornator="http://vectornator.io" viewBox="0 0 1343.48 1189.6" height="100%" width="100%" xmlns:xlink="http://www.w3.org/1999/xlink" xml:space="preserve" xmlns="http://www.w3.org/2000/svg" version="1.1">
<metadata>
<vectornator:setting value="false" key="WDDisplayWhiteBackground"/>
<vectornator:setting value="true" key="VNDimensionsVisible"/>
<vectornator:setting key="WDCMYKEnabledKey" value="false"/>
<vectornator:setting key="VNSnapToGuides" value="true"/>
<vectornator:setting value="false" key="WDOutlineMode"/>
<vectornator:setting value="false" key="WDSnapToGrid"/>
<vectornator:setting value="true" key="WDRulersVisible"/>
<vectornator:setting value="false" key="WDSnapToPoints"/>
<vectornator:setting value="true" key="WDGuidesVisible"/>
<vectornator:setting key="WDUnits" value="Points"/>
<vectornator:setting value="false" key="WDSnapToEdges"/>
<vectornator:setting key="WDIsolateActiveLayer" value="false"/>
<vectornator:setting value="false" key="VNPencilOnly"/>
<vectornator:setting key="WDDynamicGuides" value="false"/>
<vectornator:setting value="false" key="IsTimeLapseWatermarkDisabled"/>
<vectornator:setting key="UndoHistoryDisabled" value="false"/>
</metadata>
<defs>
<path d="M1077.61+114.4C1077.61+114.4+884.31-57.24+486.2+35.48C194.29+103.47-28.65+395.4+29.64+698.36C90.64+1015.36+413.7+1178.76+715.96+1152.49C721.04+1152.05+726.117+1151.56+731.19+1151.01C860.9+1137+986+1086.8+1091+1009.61C1194+933.82+1297.85+823.53+1317.23+692.01C1333.62+580.77+1247.74+518.09+1157.29+477.01C1114.7+457.65+1019.46+445.01+1009.41+388.5C1006.47+370.7+1013.24+352.681+1027.17+341.22C1041.51+329.71+1061.37+327.06+1079.52+329.97C1117.52+336.05+1145.52+357.3+1185.24+341.26C1216.51+328.63+1225.04+299.73+1215.71+268.63C1191.53+188+1077.61+114.4+1077.61+114.4Z" id="Mask"/>
</defs>
<g id="Layer 2" vectornator:layerName="Layer 2">
<g opacity="1">
<path fill="#000000" opacity="1" d="M1097.86+144.76C1097.86+144.76+904.55-26.88+506.44+65.84C214.54+133.84-8.40997+425.76+49.88+728.72C110.88+1045.72+433.95+1209.12+736.2+1182.86C741.287+1182.41+746.363+1181.92+751.43+1181.37C881.15+1167.37+1006.26+1117.16+1111.22+1039.97C1214.22+964.19+1318.07+853.89+1337.45+722.37C1353.85+611.13+1267.96+548.45+1177.51+507.37C1134.92+488.01+1039.68+475.37+1029.63+418.86C1026.7+401.058+1033.47+383.042+1047.4+371.58C1061.73+360.08+1081.59+357.42+1099.74+360.33C1137.74+366.42+1165.74+387.67+1205.46+371.62C1236.73+358.99+1245.26+330.09+1235.93+298.99C1211.77+218.4+1097.86+144.76+1097.86+144.76Z"/>
<path d="M652.53+1159.23C507.59+1159.23+366.1+1117.14+254.13+1040.7C131.6+957+52.61+838.93+25.71+699.11C-2.17+554.21+32.5+404.11+123.33+276.49C166.397+215.989+219.871+163.622+281.26+121.83C344.31+78.83+412.96+48.43+485.26+31.59C563.89+13.28+640.34+4+712.52+4C839.9+4+933+33.11+988.64+57.53C1047.06+83.17+1076.93+108.53+1080.04+111.2C1101.21+125.463+1121.33+141.209+1140.27+158.32C1182.62+196.6+1209.27+233.32+1219.52+267.43C1224.52+284.16+1224.52+300.01+1219.41+313.25C1213.92+327.55+1202.62+338.49+1186.72+344.91C1176.91+348.968+1166.4+351.064+1155.78+351.08C1140.19+351.08+1126.13+346.75+1111.24+342.15C1100.95+338.98+1090.3+335.7+1078.87+333.86C1074.62+333.192+1070.32+332.858+1066.02+332.86C1055.95+332.86+1041.46+334.86+1029.66+344.32C1016.9+354.887+1010.68+371.423+1013.33+387.78C1020.45+427.88+1075.14+445.26+1119.09+459.22C1134.02+463.96+1148.09+468.44+1158.92+473.35C1213.65+498.23+1253.36+525.13+1280.3+555.57C1315.04+594.82+1328.78+640.92+1321.17+692.62C1312.17+753.78+1284.39+814.87+1238.64+874.18C1201+922.99+1152.11+969.65+1093.35+1012.86C1040.5+1051.74+982.852+1083.64+921.84+1107.77C860.842+1131.98+796.86+1147.87+731.62+1155C726.54+1155.55+721.39+1156+716.31+1156.49C695.26+1158.31+673.8+1159.23+652.53+1159.23Z" fill="#4cac83" opacity="1"/>
<path d="M712.52+8C957.76+8+1077.61+114.4+1077.61+114.4C1077.61+114.4+1191.53+188+1215.69+268.58C1225.02+299.68+1216.49+328.58+1185.22+341.21C1175.88+345.073+1165.88+347.067+1155.78+347.08C1129.99+347.08+1107.44+334.39+1079.5+329.92C1075.04+329.2+1070.54+328.836+1066.02+328.83C1052.02+328.83+1038.02+332.47+1027.15+341.17C1013.22+352.631+1006.45+370.65+1009.39+388.45C1019.44+445+1114.68+457.6+1157.27+477C1247.72+518.13+1333.6+580.81+1317.21+692.05C1297.83+823.53+1194+933.82+1091+1009.61C986+1086.8+860.9+1137+731.19+1151C726.117+1151.55+721.04+1152.05+715.96+1152.48C694.88+1154.32+673.737+1155.23+652.53+1155.22C369.94+1155.22+86.38+993.28+29.64+698.35C-28.65+395.4+194.29+103.47+486.2+35.48C570.88+15.76+646.26+8+712.52+8M712.52+0C640+0+563.28+9.32+484.38+27.69C447.573+36.3012+411.663+48.375+377.13+63.75C342.839+79.0218+309.996+97.3561+279+118.53C248.137+139.618+219.186+163.376+192.48+189.53C165.893+215.562+141.661+243.896+120.07+274.2C98.5686+304.356+79.8834+336.425+64.25+370C48.6423+403.588+36.3539+438.622+27.56+474.6C9.37+549.48+7.42+625.26+21.78+699.87C35.69+772.17+63.55+839.07+104.57+898.7C143.08+954.7+192.64+1003.56+251.88+1044C364.5+1120.89+506.79+1163.23+652.53+1163.23C673.92+1163.23+695.53+1162.3+716.66+1160.46C721.76+1160.02+726.94+1159.46+732.05+1158.96C797.647+1151.79+861.98+1135.81+923.31+1111.46C984.642+1087.2+1042.59+1055.13+1095.72+1016.05C1154.78+972.62+1203.93+925.7+1241.81+876.59C1288+816.73+1316+755+1325.12+693.17C1329.21+665.44+1327.31+639.07+1319.47+614.8C1312.36+592.8+1300.19+571.98+1283.3+552.89C1256+522+1215.83+494.8+1160.58+469.68C1149.58+464.68+1135.35+460.15+1120.3+455.37C1077.38+441.74+1023.97+424.77+1017.3+387.05C1014.88+372.131+1020.55+357.046+1032.19+347.41C1043.09+338.66+1056.62+336.83+1066.05+336.83C1070.14+336.842+1074.22+337.177+1078.26+337.83C1089.42+339.62+1099.93+342.83+1110.09+346C1124.61+350.47+1139.62+355.1+1155.81+355.1C1166.94+355.089+1177.96+352.894+1188.24+348.64C1205.24+341.8+1217.24+330.06+1223.18+314.71C1228.59+300.63+1228.66+283.89+1223.38+266.3C1217.59+246.99+1206.45+226.58+1190.28+205.64C1177.54+189.13+1161.62+172.22+1142.99+155.37C1123.97+138.146+1103.74+122.315+1082.45+108C1078.22+104.35+1047.94+79.19+990.25+53.87C953.061+37.7344+914.365+25.3205+874.73+16.81C823.61+5.65+769+0+712.52+0Z" opacity="1" fill="#000000"/>
<path opacity="1" fill="#000000" d="M809.43+686.93L809.43+652.58C809.532+650.625+811.147+649.092+813.105+649.092C815.063+649.092+816.678+650.625+816.78+652.58L816.78+663.23C823.298+654.332+833.65+649.052+844.68+649C864.48+649+880.23+665.35+880.23+685.45C880.23+705.55+864.48+722+844.68+722C833.609+721.953+823.232+716.598+816.78+707.6L816.78+749.6C816.678+751.555+815.063+753.088+813.105+753.088C811.147+753.088+809.532+751.555+809.43+749.6L809.43+686.93ZM816.78+685.43C816.78+701.63+829.53+714.68+844.68+714.83C860.28+714.68+872.88+701.63+872.88+685.43C872.88+669.23+860.28+656.33+844.68+656.33C829.83+656.33+817.38+668.63+816.78+684.23L816.78+685.43Z"/>
<path opacity="1" d="M906.48+621.08C906.582+619.125+908.197+617.592+910.155+617.592C912.113+617.592+913.728+619.125+913.83+621.08L913.83+718.88C913.728+720.835+912.113+722.368+910.155+722.368C908.197+722.368+906.582+720.835+906.48+718.88L906.48+621.08Z" fill="#000000"/>
<path opacity="1" d="M1004.43+652.58L1004.43+718.88C1004.43+720.868+1002.82+722.48+1000.83+722.48C998.842+722.48+997.23+720.868+997.23+718.88L997.23+707.88C990.895+716.875+980.631+722.286+969.63+722.43C950.28+722.43+934.83+705.78+934.83+685.68C934.83+665.58+950.28+649+969.63+649C980.609+649.087+990.878+654.445+997.23+663.4L997.23+652.6C997.23+650.612+998.842+649+1000.83+649C1002.82+649+1004.43+650.612+1004.43+652.6L1004.43+652.58ZM997.23+685.73C997.23+669.23+984.78+656.03+969.63+656.03C954.48+656.03+942.03+669.23+942.03+685.73C942.03+702.23+954.63+715.28+969.63+715.28C984.63+715.28+997.23+702.23+997.23+685.73Z" fill="#000000"/>
<path d="M1034.13+652.43C1034.15+650.534+1035.68+649.002+1037.58+648.98C1038.54+648.928+1039.48+649.265+1040.18+649.915C1040.89+650.564+1041.3+651.471+1041.33+652.43L1041.33+692.33C1041.29+698.323+1043.64+704.085+1047.87+708.337C1052.09+712.589+1057.84+714.98+1063.83+714.98C1076.37+715.002+1086.57+704.873+1086.63+692.33L1086.63+652.43C1086.6+651.776+1086.81+651.134+1087.23+650.63C1087.23+650.48+1087.38+650.33+1087.38+650.18C1087.53+650.18+1087.53+650.03+1087.68+650.03C1088.03+649.599+1088.5+649.284+1089.03+649.13L1089.33+649.13C1089.48+649.13+1089.63+648.98+1089.78+648.98L1090.68+648.98C1091.3+649.165+1091.91+649.417+1092.48+649.73C1092.86+650.063+1093.17+650.471+1093.38+650.93C1093.67+651.379+1093.82+651.898+1093.83+652.43L1093.83+716.63C1093.8+725.85+1090.1+734.678+1083.54+741.156C1076.98+747.633+1068.1+751.223+1058.88+751.13C1053.64+751.073+1048.48+749.896+1043.73+747.68C1042.06+746.715+1041.4+744.626+1042.23+742.88C1043.14+741.228+1045.1+740.468+1046.88+741.08C1050.61+742.937+1054.71+743.912+1058.88+743.93C1074.07+744.019+1086.47+731.817+1086.63+716.63L1086.63+711.83C1080.9+718.451+1072.59+722.278+1063.83+722.33C1047.38+722.165+1034.13+708.782+1034.13+692.33L1034.13+652.43Z" fill="#000000" opacity="1"/>
<g opacity="1" vectornator:mask="#Mask">
<clipPath id="ClipPath">
<use fill="none" xlink:href="#Mask" overflow="visible"/>
</clipPath>
<g clip-path="url(#ClipPath)">
<g opacity="1">
<path stroke-width="4.8" fill="#000000" d="M350.723+48.5395L749.335+201.074C776.513+211.474+790.114+241.937+779.714+269.115L539.548+896.732C509.245+975.953+420.457+1015.61+341.239+985.298L36.8345+868.814C9.64527+858.421-3.9662+827.951+6.43662+800.766L282.663+78.9116C293.066+51.7263+323.542+38.1264+350.723+48.5395Z" stroke-linejoin="miter" stroke="#f9f5dd" opacity="1" stroke-linecap="butt"/>
<path stroke="#f9f5dd" stroke-width="4.8" opacity="1" stroke-linejoin="miter" fill="#000000" stroke-linecap="butt" d="M399.197+180.325L630.537+268.851C640.467+272.65+645.436+283.78+641.636+293.709L553.111+525.05C549.311+534.979+538.182+539.948+528.252+536.149L296.912+447.623C286.982+443.824+282.013+432.694+285.813+422.765L374.338+191.424C378.138+181.495+389.267+176.526+399.197+180.325Z"/>
<path stroke-linecap="butt" fill="#000000" d="M380.851+133.743L671.9+245.117C699.263+255.588+712.958+286.259+702.487+313.623L612.556+548.634C602.085+575.998+571.414+589.692+544.051+579.221L253.002+467.847C225.638+457.376+211.944+426.705+222.415+399.341L312.345+164.33C322.816+136.967+353.488+123.272+380.851+133.743Z" stroke="#f9f5dd" stroke-width="4.8" opacity="1" stroke-linejoin="miter"/>
<path fill="#f9f5dd" d="M277.501+663.275L273.105+674.762C270.214+682.319+261.744+686.101+254.187+683.209L145.008+641.43C137.451+638.539+133.669+630.069+136.561+622.512L140.957+611.024C143.848+603.468+152.318+599.686+159.875+602.578L269.054+644.357C276.611+647.248+280.393+655.718+277.501+663.275Z" opacity="1"/>
<path opacity="1" d="M358.65+751.48C358.65+734.216+372.646+720.22+389.91+720.22C407.174+720.22+421.17+734.216+421.17+751.48C421.17+768.744+407.174+782.74+389.91+782.74C372.646+782.74+358.65+768.744+358.65+751.48Z" stroke-linecap="butt" stroke="#f9f5dd" stroke-linejoin="miter" stroke-width="4.8" fill="#000000"/>
<path stroke-linecap="butt" stroke="#f9f5dd" stroke-linejoin="miter" fill="#000000" opacity="1" d="M453.11+721.55C453.11+704.286+467.106+690.29+484.37+690.29C501.634+690.29+515.63+704.286+515.63+721.55C515.63+738.814+501.634+752.81+484.37+752.81C467.106+752.81+453.11+738.814+453.11+721.55Z" stroke-width="4.8"/>
<path opacity="1" fill="#f9f5dd" d="M228.333+572.805L239.821+577.201C247.378+580.092+251.159+588.562+248.268+596.119L206.489+705.298C203.597+712.855+195.127+716.636+187.571+713.745L176.083+709.349C168.526+706.457+164.745+697.987+167.636+690.431L209.415+581.251C212.307+573.695+220.777+569.913+228.333+572.805Z"/>
<path opacity="1" d="M260.062+855.019L260.062+855.019C258.43+859.285+253.648+861.42+249.383+859.787L223.484+849.877C219.218+848.244+217.083+843.463+218.716+839.197L218.716+839.197C220.348+834.932+225.13+832.797+229.395+834.429L255.294+844.34C259.56+845.972+261.694+850.753+260.062+855.019Z" fill="#f9f5dd"/>
<path fill="#f9f5dd" d="M317.001+876.805L317.001+876.805C315.368+881.07+310.587+883.205+306.321+881.573L280.423+871.662C276.157+870.03+274.022+865.249+275.654+860.983L275.655+860.983C277.287+856.717+282.068+854.582+286.334+856.215L312.232+866.125C316.498+867.757+318.633+872.539+317.001+876.805Z" opacity="1"/>
<path d="M400.02+906.78C400.02+904.687+401.717+902.99+403.81+902.99C405.903+902.99+407.6+904.687+407.6+906.78C407.6+908.873+405.903+910.57+403.81+910.57C401.717+910.57+400.02+908.873+400.02+906.78Z" opacity="1" fill="#f9f5dd"/>
<path d="M389.36+934.63C389.36+932.537+391.057+930.84+393.15+930.84C395.243+930.84+396.94+932.537+396.94+934.63C396.94+936.723+395.243+938.42+393.15+938.42C391.057+938.42+389.36+936.723+389.36+934.63Z" opacity="1" fill="#f9f5dd"/>
<path opacity="1" fill="#f9f5dd" d="M418.48+897.48C418.48+895.387+420.177+893.69+422.27+893.69C424.363+893.69+426.06+895.387+426.06+897.48C426.06+899.573+424.363+901.27+422.27+901.27C420.177+901.27+418.48+899.573+418.48+897.48Z"/>
<path d="M407.82+925.33C407.82+923.237+409.517+921.54+411.61+921.54C413.703+921.54+415.4+923.237+415.4+925.33C415.4+927.423+413.703+929.12+411.61+929.12C409.517+929.12+407.82+927.423+407.82+925.33Z" opacity="1" fill="#f9f5dd"/>
<path d="M436.49+889.25C436.49+887.157+438.187+885.46+440.28+885.46C442.373+885.46+444.07+887.157+444.07+889.25C444.07+891.343+442.373+893.04+440.28+893.04C438.187+893.04+436.49+891.343+436.49+889.25Z" opacity="1" fill="#f9f5dd"/>
<path opacity="1" fill="#f9f5dd" d="M425.84+917.1C425.84+915.007+427.537+913.31+429.63+913.31C431.723+913.31+433.42+915.007+433.42+917.1C433.42+919.193+431.723+920.89+429.63+920.89C427.537+920.89+425.84+919.193+425.84+917.1Z"/>
<path fill="#f9f5dd" opacity="1" d="M455.81+880.62C455.81+878.527+457.507+876.83+459.6+876.83C461.693+876.83+463.39+878.527+463.39+880.62C463.39+882.713+461.693+884.41+459.6+884.41C457.507+884.41+455.81+882.713+455.81+880.62Z"/>
<path opacity="1" d="M445.16+908.47C445.16+906.377+446.857+904.68+448.95+904.68C451.043+904.68+452.74+906.377+452.74+908.47C452.74+910.563+451.043+912.26+448.95+912.26C446.857+912.26+445.16+910.563+445.16+908.47Z" fill="#f9f5dd"/>
<path opacity="1" d="M462.55+899.45C462.55+897.357+464.247+895.66+466.34+895.66C468.433+895.66+470.13+897.357+470.13+899.45C470.13+901.543+468.433+903.24+466.34+903.24C464.247+903.24+462.55+901.543+462.55+899.45Z" fill="#f9f5dd"/>
<path opacity="1" fill="#f9f5dd" d="M480.56+891.22C480.56+889.127+482.257+887.43+484.35+887.43C486.443+887.43+488.14+889.127+488.14+891.22C488.14+893.313+486.443+895.01+484.35+895.01C482.257+895.01+480.56+893.313+480.56+891.22Z"/>
<path fill="#f9f5dd" opacity="1" d="M469.91+919.07C469.91+916.977+471.607+915.28+473.7+915.28C475.793+915.28+477.49+916.977+477.49+919.07C477.49+921.163+475.793+922.86+473.7+922.86C471.607+922.86+469.91+921.163+469.91+919.07Z"/>
<path opacity="1" fill="#f9f5dd" d="M489.23+910.44C489.23+908.347+490.927+906.65+493.02+906.65C495.113+906.65+496.81+908.347+496.81+910.44C496.81+912.533+495.113+914.23+493.02+914.23C490.927+914.23+489.23+912.533+489.23+910.44Z"/>
<path d="M434.95+934.02C434.95+931.927+436.647+930.23+438.74+930.23C440.833+930.23+442.53+931.927+442.53+934.02C442.53+936.113+440.833+937.81+438.74+937.81C436.647+937.81+434.95+936.113+434.95+934.02Z" opacity="1" fill="#f9f5dd"/>
<path d="M452.96+925.79C452.96+923.697+454.657+922+456.75+922C458.843+922+460.54+923.697+460.54+925.79C460.54+927.883+458.843+929.58+456.75+929.58C454.657+929.58+452.96+927.883+452.96+925.79Z" opacity="1" fill="#f9f5dd"/>
<path opacity="1" d="M442.31+953.64C442.31+951.547+444.007+949.85+446.1+949.85C448.193+949.85+449.89+951.547+449.89+953.64C449.89+955.733+448.193+957.43+446.1+957.43C444.007+957.43+442.31+955.733+442.31+953.64Z" fill="#f9f5dd"/>
<path fill="#f9f5dd" d="M461.63+945.01C461.63+942.917+463.327+941.22+465.42+941.22C467.513+941.22+469.21+942.917+469.21+945.01C469.21+947.103+467.513+948.8+465.42+948.8C463.327+948.8+461.63+947.103+461.63+945.01Z" opacity="1"/>
<path d="M479.47+935.93C479.47+933.837+481.167+932.14+483.26+932.14C485.353+932.14+487.05+933.837+487.05+935.93C487.05+938.023+485.353+939.72+483.26+939.72C481.167+939.72+479.47+938.023+479.47+935.93Z" opacity="1" fill="#f9f5dd"/>
<path fill="#f9f5dd" opacity="1" d="M397+952.67C397+950.577+398.697+948.88+400.79+948.88C402.883+948.88+404.58+950.577+404.58+952.67C404.58+954.763+402.883+956.46+400.79+956.46C398.697+956.46+397+954.763+397+952.67Z"/>
<path fill="#f9f5dd" d="M415.01+944.45C415.01+942.357+416.707+940.66+418.8+940.66C420.893+940.66+422.59+942.357+422.59+944.45C422.59+946.543+420.893+948.24+418.8+948.24C416.707+948.24+415.01+946.543+415.01+944.45Z" opacity="1"/>
<path opacity="1" fill="#f9f5dd" d="M424.13+961.36C424.13+959.267+425.827+957.57+427.92+957.57C430.013+957.57+431.71+959.267+431.71+961.36C431.71+963.453+430.013+965.15+427.92+965.15C425.827+965.15+424.13+963.453+424.13+961.36Z"/>
</g>
</g>
</g>
</g>
<path d="M733.79+481.314L1134.58+481.314C1137.8+481.314+1140.4+489.174+1140.4+498.869L1140.4+913.52C1140.4+923.215+1137.8+931.074+1134.58+931.074L733.79+931.074C730.575+931.074+727.97+923.215+727.97+913.52L727.97+498.869C727.97+489.174+730.575+481.314+733.79+481.314Z" fill="#4cac83" opacity="1"/>
<g opacity="1">
<path fill="#060606" opacity="1" d="M747.779+767.981C750.643+773.45+754.306+777.714+758.765+780.774C763.225+783.834+768.026+785.364+773.169+785.364C780.136+785.364+785.8+783.166+790.162+778.772C794.524+774.377+796.705+768.73+796.705+761.829C796.705+750.826+786.972+741.321+767.505+733.313L767.212+733.215C756.731+728.918+749.293+724.068+744.898+718.664C740.503+713.261+738.306+706.425+738.306+698.157C738.306+686.829+742.082+677.535+749.634+670.276C757.186+663.017+766.952+659.387+778.931+659.387C787.916+659.387+795.777+661.405+802.515+665.442C809.253+669.478+814.25+675.207+817.505+682.629L808.912+688.391C806.763+682.271+803.541+677.567+799.244+674.28C794.947+670.992+789.836+669.348+783.912+669.348C777.597+669.348+772.421+671.383+768.384+675.452C764.348+679.521+762.33+684.843+762.33+691.418C762.33+696.627+763.99+701.054+767.31+704.7C770.63+708.345+776.848+712.121+785.962+716.028C800.35+722.213+809.839+728.137+814.429+733.801C819.019+739.465+821.314+746.724+821.314+755.579C821.314+767.297+817.261+776.965+809.156+784.582C801.05+792.2+790.78+796.008+778.345+796.008C769.361+796.008+761.613+794.283+755.103+790.832C748.593+787.382+742.929+782.043+738.111+774.817L747.779+767.981Z"/>
<path fill="#060606" opacity="1" d="M861.744+792.786L842.701+792.786L842.701+652.942L861.744+652.942L861.744+750.598L896.9+707.141L907.544+707.141L878.15+743.371L916.724+792.786L892.896+792.786L861.744+752.746L861.744+792.786Z"/>
<path opacity="1" d="M928.345+682.629C928.345+679.569+929.436+676.965+931.617+674.817C933.798+672.668+936.451+671.594+939.576+671.594C942.57+671.594+945.142+672.652+947.291+674.768C949.439+676.884+950.513+679.504+950.513+682.629C950.513+685.624+949.455+688.196+947.339+690.344C945.223+692.493+942.636+693.567+939.576+693.567C936.451+693.567+933.798+692.493+931.617+690.344C929.436+688.196+928.345+685.624+928.345+682.629ZM929.908+707.141L948.951+707.141L948.951+792.786L929.908+792.786L929.908+707.141Z" fill="#060606"/>
<path d="M975.709+652.942L994.751+652.942L994.751+778.625C994.751+781.23+995.337+783.004+996.509+783.948C997.681+784.892+1000.42+785.364+1004.71+785.364L1009.5+785.364L1009.5+792.786L988.697+792.786C983.879+792.786+980.51+791.776+978.589+789.758C976.669+787.74+975.709+783.606+975.709+777.356L975.709+652.942Z" fill="#060606" opacity="1"/>
<path fill="#060606" d="M1023.95+652.942L1042.99+652.942L1042.99+778.625C1042.99+781.23+1043.58+783.004+1044.75+783.948C1045.92+784.892+1048.66+785.364+1052.95+785.364L1057.74+785.364L1057.74+792.786L1036.94+792.786C1032.12+792.786+1028.75+791.776+1026.83+789.758C1024.91+787.74+1023.95+783.606+1023.95+777.356L1023.95+652.942Z" opacity="1"/>
<path opacity="1" fill="#060606" d="M1070.24+791.223L1070.24+784.192C1073.3+784.973+1076.29+785.575+1079.22+785.998C1082.15+786.422+1085.08+786.633+1088.01+786.633C1094.52+786.633+1099.39+785.559+1102.61+783.411C1105.84+781.262+1107.45+777.974+1107.45+773.547C1107.45+767.818+1102.89+762.512+1093.77+757.629L1092.7+757.043L1087.23+754.016C1080.14+750.175+1075.19+746.513+1072.39+743.03C1069.59+739.547+1068.19+735.461+1068.19+730.774C1068.19+722.701+1071.09+716.418+1076.88+711.926C1082.67+707.434+1090.85+705.188+1101.39+705.188C1103.67+705.188+1106.19+705.318+1108.96+705.579C1111.73+705.839+1114.93+706.23+1118.58+706.75L1118.58+713.977C1112.98+713.326+1109.16+712.903+1107.11+712.707C1105.05+712.512+1103.57+712.414+1102.66+712.414C1097.06+712.414+1092.78+713.391+1089.82+715.344C1086.86+717.297+1085.38+720.097+1085.38+723.743C1085.38+728.3+1089.41+732.89+1097.49+737.512L1098.66+738.196L1107.25+743.371C1114.93+747.864+1119.98+751.786+1122.39+755.139C1124.8+758.492+1126+762.642+1126+767.59C1126+775.793+1122.97+782.174+1116.92+786.731C1110.86+791.288+1102.3+793.567+1091.24+793.567C1088.18+793.567+1084.92+793.371+1081.47+792.981C1078.02+792.59+1074.28+792.004+1070.24+791.223Z"/>
</g>
</g>
</svg>
