<?xml version="1.0" encoding="utf-8"?>
<!-- Generator: Adobe Illustrator 24.3.0, SVG Export Plug-In . SVG Version: 6.00 Build 0)  -->
<svg version="1.1" id="Calque_1" xmlns="http://www.w3.org/2000/svg" xmlns:xlink="http://www.w3.org/1999/xlink" x="0px" y="0px"
	 viewBox="0 0 993.1 990.4" style="enable-background:new 0 0 993.1 990.4;" xml:space="preserve">
<style type="text/css">
	.st0{fill:#41339F;stroke:#FFFFFF;stroke-width:2;stroke-miterlimit:10;}
</style>
<polygon class="st0" points="569.9,5.9 496.6,98.8 423.3,5.9 380.6,116.3 283.1,49.1 274.8,167.2 161.9,131.8 188.8,247 70.5,246.4 
	130.2,348.7 16.9,383 104,463.1 5.9,529.3 112.8,580.1 38.5,672.3 155.7,689.3 111.9,799.3 228.8,781.1 219.4,899.1 325.8,847.2 
	351.6,962.7 437.9,881.8 496.6,984.6 555.3,881.8 641.6,962.7 667.4,847.2 773.8,899.1 764.4,781.1 881.3,799.3 837.5,689.3 
	954.7,672.3 880.4,580.1 987.3,529.3 889.2,463.1 976.3,383 863.1,348.7 922.8,246.4 804.4,247 831.3,131.8 718.4,167.2 710.1,49.1 
	612.6,116.3 "/>
</svg>
