<?xml version="1.0" encoding="utf-8"?>
<!-- Generator: Adobe Illustrator 26.0.2, SVG Export Plug-In . SVG Version: 6.00 Build 0)  -->
<svg version="1.1" id="Layer_1" xmlns:vectornator="http://vectornator.io"
	 xmlns="http://www.w3.org/2000/svg" xmlns:xlink="http://www.w3.org/1999/xlink" x="0px" y="0px" viewBox="0 0 20 20"
	 style="enable-background:new 0 0 20 20;" xml:space="preserve">
<style type="text/css">
	.st0{fill:#2E2E2E;stroke:#2E2E2E;stroke-width:0.1191;stroke-miterlimit:10;}
	.st1{fill:#5BBEB0;}
	.st2{fill:#2E2E2E;}
	.st3{fill:#2E2E2E;stroke:#2E2E2E;stroke-width:1.488649e-02;stroke-linecap:round;stroke-linejoin:round;stroke-miterlimit:10;}
	.st4{clip-path:url(#SVGID_00000142155050702454479380000017508788475588108466_);}
	.st5{fill:none;stroke:#F9F5DD;stroke-width:8.931894e-02;stroke-miterlimit:10;}
	.st6{fill:#F9F5DD;}
</style>
<g id="Layer_2_00000055672719445920177740000000324133102696325272_" vectornator:layerName="Layer_2_00000055672719445920177740000000324133102696325272_">
	<g>
		<path class="st0" d="M16.3,3.3c0,0-2.9-2.6-8.8-1.2c-4.3,1-7.7,5.4-6.8,9.9c0.9,4.7,5.7,7.2,10.2,6.8c0.1,0,0.2,0,0.2,0
			c1.9-0.2,3.8-1,5.4-2.1c1.5-1.1,3.1-2.8,3.4-4.7c0.2-1.7-1-2.6-2.4-3.2c-0.6-0.3-2.1-0.5-2.2-1.3c0-0.3,0.1-0.5,0.3-0.7
			c0.2-0.2,0.5-0.2,0.8-0.2c0.6,0.1,1,0.4,1.6,0.2c0.5-0.2,0.6-0.6,0.5-1.1C18,4.4,16.3,3.3,16.3,3.3z"/>
		<path class="st1" d="M9.7,18.4c-2.2,0-4.3-0.6-5.9-1.8c-1.8-1.2-3-3-3.4-5.1C0,9.4,0.5,7.2,1.8,5.3C2.5,4.4,3.3,3.6,4.2,3
			c0.9-0.6,2-1.1,3-1.3c1.2-0.3,2.3-0.4,3.4-0.4c1.9,0,3.3,0.4,4.1,0.8c0.9,0.4,1.3,0.8,1.4,0.8C16.4,3,16.7,3.2,17,3.5
			c0.6,0.6,1,1.1,1.2,1.6c0.1,0.2,0.1,0.5,0,0.7c-0.1,0.2-0.3,0.4-0.5,0.5c-0.1,0.1-0.3,0.1-0.5,0.1c-0.2,0-0.4-0.1-0.7-0.1
			c-0.2,0-0.3-0.1-0.5-0.1c-0.1,0-0.1,0-0.2,0c-0.2,0-0.4,0-0.5,0.2c-0.2,0.2-0.3,0.4-0.2,0.6C15.2,7.5,16,7.8,16.7,8
			c0.2,0.1,0.4,0.1,0.6,0.2c0.8,0.4,1.4,0.8,1.8,1.2c0.5,0.6,0.7,1.3,0.6,2c-0.1,0.9-0.5,1.8-1.2,2.7c-0.6,0.7-1.3,1.4-2.2,2.1
			c-0.8,0.6-1.6,1.1-2.6,1.4c-0.9,0.4-1.9,0.6-2.8,0.7c-0.1,0-0.2,0-0.2,0C10.4,18.4,10,18.4,9.7,18.4z"/>
		<path class="st2" d="M10.6,1.3c3.7,0,5.4,1.6,5.4,1.6s1.7,1.1,2.1,2.3c0.1,0.5,0,0.9-0.5,1.1c-0.1,0.1-0.3,0.1-0.4,0.1
			c-0.4,0-0.7-0.2-1.1-0.3c-0.1,0-0.1,0-0.2,0c-0.2,0-0.4,0.1-0.6,0.2C15.1,6.4,15,6.7,15,6.9c0.1,0.8,1.6,1,2.2,1.3
			c1.3,0.6,2.6,1.5,2.4,3.2c-0.3,2-1.8,3.6-3.4,4.7c-1.6,1.1-3.4,1.9-5.4,2.1c-0.1,0-0.2,0-0.2,0c-0.3,0-0.6,0-0.9,0
			c-4.2,0-8.4-2.4-9.3-6.8C-0.4,7,2.9,2.7,7.2,1.7C8.5,1.4,9.6,1.3,10.6,1.3 M10.6,1.1c-1.1,0-2.2,0.1-3.4,0.4
			C6.7,1.7,6.1,1.9,5.6,2.1c-0.5,0.2-1,0.5-1.5,0.8C3.7,3.2,3.3,3.6,2.9,4C2.5,4.4,2.1,4.8,1.8,5.2C1.5,5.7,1.2,6.2,1,6.7
			s-0.4,1-0.5,1.6c-0.3,1.1-0.3,2.2-0.1,3.4c0.2,1.1,0.6,2.1,1.2,3c0.6,0.8,1.3,1.6,2.2,2.2c1.7,1.1,3.8,1.8,6,1.8c0.3,0,0.6,0,1,0
			c0.1,0,0.2,0,0.2,0c1-0.1,1.9-0.3,2.8-0.7c0.9-0.4,1.8-0.8,2.6-1.4c0.9-0.6,1.6-1.3,2.2-2.1c0.7-0.9,1.1-1.8,1.2-2.7
			c0.1-0.4,0-0.8-0.1-1.2c-0.1-0.3-0.3-0.6-0.5-0.9c-0.4-0.5-1-0.9-1.8-1.2c-0.2-0.1-0.4-0.1-0.6-0.2c-0.6-0.2-1.4-0.5-1.5-1
			c0-0.2,0-0.4,0.2-0.6c0.2-0.1,0.4-0.2,0.5-0.2c0.1,0,0.1,0,0.2,0c0.2,0,0.3,0.1,0.5,0.1c0.2,0.1,0.4,0.1,0.7,0.1
			c0.2,0,0.3,0,0.5-0.1c0.3-0.1,0.4-0.3,0.5-0.5c0.1-0.2,0.1-0.5,0-0.7c-0.1-0.3-0.3-0.6-0.5-0.9C17.5,4,17.3,3.7,17,3.5
			c-0.3-0.3-0.6-0.5-0.9-0.7c-0.1-0.1-0.5-0.4-1.4-0.8c-0.6-0.2-1.1-0.4-1.7-0.6C12.3,1.2,11.4,1.1,10.6,1.1z"/>
		<path class="st3" d="M12,11.4v-0.5c0,0,0-0.1,0.1-0.1c0,0,0.1,0,0.1,0.1V11c0.1-0.1,0.3-0.2,0.4-0.2c0.3,0,0.5,0.2,0.5,0.5
			c0,0.3-0.2,0.5-0.5,0.5c-0.2,0-0.3-0.1-0.4-0.2v0.6c0,0,0,0.1-0.1,0.1c0,0-0.1,0-0.1-0.1V11.4z M12.2,11.3c0,0.2,0.2,0.4,0.4,0.4
			c0.2,0,0.4-0.2,0.4-0.4c0-0.2-0.2-0.4-0.4-0.4C12.4,10.9,12.2,11.1,12.2,11.3L12.2,11.3z"/>
		<path class="st3" d="M13.5,10.4C13.5,10.4,13.5,10.3,13.5,10.4c0.1-0.1,0.1,0,0.1,0v1.5c0,0,0,0.1-0.1,0.1c0,0-0.1,0-0.1-0.1V10.4
			z"/>
		<path class="st3" d="M15,10.9v1c0,0,0,0.1-0.1,0.1c0,0-0.1,0-0.1-0.1v-0.2c-0.1,0.1-0.2,0.2-0.4,0.2c-0.3,0-0.5-0.2-0.5-0.5
			c0-0.3,0.2-0.5,0.5-0.5c0.2,0,0.3,0.1,0.4,0.2v-0.2C14.8,10.8,14.9,10.8,15,10.9C14.9,10.8,15,10.8,15,10.9L15,10.9z M14.8,11.4
			c0-0.2-0.2-0.4-0.4-0.4c-0.2,0-0.4,0.2-0.4,0.4s0.2,0.4,0.4,0.4C14.7,11.8,14.8,11.6,14.8,11.4L14.8,11.4z"/>
		<path class="st3" d="M15.4,10.9C15.4,10.8,15.4,10.8,15.4,10.9c0.1-0.1,0.1,0,0.1,0v0v0.6c0,0.2,0.1,0.3,0.3,0.3c0,0,0,0,0,0
			c0.2,0,0.3-0.2,0.3-0.3v-0.6c0,0,0,0,0,0c0,0,0,0,0,0c0,0,0,0,0,0c0,0,0,0,0,0h0c0,0,0,0,0,0h0c0,0,0,0,0,0c0,0,0,0,0,0
			c0,0,0,0,0,0v1c0,0.3-0.2,0.5-0.5,0.5c0,0,0,0,0,0c-0.1,0-0.2,0-0.2-0.1c0,0,0,0,0-0.1c0,0,0,0,0.1,0c0.1,0,0.1,0,0.2,0
			c0.2,0,0.4-0.2,0.4-0.4v-0.1c-0.1,0.1-0.2,0.2-0.3,0.2c-0.2,0-0.4-0.2-0.4-0.4L15.4,10.9z"/>
		<g vectornator:mask="#Mask">
			<g>
				<defs>
					<path id="SVGID_1_" d="M16,2.8c0,0-2.9-2.6-8.8-1.2c-4.3,1-7.7,5.4-6.8,9.9c0.9,4.7,5.7,7.2,10.2,6.8c0.1,0,0.2,0,0.2,0
						c1.9-0.2,3.8-1,5.4-2.1c1.5-1.1,3.1-2.8,3.4-4.7c0.2-1.7-1-2.6-2.4-3.2C16.6,8,15.2,7.8,15,6.9c0-0.3,0.1-0.5,0.3-0.7
						c0.2-0.2,0.5-0.2,0.8-0.2c0.6,0.1,1,0.4,1.6,0.2c0.5-0.2,0.6-0.6,0.5-1.1C17.7,3.9,16,2.8,16,2.8z"/>
				</defs>
				<clipPath id="SVGID_00000106139012360831775690000010460187431621052055_">
					<use xlink:href="#SVGID_1_"  style="overflow:visible;"/>
				</clipPath>
				<g style="clip-path:url(#SVGID_00000106139012360831775690000010460187431621052055_);">
					<g>
						<path class="st5" d="M5.2,1.9l5.9,2.3c0.4,0.2,0.6,0.6,0.5,1l0,0L8,14.5c-0.5,1.2-1.8,1.8-3,1.3l0,0l-4.5-1.7
							c-0.4-0.2-0.6-0.6-0.5-1l0,0L4.2,2.3C4.4,1.9,4.8,1.7,5.2,1.9L5.2,1.9z"/>
						<path class="st5" d="M5.9,3.8l3.4,1.3c0.1,0.1,0.2,0.2,0.2,0.4L8.2,9C8.2,9.1,8,9.2,7.9,9.1L4.4,7.8C4.3,7.8,4.2,7.6,4.3,7.4
							L5.6,4C5.6,3.8,5.8,3.8,5.9,3.8z"/>
						<path class="st5" d="M5.7,3.1L10,4.8c0.4,0.2,0.6,0.6,0.5,1L9.1,9.3C9,9.7,8.5,9.9,8.1,9.8L3.8,8.1C3.4,8,3.2,7.5,3.3,7.1
							l1.3-3.5C4.8,3.2,5.3,3,5.7,3.1z"/>
						<path class="st6" d="M4.1,11l-0.1,0.2c0,0.1-0.2,0.2-0.3,0.1l-1.6-0.6C2,10.7,2,10.5,2,10.4l0.1-0.2c0-0.1,0.2-0.2,0.3-0.1
							L4,10.7C4.1,10.8,4.2,10.9,4.1,11z"/>
						<path class="st5" d="M5.3,12.3c0-0.3,0.2-0.5,0.5-0.5s0.5,0.2,0.5,0.5c0,0.3-0.2,0.5-0.5,0.5S5.3,12.6,5.3,12.3z"/>
						<path class="st5" d="M6.7,11.9c0-0.3,0.2-0.5,0.5-0.5c0.3,0,0.5,0.2,0.5,0.5s-0.2,0.5-0.5,0.5C7,12.4,6.7,12.1,6.7,11.9z"/>
						<path class="st6" d="M3.4,9.7l0.2,0.1c0.1,0,0.2,0.2,0.1,0.3l-0.6,1.6c0,0.1-0.2,0.2-0.3,0.1l-0.2-0.1c-0.1,0-0.2-0.2-0.1-0.3
							l0.6-1.6C3.2,9.7,3.3,9.6,3.4,9.7z"/>
						<path class="st6" d="M3.9,13.9L3.9,13.9c0,0.1-0.1,0.1-0.2,0.1l-0.4-0.1c-0.1,0-0.1-0.1-0.1-0.2l0,0c0-0.1,0.1-0.1,0.2-0.1
							l0.4,0.1C3.9,13.7,3.9,13.8,3.9,13.9z"/>
						<path class="st6" d="M4.7,14.2L4.7,14.2c0,0.1-0.1,0.1-0.2,0.1l-0.4-0.1c-0.1,0-0.1-0.1-0.1-0.2l0,0c0-0.1,0.1-0.1,0.2-0.1
							L4.6,14C4.7,14.1,4.7,14.1,4.7,14.2z"/>
						<path class="st6" d="M6,14.6C6,14.6,6,14.6,6,14.6c0.1-0.1,0.1,0,0.1,0C6.1,14.7,6,14.7,6,14.6C6,14.7,6,14.7,6,14.6z"/>
						<path class="st6" d="M5.8,15.1C5.8,15,5.8,15,5.8,15.1c0.1-0.1,0.1,0,0.1,0C5.9,15.1,5.9,15.1,5.8,15.1
							C5.8,15.1,5.8,15.1,5.8,15.1z"/>
						<path class="st6" d="M6.2,14.5C6.2,14.5,6.3,14.4,6.2,14.5c0.1-0.1,0.1,0,0.1,0C6.3,14.5,6.3,14.6,6.2,14.5
							C6.3,14.6,6.2,14.5,6.2,14.5z"/>
						<path class="st6" d="M6.1,14.9C6.1,14.9,6.1,14.9,6.1,14.9c0.1-0.1,0.1,0,0.1,0C6.2,15,6.2,15,6.1,14.9
							C6.1,15,6.1,15,6.1,14.9z"/>
						<path class="st6" d="M6.5,14.4C6.5,14.4,6.5,14.3,6.5,14.4c0.1-0.1,0.1,0,0.1,0C6.6,14.4,6.6,14.4,6.5,14.4
							C6.5,14.4,6.5,14.4,6.5,14.4z"/>
						<path class="st6" d="M6.3,14.8C6.3,14.8,6.4,14.7,6.3,14.8c0.1-0.1,0.1,0,0.1,0C6.5,14.8,6.4,14.9,6.3,14.8
							C6.4,14.9,6.3,14.8,6.3,14.8z"/>
						<path class="st6" d="M6.8,14.3C6.8,14.2,6.8,14.2,6.8,14.3c0.1-0.1,0.1,0,0.1,0C6.9,14.3,6.9,14.3,6.8,14.3
							C6.8,14.3,6.8,14.3,6.8,14.3z"/>
						<path class="st6" d="M6.6,14.7C6.6,14.6,6.7,14.6,6.6,14.7c0.1-0.1,0.1,0,0.1,0C6.7,14.7,6.7,14.7,6.6,14.7
							C6.7,14.7,6.6,14.7,6.6,14.7z"/>
						<path class="st6" d="M6.9,14.5C6.9,14.5,6.9,14.5,6.9,14.5c0.1-0.1,0.1,0,0.1,0C7,14.6,7,14.6,6.9,14.5
							C6.9,14.6,6.9,14.6,6.9,14.5z"/>
						<path class="st6" d="M7.2,14.4C7.2,14.4,7.2,14.4,7.2,14.4c0.1-0.1,0.1,0,0.1,0C7.3,14.4,7.2,14.5,7.2,14.4
							C7.2,14.5,7.2,14.4,7.2,14.4z"/>
						<path class="st6" d="M7,14.8C7,14.8,7,14.8,7,14.8c0.1-0.1,0.1,0,0.1,0C7.1,14.9,7.1,14.9,7,14.8C7,14.9,7,14.9,7,14.8z"/>
						<path class="st6" d="M7.3,14.7C7.3,14.7,7.3,14.6,7.3,14.7c0.1-0.1,0.1,0,0.1,0S7.4,14.8,7.3,14.7C7.3,14.8,7.3,14.7,7.3,14.7
							z"/>
						<path class="st6" d="M6.5,15C6.5,15,6.5,15,6.5,15c0.1-0.1,0.1,0,0.1,0C6.6,15.1,6.6,15.1,6.5,15C6.5,15.1,6.5,15.1,6.5,15z"
							/>
						<path class="st6" d="M6.7,14.9C6.7,14.9,6.8,14.9,6.7,14.9c0.1-0.1,0.1,0,0.1,0C6.9,15,6.8,15,6.7,14.9
							C6.8,15,6.7,15,6.7,14.9z"/>
						<path class="st6" d="M6.6,15.3C6.6,15.3,6.6,15.3,6.6,15.3c0.1-0.1,0.1,0,0.1,0C6.7,15.4,6.7,15.4,6.6,15.3
							C6.6,15.4,6.6,15.4,6.6,15.3z"/>
						<path class="st6" d="M6.9,15.2C6.9,15.2,6.9,15.2,6.9,15.2c0.1-0.1,0.1,0,0.1,0C7,15.2,7,15.3,6.9,15.2
							C6.9,15.3,6.9,15.2,6.9,15.2z"/>
						<path class="st6" d="M7.1,15.1C7.1,15,7.2,15,7.1,15.1c0.1-0.1,0.1,0,0.1,0C7.3,15.1,7.2,15.1,7.1,15.1
							C7.2,15.1,7.1,15.1,7.1,15.1z"/>
						<path class="st6" d="M5.9,15.3C5.9,15.3,5.9,15.3,5.9,15.3c0.1-0.1,0.1,0,0.1,0C6,15.4,6,15.4,5.9,15.3
							C5.9,15.4,5.9,15.4,5.9,15.3z"/>
						<path class="st6" d="M6.2,15.2C6.2,15.2,6.2,15.1,6.2,15.2c0.1-0.1,0.1,0,0.1,0C6.3,15.2,6.3,15.3,6.2,15.2
							C6.2,15.3,6.2,15.2,6.2,15.2z"/>
						<path class="st6" d="M6.3,15.5C6.3,15.4,6.3,15.4,6.3,15.5c0.1-0.1,0.1,0,0.1,0C6.4,15.5,6.4,15.5,6.3,15.5
							C6.3,15.5,6.3,15.5,6.3,15.5z"/>
					</g>
				</g>
			</g>
		</g>
	</g>
</g>
<path class="st1" d="M10.6,9.7h6.9l0,0v3.1l0,0h-6.9l0,0V9.7L10.6,9.7z"/>
<g>
	<path d="M11.3,13.2c0,0.1,0.1,0.1,0.2,0.2c0.1,0,0.1,0.1,0.2,0.1c0.1,0,0.2,0,0.3-0.1c0.1-0.1,0.1-0.1,0.1-0.3
		c0-0.2-0.1-0.3-0.4-0.4l0,0c-0.2-0.1-0.3-0.1-0.3-0.2c-0.1-0.1-0.1-0.2-0.1-0.3c0-0.2,0.1-0.3,0.2-0.4s0.3-0.2,0.4-0.2
		c0.1,0,0.3,0,0.4,0.1c0.1,0.1,0.2,0.1,0.2,0.3L12.2,12c0-0.1-0.1-0.2-0.1-0.2c-0.1,0-0.1-0.1-0.2-0.1c-0.1,0-0.2,0-0.2,0.1
		c-0.1,0.1-0.1,0.1-0.1,0.2c0,0.1,0,0.1,0.1,0.2c0,0.1,0.1,0.1,0.3,0.2c0.2,0.1,0.4,0.2,0.4,0.3s0.1,0.2,0.1,0.3
		c0,0.2-0.1,0.3-0.2,0.4c-0.1,0.1-0.3,0.2-0.5,0.2c-0.1,0-0.2,0-0.3-0.1c-0.1-0.1-0.2-0.1-0.3-0.2L11.3,13.2z"/>
	<path d="M13,13.5h-0.3v-2.1H13v1.5l0.5-0.6h0.2l-0.4,0.5l0.6,0.7h-0.4L13,13V13.5z"/>
	<path d="M14,11.9c0,0,0-0.1,0-0.1c0,0,0.1,0,0.1,0c0,0,0.1,0,0.1,0c0,0,0,0.1,0,0.1c0,0,0,0.1,0,0.1c0,0-0.1,0-0.1,0
		c0,0-0.1,0-0.1,0C14,12,14,12,14,11.9z M14,12.3h0.3v1.3H14V12.3z"/>
	<path d="M14.7,11.5H15v1.9c0,0,0,0.1,0,0.1c0,0,0.1,0,0.1,0h0.1v0.1h-0.3c-0.1,0-0.1,0-0.2,0c0,0,0-0.1,0-0.2V11.5z"/>
	<path d="M15.4,11.5h0.3v1.9c0,0,0,0.1,0,0.1c0,0,0.1,0,0.1,0h0.1v0.1h-0.3c-0.1,0-0.1,0-0.2,0c0,0,0-0.1,0-0.2V11.5z"/>
	<path d="M16.1,13.5v-0.1c0,0,0.1,0,0.1,0c0,0,0.1,0,0.1,0c0.1,0,0.2,0,0.2,0c0,0,0.1-0.1,0.1-0.1c0-0.1-0.1-0.2-0.2-0.2l0,0l-0.1,0
		c-0.1-0.1-0.2-0.1-0.2-0.2c0-0.1-0.1-0.1-0.1-0.2c0-0.1,0-0.2,0.1-0.3c0.1-0.1,0.2-0.1,0.4-0.1c0,0,0.1,0,0.1,0c0,0,0.1,0,0.1,0
		v0.1c-0.1,0-0.1,0-0.2,0c0,0-0.1,0-0.1,0c-0.1,0-0.1,0-0.2,0c0,0-0.1,0.1-0.1,0.1c0,0.1,0.1,0.1,0.2,0.2l0,0l0.1,0.1
		c0.1,0.1,0.2,0.1,0.2,0.2c0,0,0.1,0.1,0.1,0.2c0,0.1,0,0.2-0.1,0.3c-0.1,0.1-0.2,0.1-0.4,0.1c0,0-0.1,0-0.1,0
		C16.2,13.5,16.2,13.5,16.1,13.5z"/>
</g>
</svg>
