<?xml version="1.0" encoding="utf-8"?>
<!-- Generator: Adobe Illustrator 26.0.2, SVG Export Plug-In . SVG Version: 6.00 Build 0)  -->
<svg version="1.1" id="Layer_1" xmlns="http://www.w3.org/2000/svg" xmlns:xlink="http://www.w3.org/1999/xlink" x="0px" y="0px"
	 viewBox="0 0 1343.5 1189.6" style="enable-background:new 0 0 1343.5 1189.6;" xml:space="preserve">
<style type="text/css">
	.st0{fill:#2E2E2E;stroke:#2E2E2E;stroke-width:8;stroke-miterlimit:10;}
	.st1{fill:#5BBEB0;}
	.st2{fill:#2E2E2E;}
	.st3{fill:#2E2E2E;stroke:#2E2E2E;stroke-linecap:round;stroke-linejoin:round;}
	.st4{clip-path:url(#SVGID_00000022541786847513323950000010322035596018969010_);}
	.st5{fill:none;stroke:#F9F5DD;stroke-width:6;stroke-miterlimit:10;}
	.st6{fill:#F9F5DD;}
	.st7{font-family:'Exotic350BT-DemiBold';}
	.st8{font-size:230px;}
</style>
<g id="Layer_2_00000055672719445920177740000000324133102696325272_">
	<g id="Layer_1-2">
		<path class="st0" d="M1097.9,144.8c0,0-193.3-171.6-591.4-78.9C214.5,133.9-8.4,425.8,49.9,728.7c61,317,384.1,480.4,686.3,454.1
			c5.1-0.4,10.2-0.9,15.2-1.5c129.7-14,254.8-64.2,359.8-141.4c103-75.8,206.8-186.1,226.2-317.6c16.4-111.2-69.5-173.9-159.9-215
			c-42.6-19.4-137.8-32-147.9-88.5c-2.9-17.8,3.8-35.8,17.8-47.3c14.3-11.5,34.2-14.2,52.3-11.2c38,6.1,66,27.3,105.7,11.3
			c31.3-12.6,39.8-41.5,30.5-72.6C1211.8,218.4,1097.9,144.8,1097.9,144.8z"/>
		<path class="st1" d="M652.5,1159.2c-144.9,0-286.4-42.1-398.4-118.5C131.6,957,52.6,838.9,25.7,699.1
			c-27.9-144.9,6.8-295,97.6-422.6c43.1-60.5,96.5-112.9,157.9-154.7c63-43,131.7-73.4,204-90.2C563.9,13.3,640.3,4,712.5,4
			C839.9,4,933,33.1,988.6,57.5c58.4,25.6,88.3,51,91.4,53.7c21.2,14.3,41.3,30,60.2,47.1c42.3,38.3,69,75,79.2,109.1
			c5,16.7,5,32.6-0.1,45.8c-5.5,14.3-16.8,25.2-32.7,31.7c-9.8,4.1-20.3,6.1-30.9,6.2c-15.6,0-29.7-4.3-44.5-8.9
			c-10.3-3.2-20.9-6.5-32.4-8.3c-4.2-0.7-8.5-1-12.8-1c-10.1,0-24.6,2-36.4,11.5c-12.8,10.6-19,27.1-16.3,43.5
			c7.1,40.1,61.8,57.5,105.8,71.4c14.9,4.7,29,9.2,39.8,14.1c54.7,24.9,94.4,51.8,121.4,82.2c34.7,39.2,48.5,85.4,40.9,137
			c-9,61.2-36.8,122.2-82.5,181.6c-37.6,48.8-86.5,95.5-145.3,138.7c-52.9,38.9-110.5,70.8-171.5,94.9c-61,24.2-125,40.1-190.2,47.2
			c-5.1,0.6-10.2,1-15.3,1.5C695.3,1158.3,673.8,1159.2,652.5,1159.2z"/>
		<path class="st2" d="M712.5,8c245.2,0,365.1,106.4,365.1,106.4s113.9,73.6,138.1,154.2c9.3,31.1,0.8,60-30.5,72.6
			c-9.3,3.9-19.3,5.9-29.4,5.9c-25.8,0-48.3-12.7-76.3-17.2c-4.5-0.7-9-1.1-13.5-1.1c-14,0-28,3.6-38.9,12.3
			c-13.9,11.5-20.7,29.5-17.8,47.3c10,56.6,105.3,69.2,147.9,88.6c90.4,41.1,176.3,103.8,159.9,215
			c-19.4,131.5-123.2,241.8-226.2,317.6C986,1086.8,860.9,1137,731.2,1151c-5.1,0.6-10.1,1-15.2,1.5c-21.1,1.8-42.2,2.8-63.4,2.7
			c-282.6,0-566.2-161.9-622.9-456.9C-28.6,395.4,194.3,103.5,486.2,35.5C570.9,15.8,646.3,8,712.5,8 M712.5,0
			C640,0,563.3,9.3,484.4,27.7c-36.8,8.6-72.7,20.7-107.2,36.1C342.8,79,310,97.4,279,118.5c-30.9,21.1-59.8,44.8-86.5,71
			c-26.6,26-50.8,54.4-72.4,84.7c-21.5,30.2-40.2,62.2-55.8,95.8c-15.6,33.6-27.9,68.6-36.7,104.6C9.4,549.5,7.4,625.3,21.8,699.9
			c13.9,72.3,41.8,139.2,82.8,198.8c38.5,56,88.1,104.9,147.3,145.3c112.6,76.9,254.9,119.2,400.7,119.2c21.4,0,43-0.9,64.1-2.8
			c5.1-0.4,10.3-0.9,15.4-1.5c65.6-7.2,129.9-23.2,191.3-47.5c61.3-24.3,119.3-56.3,172.4-95.4c59.1-43.4,108.2-90.3,146.1-139.5
			c46.2-59.9,74.2-121.6,83.3-183.4c4.1-27.7,2.2-54.1-5.7-78.4c-7.1-22-19.3-42.8-36.2-61.9c-27.3-30.9-67.5-58.1-122.7-83.2
			c-11-5-25.2-9.5-40.3-14.3c-42.9-13.6-96.3-30.6-103-68.3c-2.4-14.9,3.2-30,14.9-39.6c10.9-8.8,24.4-10.6,33.9-10.6
			c4.1,0,8.2,0.3,12.2,1c11.2,1.8,21.7,5,31.8,8.2c14.5,4.5,29.5,9.1,45.7,9.1c11.1,0,22.1-2.2,32.4-6.5c17-6.8,29-18.6,34.9-33.9
			c5.4-14.1,5.5-30.8,0.2-48.4c-5.8-19.3-16.9-39.7-33.1-60.7c-12.7-16.5-28.7-33.4-47.3-50.3c-19-17.2-39.3-33.1-60.5-47.4
			c-4.2-3.7-34.5-28.8-92.2-54.1c-37.2-16.1-75.9-28.5-115.5-37.1C823.6,5.7,769,0,712.5,0z"/>
		<path class="st3" d="M809.4,686.9v-34.3c0.1-2,1.8-3.6,3.9-3.5c1.9,0.1,3.4,1.6,3.5,3.5v10.7c6.5-8.9,16.9-14.2,27.9-14.2
			c19.8,0,35.5,16.3,35.5,36.5S864.5,722,844.7,722c-11.1,0-21.4-5.4-27.9-14.4v42c-0.1,2-1.8,3.6-3.9,3.5c-1.9-0.1-3.4-1.6-3.5-3.5
			V686.9z M816.8,685.4c0,16.2,12.8,29.2,27.9,29.4c15.6-0.2,28.2-13.2,28.2-29.4s-12.6-29.1-28.2-29.1c-14.8,0-27.3,12.3-27.9,27.9
			V685.4z"/>
		<path class="st3" d="M906.5,621.1c0.1-2,1.8-3.6,3.9-3.5c1.9,0.1,3.4,1.6,3.5,3.5v97.8c-0.1,2-1.8,3.6-3.9,3.5
			c-1.9-0.1-3.4-1.6-3.5-3.5V621.1z"/>
		<path class="st3" d="M1004.4,652.6v66.3c0,2-1.6,3.6-3.6,3.6c-2,0-3.6-1.6-3.6-3.6v-11c-6.3,9-16.6,14.4-27.6,14.5
			c-19.3,0-34.8-16.7-34.8-36.8s15.5-36.7,34.8-36.7c11,0.1,21.2,5.4,27.6,14.4v-10.8c0-2,1.6-3.6,3.6-3.6
			C1002.8,649,1004.4,650.6,1004.4,652.6L1004.4,652.6z M997.2,685.7c0-16.5-12.5-29.7-27.6-29.7S942,669.2,942,685.7
			s12.6,29.5,27.6,29.5S997.2,702.2,997.2,685.7L997.2,685.7z"/>
		<path class="st3" d="M1034.1,652.4c0-1.9,1.6-3.4,3.4-3.5c2-0.1,3.6,1.4,3.7,3.4c0,0,0,0.1,0,0.1v39.9
			c-0.1,12.4,9.9,22.6,22.3,22.6c0.1,0,0.1,0,0.2,0c12.5,0,22.7-10.1,22.8-22.7v-39.9c0-0.7,0.2-1.3,0.6-1.8c0-0.2,0.2-0.3,0.2-0.5
			c0.2,0,0.2-0.2,0.3-0.2c0.3-0.4,0.8-0.7,1.3-0.9h0.3c0.2,0,0.3-0.2,0.4-0.2h0.9c0.6,0.2,1.2,0.4,1.8,0.8c0.4,0.3,0.7,0.7,0.9,1.2
			c0.3,0.4,0.4,1,0.4,1.5v64.2c-0.1,19.1-15.6,34.6-34.7,34.5c-0.1,0-0.2,0-0.3,0c-5.2-0.1-10.4-1.2-15.2-3.5
			c-1.7-1-2.3-3.1-1.5-4.8c0.9-1.7,2.9-2.4,4.7-1.8c3.7,1.9,7.8,2.8,12,2.8c15.2,0.1,27.6-12.1,27.8-27.3v-4.8
			c-5.7,6.6-14,10.4-22.8,10.5c-16.5-0.2-29.7-13.5-29.7-30L1034.1,652.4z"/>
		<g>
			<defs>
				<path id="SVGID_1_" d="M1077.6,114.4c0,0-193.3-171.6-591.4-78.9c-291.9,68-514.9,359.9-456.6,662.9
					c61,317,384.1,480.4,686.3,454.1c5.1-0.4,10.2-0.9,15.2-1.5c129.7-14,254.8-64.2,359.8-141.4c103-75.8,206.8-186.1,226.2-317.6
					c16.4-111.2-69.5-173.9-159.9-215c-42.6-19.4-137.8-32-147.9-88.5c-2.9-17.8,3.8-35.8,17.8-47.3c14.3-11.5,34.2-14.2,52.3-11.2
					c38,6.1,66,27.3,105.7,11.3c31.3-12.6,39.8-41.5,30.5-72.6C1191.5,188,1077.6,114.4,1077.6,114.4z"/>
			</defs>
			<clipPath id="SVGID_00000079454320350070418430000007364939174075965844_">
				<use xlink:href="#SVGID_1_"  style="overflow:visible;"/>
			</clipPath>
			<g style="clip-path:url(#SVGID_00000079454320350070418430000007364939174075965844_);">
				<path class="st5" d="M350.7,48.5l398.6,152.5c27.2,10.4,40.8,40.9,30.4,68l0,0L539.5,896.7c-30.3,79.2-119.1,118.9-198.3,88.6
					c0,0,0,0,0,0L36.8,868.8C9.7,858.4-4,828,6.4,800.8c0,0,0,0,0,0L282.7,78.9C293.1,51.7,323.5,38.1,350.7,48.5
					C350.7,48.5,350.7,48.5,350.7,48.5z"/>
				<path class="st5" d="M399.2,180.3l231.3,88.5c9.9,3.8,14.9,14.9,11.1,24.9L553.1,525c-3.8,9.9-14.9,14.9-24.9,11.1l-231.3-88.5
					c-9.9-3.8-14.9-14.9-11.1-24.9l88.5-231.3C378.1,181.5,389.3,176.5,399.2,180.3z"/>
				<path class="st5" d="M380.9,133.7l291,111.4c27.4,10.5,41.1,41.1,30.6,68.5l-89.9,235c-10.5,27.4-41.1,41.1-68.5,30.6L253,467.8
					c-27.4-10.5-41.1-41.1-30.6-68.5l89.9-235C322.8,137,353.5,123.3,380.9,133.7z"/>
				<path class="st6" d="M277.5,663.3l-4.4,11.5c-2.9,7.6-11.4,11.3-18.9,8.4L145,641.4c-7.6-2.9-11.3-11.4-8.4-18.9L141,611
					c2.9-7.6,11.4-11.3,18.9-8.4l109.2,41.8C276.6,647.2,280.4,655.7,277.5,663.3z"/>
				<circle class="st5" cx="389.9" cy="751.5" r="31.3"/>
				<circle class="st5" cx="484.4" cy="721.5" r="31.3"/>
				<path class="st6" d="M228.3,572.8l11.5,4.4c7.6,2.9,11.3,11.4,8.4,18.9l-41.8,109.2c-2.9,7.6-11.4,11.3-18.9,8.4l-11.5-4.4
					c-7.6-2.9-11.3-11.4-8.4-18.9l41.8-109.2C212.3,573.7,220.8,569.9,228.3,572.8z"/>
				<path class="st6" d="M260.1,855L260.1,855c-1.6,4.3-6.4,6.4-10.7,4.8l-25.9-9.9c-4.3-1.6-6.4-6.4-4.8-10.7l0,0
					c1.6-4.3,6.4-6.4,10.7-4.8l25.9,9.9C259.6,846,261.7,850.8,260.1,855z"/>
				<path class="st6" d="M317,876.8L317,876.8c-1.6,4.3-6.4,6.4-10.7,4.8l-25.9-9.9c-4.3-1.6-6.4-6.4-4.8-10.7v0
					c1.6-4.3,6.4-6.4,10.7-4.8l25.9,9.9C316.5,867.8,318.6,872.5,317,876.8z"/>
				<circle class="st6" cx="403.8" cy="906.8" r="3.8"/>
				<circle class="st6" cx="393.1" cy="934.6" r="3.8"/>
				<circle class="st6" cx="422.3" cy="897.5" r="3.8"/>
				<circle class="st6" cx="411.6" cy="925.3" r="3.8"/>
				<circle class="st6" cx="440.3" cy="889.2" r="3.8"/>
				<circle class="st6" cx="429.6" cy="917.1" r="3.8"/>
				<circle class="st6" cx="459.6" cy="880.6" r="3.8"/>
				<circle class="st6" cx="449" cy="908.5" r="3.8"/>
				<circle class="st6" cx="466.3" cy="899.5" r="3.8"/>
				<circle class="st6" cx="484.4" cy="891.2" r="3.8"/>
				<circle class="st6" cx="473.7" cy="919.1" r="3.8"/>
				<circle class="st6" cx="493" cy="910.4" r="3.8"/>
				<circle class="st6" cx="438.7" cy="934" r="3.8"/>
				<circle class="st6" cx="456.8" cy="925.8" r="3.8"/>
				<circle class="st6" cx="446.1" cy="953.6" r="3.8"/>
				<circle class="st6" cx="465.4" cy="945" r="3.8"/>
				<circle class="st6" cx="483.3" cy="935.9" r="3.8"/>
				<circle class="st6" cx="400.8" cy="952.7" r="3.8"/>
				<circle class="st6" cx="418.8" cy="944.5" r="3.8"/>
				<circle class="st6" cx="427.9" cy="961.4" r="3.8"/>
			</g>
		</g>
	</g>
</g>
<rect x="711.9" y="572.5" class="st1" width="460.3" height="205"/>
<text transform="matrix(1 0 0 1 731.5148 769.8129)" class="st7 st8">Skills</text>
</svg>
