<?xml version="1.0" encoding="UTF-8" standalone="no"?> <!-- Created with Vectornator for iOS (http://vectornator.io/) --><!DOCTYPE svg PUBLIC "-//W3C//DTD SVG 1.1//EN" "http://www.w3.org/Graphics/SVG/1.1/DTD/svg11.dtd">
<svg xmlns="http://www.w3.org/2000/svg" viewBox="0 0 1350.37 1230.47" xml:space="preserve" version="1.1" xmlns:vectornator="http://vectornator.io" width="100%" style="fill-rule:nonzero;clip-rule:evenodd;stroke-linecap:round;stroke-linejoin:round;" height="100%" xmlns:xlink="http://www.w3.org/1999/xlink">
<metadata>
<vectornator:setting value="false" key="UndoHistoryDisabled"/>
<vectornator:setting value="true" key="VNDimensionsVisible"/>
<vectornator:setting key="IsTimeLapseWatermarkDisabled" value="false"/>
<vectornator:setting key="WDSnapToPoints" value="false"/>
<vectornator:setting key="WDSnapToGrid" value="false"/>
<vectornator:setting key="WDOutlineMode" value="false"/>
<vectornator:setting key="VNPencilOnly" value="false"/>
<vectornator:setting key="WDSnapToEdges" value="false"/>
<vectornator:setting key="WDDynamicGuides" value="false"/>
<vectornator:setting key="WDCMYKEnabledKey" value="false"/>
<vectornator:setting key="VNSnapToGuides" value="true"/>
<vectornator:setting key="WDGuidesVisible" value="true"/>
<vectornator:setting key="WDIsolateActiveLayer" value="false"/>
<vectornator:setting key="WDRulersVisible" value="true"/>
<vectornator:setting key="WDDisplayWhiteBackground" value="false"/>
<vectornator:setting value="Points" key="WDUnits"/>
</metadata>
<defs>
<path d="M939.635+1046C712.305+1097.09+386.635+1123.67+188.305+959.22C22.205+821.47-35.775+595.2+43.125+377.44C166.025+38.29+536.665-16.83+816.885+13.43C1000.18+33.23+1204.89+120.43+1293.35+323.24C1393.12+552.06+1317.89+845.18+1126.96+976C1119.37+981.2+1115.96+991.74+1118.84+1001.32C1133.35+1049.38+1148.2+1097.32+1162.97+1145.26C1166.27+1155.96+1168.97+1169.63+1161.64+1177.26C1146.82+1192.56+1105.72+1161.72+1092.41+1153.51C1066.83+1137.72+1042.62+1119.22+1018.33+1101C1000.96+1088+983.795+1074.53+966.205+1061.88C960.635+1057.82+946.975+1044.32+939.635+1046Z" id="Mask"/>
</defs>
<g id="Layer 2" vectornator:layerName="Layer 2">
<g opacity="1">
<path opacity="1" d="M947.825+1088.23C720.165+1139.32+394.065+1165.9+195.415+1001.44C29.075+863.73-28.995+637.45+50.025+419.7C173.105+80.54+544.265+25.43+824.885+55.69C1008.44+75.48+1213.5+162.69+1302.03+365.5C1401.93+594.32+1326.61+887.44+1135.4+1018.24C1127.8+1023.43+1124.4+1033.97+1127.27+1043.56C1141.8+1091.62+1156.66+1139.56+1171.46+1187.5C1174.76+1198.2+1177.46+1211.86+1170.12+1219.5C1155.29+1234.8+1114.12+1203.96+1100.8+1195.74C1075.18+1179.96+1050.94+1161.45+1026.61+1143.23C1009.21+1130.23+992.015+1116.77+974.395+1104.12C968.885+1100.07+955.175+1086.58+947.825+1088.23Z" fill="#000000"/>
<path d="M1151.7+1187.15C1134.95+1187.15+1111.7+1171.87+1097.86+1162.74C1095.34+1161.08+1093.16+1159.64+1091.48+1158.6C1067.84+1144.04+1045.08+1126.96+1023.07+1110.45L1016.99+1105.89C1011.17+1101.53+1005.28+1097.06+999.595+1092.73C988.265+1084.12+976.545+1075.22+964.855+1066.82C963.515+1065.82+961.855+1064.49+959.945+1062.91C955.165+1058.91+946.265+1051.58+941.945+1051.58C941.797+1051.58+941.649+1051.6+941.505+1051.63C827.325+1077.25+713.935+1090.8+613.605+1090.8C431.265+1090.8+287.295+1048.15+185.675+964.02C103.608+896.389+45.4201+804.2+19.675+701.02C-6.63496+596.91+0.0850397+485.13+39.025+377.83C87.315+244.76+177.155+145.23+306.065+82C361.205+55+423.645+34.62+491.635+21.57C552.355+9.91+617.655+4+685.715+4C729.942+4.04226+774.135+6.44901+818.105+11.21C919.795+22.21+1015.11+52.21+1093.89+98.01C1188.36+153.01+1257.2+228.82+1298.49+323.39C1323.08+379.72+1337.65+440.78+1341.81+504.86C1345.8+566.803+1339.98+628.989+1324.54+689.11C1309.09+749.54+1284.78+805.33+1252.28+854.93C1218.61+906.34+1177.62+948.76+1130.44+981.03C1124.27+985.26+1121.51+994.03+1123.89+1001.89C1135.96+1041.89+1148.48+1082.38+1160.59+1121.58L1168.07+1145.81C1171.44+1156.74+1174.87+1172.36+1165.78+1181.74C1162.3+1185.33+1157.57+1187.15+1151.7+1187.15Z" opacity="1" fill="#5bbeb0"/>
<path fill="#000000" d="M685.715+8C729.812+8.03458+773.875+10.4347+817.715+15.19C1001.23+35+1206.29+122.21+1294.82+325C1394.72+553.82+1319.4+847+1128.19+977.74C1120.59+982.94+1117.19+993.48+1120.06+1003.06C1134.58+1051.12+1149.45+1099.06+1164.25+1147C1167.55+1157.7+1170.25+1171.37+1162.91+1179C1160.03+1182+1156.17+1183.19+1151.71+1183.19C1133.17+1183.19+1104.33+1161.86+1093.59+1155.19C1067.97+1139.4+1043.72+1120.9+1019.4+1102.68C1002+1089.68+984.805+1076.21+967.185+1063.56C961.925+1059.79+949.465+1047.56+941.895+1047.56C941.451+1047.56+941.009+1047.61+940.575+1047.7C843.575+1069.46+728.775+1086.78+613.575+1086.78C458.265+1086.78+302.235+1055.33+188.195+960.92C21.825+823.23-36.235+597+42.785+379.19C147.295+91.19+430.745+8+685.715+8M685.715+0C617.405+0+551.885+5.94+490.885+17.64C422.545+30.76+359.765+51.21+304.305+78.41C174.435+142.11+83.9151+242.41+35.3051+376.41C-3.94496+484.52-10.715+597.1+15.705+702C41.6719+806.008+100.34+898.933+183.075+967.1C237.505+1012.17+304.875+1045.78+383.295+1067C451.485+1085.44+528.955+1094.8+613.555+1094.8C667.775+1094.8+725.435+1090.95+784.925+1083.36C836.225+1076.81+889.075+1067.47+942.025+1055.6C945.335+1056.01+954.395+1063.5+957.395+1065.99C959.395+1067.62+961.075+1068.99+962.515+1070.07C974.165+1078.44+985.865+1087.32+997.175+1095.92C1002.88+1100.25+1008.78+1104.72+1014.61+1109.09L1020.61+1113.63C1042.7+1130.2+1065.55+1147.34+1089.35+1162.01C1090.98+1163.01+1093.14+1164.44+1095.63+1166.08C1109.88+1175.46+1133.72+1191.15+1151.63+1191.15C1160.32+1191.15+1165.63+1187.55+1168.57+1184.52C1179.14+1173.61+1175.48+1156.52+1171.81+1144.63L1164.28+1120.24C1152.19+1081.1+1139.69+1040.63+1127.63+1000.74C1125.75+994.5+1127.85+987.6+1132.63+984.34C1180.24+951.77+1221.63+908.97+1255.56+857.12C1288.29+807.12+1312.78+750.96+1328.35+690.12C1343.88+629.59+1349.75+566.983+1345.73+504.62C1341.55+440.08+1326.86+378.62+1302.08+321.81C1280.68+272.68+1251.07+227.557+1214.51+188.38C1180.95+152.44+1141.03+120.88+1095.84+94.57C1016.69+48.45+920.775+18.26+818.535+7.23C774.422+2.45232+730.086+0.0388084+685.715+0Z" opacity="1"/>
<g opacity="1" vectornator:mask="#Mask">
<clipPath id="ClipPath">
<use fill="none" overflow="visible" xlink:href="#Mask"/>
</clipPath>
<g clip-path="url(#ClipPath)">
<g opacity="1">
<path d="M197.155+229.27C201.415+238.05+205.815+246.76+210.255+255.44L216.885+268.3C218.765+271.97+220.695+275.61+222.305+279.41C228.005+292.88+231.785+308.73+244.105+317.92C250.545+322.72+258.445+324.56+266.105+326.44C274.645+328.54+282.655+331.89+290.725+335.38C298.795+338.87+307.055+342.33+315.445+345.29C323.195+348.03+331.025+350.55+338.865+353.05C354.725+358.11+370.695+362.99+386.095+369.35C387.775+370.017+389.442+370.737+391.095+371.51C392.293+372.167+393.795+371.771+394.515+370.61C395.201+369.418+394.805+367.896+393.625+367.19C378.625+360.48+362.935+355.48+347.315+350.5C331.695+345.52+315.705+340.62+300.465+334.16C291.925+330.54+283.465+326.41+274.635+323.59C267.335+321.25+259.495+320.34+252.505+317.08C245.705+313.91+240.915+308.64+237.325+302.15C233.735+295.66+231.375+288.75+228.695+281.93C225.575+273.99+221.585+266.51+217.695+258.93C213.355+250.45+209.015+241.93+204.795+233.42C203.702+231.2+202.615+228.98+201.535+226.76C200.832+225.576+199.309+225.175+198.115+225.86C196.949+226.576+196.553+228.083+197.215+229.28L197.155+229.27Z" opacity="1" fill="#f9f5dd"/>
<path fill="#f9f5dd" d="M285.075+306.12C298.075+311.93+306.495+324.4+318.775+331.36C333.515+339.72+348.905+346.85+363.775+355.02C377.975+362.83+391.435+371.87+405.185+380.42C418.704+389.001+432.87+396.516+447.555+402.9C454.435+405.83+461.645+407.49+469.015+405.46C475.475+403.67+481.395+400.28+487.925+398.74C489.235+398.42+490.577+398.252+491.925+398.24C495.135+398.24+495.145+393.24+491.925+393.24C485.365+393.24+479.195+396.43+473.215+398.74C470.397+399.954+467.442+400.824+464.415+401.33C460.804+401.663+457.164+401.21+453.745+400C450.285+398.776+446.902+397.343+443.615+395.71C439.965+394.02+436.305+392.35+432.725+390.52C425.605+386.9+418.725+382.89+411.865+378.73C398.165+370.37+384.865+361.37+370.945+353.37C356.405+345.03+341.175+337.95+326.455+329.94C323.094+328.209+319.842+326.275+316.715+324.15C313.9+322.088+311.196+319.878+308.615+317.53C303.315+312.85+298.135+307.9+292.085+304.21C290.642+303.322+289.142+302.53+287.595+301.84C286.397+301.183+284.895+301.579+284.175+302.74C283.485+303.934+283.887+305.461+285.075+306.16L285.075+306.12Z" opacity="1"/>
<path fill="#f9f5dd" d="M330.745+292.34C332.995+300+336.885+307+342.995+312.17C348.605+316.87+355.275+319.88+361.915+322.81C371.775+327.16+381.605+331.57+391.455+335.95C401.885+340.6+412.455+345.09+422.685+350.15C440.035+358.71+455.125+370.98+470.295+382.8C478.035+388.8+485.835+394.8+494.035+400.18C498.125+402.86+502.305+405.4+506.605+407.72C510.685+409.91+514.715+412.22+518.825+414.36C522.935+416.5+527.305+418.26+531.985+418.56C536.668+418.731+541.303+417.561+545.345+415.19C553.145+410.9+559.125+404.12+566.115+398.74C567.609+397.572+569.191+396.518+570.845+395.59C573.665+394.03+571.145+389.71+568.325+391.28C560.975+395.36+555.325+401.89+548.675+406.98C545.492+409.652+541.83+411.694+537.885+413C533.625+414.2+529.395+413.52+525.335+411.94C521.275+410.36+517.485+407.94+513.625+405.79C509.485+403.54+505.315+401.37+501.295+398.9C493.21+393.821+485.397+388.324+477.885+382.43C462.815+370.86+448.185+358.51+431.545+349.19C422.225+343.97+412.275+339.84+402.545+335.47C392.145+330.81+381.725+326.22+371.325+321.57C364.435+318.48+357.255+315.72+350.825+311.72C345.003+308.169+340.391+302.94+337.595+296.72C336.775+294.864+336.087+292.953+335.535+291C334.625+287.92+329.795+289.23+330.715+292.33L330.745+292.34Z" opacity="1"/>
<path d="M448.215+282.85C465.335+299.22+484.215+313.58+502.015+329.15C510.716+336.703+519.033+344.686+526.935+353.07C534.125+360.75+541.035+368.68+548.225+376.36C555.339+384.164+563.053+391.399+571.295+398C579.985+404.77+589.545+409.61+599.295+414.66C621.295+426.03+643.065+437.66+664.295+450.4C678.525+458.92+693.715+468.4+710.595+470.03C718.835+470.83+727.075+468.96+733.595+463.73C740.509+458.082+745.215+450.18+746.885+441.41C749.545+425.24+738.555+411.54+727.465+401.19C721.845+395.95+715.785+391.19+709.875+386.33C701.145+379.11+692.565+371.7+683.925+364.38C665.195+348.53+646.185+332.71+629.435+314.73C613.255+297.37+598.435+278.73+582.535+261.15C566.955+243.94+551.405+226.58+538.335+207.34C525.265+188.1+515.005+167.16+506.335+145.67C502.015+134.97+498.065+124.12+494.255+113.23C491.255+104.55+488.375+95.87+484.785+87.4C482.035+80.95+478.785+73.79+478.925+66.63C478.833+63.739+480.027+60.9559+482.185+59.03C485.114+56.7137+488.952+55.8864+492.575+56.79C501.105+58.92+507.385+66.74+514.105+71.9C523.195+78.9+533.765+84.21+543.785+89.71C554.355+95.49+564.885+101.29+574.885+107.93C584.584+114.272+595.082+119.296+606.105+122.87C622.195+128.2+638.625+130.74+655.505+128.32C671.185+126.07+686.855+119.32+696.895+106.68C702.325+99.85+706.715+91.26+706.995+82.39C707.255+73.9+702.915+66.56+696.255+61.56C692.185+58.5+687.455+56.56+682.875+54.37C677.345+51.75+671.795+49.16+666.305+46.46C655.225+41+644.795+34.34+633.585+29.16C623.245+24.39+612.585+20.47+602.095+15.95C599.175+14.69+596.625+18.95+599.575+20.27C610.265+24.89+621.215+28.89+631.775+33.81C642.775+38.92+652.945+45.44+663.775+50.81C669.275+53.52+674.775+56.11+680.355+58.72C684.905+60.87+689.725+62.81+693.735+65.92C700.215+70.92+703.215+78.43+701.485+86.52C698.015+102.75+684.135+114.68+669.015+119.98C654.865+124.98+639.015+125.61+624.365+122.7C614.056+120.612+604.018+117.358+594.445+113C583.705+108.15+574.245+101.22+564.105+95.3C553.815+89.3+543.225+83.82+532.915+77.86C527.915+74.98+522.915+72.06+518.235+68.73C514.675+66.21+511.525+63.14+508.185+60.35C501.885+55.16+494.135+49.71+485.515+52C478.631+53.6205+473.814+59.8292+473.955+66.9C473.885+74.16+476.885+81.34+479.665+88C483.075+96.13+485.905+104.39+488.805+112.72C496.255+134.12+504.245+155.38+514.315+175.72C524.499+196.139+536.941+215.352+551.405+233C565.945+250.87+581.985+267.44+596.945+284.95C612.315+302.95+627.435+320.95+644.945+336.95C663.015+353.48+681.945+369.06+700.575+384.95C712.315+394.95+725.705+404.05+734.865+416.62C739.145+422.48+742.485+429.3+742.395+436.7C742.285+445.13+737.575+453.54+731.395+459.09C718.395+470.83+698.935+463.44+685.395+456.62C678.235+453.02+671.395+448.82+664.525+444.73C653.978+438.47+643.312+432.423+632.525+426.59C621.615+420.65+610.605+414.88+599.525+409.18C589.875+404.18+580.525+399.24+572.105+392.32C555.925+379.07+542.835+362.57+528.495+347.46C512.685+330.82+494.755+316.46+477.185+301.77C468.505+294.51+459.915+287.15+451.735+279.33C449.405+277.1+445.865+280.63+448.195+282.86L448.215+282.85Z" opacity="1" fill="#f9f5dd"/>
<path opacity="1" d="M656.375+55.54C654.909+59.4309+653.801+63.4476+653.065+67.54C652.262+71.6431+651.2+75.6912+649.885+79.66C648.505+83.75+645.655+88.99+648.505+93.08C650.115+95.4+652.595+97.08+654.855+98.69C658.008+101.019+661.498+102.854+665.205+104.13C671.326+106.193+678.033+105.587+683.685+102.46C690.845+98.46+695.895+91.38+699.815+84.38C701.395+81.57+697.075+79.05+695.495+81.86C692.365+87.45+688.495+93.22+683.185+96.86C678.985+99.9576+673.636+101.054+668.555+99.86C665.35+99.0468+662.306+97.6942+659.555+95.86C657.196+94.4687+655.019+92.7891+653.075+90.86C652.925+90.7+652.785+90.53+652.645+90.36C652.505+90.19+652.905+90.74+652.725+90.46C652.725+90.39+652.625+90.33+652.585+90.25C652.545+90.17+652.415+89.93+652.315+89.78C652.215+89.63+652.415+90.04+652.415+90.04C652.369+89.9289+652.329+89.8154+652.295+89.7C652.295+89.54+652.225+89.37+652.175+89.21C652.285+89.53+652.175+89.68+652.175+89.3C652.175+89.12+652.175+88.94+652.175+88.76C652.175+88.58+652.175+88.55+652.175+88.45C652.175+88.12+652.075+88.94+652.175+88.61C652.725+86.34+653.515+84.16+654.275+81.94C655.677+77.8365+656.803+73.6438+657.645+69.39C658.402+65.1117+659.547+60.911+661.065+56.84C661.432+55.509+660.651+54.1323+659.32+53.765C657.989+53.3977+656.612+54.179+656.245+55.51L656.375+55.54Z" fill="#f9f5dd"/>
<path d="M693.425+454.42C699.675+449.57+705.015+443.64+711.225+438.74C711.775+438.3+712.495+437.74+713.345+437.15C714.195+436.56+714.935+436.05+715.755+435.54C716.575+435.03+717.375+434.54+718.225+434.16L718.785+433.89C718.865+433.89+719.405+433.61+719.125+433.73C718.845+433.85+719.385+433.63+719.475+433.6L720.105+433.36C720.832+433.121+721.573+432.93+722.325+432.79C722.475+432.79+721.835+432.79+722.325+432.79L722.835+432.79C723.195+432.77+723.555+432.77+723.915+432.79C724.255+432.79+724.265+432.86+723.915+432.79L724.395+432.89C724.735+432.98+725.065+433.08+725.395+433.2C725.515+433.2+724.985+432.96+725.395+433.2C725.535+433.28+725.695+433.35+725.835+433.44C725.975+433.53+726.115+433.62+726.265+433.71C726.735+434+726.085+433.52+726.385+433.8C726.712+434.085+727.023+434.389+727.315+434.71C727.385+434.8+727.775+435.28+727.625+435.07C727.73+435.249+727.843+435.423+727.965+435.59C728.258+436.034+728.525+436.495+728.765+436.97C728.983+437.381+729.177+437.806+729.345+438.24C730.409+441.167+731.13+444.207+731.495+447.3C731.532+448.665+732.63+449.763+733.995+449.8C735.371+449.789+736.484+448.676+736.495+447.3C735.785+441.83+734.745+435.85+731.105+431.47C728.668+428.592+724.869+427.251+721.165+427.96C717.355+428.55+713.815+430.7+710.725+432.91C707.006+435.646+703.459+438.608+700.105+441.78C696.745+444.86+693.495+448.1+689.885+450.89C688.922+451.874+688.922+453.446+689.885+454.43C690.877+455.372+692.433+455.372+693.425+454.43L693.425+454.42Z" opacity="1" fill="#f9f5dd"/>
<path fill="#f9f5dd" d="M1284.66+805.82C1281.37+796.59+1277.95+787.41+1274.49+778.24C1271.3+769.78+1267.69+761.38+1265.05+752.72C1260.69+738.44+1258.67+721.56+1247.27+710.78C1241.47+705.29+1234.08+702.4+1226.77+699.55C1223.16+698.194+1219.65+696.618+1216.25+694.83C1212.09+692.6+1208.02+690.22+1203.97+687.83C1196.27+683.26+1188.57+678.73+1180.59+674.65C1173.15+670.86+1165.59+667.28+1158.04+663.73C1142.64+656.48+1127.04+649.41+1112.33+640.9C1110.65+639.94+1108.99+638.94+1107.33+637.9C1104.58+636.21+1102.07+640.54+1104.81+642.22C1119.01+650.93+1134.18+657.98+1149.24+665.06C1164.56+672.26+1179.91+679.39+1194.51+687.99C1202.28+692.58+1209.94+697.64+1218.17+701.36C1225.04+704.46+1232.42+706.51+1238.84+710.54C1252.09+718.86+1254.97+735.14+1258.84+749.13C1261.08+757.3+1264.23+765.13+1267.23+773.04C1270.65+782.04+1274.06+791.04+1277.36+800.17C1278.2+802.477+1279.03+804.793+1279.85+807.12C1280.25+808.427+1281.6+809.191+1282.93+808.86C1284.25+808.486+1285.03+807.119+1284.68+805.79L1284.66+805.82Z" opacity="1"/>
<path opacity="1" d="M1205.32+717.08C1199.41+713.45+1194.75+708.17+1190.21+703.02C1185.48+697.63+1180.8+692.17+1175.07+687.8C1161.28+677.29+1146.53+668.13+1132.54+657.9C1119.54+648.37+1107.32+637.72+1094.79+627.53C1082.36+617.278+1069.2+607.937+1055.43+599.58C1049.09+595.79+1042.11+593.02+1034.62+594.02C1027.93+594.91+1021.62+597.69+1014.88+598.32C1013.42+598.485+1011.94+598.485+1010.49+598.32C1009.11+598.326+1007.99+599.442+1007.99+600.82C1008.02+602.187+1009.12+603.288+1010.49+603.32C1017.07+604.18+1023.8+601.55+1030.1+600.01C1033.02+599.166+1036.05+598.765+1039.1+598.82C1042.63+599.128+1046.07+600.149+1049.2+601.82C1052.52+603.51+1055.63+605.57+1058.78+607.55C1062.21+609.71+1065.64+611.86+1068.98+614.16C1075.59+618.69+1081.98+623.55+1088.19+628.56C1100.77+638.67+1112.92+649.3+1125.79+659.05C1139.4+669.37+1153.88+678.51+1167.71+688.54C1170.82+690.694+1173.78+693.056+1176.58+695.61C1179.14+698.04+1181.52+700.61+1183.85+703.3C1188.49+708.55+1192.99+714.04+1198.54+718.38C1199.91+719.462+1201.34+720.463+1202.83+721.38C1205.58+723.07+1208.1+718.75+1205.36+717.07L1205.32+717.08Z" fill="#f9f5dd"/>
<path d="M1159.02+724.79C1157.55+716.79+1154.31+709.31+1148.71+703.34C1143.65+697.93+1137.17+694.06+1130.89+690.25C1121.54+684.58+1112.24+678.86+1102.89+673.17C1093.17+667.23+1083.31+661.43+1073.89+655.11C1057.69+644.31+1044.16+630.11+1030.47+616.4C1023.59+609.51+1016.63+602.67+1009.22+596.34C1002.03+590.19+994.295+584.71+986.615+579.2C983.132+576.527+979.2+574.495+975.005+573.2C970.531+572.039+965.81+572.262+961.465+573.84C952.725+576.9+945.775+583.21+937.995+587.98C936.4+588.996+934.729+589.885+932.995+590.64C931.692+591.045+930.929+592.395+931.255+593.72C931.625+595.046+932.997+595.824+934.325+595.46C942.545+592.11+949.155+585.91+956.795+581.53C960.395+579.47+964.395+577.62+968.605+577.45C972.608+577.434+976.529+578.588+979.885+580.77C983.615+582.99+986.985+585.77+990.505+588.3C994.285+591.02+998.065+593.67+1001.69+596.59C1009.09+602.59+1016.01+609.16+1022.78+615.86C1036.42+629.34+1049.56+643.43+1064.97+654.95C1073.54+661.36+1082.87+666.77+1091.97+672.36C1101.73+678.36+1111.53+684.29+1121.3+690.27C1127.84+694.27+1134.97+698.1+1140.83+702.88C1146.37+707.241+1150.48+713.162+1152.63+719.88C1153.27+721.939+1153.78+724.037+1154.16+726.16C1154.52+727.491+1155.9+728.272+1157.23+727.905C1158.56+727.538+1159.34+726.161+1158.98+724.83L1159.02+724.79Z" opacity="1" fill="#f9f5dd"/>
<path d="M1168.89+1165.32C1177.17+1171.66+1184.98+1178.58+1192.26+1186.05C1200.14+1193.94+1206.97+1202.82+1212.57+1212.47C1215.49+1217.58+1217.77+1223.04+1219.37+1228.71C1220.22+1231.8+1225.05+1230.49+1224.19+1227.38C1221.19+1216.54+1215.54+1206.61+1208.82+1197.67C1201.82+1188.51+1193.94+1180.07+1185.29+1172.46C1180.81+1168.46+1176.17+1164.66+1171.41+1161C1170.21+1160.3+1168.68+1160.71+1167.99+1161.9C1167.32+1163.1+1167.72+1164.6+1168.89+1165.32Z" opacity="1" fill="#f9f5dd"/>
<path d="M1042.03+719.12C1026.35+700+1008.6+682.73+992.195+664.25C984.248+655.29+976.755+645.957+969.715+636.25C963.315+627.39+957.155+618.36+950.585+609.62C944.184+600.817+937.023+592.592+929.185+585.04C920.695+577.12+910.815+570.95+901.325+564.34C881.165+550.3+861.398+535.743+842.025+520.67C834.795+515.03+827.425+509.49+819.385+505.02C811.855+500.84+803.455+497.34+794.725+497.13C776.625+496.7+760.985+514.69+762.425+532.48C763.865+550.27+777.715+564.48+789.335+576.64C805.545+593.64+821.435+610.93+837.085+628.42C845.635+637.98+854.185+647.62+861.965+657.83C869.525+667.75+876.495+678.09+883.395+688.47C890.295+698.85+897.175+709.23+904.395+719.39C911.395+729.29+918.455+739.17+925.175+749.27C938.925+769.91+950.795+791.46+959.635+814.67C968.265+837.34+974.415+860.83+979.895+884.43C981.975+893.37+983.955+902.24+986.575+911.03C988.575+917.62+991.015+925.09+989.955+932.03C988.895+938.97+982.005+942.14+975.605+939.67C967.555+936.56+962.245+928.12+956.395+922.22C948.395+914.13+938.565+907.51+929.395+900.82C919.095+893.31+908.875+885.82+899.175+877.49C890.36+870.028+880.612+863.745+870.175+858.8C861.835+854.8+853.175+851.27+844.175+849.27C828.175+845.74+810.675+845.83+795.425+852.27C787.751+855.488+780.988+860.547+775.735+867C769.735+874.44+765.105+883.88+766.685+893.66C768.205+903.07+775.275+909.6+782.895+914.53C793.785+921.53+804.835+928.39+815.325+936.04C820.325+939.66+825.075+943.51+830.205+946.91C835.205+950.2+840.335+953.23+845.515+956.2C855.835+962.1+866.635+967.41+875.515+975.49C883.305+982.61+889.865+990.93+897.225+998.49C899.475+1000.79+903.015+997.25+900.765+994.95C893.215+987.22+886.505+978.66+878.455+971.43C869.855+963.69+859.575+958.43+849.585+952.75C844.395+949.75+839.235+946.75+834.225+943.56C829.215+940.37+824.305+936.48+819.395+932.84C809.205+925.3+798.395+918.59+787.795+911.74C780.005+906.74+771.795+900.67+771.385+890.5C771.045+881.2+776.975+872.2+783.485+866.01C795.485+854.64+812.685+851.3+828.675+852.22C847.075+853.29+864.675+860.51+880.235+870.01C890.555+876.29+899.295+884.53+908.835+891.87C918.535+899.35+928.625+906.32+938.355+913.76C943.048+917.2+947.548+920.896+951.835+924.83C954.945+927.83+957.685+931.12+960.615+934.25C966.045+940.05+973.035+946.47+981.615+945.51C988.615+944.73+993.795+940.01+994.855+933.01C995.945+925.86+993.915+918.41+991.935+911.59C986.225+891.89+982.345+871.73+976.935+851.95C970.625+828.95+962.795+806.24+952.065+784.95C941.215+763.37+927.485+743.45+913.565+723.78C899.375+703.78+886.325+682.91+871.955+663.01C857.215+642.6+840.035+624.08+822.955+605.6C814.855+596.81+806.805+587.96+798.625+579.24C792.885+573+786.885+567.05+781.465+560.53C776.045+554.01+770.885+546.58+768.525+538.29C766.069+529.991+767.686+521.019+772.885+514.1C778.305+506.66+785.885+501.78+795.295+502.18C804.045+502.56+812.395+506.64+819.775+511.07C827.238+515.71+834.396+520.824+841.205+526.38C850.585+533.767+860.098+540.98+869.745+548.02C880.095+555.59+890.565+563.02+901.095+570.3C910.575+576.89+920.155+583.1+928.385+591.3C943.735+606.52+955.205+625.06+967.965+642.38C982.135+661.63+998.685+678.83+1014.97+696.26C1022.97+704.87+1030.97+713.57+1038.45+722.69C1040.5+725.18+1044.01+721.62+1041.99+719.15L1042.03+719.12Z" opacity="1" fill="#f9f5dd"/>
<path fill="#f9f5dd" d="M813.675+920C817.355+912.86+818.835+904.94+822.065+897.63C823.245+894.95+824.665+892.34+825.645+889.63C826.425+887.648+826.375+885.435+825.505+883.49C824.505+881.22+822.425+879.38+820.645+877.69C817.758+874.821+814.471+872.386+810.885+870.46C805.035+867.46+798.335+866.67+792.135+869.12C784.265+872.23+778.445+878.8+773.675+885.56C772.99+886.754+773.391+888.277+774.575+888.98C775.772+889.648+777.282+889.25+777.995+888.08C781.685+882.84+786.125+877.69+791.895+874.68C796.593+872.178+802.181+871.979+807.045+874.14C810.161+875.55+813.031+877.451+815.545+879.77C816.755+880.85+817.935+881.97+819.055+883.14C819.445+883.55+819.825+883.96+820.185+884.39C820.285+884.51+820.595+884.93+820.345+884.58L820.735+885.16C820.845+885.34+820.935+885.53+821.045+885.71C821.275+886.1+820.945+885.31+821.045+885.71C821.045+885.85+821.125+886.01+821.175+886.16C821.375+886.73+821.235+885.97+821.175+886.25C821.165+886.407+821.165+886.563+821.175+886.72C821.175+887.23+821.175+886.72+821.175+886.78C821.085+887.19+820.995+887.59+820.865+888C820.735+888.41+820.495+889+820.495+889C820.565+888.83+820.305+889.46+820.245+889.59L819.855+890.43C819.245+891.77+818.605+893.1+818.005+894.43C816.3+898.251+814.837+902.175+813.625+906.18C812.525+910.082+811.075+913.877+809.295+917.52C807.815+920.37+812.135+922.9+813.615+920.04L813.675+920Z" opacity="1"/>
<path opacity="1" fill="#f9f5dd" d="M817.885+515.8C811.185+519.87+805.285+525.13+798.615+529.25C796.943+530.3+795.21+531.248+793.425+532.09L792.765+532.4C792.315+532.6+793.045+532.29+792.605+532.47C792.165+532.65+791.735+532.81+791.295+532.96C790.527+533.233+789.742+533.457+788.945+533.63L788.335+533.75C787.825+533.86+788.455+533.75+788.335+533.75C787.947+533.797+787.556+533.823+787.165+533.83C786.835+533.83+786.515+533.83+786.165+533.83C785.815+533.83+785.685+533.73+786.165+533.83L785.625+533.73C785.305+533.65+784.985+533.53+784.625+533.44C784.265+533.35+785.045+533.66+784.625+533.44L784.075+533.15C783.855+533.02+783.155+532.47+783.665+532.9C783.362+532.652+783.074+532.385+782.805+532.1C782.645+531.93+782.495+531.75+782.345+531.57C782.665+531.96+782.345+531.57+782.245+531.4C781.978+530.98+781.728+530.55+781.495+530.11L781.175+529.43C781.065+529.17+781.175+529.48+781.175+529.51L780.965+528.97C780.755+528.39+780.575+527.8+780.405+527.2C779.654+524.133+779.271+520.988+779.265+517.83C779.185+514.62+774.185+514.6+774.265+517.83C774.485+526.06+776.265+539.21+787.265+538.83C791.265+538.69+795.025+537+798.445+535.12C802.263+532.927+805.937+530.492+809.445+527.83C813.035+525.21+816.545+522.42+820.355+520.11C823.105+518.44+820.595+514.11+817.835+515.79L817.885+515.8Z"/>
</g>
</g>
</g>
<path fill="#000000" d="M277.615+664.32C277.46+666.304+275.871+667.872+273.885+668L264.115+668L264.115+723.33C264.115+727.05+267.835+728.91+269.695+728.91C271.751+729.107+273.378+730.734+273.575+732.79C273.364+734.811+271.723+736.384+269.695+736.51C266.152+736.623+262.719+735.276+260.198+732.784C257.678+730.292+256.292+726.874+256.365+723.33L256.365+668L246.885+668C243.165+668+243.165+666.14+243.165+664.28C243.165+662.42+243.165+660.56+246.885+660.56L256.335+660.56L256.335+632.39C256.47+630.394+258.059+628.805+260.055+628.67C262.128+628.743+263.832+630.328+264.055+632.39L264.055+660.6L273.885+660.6C275.885+660.731+277.479+662.321+277.615+664.32Z" opacity="1"/>
<path opacity="1" d="M372.165+664.32L372.165+732.68C372.195+734.111+371.423+735.438+370.165+736.12C369.013+736.714+367.634+736.668+366.525+735.997C365.415+735.326+364.734+734.127+364.725+732.83L364.725+721.51C358.17+730.79+347.566+736.368+336.205+736.51C316.205+736.51+300.205+719.3+300.205+698.51C300.205+677.72+316.205+660.51+336.205+660.51C347.55+660.6+358.161+666.136+364.725+675.39L364.725+664.32C364.725+662.266+366.391+660.6+368.445+660.6C370.5+660.6+372.165+662.266+372.165+664.32ZM364.725+698.57C364.725+681.52+351.855+667.88+336.205+667.88C320.705+667.88+307.685+681.52+307.685+698.57C307.685+715.62+320.685+729.11+336.205+729.11C351.885+729.11+364.725+715.62+364.725+698.57Z" fill="#000000"/>
<path d="M407.655+632C407.61+630.889+408.047+629.812+408.853+629.045C409.66+628.279+410.757+627.898+411.865+628C413.761+628.201+415.21+629.784+415.245+631.69L415.245+732.83C415.206+734.735+413.759+736.314+411.865+736.52C410.758+736.618+409.662+736.236+408.857+735.471C408.051+734.705+407.613+733.631+407.655+732.52L407.655+632Z" fill="#000000" opacity="1"/>
<path fill="#000000" d="M445.165+631.9C445.209+630.043+446.527+628.46+448.345+628.08C449.433+627.913+450.54+628.222+451.384+628.928C452.228+629.635+452.728+630.67+452.755+631.77L452.755+704.77L497.705+660C499.177+658.651+501.451+658.701+502.863+660.112C504.274+661.524+504.324+663.798+502.975+665.27L473.685+694.54L503.135+730.35C504.21+731.416+504.51+733.037+503.889+734.417C503.268+735.798+501.856+736.648+500.345+736.55C499.18+736.653+498.051+736.118+497.395+735.15L468.255+700L452.755+715.5L452.755+732.86C452.725+733.958+452.224+734.991+451.38+735.695C450.537+736.399+449.431+736.707+448.345+736.54C446.514+736.18+445.187+734.586+445.165+732.72L445.165+631.9Z" opacity="1"/>
<path fill="#000000" opacity="1" d="M526.695+720.74C527.325+719.969+528.239+719.485+529.231+719.396C530.223+719.308+531.208+719.623+531.965+720.27C537.235+724.15+545.605+729.11+555.215+729.11C560.407+729.24+565.488+727.6+569.625+724.46C573.345+721.98+575.365+718.57+575.365+715.16C575.205+711.59+573.815+709.16+569.935+705.86C566.685+703.38+561.255+701.52+553.815+700.28L553.505+700.12C546.685+698.88+540.645+697.33+536.305+694.23C531.314+691.49+528.176+686.283+528.085+680.59C528.085+674.59+531.495+669.28+536.305+665.71C540.795+662.61+547.155+660.6+554.905+660.6C564.665+660.6+571.645+665.09+577.535+668.81C579.225+670.009+579.697+672.313+578.615+674.08C577.496+675.78+575.22+676.265+573.505+675.17C567.925+671.45+562.345+667.57+554.905+667.57C548.705+667.57+543.745+669.28+540.485+671.91C537.385+674.39+535.685+677.49+535.685+680.59C535.685+683.69+537.075+685.86+540.025+688.19C543.435+690.51+548.545+692.37+555.525+693.46L555.885+693.46C562.364+694.362+568.617+696.465+574.325+699.66C579.555+703.1+582.748+708.901+582.855+715.16C582.855+721.51+579.285+726.63+574.175+730.5C568.701+734.521+562.056+736.63+555.265+736.5C543.015+736.34+533.405+730.61+527.205+725.65C525.708+724.435+525.48+722.237+526.695+720.74Z"/>
<path fill="#f9f5dd" d="M860.425+328.84C863.195+356.26+878.245+383.84+909.805+387.13C879.405+391.24+867.055+409.63+856.385+438.45C851.995+416.09+844.715+400.28+810.815+383.65C852.105+379.33+849.645+356.26+860.425+328.84Z" opacity="1"/>
<path opacity="1" fill="#f9f5dd" d="M857.885+328.84C858.892+340.028+862.111+350.905+867.355+360.84C872.615+370.45+880.355+378.84+890.155+383.89C896.278+386.999+902.929+388.933+909.765+389.59L909.105+384.68C898.475+386.14+888.275+389.68+879.755+396.37C871.865+402.53+866.065+410.95+861.585+419.81C858.701+425.642+856.147+431.632+853.935+437.75L858.755+437.75C857.095+429.3+854.755+420.9+850.535+413.35C845.765+404.88+838.745+398.07+830.885+392.45C824.91+388.278+818.606+384.6+812.035+381.45L810.775+386.11C822.775+384.83+835.435+381.81+844.075+372.83C850.895+365.73+854.075+356.21+856.925+347.01C858.755+341.12+860.545+335.21+862.795+329.46C863.147+328.131+862.368+326.764+861.045+326.39C859.721+326.054+858.367+326.821+857.975+328.13C854.265+337.6+851.975+347.57+848.175+357L848.045+357.33C848.045+357.23+848.215+356.94+848.045+357.39C847.955+357.61+847.855+357.82+847.765+358.04C847.525+358.58+847.275+359.11+847.025+359.64C846.545+360.64+846.025+361.64+845.475+362.64C844.925+363.64+844.385+364.48+843.775+365.36C843.249+366.172+842.667+366.947+842.035+367.68C839.119+371.218+835.45+374.061+831.295+376C825.145+379+817.785+380.44+810.815+381.19C809.702+381.218+808.731+381.955+808.405+383.02C808.113+384.112+808.583+385.264+809.555+385.84C819.775+390.84+829.905+396.75+837.935+404.95C840.89+407.914+843.467+411.232+845.605+414.83C846.663+416.6+847.618+418.43+848.465+420.31C849.145+421.82+849.825+423.56+850.465+425.44C851.94+429.93+853.113+434.513+853.975+439.16C854.278+440.242+855.261+440.993+856.385+441C857.499+440.975+858.471+440.237+858.795+439.17C862.425+429.38+866.605+419.62+872.725+411.1C877.939+403.709+885.043+397.855+893.295+394.15C898.787+391.853+904.567+390.319+910.475+389.59C911.678+389.26+912.446+388.084+912.265+386.85C912.077+385.627+911.042+384.714+909.805+384.68C899.297+383.621+889.443+379.084+881.805+371.79C874.505+364.73+869.535+355.58+866.485+345.95C864.708+340.383+863.502+334.651+862.885+328.84C862.848+327.475+861.75+326.377+860.385+326.34C859.009+326.351+857.896+327.464+857.885+328.84Z"/>
</g>
<path d="M218.81+597.627L597.583+597.627C600.798+597.627+603.404+600.233+603.404+603.447L603.404+767.312C603.404+770.527+600.798+773.132+597.583+773.132L218.81+773.132C215.595+773.132+212.989+770.527+212.989+767.312L212.989+603.447C212.989+600.233+215.595+597.627+218.81+597.627Z" opacity="1" fill="#5bbeb0"/>
<g opacity="1">
<path opacity="1" d="M103.692+745.712L103.692+615.146L131.134+615.146L167.853+704.501L203.302+615.146L228.888+615.146L228.888+745.712L205.255+745.712L205.255+640.732L161.114+750.497L114.923+640.732L114.923+745.712L103.692+745.712Z" fill="#060606"/>
<path d="M259.063+675.497C259.063+669.117+260.089+664.95+262.14+662.997C264.19+661.044+268.504+660.068+275.079+660.068L315.899+660.068L315.899+667.49L286.7+667.49C283.25+667.49+280.955+667.978+279.815+668.954C278.676+669.931+278.106+671.721+278.106+674.325L278.106+695.907L309.063+695.907L309.063+704.306L278.106+704.306L278.106+731.552C278.106+734.156+278.692+735.93+279.864+736.874C281.036+737.818+283.77+738.29+288.067+738.29L316.876+738.29L316.876+745.712L272.052+745.712C267.234+745.712+263.865+744.703+261.944+742.685C260.024+740.667+259.063+736.532+259.063+730.282L259.063+675.497Z" opacity="1" fill="#060606"/>
<path opacity="1" fill="#060606" d="M345.294+745.712L337.091+745.712L337.091+674.716C337.091+668.661+338.084+664.283+340.069+661.581C342.055+658.879+345.196+657.529+349.493+657.529C352.944+657.529+356.199+658.717+359.259+661.093C362.319+663.469+365.216+667.066+367.95+671.884L390.313+711.728C390.379+711.858+390.525+711.988+390.753+712.118C390.981+712.249+391.225+712.314+391.485+712.314C392.006+712.314+392.381+712.151+392.608+711.825C392.836+711.5+392.95+710.849+392.95+709.872L392.95+660.068L401.153+660.068L401.153+738.486C401.153+742.457+400.681+745.126+399.737+746.493C398.793+747.861+397.182+748.544+394.903+748.544C393.276+748.544+391.892+748.137+390.753+747.324C389.614+746.51+388.523+745.159+387.481+743.271L348.126+675.693C347.866+675.237+347.638+674.928+347.442+674.765C347.247+674.602+347.019+674.521+346.759+674.521C346.173+674.521+345.782+674.651+345.587+674.911C345.392+675.172+345.294+675.823+345.294+676.865L345.294+745.712Z"/>
<path d="M438.751+745.712L438.751+667.49L420.489+667.49L420.489+660.068L475.958+660.068L475.958+667.49L457.696+667.49L457.696+745.712L438.751+745.712Z" opacity="1" fill="#060606"/>
<path d="M493.731+635.556C493.731+632.496+494.822+629.892+497.003+627.743C499.184+625.595+501.837+624.521+504.962+624.521C507.957+624.521+510.528+625.579+512.677+627.695C514.825+629.81+515.899+632.431+515.899+635.556C515.899+638.551+514.841+641.122+512.726+643.271C510.61+645.419+508.022+646.493+504.962+646.493C501.837+646.493+499.184+645.419+497.003+643.271C494.822+641.122+493.731+638.551+493.731+635.556ZM495.294+660.068L514.337+660.068L514.337+745.712L495.294+745.712L495.294+660.068Z" fill="#060606" opacity="1"/>
<path fill="#060606" d="M576.739+742.099C583.575+742.099+589.109+738.534+593.341+731.406C597.573+724.277+599.688+714.853+599.688+703.134C599.688+691.35+597.573+681.861+593.341+674.667C589.109+667.473+583.575+663.876+576.739+663.876C569.903+663.876+564.353+667.49+560.089+674.716C555.825+681.943+553.692+691.415+553.692+703.134C553.692+714.788+555.825+724.195+560.089+731.357C564.353+738.518+569.903+742.099+576.739+742.099ZM579.278+748.544C566.388+748.544+555.597+744.117+546.905+735.263C538.214+726.409+533.868+715.276+533.868+701.865C533.868+688.779+537.579+678.118+545.001+669.882C552.423+661.646+562.123+657.529+574.103+657.529C587.123+657.529+597.979+661.956+606.671+670.81C615.362+679.664+619.708+690.764+619.708+704.111C619.708+717.262+615.981+727.955+608.526+736.191C601.072+744.426+591.323+748.544+579.278+748.544Z" opacity="1"/>
<path d="M647.54+745.712L639.337+745.712L639.337+674.716C639.337+668.661+640.33+664.283+642.315+661.581C644.301+658.879+647.442+657.529+651.739+657.529C655.19+657.529+658.445+658.717+661.505+661.093C664.565+663.469+667.462+667.066+670.196+671.884L692.56+711.728C692.625+711.858+692.771+711.988+692.999+712.118C693.227+712.249+693.471+712.314+693.731+712.314C694.252+712.314+694.627+712.151+694.854+711.825C695.082+711.5+695.196+710.849+695.196+709.872L695.196+660.068L703.399+660.068L703.399+738.486C703.399+742.457+702.927+745.126+701.983+746.493C701.039+747.861+699.428+748.544+697.149+748.544C695.522+748.544+694.138+748.137+692.999+747.324C691.86+746.51+690.769+745.159+689.728+743.271L650.372+675.693C650.112+675.237+649.884+674.928+649.688+674.765C649.493+674.602+649.265+674.521+649.005+674.521C648.419+674.521+648.028+674.651+647.833+674.911C647.638+675.172+647.54+675.823+647.54+676.865L647.54+745.712Z" opacity="1" fill="#060606"/>
<path d="M728.399+744.15L728.399+737.118C731.459+737.9+734.454+738.502+737.384+738.925C740.313+739.348+743.243+739.56+746.173+739.56C752.683+739.56+757.55+738.486+760.772+736.337C763.995+734.189+765.606+730.901+765.606+726.474C765.606+720.745+761.049+715.439+751.935+710.556L750.86+709.97L745.392+706.943C738.295+703.101+733.347+699.439+730.548+695.956C727.748+692.473+726.349+688.388+726.349+683.7C726.349+675.628+729.246+669.345+735.04+664.853C740.834+660.361+749.005+658.115+759.552+658.115C761.83+658.115+764.353+658.245+767.12+658.505C769.887+658.766+773.093+659.156+776.739+659.677L776.739+666.904C771.14+666.253+767.315+665.829+765.265+665.634C763.214+665.439+761.733+665.341+760.821+665.341C755.222+665.341+750.942+666.318+747.979+668.271C745.017+670.224+743.536+673.023+743.536+676.669C743.536+681.226+747.573+685.816+755.645+690.439L756.817+691.122L765.411+696.298C773.093+700.79+778.139+704.713+780.548+708.066C782.957+711.419+784.161+715.569+784.161+720.517C784.161+728.72+781.134+735.1+775.079+739.657C769.024+744.215+760.463+746.493+749.395+746.493C746.336+746.493+743.08+746.298+739.63+745.907C736.179+745.517+732.436+744.931+728.399+744.15Z" opacity="1" fill="#060606"/>
</g>
<g opacity="1">
<path d="M825.928+1292.08L825.928+1243.76L812.256+1243.76L812.256+1239.85L849.209+1239.85L849.209+1243.76L835.537+1243.76L835.537+1292.08L825.928+1292.08Z" opacity="1" fill="#ffffff"/>
<path opacity="1" d="M817.217+1357.99C817.217+1355.44+817.627+1353.77+818.447+1352.99C819.268+1352.21+820.993+1351.82+823.623+1351.82L839.951+1351.82L839.951+1354.79L828.271+1354.79C826.891+1354.79+825.973+1354.98+825.518+1355.38C825.062+1355.77+824.834+1356.48+824.834+1357.52L824.834+1366.16L837.217+1366.16L837.217+1369.52L824.834+1369.52L824.834+1380.41C824.834+1381.46+825.068+1382.17+825.537+1382.54C826.006+1382.92+827.1+1383.11+828.818+1383.11L840.342+1383.11L840.342+1386.08L822.412+1386.08C820.485+1386.08+819.137+1385.67+818.369+1384.87C817.601+1384.06+817.217+1382.41+817.217+1379.91L817.217+1357.99Z" fill="#ffffff"/>
<path d="M816.592+1480.08L812.49+1480.08L824.678+1464.06L812.178+1445.82L821.084+1445.82L829.287+1458.01L838.584+1445.82L842.412+1445.82L831.24+1460.7L844.443+1480.08L835.537+1480.08L826.514+1466.88L816.592+1480.08Z" fill="#ffffff" opacity="1"/>
<path opacity="1" fill="#ffffff" d="M821.475+1574.08L821.475+1542.79L814.17+1542.79L814.17+1539.82L836.357+1539.82L836.357+1542.79L829.053+1542.79L829.053+1574.08L821.475+1574.08Z"/>
</g>
</g>
</svg>
