<svg xmlns="http://www.w3.org/2000/svg" xmlns:xlink="http://www.w3.org/1999/xlink" viewBox="0 0 1350.37 1230.47"><defs><style>.cls-1{fill:none;}.cls-2,.cls-4,.cls-7{fill:#2e2e2e;}.cls-2,.cls-7{stroke:#2e2e2e;}.cls-2{stroke-miterlimit:10;stroke-width:8px;}.cls-3{fill:#4cac83;}.cls-5{clip-path:url(#clip-path);}.cls-6{fill:#f9f5dd;}.cls-7{stroke-linecap:round;stroke-linejoin:round;}</style><clipPath id="clip-path"><path class="cls-1" d="M939.75,1046c-227.33,51.09-553,77.67-751.33-86.78C22.32,821.47-35.66,595.2,43.24,377.44,166.14,38.29,536.78-16.83,817,13.43c183.29,19.8,388,107,476.46,309.81C1393.23,552.06,1318,845.18,1127.08,976c-7.59,5.2-11,15.74-8.12,25.32,14.51,48.06,29.36,96,44.13,143.94,3.3,10.7,6,24.37-1.33,32-14.82,15.3-55.92-15.54-69.23-23.75-25.58-15.79-49.79-34.29-74.08-52.51-17.37-13-34.54-26.47-52.13-39.12C960.75,1057.82,947.09,1044.32,939.75,1046Z"/></clipPath></defs><title>talks_button_green</title><g id="Layer_2" data-name="Layer 2"><g id="Layer_1-2" data-name="Layer 1"><path class="cls-2" d="M947.94,1088.23c-227.66,51.09-553.76,77.67-752.41-86.79C29.19,863.73-28.88,637.45,50.14,419.7,173.22,80.54,544.38,25.43,825,55.69c183.55,19.79,388.61,107,477.14,309.81,99.9,228.82,24.58,521.94-166.63,652.74-7.6,5.19-11,15.73-8.13,25.32,14.53,48.06,29.39,96,44.19,143.94,3.3,10.7,6,24.36-1.34,32-14.83,15.3-56-15.54-69.32-23.76-25.62-15.78-49.86-34.29-74.19-52.51-17.4-13-34.59-26.46-52.21-39.11C969,1100.07,955.29,1086.58,947.94,1088.23Z"/><path class="cls-3" d="M1151.82,1187.15c-16.75,0-40-15.28-53.84-24.41-2.52-1.66-4.7-3.1-6.38-4.14-23.65-14.57-46.41-31.65-68.43-48.17l-6.06-4.54c-5.81-4.36-11.7-8.83-17.39-13.15-11.34-8.61-23.06-17.52-34.75-25.92-1.34-1-3-2.33-4.91-3.91-4.78-4-13.68-11.33-18-11.33a1.84,1.84,0,0,0-.44.05c-114.18,25.62-227.57,39.17-327.9,39.17-182.34,0-326.31-42.65-427.93-126.78a496.58,496.58,0,0,1-166-263C-6.52,596.91.2,485.13,39.14,377.83,87.43,244.76,177.27,145.23,306.18,82c55.15-27,117.58-47.38,185.57-60.43C552.47,9.91,617.77,4,685.83,4a1240.82,1240.82,0,0,1,132.39,7.21c101.69,11,197,41,275.78,86.8,94.47,55,163.31,130.81,204.6,225.38,24.59,56.33,39.17,117.39,43.32,181.47a588.35,588.35,0,0,1-17.27,184.25c-15.45,60.43-39.76,116.22-72.26,165.82-33.67,51.41-74.66,93.83-121.84,126.1-6.17,4.23-8.93,13-6.55,20.86,12.08,40,24.61,80.55,36.72,119.78l7.46,24.14c3.37,10.93,6.8,26.55-2.29,35.93C1162.41,1185.33,1157.67,1187.15,1151.82,1187.15Z"/><path class="cls-4" d="M685.82,8a1233.08,1233.08,0,0,1,132,7.19C1001.34,35,1206.4,122.21,1294.93,325c99.9,228.82,24.58,522-166.64,652.74-7.59,5.2-11,15.74-8.12,25.32,14.52,48.06,29.39,96,44.19,143.94,3.3,10.7,6,24.37-1.34,32-2.88,3-6.74,4.19-11.2,4.19-18.54,0-47.38-21.33-58.13-28-25.61-15.79-49.86-34.29-74.18-52.51-17.4-13-34.59-26.47-52.21-39.12-5.26-3.77-17.72-16-25.29-16a6.43,6.43,0,0,0-1.32.14c-97,21.76-211.8,39.08-327,39.08-155.31,0-311.34-31.45-425.38-125.86C21.94,823.23-36.12,597,42.9,379.19,147.41,91.19,430.86,8,685.82,8m0-8C617.52,0,552,5.94,491,17.64,422.65,30.76,359.88,51.21,304.42,78.41c-129.87,63.7-220.39,164-269,298C-3.83,484.52-10.6,597.1,15.82,702A500.59,500.59,0,0,0,183.19,967.1c54.43,45.07,121.8,78.68,200.22,99.9,68.19,18.44,145.66,27.8,230.26,27.8,54.22,0,111.88-3.85,171.37-11.44,51.3-6.55,104.15-15.89,157.1-27.76,3.31.41,12.37,7.9,15.37,10.39,2,1.63,3.68,3,5.12,4.08,11.65,8.37,23.35,17.25,34.66,25.85,5.7,4.33,11.6,8.8,17.42,13.17l6.06,4.54c22.09,16.57,44.93,33.71,68.73,48.38,1.63,1,3.79,2.43,6.28,4.07,14.25,9.38,38.09,25.07,56,25.07,8.69,0,14-3.6,16.94-6.63,10.57-10.9,6.91-28,3.24-39.89q-3.74-12.12-7.48-24.23c-12.11-39.2-24.62-79.72-36.7-119.66-1.88-6.24.22-13.14,5-16.4,47.61-32.57,89-75.37,122.93-127.22,32.73-50,57.22-106.16,72.79-167a592.7,592.7,0,0,0,17.38-185.5c-4.18-64.54-18.87-126-43.65-182.81a471.47,471.47,0,0,0-87.57-133.43c-33.56-35.94-73.48-67.5-118.67-93.81C1016.8,48.45,920.89,18.26,818.65,7.23A1243.63,1243.63,0,0,0,685.83,0Z"/><g class="cls-5"><path class="cls-6" d="M197.27,229.27c4.26,8.78,8.66,17.49,13.1,26.17L217,268.3c1.88,3.67,3.81,7.31,5.42,11.11,5.7,13.47,9.48,29.32,21.8,38.51,6.44,4.8,14.34,6.64,22,8.52,8.54,2.1,16.55,5.45,24.62,8.94s16.33,6.95,24.72,9.91c7.75,2.74,15.58,5.26,23.42,7.76,15.86,5.06,31.83,9.94,47.23,16.3q2.52,1,5,2.16a2.57,2.57,0,0,0,3.42-.9,2.52,2.52,0,0,0-.89-3.42c-15-6.71-30.69-11.71-46.31-16.69s-31.61-9.88-46.85-16.34c-8.54-3.62-17-7.75-25.83-10.57-7.3-2.34-15.14-3.25-22.13-6.51-6.8-3.17-11.59-8.44-15.18-14.93s-5.95-13.4-8.63-20.22c-3.12-7.94-7.11-15.42-11-23-4.34-8.48-8.68-17-12.9-25.51q-1.64-3.33-3.26-6.66a2.52,2.52,0,0,0-3.42-.9,2.56,2.56,0,0,0-.9,3.42Z"/><path class="cls-6" d="M285.19,306.12c13,5.81,21.42,18.28,33.7,25.24,14.74,8.36,30.13,15.49,45,23.66,14.2,7.81,27.66,16.85,41.41,25.4a308.8,308.8,0,0,0,42.37,22.48c6.88,2.93,14.09,4.59,21.46,2.56,6.46-1.79,12.38-5.18,18.91-6.72a17.49,17.49,0,0,1,4-.5c3.21,0,3.22-5,0-5-6.56,0-12.73,3.19-18.71,5.5a38.14,38.14,0,0,1-8.8,2.59A25.08,25.08,0,0,1,453.86,400a91,91,0,0,1-10.13-4.29c-3.65-1.69-7.31-3.36-10.89-5.19-7.12-3.62-14-7.63-20.86-11.79-13.7-8.36-27-17.36-40.92-25.36-14.54-8.34-29.77-15.42-44.49-23.43a93.55,93.55,0,0,1-9.74-5.79,98.63,98.63,0,0,1-8.1-6.62c-5.3-4.68-10.48-9.63-16.53-13.32a38.48,38.48,0,0,0-4.49-2.37,2.57,2.57,0,0,0-3.42.9,2.51,2.51,0,0,0,.9,3.42Z"/><path class="cls-6" d="M330.86,292.34C333.11,300,337,307,343.11,312.17c5.61,4.7,12.28,7.71,18.92,10.64,9.86,4.35,19.69,8.76,29.54,13.14,10.43,4.65,21,9.14,31.23,14.2,17.35,8.56,32.44,20.83,47.61,32.65,7.74,6,15.54,12,23.74,17.38,4.09,2.68,8.27,5.22,12.57,7.54,4.08,2.19,8.11,4.5,12.22,6.64s8.48,3.9,13.16,4.2a24.63,24.63,0,0,0,13.36-3.37c7.8-4.29,13.78-11.07,20.77-16.45a38.11,38.11,0,0,1,4.73-3.15c2.82-1.56.3-5.88-2.52-4.31-7.35,4.08-13,10.61-19.65,15.7A32.83,32.83,0,0,1,538,413c-4.26,1.2-8.49.52-12.55-1.06s-7.85-4-11.71-6.15c-4.14-2.25-8.31-4.42-12.33-6.89A274.37,274.37,0,0,1,478,382.43c-15.07-11.57-29.7-23.92-46.34-33.24-9.32-5.22-19.27-9.35-29-13.72-10.4-4.66-20.82-9.25-31.22-13.9-6.89-3.09-14.07-5.85-20.5-9.85a33.81,33.81,0,0,1-13.23-15,43.36,43.36,0,0,1-2.06-5.72c-.91-3.08-5.74-1.77-4.82,1.33Z"/><path class="cls-6" d="M448.33,282.85c17.12,16.37,36,30.73,53.8,46.3a345.23,345.23,0,0,1,24.92,23.92c7.19,7.68,14.1,15.61,21.29,23.29A202.59,202.59,0,0,0,571.41,398c8.69,6.77,18.25,11.61,28,16.66,22,11.37,43.77,23,65,35.74,14.23,8.52,29.42,18,46.3,19.63,8.24.8,16.48-1.07,23-6.3A38,38,0,0,0,747,441.41c2.66-16.17-8.33-29.87-19.42-40.22-5.62-5.24-11.68-10-17.59-14.86-8.73-7.22-17.31-14.63-25.95-21.95-18.73-15.85-37.74-31.67-54.49-49.65-16.18-17.36-31-36-46.9-53.58-15.58-17.21-31.13-34.57-44.2-53.81s-23.33-40.18-32-61.67c-4.32-10.7-8.27-21.55-12.08-32.44-3-8.68-5.88-17.36-9.47-25.83-2.75-6.45-6-13.61-5.86-20.77a9.77,9.77,0,0,1,3.26-7.6,12.05,12.05,0,0,1,10.39-2.24c8.53,2.13,14.81,9.95,21.53,15.11,9.09,7,19.66,12.31,29.68,17.81C554.47,95.49,565,101.29,575,107.93a130.72,130.72,0,0,0,31.22,14.94c16.09,5.33,32.52,7.87,49.4,5.45,15.68-2.25,31.35-9,41.39-21.64,5.43-6.83,9.82-15.42,10.1-24.29.26-8.49-4.08-15.83-10.74-20.83-4.07-3.06-8.8-5-13.38-7.19-5.53-2.62-11.08-5.21-16.57-7.91C655.34,41,644.91,34.34,633.7,29.16c-10.34-4.77-21-8.69-31.49-13.21-2.92-1.26-5.47,3-2.52,4.32,10.69,4.62,21.64,8.62,32.2,13.54,11,5.11,21.17,11.63,32,17,5.5,2.7,11,5.29,16.58,7.9,4.55,2.15,9.37,4.09,13.38,7.2,6.48,5,9.48,12.51,7.75,20.6-3.47,16.23-17.35,28.16-32.47,33.46-14.15,5-30,5.63-44.65,2.72A138.64,138.64,0,0,1,594.56,113c-10.74-4.85-20.2-11.78-30.34-17.7-10.29-6-20.88-11.48-31.19-17.44-5-2.88-10-5.8-14.68-9.13-3.56-2.52-6.71-5.59-10.05-8.38C502,55.16,494.25,49.71,485.63,52a15,15,0,0,0-11.56,14.89C474,74.16,477,81.34,479.78,88c3.41,8.13,6.24,16.39,9.14,24.72,7.45,21.4,15.44,42.66,25.51,63A305.37,305.37,0,0,0,551.52,233c14.54,17.87,30.58,34.44,45.54,51.95,15.37,18,30.49,36,48,52,18.07,16.53,37,32.11,55.63,48,11.74,10,25.13,19.1,34.29,31.67,4.28,5.86,7.62,12.68,7.53,20.08-.11,8.43-4.82,16.84-11,22.39-13,11.74-32.46,4.35-46-2.47-7.16-3.6-14-7.8-20.87-11.89q-15.82-9.39-32-18.14c-10.91-5.94-21.92-11.71-33-17.41-9.65-5-19-9.94-27.42-16.86-16.18-13.25-29.27-29.75-43.61-44.86-15.81-16.64-33.74-31-51.31-45.69-8.68-7.26-17.27-14.62-25.45-22.44-2.33-2.23-5.87,1.3-3.54,3.53Z"/><path class="cls-6" d="M656.49,55.54a68.28,68.28,0,0,0-3.31,12A99.06,99.06,0,0,1,650,79.66c-1.38,4.09-4.23,9.33-1.38,13.42,1.61,2.32,4.09,4,6.35,5.61a38.52,38.52,0,0,0,10.35,5.44,23,23,0,0,0,18.48-1.67c7.16-4,12.21-11.08,16.13-18.08,1.58-2.81-2.74-5.33-4.32-2.52-3.13,5.59-7,11.36-12.31,15a17.79,17.79,0,0,1-14.63,3,29.15,29.15,0,0,1-9-4,33,33,0,0,1-6.48-5c-.15-.16-.29-.33-.43-.5s.26.38.08.1c0-.07-.1-.13-.14-.2a4.53,4.53,0,0,0-.27-.48c-.14-.22.1.26.1.26a3.4,3.4,0,0,1-.12-.34c0-.16-.07-.33-.12-.49.11.32,0,.47,0,.09,0-.18,0-.36,0-.54s0-.21,0-.31c0-.33-.1.49,0,.17.55-2.28,1.34-4.46,2.1-6.68a97.2,97.2,0,0,0,3.37-12.55,71.68,71.68,0,0,1,3.42-12.55,2.5,2.5,0,1,0-4.82-1.33Z"/><path class="cls-6" d="M693.54,454.42c6.25-4.85,11.59-10.78,17.8-15.68.55-.44,1.27-1,2.12-1.59s1.59-1.1,2.41-1.61,1.62-1,2.47-1.38l.56-.27c.08,0,.62-.28.34-.16s.26-.1.35-.13l.63-.24a15.68,15.68,0,0,1,2.22-.56c.15,0-.49,0,0,0l.51,0a9.73,9.73,0,0,1,1.08,0c.34,0,.35.07,0,0l.48.1c.34.09.67.19,1,.31.12,0-.41-.24,0,0,.14.08.3.15.44.24s.28.18.43.27c.47.29-.18-.19.12.09a11.39,11.39,0,0,1,.93.91c.07.09.46.57.31.36a5.17,5.17,0,0,0,.35.52,14.63,14.63,0,0,1,.79,1.39,10.94,10.94,0,0,1,.58,1.26,40.39,40.39,0,0,1,2.15,9.06,2.57,2.57,0,0,0,2.5,2.5,2.52,2.52,0,0,0,2.5-2.5c-.71-5.47-1.75-11.45-5.39-15.83a10.45,10.45,0,0,0-9.94-3.51c-3.81.59-7.35,2.74-10.44,4.95a112.37,112.37,0,0,0-10.62,8.87c-3.36,3.08-6.61,6.32-10.22,9.11a2.53,2.53,0,0,0,0,3.54,2.57,2.57,0,0,0,3.54,0Z"/><path class="cls-6" d="M1284.77,805.82c-3.29-9.23-6.71-18.41-10.17-27.58-3.19-8.46-6.8-16.86-9.44-25.52-4.36-14.28-6.38-31.16-17.78-41.94-5.8-5.49-13.19-8.38-20.5-11.23a93.55,93.55,0,0,1-10.52-4.72c-4.16-2.23-8.23-4.61-12.28-7-7.7-4.57-15.4-9.1-23.38-13.18-7.44-3.79-15-7.37-22.55-10.92-15.4-7.25-31-14.31-45.71-22.83q-2.51-1.44-5-3c-2.75-1.69-5.26,2.64-2.52,4.32,14.2,8.71,29.37,15.76,44.43,22.84,15.32,7.2,30.67,14.33,45.27,22.93,7.77,4.59,15.43,9.65,23.66,13.37,6.87,3.1,14.25,5.15,20.67,9.18,13.25,8.32,16.13,24.6,20,38.59,2.24,8.17,5.39,16,8.39,23.91,3.42,9,6.83,18.06,10.13,27.13q1.26,3.46,2.49,6.95a2.57,2.57,0,0,0,3.08,1.74,2.52,2.52,0,0,0,1.75-3.07Z"/><path class="cls-6" d="M1205.43,717.08c-5.91-3.63-10.57-8.91-15.11-14.06-4.73-5.39-9.41-10.85-15.14-15.22-13.79-10.51-28.54-19.67-42.53-29.9-13-9.53-25.22-20.18-37.75-30.37a334.55,334.55,0,0,0-39.36-27.95c-6.34-3.79-13.32-6.56-20.81-5.56-6.69.89-13,3.67-19.74,4.3a19.53,19.53,0,0,1-4.39,0,2.51,2.51,0,0,0-2.5,2.5,2.56,2.56,0,0,0,2.5,2.5c6.58.86,13.31-1.77,19.61-3.31a30.49,30.49,0,0,1,9-1.19,26.29,26.29,0,0,1,10.1,3c3.32,1.69,6.43,3.76,9.58,5.73,3.43,2.16,6.86,4.31,10.2,6.61,6.61,4.53,13,9.39,19.21,14.4,12.58,10.11,24.73,20.74,37.6,30.49,13.61,10.32,28.09,19.46,41.92,29.49a84.08,84.08,0,0,1,8.87,7.07c2.56,2.43,4.94,5,7.27,7.69,4.64,5.25,9.14,10.74,14.69,15.08a45.38,45.38,0,0,0,4.29,3c2.75,1.69,5.27-2.63,2.53-4.31Z"/><path class="cls-6" d="M1159.13,724.79c-1.47-8-4.71-15.48-10.31-21.45-5.06-5.41-11.54-9.28-17.82-13.09-9.35-5.67-18.65-11.39-28-17.08-9.72-5.94-19.58-11.74-29-18.06-16.2-10.8-29.73-25-43.42-38.71-6.88-6.89-13.84-13.73-21.25-20.06-7.19-6.15-14.92-11.63-22.6-17.14a37,37,0,0,0-11.61-6,22.85,22.85,0,0,0-13.54.64c-8.74,3.06-15.69,9.37-23.47,14.14a36.21,36.21,0,0,1-5,2.66,2.58,2.58,0,0,0-1.74,3.08,2.52,2.52,0,0,0,3.07,1.75c8.22-3.36,14.83-9.56,22.47-13.94,3.6-2.06,7.6-3.91,11.81-4.08A20.55,20.55,0,0,1,980,580.77c3.73,2.22,7.1,5,10.62,7.53,3.78,2.72,7.56,5.37,11.18,8.29,7.4,6,14.32,12.57,21.09,19.27,13.64,13.48,26.78,27.57,42.19,39.09,8.57,6.41,17.9,11.82,27,17.41,9.76,6,19.56,11.93,29.33,17.91,6.54,4,13.67,7.83,19.53,12.61a35.31,35.31,0,0,1,11.8,17,51.34,51.34,0,0,1,1.53,6.28,2.5,2.5,0,0,0,4.82-1.33Z"/><path class="cls-6" d="M1169,1165.32a215.86,215.86,0,0,1,23.37,20.73,128.63,128.63,0,0,1,20.31,26.42,72.06,72.06,0,0,1,6.8,16.24c.85,3.09,5.68,1.78,4.82-1.33-3-10.84-8.65-20.77-15.37-29.71a175,175,0,0,0-23.53-25.21c-4.48-4-9.12-7.8-13.88-11.46a2.51,2.51,0,0,0-3.42.9,2.56,2.56,0,0,0,.9,3.42Z"/><path class="cls-6" d="M1042.14,719.12c-15.68-19.12-33.43-36.39-49.83-54.87q-11.92-13.44-22.48-28c-6.4-8.86-12.56-17.89-19.13-26.63a186.12,186.12,0,0,0-21.4-24.58c-8.49-7.92-18.37-14.09-27.86-20.7q-30.24-21.06-59.3-43.67c-7.23-5.64-14.6-11.18-22.64-15.65-7.53-4.18-15.93-7.68-24.66-7.89-18.1-.43-33.74,17.56-32.3,35.35s15.29,32,26.91,44.16c16.21,17,32.1,34.29,47.75,51.78,8.55,9.56,17.1,19.2,24.88,29.41,7.56,9.92,14.53,20.26,21.43,30.64s13.78,20.76,21,30.92c7,9.9,14.06,19.78,20.78,29.88,13.75,20.64,25.62,42.19,34.46,65.4,8.63,22.67,14.78,46.16,20.26,69.76,2.08,8.94,4.06,17.81,6.68,26.6,2,6.59,4.44,14.06,3.38,21s-7.95,10.11-14.35,7.64c-8.05-3.11-13.36-11.55-19.21-17.45-8-8.09-17.83-14.71-27-21.4-10.3-7.51-20.52-15-30.22-23.33a133.07,133.07,0,0,0-29-18.69c-8.34-4-17-7.53-26-9.53-16-3.53-33.5-3.44-48.75,3A50.64,50.64,0,0,0,775.85,867c-6,7.44-10.63,16.88-9.05,26.66,1.52,9.41,8.59,15.94,16.21,20.87,10.89,7,21.94,13.86,32.43,21.51,5,3.62,9.75,7.47,14.88,10.87,5,3.29,10.13,6.33,15.31,9.29,10.32,5.9,21.12,11.21,30,19.29,7.79,7.12,14.35,15.44,21.71,23,2.26,2.3,5.79-1.23,3.54-3.54-7.55-7.73-14.26-16.29-22.31-23.52-8.6-7.74-18.88-13-28.87-18.68-5.19-3-10.35-6-15.36-9.19s-9.92-7.08-14.83-10.72c-10.19-7.54-21-14.25-31.6-21.1-7.79-5-16-11.07-16.41-21.24-.34-9.3,5.59-18.3,12.1-24.49,12-11.37,29.2-14.71,45.19-13.79,18.4,1.07,36,8.29,51.56,17.79,10.32,6.28,19.06,14.52,28.6,21.86,9.7,7.48,19.79,14.45,29.52,21.89a158.86,158.86,0,0,1,13.48,11.07c3.11,3,5.85,6.29,8.78,9.42,5.43,5.8,12.42,12.22,21,11.26,7-.78,12.18-5.5,13.24-12.5,1.09-7.15-.94-14.6-2.92-21.42-5.71-19.7-9.59-39.86-15-59.64-6.31-23-14.14-45.71-24.87-67-10.85-21.58-24.58-41.5-38.5-61.17-14.19-20-27.24-40.87-41.61-60.77-14.74-20.41-31.92-38.93-49-57.41-8.1-8.79-16.15-17.64-24.33-26.36C793,573,787,567.05,781.58,560.53S771,546.58,768.64,538.29A27.35,27.35,0,0,1,773,514.1c5.42-7.44,13-12.32,22.41-11.92,8.75.38,17.1,4.46,24.48,8.89a205.47,205.47,0,0,1,21.43,15.31q14.07,11.08,28.54,21.64c10.35,7.57,20.82,15,31.35,22.28,9.48,6.59,19.06,12.8,27.29,21,15.35,15.22,26.82,33.76,39.58,51.08,14.17,19.25,30.72,36.45,47,53.88,8,8.61,16,17.31,23.48,26.43,2.05,2.49,5.56-1.07,3.54-3.54Z"/><path class="cls-6" d="M813.79,920c3.68-7.14,5.16-15.06,8.39-22.37,1.18-2.68,2.6-5.29,3.58-8a7.93,7.93,0,0,0-.14-6.14c-1-2.27-3.08-4.11-4.86-5.8a42.11,42.11,0,0,0-9.76-7.23c-5.85-3-12.55-3.79-18.75-1.34-7.87,3.11-13.69,9.68-18.46,16.44a2.52,2.52,0,0,0,.9,3.42,2.55,2.55,0,0,0,3.42-.9c3.69-5.24,8.13-10.39,13.91-13.4a17.27,17.27,0,0,1,15.14-.54,32,32,0,0,1,8.5,5.63c1.21,1.08,2.39,2.2,3.51,3.37.39.41.77.82,1.13,1.25.1.12.41.54.16.19l.39.58c.11.18.2.37.31.55.23.39-.1-.4,0,0,0,.14.08.3.13.45.2.57.06-.19,0,.09a3.69,3.69,0,0,0,0,.47c0,.51,0,0,0,.06-.09.41-.18.81-.31,1.22s-.37,1-.37,1c.07-.17-.19.46-.25.59l-.39.84c-.61,1.34-1.25,2.67-1.85,4a99.84,99.84,0,0,0-4.38,11.75,67.6,67.6,0,0,1-4.33,11.34c-1.48,2.85,2.84,5.38,4.32,2.52Z"/><path class="cls-6" d="M818,515.8c-6.7,4.07-12.6,9.33-19.27,13.45a49.27,49.27,0,0,1-5.19,2.84l-.66.31c-.45.2.28-.11-.16.07s-.87.34-1.31.49a19.09,19.09,0,0,1-2.35.67l-.61.12c-.51.11.12,0,0,0a11.5,11.5,0,0,1-1.17.08c-.33,0-.65,0-1,0s-.48-.1,0,0l-.54-.1c-.32-.08-.64-.2-1-.29s.42.22,0,0l-.55-.29c-.22-.13-.92-.68-.41-.25a9.26,9.26,0,0,1-.86-.8c-.16-.17-.31-.35-.46-.53.32.39,0,0-.1-.17q-.4-.63-.75-1.29c-.11-.22-.21-.45-.32-.68s0,.05,0,.08l-.21-.54c-.21-.58-.39-1.17-.56-1.77a39.72,39.72,0,0,1-1.14-9.37c-.08-3.21-5.08-3.23-5,0,.22,8.23,2,21.38,13,21,4-.14,7.76-1.83,11.18-3.71a103.47,103.47,0,0,0,11-7.29c3.59-2.62,7.1-5.41,10.91-7.72,2.75-1.67.24-6-2.52-4.32Z"/></g><path class="cls-7" d="M277.73,664.32A4,4,0,0,1,274,668h-9.77v55.33c0,3.72,3.72,5.58,5.58,5.58a4.31,4.31,0,0,1,3.88,3.88,4.16,4.16,0,0,1-3.88,3.72,12.92,12.92,0,0,1-13.33-13.18V668H247c-3.72,0-3.72-1.86-3.72-3.72s0-3.72,3.72-3.72h9.45V632.39a4,4,0,0,1,3.72-3.72,4.17,4.17,0,0,1,4,3.72V660.6H274A4,4,0,0,1,277.73,664.32Z"/><path class="cls-7" d="M372.28,664.32v68.36a3.82,3.82,0,0,1-2,3.44,3.73,3.73,0,0,1-5.44-3.29V721.51a35.46,35.46,0,0,1-28.52,15c-20,0-36-17.21-36-38s16-38,36-38a35.31,35.31,0,0,1,28.52,14.88V664.32a3.72,3.72,0,1,1,7.44,0Zm-7.44,34.25c0-17.05-12.87-30.69-28.52-30.69-15.5,0-28.52,13.64-28.52,30.69s13,30.54,28.52,30.54C352,729.11,364.84,715.62,364.84,698.57Z"/><path class="cls-7" d="M407.77,632a3.86,3.86,0,0,1,4.21-4,3.78,3.78,0,0,1,3.38,3.69V732.83a3.79,3.79,0,0,1-3.38,3.69,3.87,3.87,0,0,1-4.21-4Z"/><path class="cls-7" d="M445.28,631.9a4,4,0,0,1,3.18-3.82,3.83,3.83,0,0,1,4.41,3.69v73L497.82,660a3.73,3.73,0,0,1,5.27,5.27L473.8,694.54l29.45,35.81a3.63,3.63,0,0,1-2.79,6.2,3.22,3.22,0,0,1-2.95-1.4L468.37,700l-15.5,15.5v17.36a3.83,3.83,0,0,1-4.41,3.68,3.94,3.94,0,0,1-3.18-3.82Z"/><path class="cls-7" d="M526.81,720.74a3.7,3.7,0,0,1,5.27-.47c5.27,3.88,13.64,8.84,23.25,8.84a22.89,22.89,0,0,0,14.41-4.65c3.72-2.48,5.74-5.89,5.74-9.3-.16-3.57-1.55-6-5.43-9.3-3.25-2.48-8.68-4.34-16.12-5.58l-.31-.16c-6.82-1.24-12.86-2.79-17.2-5.89a15.85,15.85,0,0,1-8.22-13.64c0-6,3.41-11.31,8.22-14.88,4.49-3.1,10.85-5.11,18.6-5.11,9.76,0,16.74,4.49,22.63,8.21a3.94,3.94,0,0,1,1.08,5.27,3.72,3.72,0,0,1-5.11,1.09c-5.58-3.72-11.16-7.6-18.6-7.6-6.2,0-11.16,1.71-14.42,4.34-3.1,2.48-4.8,5.58-4.8,8.68s1.39,5.27,4.34,7.6c3.41,2.32,8.52,4.18,15.5,5.27H556a52.6,52.6,0,0,1,18.44,6.2,18.94,18.94,0,0,1,8.53,15.5c0,6.35-3.57,11.47-8.68,15.34a30.94,30.94,0,0,1-18.91,6c-12.25-.16-21.86-5.89-28.06-10.85A3.49,3.49,0,0,1,526.81,720.74Z"/><path class="cls-6" d="M860.54,328.84c2.77,27.42,17.82,55,49.38,58.29-30.4,4.11-42.75,22.5-53.42,51.32-4.39-22.36-11.67-38.17-45.57-54.8C852.22,379.33,849.76,356.26,860.54,328.84Z"/><path class="cls-6" d="M858,328.84a84.84,84.84,0,0,0,9.47,32c5.26,9.61,13,18,22.8,23.05a54.92,54.92,0,0,0,19.61,5.7l-.66-4.91c-10.63,1.46-20.83,5-29.35,11.69-7.89,6.16-13.69,14.58-18.17,23.44a173.81,173.81,0,0,0-7.65,17.94h4.82c-1.66-8.45-4-16.85-8.22-24.4-4.77-8.47-11.79-15.28-19.65-20.9a134.39,134.39,0,0,0-18.85-11l-1.26,4.66c12-1.28,24.66-4.3,33.3-13.28,6.82-7.1,10-16.62,12.85-25.82,1.83-5.89,3.62-11.8,5.87-17.55a2.52,2.52,0,0,0-1.75-3.07,2.55,2.55,0,0,0-3.07,1.74c-3.71,9.47-6,19.44-9.8,28.87l-.13.33c0-.1.17-.39,0,.06-.09.22-.19.43-.28.65-.24.54-.49,1.07-.74,1.6-.48,1-1,2-1.55,3s-1.09,1.84-1.7,2.72a21.22,21.22,0,0,1-1.74,2.32A30.79,30.79,0,0,1,831.41,376c-6.15,3-13.51,4.44-20.48,5.19a2.59,2.59,0,0,0-2.41,1.83,2.52,2.52,0,0,0,1.15,2.82c10.22,5,20.35,10.91,28.38,19.11a50.62,50.62,0,0,1,7.67,9.88,53.77,53.77,0,0,1,2.86,5.48c.68,1.51,1.36,3.25,2,5.13a105.71,105.71,0,0,1,3.51,13.72A2.52,2.52,0,0,0,856.5,441a2.58,2.58,0,0,0,2.41-1.83c3.63-9.79,7.81-19.55,13.93-28.07a50.47,50.47,0,0,1,20.57-16.95,65.21,65.21,0,0,1,17.18-4.56,2.47,2.47,0,0,0,1.79-2.74,2.56,2.56,0,0,0-2.46-2.17,47.43,47.43,0,0,1-28-12.89c-7.3-7.06-12.27-16.21-15.32-25.84A86.19,86.19,0,0,1,863,328.84a2.57,2.57,0,0,0-2.5-2.5A2.52,2.52,0,0,0,858,328.84Z"/></g></g></svg>