<?xml version="1.0" encoding="UTF-8" standalone="no"?> <!-- Created with Vectornator for iOS (http://vectornator.io/) --><!DOCTYPE svg PUBLIC "-//W3C//DTD SVG 1.1//EN" "http://www.w3.org/Graphics/SVG/1.1/DTD/svg11.dtd">
<svg width="100%" viewBox="0 0 1350.37 1230.47" xml:space="preserve" xmlns="http://www.w3.org/2000/svg" style="fill-rule:nonzero;clip-rule:evenodd;stroke-linecap:round;stroke-linejoin:round;" xmlns:vectornator="http://vectornator.io" height="100%" version="1.1" xmlns:xlink="http://www.w3.org/1999/xlink">
<metadata>
<vectornator:setting key="WDOutlineMode" value="false"/>
<vectornator:setting key="WDDynamicGuides" value="false"/>
<vectornator:setting key="VNPencilOnly" value="false"/>
<vectornator:setting key="WDGuidesVisible" value="true"/>
<vectornator:setting value="false" key="IsTimeLapseWatermarkDisabled"/>
<vectornator:setting key="VNDimensionsVisible" value="true"/>
<vectornator:setting key="VNSnapToGuides" value="true"/>
<vectornator:setting value="false" key="WDSnapToPoints"/>
<vectornator:setting value="Points" key="WDUnits"/>
<vectornator:setting key="WDSnapToEdges" value="false"/>
<vectornator:setting value="false" key="WDIsolateActiveLayer"/>
<vectornator:setting key="WDSnapToGrid" value="false"/>
<vectornator:setting value="false" key="WDDisplayWhiteBackground"/>
<vectornator:setting key="UndoHistoryDisabled" value="false"/>
<vectornator:setting value="false" key="WDCMYKEnabledKey"/>
<vectornator:setting value="true" key="WDRulersVisible"/>
</metadata>
<defs>
<path d="M939.75+1046C712.42+1097.09+386.75+1123.67+188.42+959.22C22.32+821.47-35.66+595.2+43.24+377.44C166.14+38.29+536.78-16.83+817+13.43C1000.29+33.23+1205+120.43+1293.46+323.24C1393.23+552.06+1318+845.18+1127.08+976C1119.49+981.2+1116.08+991.74+1118.96+1001.32C1133.47+1049.38+1148.32+1097.32+1163.09+1145.26C1166.39+1155.96+1169.09+1169.63+1161.76+1177.26C1146.94+1192.56+1105.84+1161.72+1092.53+1153.51C1066.95+1137.72+1042.74+1119.22+1018.45+1101C1001.08+1088+983.91+1074.53+966.32+1061.88C960.75+1057.82+947.09+1044.32+939.75+1046Z" id="Mask"/>
</defs>
<g id="Layer 2" vectornator:layerName="Layer 2">
<g opacity="1">
<path opacity="1" fill="#000000" d="M947.94+1088.23C720.28+1139.32+394.18+1165.9+195.53+1001.44C29.19+863.73-28.88+637.45+50.14+419.7C173.22+80.54+544.38+25.43+825+55.69C1008.55+75.48+1213.61+162.69+1302.14+365.5C1402.04+594.32+1326.72+887.44+1135.51+1018.24C1127.91+1023.43+1124.51+1033.97+1127.38+1043.56C1141.91+1091.62+1156.77+1139.56+1171.57+1187.5C1174.87+1198.2+1177.57+1211.86+1170.23+1219.5C1155.4+1234.8+1114.23+1203.96+1100.91+1195.74C1075.29+1179.96+1051.05+1161.45+1026.72+1143.23C1009.32+1130.23+992.13+1116.77+974.51+1104.12C969+1100.07+955.29+1086.58+947.94+1088.23Z"/>
<path opacity="1" fill="#4cac83" d="M1151.82+1187.15C1135.07+1187.15+1111.82+1171.87+1097.98+1162.74C1095.46+1161.08+1093.28+1159.64+1091.6+1158.6C1067.95+1144.03+1045.19+1126.95+1023.17+1110.43L1017.11+1105.89C1011.3+1101.53+1005.41+1097.06+999.72+1092.74C988.38+1084.13+976.66+1075.22+964.97+1066.82C963.63+1065.82+961.97+1064.49+960.06+1062.91C955.28+1058.91+946.38+1051.58+942.06+1051.58C941.912+1051.58+941.764+1051.6+941.62+1051.63C827.44+1077.25+714.05+1090.8+613.72+1090.8C431.38+1090.8+287.41+1048.15+185.79+964.02C103.723+896.389+45.535+804.2+19.79+701.02C-6.52+596.91+0.2+485.13+39.14+377.83C87.43+244.76+177.27+145.23+306.18+82C361.33+55+423.76+34.62+491.75+21.57C552.47+9.91+617.77+4+685.83+4C730.057+4.04226+774.25+6.44901+818.22+11.21C919.91+22.21+1015.22+52.21+1094+98.01C1188.47+153.01+1257.31+228.82+1298.6+323.39C1323.19+379.72+1337.77+440.78+1341.92+504.86C1345.92+566.803+1340.09+628.989+1324.65+689.11C1309.2+749.54+1284.89+805.33+1252.39+854.93C1218.72+906.34+1177.73+948.76+1130.55+981.03C1124.38+985.26+1121.62+994.03+1124+1001.89C1136.08+1041.89+1148.61+1082.44+1160.72+1121.67L1168.18+1145.81C1171.55+1156.74+1174.98+1172.36+1165.89+1181.74C1162.41+1185.33+1157.67+1187.15+1151.82+1187.15Z"/>
<path opacity="1" d="M685.82+8C729.917+8.03475+773.98+10.4349+817.82+15.1901C1001.34+35+1206.4+122.21+1294.93+325C1394.83+553.82+1319.51+847+1128.29+977.74C1120.7+982.94+1117.29+993.48+1120.17+1003.06C1134.69+1051.12+1149.56+1099.06+1164.36+1147C1167.66+1157.7+1170.36+1171.37+1163.02+1179C1160.14+1182+1156.28+1183.19+1151.82+1183.19C1133.28+1183.19+1104.44+1161.86+1093.69+1155.19C1068.08+1139.4+1043.83+1120.9+1019.51+1102.68C1002.11+1089.68+984.92+1076.21+967.3+1063.56C962.04+1059.79+949.58+1047.56+942.01+1047.56C941.566+1047.56+941.124+1047.61+940.69+1047.7C843.69+1069.46+728.89+1086.78+613.69+1086.78C458.38+1086.78+302.35+1055.33+188.31+960.92C21.94+823.23-36.12+597+42.9+379.19C147.41+91.19+430.86+8+685.82+8M685.82+0C617.52+0+552+5.94+491+17.64C422.65+30.76+359.88+51.21+304.42+78.41C174.55+142.11+84.03+242.41+35.42+376.41C-3.83+484.52-10.6+597.1+15.82+702C41.7856+806.008+100.454+898.934+183.19+967.1C237.62+1012.17+304.99+1045.78+383.41+1067C451.6+1085.44+529.07+1094.8+613.67+1094.8C667.89+1094.8+725.55+1090.95+785.04+1083.36C836.34+1076.81+889.19+1067.47+942.14+1055.6C945.45+1056.01+954.51+1063.5+957.51+1065.99C959.51+1067.62+961.19+1068.99+962.63+1070.07C974.28+1078.44+985.98+1087.32+997.29+1095.92C1002.99+1100.25+1008.89+1104.72+1014.71+1109.09L1020.77+1113.63C1042.86+1130.2+1065.7+1147.34+1089.5+1162.01C1091.13+1163.01+1093.29+1164.44+1095.78+1166.08C1110.03+1175.46+1133.87+1191.15+1151.78+1191.15C1160.47+1191.15+1165.78+1187.55+1168.72+1184.52C1179.29+1173.62+1175.63+1156.52+1171.96+1144.63C1169.47+1136.55+1166.97+1128.47+1164.48+1120.4C1152.37+1081.2+1139.86+1040.68+1127.78+1000.74C1125.9+994.5+1128+987.6+1132.78+984.34C1180.39+951.77+1221.78+908.97+1255.71+857.12C1288.44+807.12+1312.93+750.96+1328.5+690.12C1344.04+629.59+1349.9+566.983+1345.88+504.62C1341.7+440.08+1327.01+378.62+1302.23+321.81C1280.83+272.68+1251.22+227.557+1214.66+188.38C1181.1+152.44+1141.18+120.88+1095.99+94.57C1016.8+48.45+920.89+18.26+818.65+7.23C774.537+2.45232+730.201+0.0388084+685.83-6.66436e-05L685.82+0Z" fill="#000000"/>
<g vectornator:mask="#Mask" opacity="1">
<clipPath id="ClipPath">
<use xlink:href="#Mask" overflow="visible" fill="none"/>
</clipPath>
<g clip-path="url(#ClipPath)">
<g opacity="1">
<path opacity="1" fill="#f9f5dd" d="M197.27+229.27C201.53+238.05+205.93+246.76+210.37+255.44L217+268.3C218.88+271.97+220.81+275.61+222.42+279.41C228.12+292.88+231.9+308.73+244.22+317.92C250.66+322.72+258.56+324.56+266.22+326.44C274.76+328.54+282.77+331.89+290.84+335.38C298.91+338.87+307.17+342.33+315.56+345.29C323.31+348.03+331.14+350.55+338.98+353.05C354.84+358.11+370.81+362.99+386.21+369.35C387.89+370.017+389.557+370.737+391.21+371.51C392.408+372.167+393.91+371.771+394.63+370.61C395.316+369.418+394.92+367.896+393.74+367.19C378.74+360.48+363.05+355.48+347.43+350.5C331.81+345.52+315.82+340.62+300.58+334.16C292.04+330.54+283.58+326.41+274.75+323.59C267.45+321.25+259.61+320.34+252.62+317.08C245.82+313.91+241.03+308.64+237.44+302.15C233.85+295.66+231.49+288.75+228.81+281.93C225.69+273.99+221.7+266.51+217.81+258.93C213.47+250.45+209.13+241.93+204.91+233.42C203.817+231.2+202.73+228.98+201.65+226.76C200.947+225.576+199.424+225.175+198.23+225.86C197.064+226.576+196.668+228.083+197.33+229.28L197.27+229.27Z"/>
<path d="M285.19+306.12C298.19+311.93+306.61+324.4+318.89+331.36C333.63+339.72+349.02+346.85+363.89+355.02C378.09+362.83+391.55+371.87+405.3+380.42C418.819+389.001+432.985+396.516+447.67+402.9C454.55+405.83+461.76+407.49+469.13+405.46C475.59+403.67+481.51+400.28+488.04+398.74C489.35+398.42+490.692+398.252+492.04+398.24C495.25+398.24+495.26+393.24+492.04+393.24C485.48+393.24+479.31+396.43+473.33+398.74C470.512+399.954+467.557+400.824+464.53+401.33C460.919+401.663+457.279+401.21+453.86+400C450.4+398.776+447.017+397.343+443.73+395.71C440.08+394.02+436.42+392.35+432.84+390.52C425.72+386.9+418.84+382.89+411.98+378.73C398.28+370.37+384.98+361.37+371.06+353.37C356.52+345.03+341.29+337.95+326.57+329.94C323.209+328.209+319.957+326.275+316.83+324.15C314.015+322.088+311.311+319.878+308.73+317.53C303.43+312.85+298.25+307.9+292.2+304.21C290.757+303.322+289.257+302.53+287.71+301.84C286.512+301.183+285.01+301.579+284.29+302.74C283.6+303.934+284.001+305.461+285.19+306.16L285.19+306.12Z" fill="#f9f5dd" opacity="1"/>
<path opacity="1" fill="#f9f5dd" d="M330.86+292.34C333.11+300+337+307+343.11+312.17C348.72+316.87+355.39+319.88+362.03+322.81C371.89+327.16+381.72+331.57+391.57+335.95C402+340.6+412.57+345.09+422.8+350.15C440.15+358.71+455.24+370.98+470.41+382.8C478.15+388.8+485.95+394.8+494.15+400.18C498.24+402.86+502.42+405.4+506.72+407.72C510.8+409.91+514.83+412.22+518.94+414.36C523.05+416.5+527.42+418.26+532.1+418.56C536.783+418.731+541.418+417.561+545.46+415.19C553.26+410.9+559.24+404.12+566.23+398.74C567.726+397.574+569.307+396.521+570.96+395.59C573.78+394.03+571.26+389.71+568.44+391.28C561.09+395.36+555.44+401.89+548.79+406.98C545.607+409.651+541.945+411.694+538+413C533.74+414.2+529.51+413.52+525.45+411.94C521.39+410.36+517.6+407.94+513.74+405.79C509.6+403.54+505.43+401.37+501.41+398.9C493.325+393.821+485.511+388.324+478+382.43C462.93+370.86+448.3+358.51+431.66+349.19C422.34+343.97+412.39+339.84+402.66+335.47C392.26+330.81+381.84+326.22+371.44+321.57C364.55+318.48+357.37+315.72+350.94+311.72C345.118+308.169+340.506+302.94+337.71+296.72C336.89+294.864+336.202+292.952+335.65+291C334.74+287.92+329.91+289.23+330.83+292.33L330.86+292.34Z"/>
<path d="M448.33+282.85C465.45+299.22+484.33+313.58+502.13+329.15C510.831+336.703+519.148+344.686+527.05+353.07C534.24+360.75+541.15+368.68+548.34+376.36C555.454+384.164+563.168+391.399+571.41+398C580.1+404.77+589.66+409.61+599.41+414.66C621.41+426.03+643.18+437.66+664.41+450.4C678.64+458.92+693.83+468.4+710.71+470.03C718.95+470.83+727.19+468.96+733.71+463.73C740.624+458.082+745.33+450.18+747+441.41C749.66+425.24+738.67+411.54+727.58+401.19C721.96+395.95+715.9+391.19+709.99+386.33C701.26+379.11+692.68+371.7+684.04+364.38C665.31+348.53+646.3+332.71+629.55+314.73C613.37+297.37+598.55+278.73+582.65+261.15C567.07+243.94+551.52+226.58+538.45+207.34C525.38+188.1+515.12+167.16+506.45+145.67C502.13+134.97+498.18+124.12+494.37+113.23C491.37+104.55+488.49+95.87+484.9+87.4C482.15+80.95+478.9+73.79+479.04+66.63C478.948+63.739+480.142+60.9559+482.3+59.03C485.229+56.7137+489.067+55.8864+492.69+56.79C501.22+58.92+507.5+66.74+514.22+71.9C523.31+78.9+533.88+84.21+543.9+89.71C554.47+95.49+565+101.29+575+107.93C584.698+114.272+595.197+119.296+606.22+122.87C622.31+128.2+638.74+130.74+655.62+128.32C671.3+126.07+686.97+119.32+697.01+106.68C702.44+99.85+706.83+91.26+707.11+82.39C707.37+73.9+703.03+66.56+696.37+61.56C692.3+58.5+687.57+56.56+682.99+54.37C677.46+51.75+671.91+49.16+666.42+46.46C655.34+41+644.91+34.34+633.7+29.16C623.36+24.39+612.7+20.47+602.21+15.95C599.29+14.69+596.74+18.95+599.69+20.27C610.38+24.89+621.33+28.89+631.89+33.81C642.89+38.92+653.06+45.44+663.89+50.81C669.39+53.51+674.89+56.1+680.47+58.71C685.02+60.86+689.84+62.8+693.85+65.91C700.33+70.91+703.33+78.42+701.6+86.51C698.13+102.74+684.25+114.67+669.13+119.97C654.98+124.97+639.13+125.6+624.48+122.69C614.171+120.605+604.134+117.354+594.56+113C583.82+108.15+574.36+101.22+564.22+95.3C553.93+89.3+543.34+83.82+533.03+77.86C528.03+74.98+523.03+72.06+518.35+68.73C514.79+66.21+511.64+63.14+508.3+60.35C502+55.16+494.25+49.71+485.63+52C478.75+53.6197+473.934+59.8229+474.07+66.89C474+74.16+477+81.34+479.78+88C483.19+96.13+486.02+104.39+488.92+112.72C496.37+134.12+504.36+155.38+514.43+175.72C524.614+196.139+537.055+215.352+551.52+233C566.06+250.87+582.1+267.44+597.06+284.95C612.43+302.95+627.55+320.95+645.06+336.95C663.13+353.48+682.06+369.06+700.69+384.95C712.43+394.95+725.82+404.05+734.98+416.62C739.26+422.48+742.6+429.3+742.51+436.7C742.4+445.13+737.69+453.54+731.51+459.09C718.51+470.83+699.05+463.44+685.51+456.62C678.35+453.02+671.51+448.82+664.64+444.73C654.093+438.47+643.427+432.423+632.64+426.59C621.73+420.65+610.72+414.88+599.64+409.18C589.99+404.18+580.64+399.24+572.22+392.32C556.04+379.07+542.95+362.57+528.61+347.46C512.8+330.82+494.87+316.46+477.3+301.77C468.62+294.51+460.03+287.15+451.85+279.33C449.52+277.1+445.98+280.63+448.31+282.86L448.33+282.85Z" opacity="1" fill="#f9f5dd"/>
<path d="M656.49+55.54C655.024+59.4309+653.916+63.4476+653.18+67.54C652.377+71.6431+651.315+75.6912+650+79.66C648.62+83.75+645.77+88.99+648.62+93.08C650.23+95.4+652.71+97.08+654.97+98.69C658.123+101.019+661.613+102.854+665.32+104.13C671.441+106.193+678.148+105.587+683.8+102.46C690.96+98.46+696.01+91.38+699.93+84.38C701.51+81.57+697.19+79.05+695.61+81.86C692.48+87.45+688.61+93.22+683.3+96.86C679.099+99.9576+673.751+101.054+668.67+99.86C665.465+99.0468+662.421+97.6942+659.67+95.86C657.311+94.4687+655.134+92.7891+653.19+90.86C653.04+90.7+652.9+90.53+652.76+90.36C652.62+90.19+653.02+90.74+652.84+90.46C652.84+90.39+652.74+90.33+652.7+90.26C652.62+90.0947+652.53+89.9344+652.43+89.78C652.29+89.56+652.53+90.04+652.53+90.04C652.484+89.9289+652.444+89.8154+652.41+89.7C652.41+89.54+652.34+89.37+652.29+89.21C652.4+89.53+652.29+89.68+652.29+89.3C652.29+89.12+652.29+88.94+652.29+88.76C652.29+88.58+652.29+88.55+652.29+88.45C652.29+88.12+652.19+88.94+652.29+88.62C652.84+86.34+653.63+84.16+654.39+81.94C655.792+77.8365+656.918+73.6438+657.76+69.39C658.517+65.1117+659.662+60.911+661.18+56.84C661.547+55.509+660.766+54.1323+659.435+53.765C658.104+53.3977+656.727+54.179+656.36+55.51L656.49+55.54Z" fill="#f9f5dd" opacity="1"/>
<path fill="#f9f5dd" opacity="1" d="M693.54+454.42C699.79+449.57+705.13+443.64+711.34+438.74C711.89+438.3+712.61+437.74+713.46+437.15C714.31+436.56+715.05+436.05+715.87+435.54C716.69+435.03+717.49+434.54+718.34+434.16L718.9+433.89C718.98+433.89+719.52+433.61+719.24+433.73C718.96+433.85+719.5+433.63+719.59+433.6L720.22+433.36C720.945+433.119+721.687+432.932+722.44+432.8C722.59+432.8+721.95+432.8+722.44+432.8L722.95+432.8C723.31+432.78+723.67+432.78+724.03+432.8C724.37+432.8+724.38+432.87+724.03+432.8L724.51+432.9C724.85+432.99+725.18+433.09+725.51+433.21C725.63+433.21+725.1+432.97+725.51+433.21C725.65+433.29+725.81+433.36+725.95+433.45C726.09+433.54+726.23+433.63+726.38+433.72C726.85+434.01+726.2+433.53+726.5+433.81C726.827+434.095+727.138+434.399+727.43+434.72C727.5+434.81+727.89+435.29+727.74+435.08C727.846+435.26+727.963+435.434+728.09+435.6C728.378+436.049+728.642+436.513+728.88+436.99C729.1+437.397+729.293+437.818+729.46+438.25C730.524+441.177+731.245+444.217+731.61+447.31C731.647+448.675+732.745+449.773+734.11+449.81C735.486+449.799+736.599+448.686+736.61+447.31C735.9+441.84+734.86+435.86+731.22+431.48C728.783+428.602+724.984+427.261+721.28+427.97C717.47+428.56+713.93+430.71+710.84+432.92C707.121+435.656+703.574+438.618+700.22+441.79C696.86+444.87+693.61+448.11+690+450.9C689.037+451.884+689.037+453.456+690+454.44C690.992+455.382+692.548+455.382+693.54+454.44L693.54+454.42Z"/>
<path opacity="1" fill="#f9f5dd" d="M1284.77+805.82C1281.48+796.59+1278.06+787.41+1274.6+778.24C1271.41+769.78+1267.8+761.38+1265.16+752.72C1260.8+738.44+1258.78+721.56+1247.38+710.78C1241.58+705.29+1234.19+702.4+1226.88+699.55C1223.28+698.194+1219.77+696.618+1216.36+694.83C1212.2+692.6+1208.13+690.22+1204.08+687.83C1196.38+683.26+1188.68+678.73+1180.7+674.65C1173.26+670.86+1165.7+667.28+1158.15+663.73C1142.75+656.48+1127.15+649.42+1112.44+640.9C1110.77+639.94+1109.1+638.94+1107.44+637.9C1104.69+636.21+1102.18+640.54+1104.92+642.22C1119.12+650.93+1134.29+657.98+1149.35+665.06C1164.67+672.26+1180.02+679.39+1194.62+687.99C1202.39+692.58+1210.05+697.64+1218.28+701.36C1225.15+704.46+1232.53+706.51+1238.95+710.54C1252.2+718.86+1255.08+735.14+1258.95+749.13C1261.19+757.3+1264.34+765.13+1267.34+773.04C1270.76+782.04+1274.17+791.1+1277.47+800.17C1278.31+802.477+1279.14+804.793+1279.96+807.12C1280.36+808.427+1281.71+809.191+1283.04+808.86C1284.36+808.486+1285.14+807.119+1284.79+805.79L1284.77+805.82Z"/>
<path d="M1205.43+717.08C1199.52+713.45+1194.86+708.17+1190.32+703.02C1185.59+697.63+1180.91+692.17+1175.18+687.8C1161.39+677.29+1146.64+668.13+1132.65+657.9C1119.65+648.37+1107.43+637.72+1094.9+627.53C1082.47+617.278+1069.32+607.937+1055.54+599.58C1049.2+595.79+1042.22+593.02+1034.73+594.02C1028.04+594.91+1021.73+597.69+1014.99+598.32C1013.53+598.485+1012.06+598.485+1010.6+598.32C1009.22+598.326+1008.11+599.442+1008.1+600.82C1008.13+602.187+1009.23+603.288+1010.6+603.32C1017.18+604.18+1023.91+601.55+1030.21+600.01C1033.13+599.166+1036.17+598.765+1039.21+598.82C1042.74+599.128+1046.18+600.149+1049.31+601.82C1052.63+603.51+1055.74+605.58+1058.89+607.55C1062.32+609.71+1065.75+611.86+1069.09+614.16C1075.7+618.69+1082.09+623.55+1088.3+628.56C1100.88+638.67+1113.03+649.3+1125.9+659.05C1139.51+669.37+1153.99+678.51+1167.82+688.54C1170.93+690.694+1173.9+693.056+1176.69+695.61C1179.25+698.04+1181.63+700.61+1183.96+703.3C1188.6+708.55+1193.1+714.04+1198.65+718.38C1200.02+719.462+1201.45+720.463+1202.94+721.38C1205.69+723.07+1208.21+718.75+1205.47+717.07L1205.43+717.08Z" opacity="1" fill="#f9f5dd"/>
<path d="M1159.13+724.79C1157.66+716.79+1154.42+709.31+1148.82+703.34C1143.76+697.93+1137.28+694.06+1131+690.25C1121.65+684.58+1112.35+678.86+1103+673.17C1093.28+667.23+1083.42+661.43+1074+655.11C1057.8+644.31+1044.27+630.11+1030.58+616.4C1023.7+609.51+1016.74+602.67+1009.33+596.34C1002.14+590.19+994.41+584.71+986.73+579.2C983.247+576.527+979.315+574.495+975.12+573.2C970.646+572.039+965.925+572.262+961.58+573.84C952.84+576.9+945.89+583.21+938.11+587.98C936.515+588.996+934.844+589.885+933.11+590.64C931.807+591.045+931.044+592.395+931.37+593.72C931.744+595.043+933.111+595.822+934.44+595.47C942.66+592.11+949.27+585.91+956.91+581.53C960.51+579.47+964.51+577.62+968.72+577.45C972.723+577.434+976.644+578.588+980+580.77C983.73+582.99+987.1+585.77+990.62+588.3C994.4+591.02+998.18+593.67+1001.8+596.59C1009.2+602.59+1016.12+609.16+1022.89+615.86C1036.53+629.34+1049.67+643.43+1065.08+654.95C1073.65+661.36+1082.98+666.77+1092.08+672.36C1101.84+678.36+1111.64+684.29+1121.41+690.27C1127.95+694.27+1135.08+698.1+1140.94+702.88C1146.48+707.241+1150.59+713.162+1152.74+719.88C1153.38+721.939+1153.89+724.037+1154.27+726.16C1154.64+727.491+1156.01+728.272+1157.34+727.905C1158.68+727.538+1159.46+726.161+1159.09+724.83L1159.13+724.79Z" fill="#f9f5dd" opacity="1"/>
<path d="M1169+1165.32C1177.28+1171.66+1185.09+1178.58+1192.37+1186.05C1200.26+1193.94+1207.08+1202.82+1212.68+1212.47C1215.6+1217.58+1217.89+1223.04+1219.48+1228.71C1220.33+1231.8+1225.16+1230.49+1224.3+1227.38C1221.3+1216.54+1215.65+1206.61+1208.93+1197.67C1201.94+1188.51+1194.05+1180.07+1185.4+1172.46C1180.92+1168.46+1176.28+1164.66+1171.52+1161C1170.33+1160.31+1168.8+1160.71+1168.1+1161.9C1167.44+1163.1+1167.83+1164.6+1169+1165.32Z" fill="#f9f5dd" opacity="1"/>
<path d="M1042.14+719.12C1026.46+700+1008.71+682.73+992.31+664.25C984.363+655.29+976.87+645.957+969.83+636.25C963.43+627.39+957.27+618.36+950.7+609.62C944.299+600.817+937.138+592.592+929.3+585.04C920.81+577.12+910.93+570.95+901.44+564.34C881.28+550.3+861.513+535.743+842.14+520.67C834.91+515.03+827.54+509.49+819.5+505.02C811.97+500.84+803.57+497.34+794.84+497.13C776.74+496.7+761.1+514.69+762.54+532.48C763.98+550.27+777.83+564.48+789.45+576.64C805.66+593.64+821.55+610.93+837.2+628.42C845.75+637.98+854.3+647.62+862.08+657.83C869.64+667.75+876.61+678.09+883.51+688.47C890.41+698.85+897.29+709.23+904.51+719.39C911.51+729.29+918.57+739.17+925.29+749.27C939.04+769.91+950.91+791.46+959.75+814.67C968.38+837.34+974.53+860.83+980.01+884.43C982.09+893.37+984.07+902.24+986.69+911.03C988.69+917.62+991.13+925.09+990.07+932.03C989.01+938.97+982.12+942.14+975.72+939.67C967.67+936.56+962.36+928.12+956.51+922.22C948.51+914.13+938.68+907.51+929.51+900.82C919.21+893.31+908.99+885.82+899.29+877.49C890.475+870.028+880.727+863.745+870.29+858.8C861.95+854.8+853.29+851.27+844.29+849.27C828.29+845.74+810.79+845.83+795.54+852.27C787.866+855.488+781.103+860.547+775.85+867C769.85+874.44+765.22+883.88+766.8+893.66C768.32+903.07+775.39+909.6+783.01+914.53C793.9+921.53+804.95+928.39+815.44+936.04C820.44+939.66+825.19+943.51+830.32+946.91C835.32+950.2+840.45+953.24+845.63+956.2C855.95+962.1+866.75+967.41+875.63+975.49C883.42+982.61+889.98+990.93+897.34+998.49C899.6+1000.79+903.13+997.26+900.88+994.95C893.33+987.22+886.62+978.66+878.57+971.43C869.97+963.69+859.69+958.43+849.7+952.75C844.51+949.75+839.35+946.75+834.34+943.56C829.33+940.37+824.42+936.48+819.51+932.84C809.32+925.3+798.51+918.59+787.91+911.74C780.12+906.74+771.91+900.67+771.5+890.5C771.16+881.2+777.09+872.2+783.6+866.01C795.6+854.64+812.8+851.3+828.79+852.22C847.19+853.29+864.79+860.51+880.35+870.01C890.67+876.29+899.41+884.53+908.95+891.87C918.65+899.35+928.74+906.32+938.47+913.76C943.163+917.2+947.663+920.896+951.95+924.83C955.06+927.83+957.8+931.12+960.73+934.25C966.16+940.05+973.15+946.47+981.73+945.51C988.73+944.73+993.91+940.01+994.97+933.01C996.06+925.86+994.03+918.41+992.05+911.59C986.34+891.89+982.46+871.73+977.05+851.95C970.74+828.95+962.91+806.24+952.18+784.95C941.33+763.37+927.6+743.45+913.68+723.78C899.49+703.78+886.44+682.91+872.07+663.01C857.33+642.6+840.15+624.08+823.07+605.6C814.97+596.81+806.92+587.96+798.74+579.24C793+573+787+567.05+781.58+560.53C776.16+554.01+771+546.58+768.64+538.29C766.184+529.991+767.801+521.019+773+514.1C778.42+506.66+786+501.78+795.41+502.18C804.16+502.56+812.51+506.64+819.89+511.07C827.353+515.71+834.511+520.824+841.32+526.38C850.7+533.767+860.213+540.98+869.86+548.02C880.21+555.59+890.68+563.02+901.21+570.3C910.69+576.89+920.27+583.1+928.5+591.3C943.85+606.52+955.32+625.06+968.08+642.38C982.25+661.63+998.8+678.83+1015.08+696.26C1023.08+704.87+1031.08+713.57+1038.56+722.69C1040.61+725.18+1044.12+721.62+1042.1+719.15L1042.14+719.12Z" opacity="1" fill="#f9f5dd"/>
<path opacity="1" d="M813.79+920C817.47+912.86+818.95+904.94+822.18+897.63C823.36+894.95+824.78+892.34+825.76+889.63C826.54+887.648+826.489+885.435+825.62+883.49C824.62+881.22+822.54+879.38+820.76+877.69C817.873+874.821+814.586+872.386+811+870.46C805.15+867.46+798.45+866.67+792.25+869.12C784.38+872.23+778.56+878.8+773.79+885.56C773.105+886.754+773.506+888.277+774.69+888.98C775.887+889.648+777.397+889.25+778.11+888.08C781.8+882.84+786.24+877.69+792.02+874.68C796.714+872.178+802.299+871.979+807.16+874.14C810.276+875.55+813.146+877.451+815.66+879.77C816.87+880.85+818.05+881.97+819.17+883.14C819.56+883.55+819.94+883.96+820.3+884.39C820.4+884.51+820.71+884.93+820.46+884.58L820.85+885.16C820.96+885.34+821.05+885.53+821.16+885.71C821.39+886.1+821.06+885.31+821.16+885.71C821.16+885.85+821.24+886.01+821.29+886.16C821.49+886.73+821.35+885.97+821.29+886.25C821.28+886.407+821.28+886.563+821.29+886.72C821.29+887.23+821.29+886.72+821.29+886.78C821.2+887.19+821.11+887.59+820.98+888C820.85+888.41+820.61+889+820.61+889C820.68+888.83+820.42+889.46+820.36+889.59L819.97+890.43C819.36+891.77+818.72+893.1+818.12+894.43C816.415+898.251+814.952+902.175+813.74+906.18C812.64+910.082+811.19+913.877+809.41+917.52C807.93+920.37+812.25+922.9+813.73+920.04L813.79+920Z" fill="#f9f5dd"/>
<path fill="#f9f5dd" opacity="1" d="M818+515.8C811.3+519.87+805.4+525.13+798.73+529.25C797.058+530.3+795.325+531.248+793.54+532.09L792.88+532.4C792.43+532.6+793.16+532.29+792.72+532.47C792.28+532.65+791.85+532.81+791.41+532.96C790.642+533.233+789.857+533.457+789.06+533.63L788.45+533.75C787.94+533.86+788.57+533.75+788.45+533.75C788.062+533.797+787.671+533.823+787.28+533.83C786.95+533.83+786.63+533.83+786.28+533.83C785.93+533.83+785.8+533.73+786.28+533.83L785.74+533.73C785.42+533.65+785.1+533.53+784.74+533.44C784.38+533.35+785.16+533.66+784.74+533.44L784.19+533.15C783.97+533.02+783.27+532.47+783.78+532.9C783.477+532.652+783.189+532.385+782.92+532.1C782.76+531.93+782.61+531.75+782.46+531.57C782.78+531.96+782.46+531.57+782.36+531.4C782.093+530.98+781.843+530.55+781.61+530.11C781.5+529.89+781.4+529.66+781.29+529.43C781.18+529.2+781.29+529.48+781.29+529.51L781.08+528.97C780.87+528.39+780.69+527.8+780.52+527.2C779.769+524.133+779.386+520.988+779.38+517.83C779.3+514.62+774.3+514.6+774.38+517.83C774.6+526.06+776.38+539.21+787.38+538.83C791.38+538.69+795.14+537+798.56+535.12C802.378+532.927+806.052+530.492+809.56+527.83C813.15+525.21+816.66+522.42+820.47+520.11C823.22+518.44+820.71+514.11+817.95+515.79L818+515.8Z"/>
</g>
</g>
</g>
<path d="M277.73+664.32C277.575+666.304+275.986+667.872+274+668L264.23+668L264.23+723.33C264.23+727.05+267.95+728.91+269.81+728.91C271.866+729.107+273.493+730.734+273.69+732.79C273.479+734.811+271.838+736.384+269.81+736.51C266.267+736.623+262.834+735.276+260.313+732.784C257.793+730.292+256.407+726.874+256.48+723.33L256.48+668L247+668C243.28+668+243.28+666.14+243.28+664.28C243.28+662.42+243.28+660.56+247+660.56L256.45+660.56L256.45+632.39C256.585+630.394+258.174+628.805+260.17+628.67C262.243+628.743+263.947+630.328+264.17+632.39L264.17+660.6L274+660.6C276+660.731+277.594+662.321+277.73+664.32Z" opacity="1" fill="#000000"/>
<path opacity="1" fill="#000000" d="M372.28+664.32L372.28+732.68C372.31+734.111+371.538+735.438+370.28+736.12C369.128+736.714+367.749+736.668+366.64+735.997C365.53+735.326+364.849+734.127+364.84+732.83L364.84+721.51C358.285+730.79+347.681+736.368+336.32+736.51C316.32+736.51+300.32+719.3+300.32+698.51C300.32+677.72+316.32+660.51+336.32+660.51C347.665+660.6+358.276+666.136+364.84+675.39L364.84+664.32C364.84+662.266+366.506+660.6+368.56+660.6C370.614+660.6+372.28+662.266+372.28+664.32ZM364.84+698.57C364.84+681.52+351.97+667.88+336.32+667.88C320.82+667.88+307.8+681.52+307.8+698.57C307.8+715.62+320.8+729.11+336.32+729.11C352+729.11+364.84+715.62+364.84+698.57Z"/>
<path fill="#000000" d="M407.77+632C407.725+630.889+408.162+629.812+408.968+629.045C409.775+628.279+410.872+627.898+411.98+628C413.876+628.201+415.325+629.784+415.36+631.69L415.36+732.83C415.321+734.735+413.874+736.314+411.98+736.52C410.873+736.618+409.777+736.236+408.972+735.471C408.166+734.705+407.728+733.631+407.77+732.52L407.77+632Z" opacity="1"/>
<path d="M445.28+631.9C445.324+630.043+446.642+628.46+448.46+628.08C449.548+627.913+450.655+628.222+451.499+628.928C452.343+629.635+452.843+630.67+452.87+631.77L452.87+704.77L497.82+660C499.292+658.651+501.566+658.701+502.978+660.112C504.389+661.524+504.439+663.798+503.09+665.27L473.8+694.54L503.25+730.35C504.325+731.416+504.625+733.037+504.004+734.417C503.383+735.798+501.971+736.648+500.46+736.55C499.295+736.653+498.166+736.118+497.51+735.15L468.37+700L452.87+715.5L452.87+732.86C452.84+733.958+452.339+734.991+451.495+735.695C450.652+736.399+449.546+736.707+448.46+736.54C446.629+736.18+445.302+734.586+445.28+732.72L445.28+631.9Z" opacity="1" fill="#000000"/>
<path opacity="1" d="M526.81+720.74C527.44+719.969+528.354+719.485+529.346+719.396C530.338+719.308+531.323+719.623+532.08+720.27C537.35+724.15+545.72+729.11+555.33+729.11C560.522+729.24+565.603+727.6+569.74+724.46C573.46+721.98+575.48+718.57+575.48+715.16C575.32+711.59+573.93+709.16+570.05+705.86C566.8+703.38+561.37+701.52+553.93+700.28L553.62+700.12C546.8+698.88+540.76+697.33+536.42+694.23C531.429+691.49+528.291+686.283+528.2+680.59C528.2+674.59+531.61+669.28+536.42+665.71C540.91+662.61+547.27+660.6+555.02+660.6C564.78+660.6+571.76+665.09+577.65+668.81C579.34+670.009+579.812+672.313+578.73+674.08C577.611+675.78+575.335+676.265+573.62+675.17C568.04+671.45+562.46+667.57+555.02+667.57C548.82+667.57+543.86+669.28+540.6+671.91C537.5+674.39+535.8+677.49+535.8+680.59C535.8+683.69+537.19+685.86+540.14+688.19C543.55+690.51+548.66+692.37+555.64+693.46L556+693.46C562.479+694.362+568.732+696.465+574.44+699.66C579.67+703.1+582.863+708.901+582.97+715.16C582.97+721.51+579.4+726.63+574.29+730.5C568.816+734.521+562.171+736.63+555.38+736.5C543.13+736.34+533.52+730.61+527.32+725.65C525.823+724.435+525.595+722.237+526.81+720.74Z" fill="#000000"/>
<path opacity="1" fill="#f9f5dd" d="M860.54+328.84C863.31+356.26+878.36+383.84+909.92+387.13C879.52+391.24+867.17+409.63+856.5+438.45C852.11+416.09+844.83+400.28+810.93+383.65C852.22+379.33+849.76+356.26+860.54+328.84Z"/>
<path d="M858+328.84C859.007+340.028+862.226+350.905+867.47+360.84C872.73+370.45+880.47+378.84+890.27+383.89C896.393+386.999+903.044+388.933+909.88+389.59L909.22+384.68C898.59+386.14+888.39+389.68+879.87+396.37C871.98+402.53+866.18+410.95+861.7+419.81C858.816+425.642+856.262+431.632+854.05+437.75L858.87+437.75C857.21+429.3+854.87+420.9+850.65+413.35C845.88+404.88+838.86+398.07+831+392.45C825.025+388.278+818.721+384.6+812.15+381.45L810.89+386.11C822.89+384.83+835.55+381.81+844.19+372.83C851.01+365.73+854.19+356.21+857.04+347.01C858.87+341.12+860.66+335.21+862.91+329.46C863.262+328.131+862.483+326.764+861.16+326.39C859.836+326.054+858.482+326.821+858.09+328.13C854.38+337.6+852.09+347.57+848.29+357L848.16+357.33C848.16+357.23+848.33+356.94+848.16+357.39C848.07+357.61+847.97+357.82+847.88+358.04C847.64+358.58+847.39+359.11+847.14+359.64C846.66+360.64+846.14+361.64+845.59+362.64C845.04+363.64+844.5+364.48+843.89+365.36C843.364+366.172+842.782+366.947+842.15+367.68C839.234+371.218+835.565+374.061+831.41+376C825.26+379+817.9+380.44+810.93+381.19C809.817+381.218+808.846+381.955+808.52+383.02C808.228+384.112+808.698+385.264+809.67+385.84C819.89+390.84+830.02+396.75+838.05+404.95C841.005+407.914+843.582+411.232+845.72+414.83C846.778+416.6+847.733+418.43+848.58+420.31C849.26+421.82+849.94+423.56+850.58+425.44C852.055+429.93+853.228+434.513+854.09+439.16C854.393+440.242+855.376+440.993+856.5+441C857.614+440.975+858.586+440.237+858.91+439.17C862.54+429.38+866.72+419.62+872.84+411.1C878.054+403.709+885.158+397.855+893.41+394.15C898.902+391.853+904.682+390.319+910.59+389.59C911.793+389.26+912.561+388.084+912.38+386.85C912.192+385.627+911.157+384.714+909.92+384.68C899.412+383.621+889.558+379.084+881.92+371.79C874.62+364.73+869.65+355.58+866.6+345.95C864.823+340.383+863.617+334.651+863+328.84C862.963+327.475+861.865+326.377+860.5+326.34C859.124+326.351+858.011+327.464+858+328.84Z" opacity="1" fill="#f9f5dd"/>
</g>
<path opacity="1" fill="#4cac83" d="M211.529+593.835L630.366+593.835C633.58+593.835+636.186+596.441+636.186+599.655L636.186+792.422C636.186+795.636+633.58+798.242+630.366+798.242L211.529+798.242C208.315+798.242+205.709+795.636+205.709+792.422L205.709+599.655C205.709+596.441+208.315+593.835+211.529+593.835Z"/>
<g opacity="1">
<path opacity="1" d="M123.692+765.712L123.692+635.146L151.134+635.146L187.853+724.501L223.302+635.146L248.888+635.146L248.888+765.712L225.255+765.712L225.255+660.732L181.114+770.497L134.923+660.732L134.923+765.712L123.692+765.712Z" fill="#060606"/>
<path d="M279.063+695.497C279.063+689.117+280.089+684.95+282.14+682.997C284.19+681.044+288.504+680.068+295.079+680.068L335.899+680.068L335.899+687.49L306.7+687.49C303.25+687.49+300.955+687.978+299.815+688.954C298.676+689.931+298.106+691.721+298.106+694.325L298.106+715.907L329.063+715.907L329.063+724.306L298.106+724.306L298.106+751.552C298.106+754.156+298.692+755.93+299.864+756.874C301.036+757.818+303.77+758.29+308.067+758.29L336.876+758.29L336.876+765.712L292.052+765.712C287.234+765.712+283.865+764.703+281.944+762.685C280.024+760.667+279.063+756.532+279.063+750.282L279.063+695.497Z" opacity="1" fill="#060606"/>
<path opacity="1" fill="#060606" d="M365.294+765.712L357.091+765.712L357.091+694.716C357.091+688.661+358.084+684.283+360.069+681.581C362.055+678.879+365.196+677.529+369.493+677.529C372.944+677.529+376.199+678.717+379.259+681.093C382.319+683.469+385.216+687.066+387.95+691.884L410.313+731.728C410.379+731.858+410.525+731.988+410.753+732.118C410.981+732.249+411.225+732.314+411.485+732.314C412.006+732.314+412.381+732.151+412.608+731.825C412.836+731.5+412.95+730.849+412.95+729.872L412.95+680.068L421.153+680.068L421.153+758.486C421.153+762.457+420.681+765.126+419.737+766.493C418.793+767.861+417.182+768.544+414.903+768.544C413.276+768.544+411.892+768.137+410.753+767.324C409.614+766.51+408.523+765.159+407.481+763.271L368.126+695.693C367.866+695.237+367.638+694.928+367.442+694.765C367.247+694.602+367.019+694.521+366.759+694.521C366.173+694.521+365.782+694.651+365.587+694.911C365.392+695.172+365.294+695.823+365.294+696.865L365.294+765.712Z"/>
<path fill="#060606" d="M458.751+765.712L458.751+687.49L440.489+687.49L440.489+680.068L495.958+680.068L495.958+687.49L477.696+687.49L477.696+765.712L458.751+765.712Z" opacity="1"/>
<path d="M513.731+655.556C513.731+652.496+514.822+649.892+517.003+647.743C519.184+645.595+521.837+644.521+524.962+644.521C527.957+644.521+530.528+645.579+532.677+647.695C534.825+649.81+535.899+652.431+535.899+655.556C535.899+658.551+534.841+661.122+532.726+663.271C530.61+665.419+528.022+666.493+524.962+666.493C521.837+666.493+519.184+665.419+517.003+663.271C514.822+661.122+513.731+658.551+513.731+655.556ZM515.294+680.068L534.337+680.068L534.337+765.712L515.294+765.712L515.294+680.068Z" opacity="1" fill="#060606"/>
<path opacity="1" d="M596.739+762.099C603.575+762.099+609.109+758.534+613.341+751.406C617.573+744.277+619.688+734.853+619.688+723.134C619.688+711.35+617.573+701.861+613.341+694.667C609.109+687.473+603.575+683.876+596.739+683.876C589.903+683.876+584.353+687.49+580.089+694.716C575.825+701.943+573.692+711.415+573.692+723.134C573.692+734.788+575.825+744.195+580.089+751.357C584.353+758.518+589.903+762.099+596.739+762.099ZM599.278+768.544C586.388+768.544+575.597+764.117+566.905+755.263C558.214+746.409+553.868+735.276+553.868+721.865C553.868+708.779+557.579+698.118+565.001+689.882C572.423+681.646+582.123+677.529+594.103+677.529C607.123+677.529+617.979+681.956+626.671+690.81C635.362+699.664+639.708+710.764+639.708+724.111C639.708+737.262+635.981+747.955+628.526+756.191C621.072+764.426+611.323+768.544+599.278+768.544Z" fill="#060606"/>
<path opacity="1" fill="#060606" d="M667.54+765.712L659.337+765.712L659.337+694.716C659.337+688.661+660.33+684.283+662.315+681.581C664.301+678.879+667.442+677.529+671.739+677.529C675.19+677.529+678.445+678.717+681.505+681.093C684.565+683.469+687.462+687.066+690.196+691.884L712.56+731.728C712.625+731.858+712.771+731.988+712.999+732.118C713.227+732.249+713.471+732.314+713.731+732.314C714.252+732.314+714.627+732.151+714.854+731.825C715.082+731.5+715.196+730.849+715.196+729.872L715.196+680.068L723.399+680.068L723.399+758.486C723.399+762.457+722.927+765.126+721.983+766.493C721.039+767.861+719.428+768.544+717.149+768.544C715.522+768.544+714.138+768.137+712.999+767.324C711.86+766.51+710.769+765.159+709.728+763.271L670.372+695.693C670.112+695.237+669.884+694.928+669.688+694.765C669.493+694.602+669.265+694.521+669.005+694.521C668.419+694.521+668.028+694.651+667.833+694.911C667.638+695.172+667.54+695.823+667.54+696.865L667.54+765.712Z"/>
<path fill="#060606" d="M748.399+764.15L748.399+757.118C751.459+757.9+754.454+758.502+757.384+758.925C760.313+759.348+763.243+759.56+766.173+759.56C772.683+759.56+777.55+758.486+780.772+756.337C783.995+754.189+785.606+750.901+785.606+746.474C785.606+740.745+781.049+735.439+771.935+730.556L770.86+729.97L765.392+726.943C758.295+723.101+753.347+719.439+750.548+715.956C747.748+712.473+746.349+708.388+746.349+703.7C746.349+695.628+749.246+689.345+755.04+684.853C760.834+680.361+769.005+678.115+779.552+678.115C781.83+678.115+784.353+678.245+787.12+678.505C789.887+678.766+793.093+679.156+796.739+679.677L796.739+686.904C791.14+686.253+787.315+685.829+785.265+685.634C783.214+685.439+781.733+685.341+780.821+685.341C775.222+685.341+770.942+686.318+767.979+688.271C765.017+690.224+763.536+693.023+763.536+696.669C763.536+701.226+767.573+705.816+775.645+710.439L776.817+711.122L785.411+716.298C793.093+720.79+798.139+724.713+800.548+728.066C802.957+731.419+804.161+735.569+804.161+740.517C804.161+748.72+801.134+755.1+795.079+759.657C789.024+764.215+780.463+766.493+769.395+766.493C766.336+766.493+763.08+766.298+759.63+765.907C756.179+765.517+752.436+764.931+748.399+764.15Z" opacity="1"/>
</g>
</g>
</svg>
