<svg id="Layer_1" data-name="Layer 1" xmlns="http://www.w3.org/2000/svg" viewBox="0 0 154.61 153.09"><defs><style>.cls-1{fill:#62a097;}</style></defs><title>text_content_button</title><path class="cls-1" d="M61.6,118,38.48,133.81a4.31,4.31,0,0,1-6.7-4.12l2.54-19.25"/><path class="cls-1" d="M109,30.89H46.13a36,36,0,0,0-36,36V84.14a36,36,0,0,0,36,36H109a36,36,0,0,0,36-36V66.89A36,36,0,0,0,109,30.89ZM49.12,82.15a6.44,6.44,0,1,1,6.45-6.44A6.44,6.44,0,0,1,49.12,82.15Zm29.48,0A6.44,6.44,0,1,1,85,75.71,6.44,6.44,0,0,1,78.6,82.15Zm30,0A6.44,6.44,0,1,1,115,75.71,6.44,6.44,0,0,1,108.6,82.15Z"/></svg>