<svg id="Layer_1" data-name="Layer 1" xmlns="http://www.w3.org/2000/svg" viewBox="0 0 404.72 404.72"><defs><style>.cls-1{fill:#2e2e2e;}.cls-2{fill:#f9f5dd;}.cls-3{fill:#4cac83;}</style></defs><title>text_home_button</title><path class="cls-1" d="M182,295.65l-50.43,34.44a9.39,9.39,0,0,1-14.61-9l5.52-42"/><path class="cls-1" d="M285.44,105.6H148.22a78.53,78.53,0,0,0-78.53,78.53v37.62c0,21.42,18.38,32.14,32.28,46.3,14.25,14.52,24.3,32.23,46.25,32.23H285.44A78.53,78.53,0,0,0,364,221.75V184.13A78.53,78.53,0,0,0,285.44,105.6Z"/><path class="cls-2" d="M173,283.65l-50.43,34.44a9.39,9.39,0,0,1-14.61-9l5.52-42"/><path class="cls-2" d="M276.44,93.6H139.22a78.53,78.53,0,0,0-78.53,78.53v37.62a78.53,78.53,0,0,0,78.53,78.53H276.44A78.53,78.53,0,0,0,355,209.75V172.13A78.53,78.53,0,0,0,276.44,93.6Z"/><path class="cls-3" d="M146.89,208a14.05,14.05,0,1,1,14.05-14.05A14,14,0,0,1,146.89,208Z"/><path class="cls-3" d="M211.18,208a14.05,14.05,0,1,1,14-14.05A14,14,0,0,1,211.18,208Z"/><path class="cls-3" d="M276.62,208a14.05,14.05,0,1,1,14.05-14.05A14,14,0,0,1,276.62,208Z"/></svg>