<?xml version="1.0" encoding="UTF-8" standalone="no"?> <!-- Created with Vectornator for iOS (http://vectornator.io/) --><!DOCTYPE svg PUBLIC "-//W3C//DTD SVG 1.1//EN" "http://www.w3.org/Graphics/SVG/1.1/DTD/svg11.dtd">
<svg height="100%" width="100%" style="fill-rule:nonzero;clip-rule:evenodd;stroke-linecap:round;stroke-linejoin:round;" xmlns="http://www.w3.org/2000/svg" xml:space="preserve" version="1.1" xmlns:vectornator="http://vectornator.io" xmlns:xlink="http://www.w3.org/1999/xlink" viewBox="0 0 1321.48 1060.8">
<metadata>
<vectornator:setting value="false" key="WDSnapToEdges"/>
<vectornator:setting key="VNDimensionsVisible" value="true"/>
<vectornator:setting value="false" key="WDCMYKEnabledKey"/>
<vectornator:setting value="false" key="WDSnapToGrid"/>
<vectornator:setting value="false" key="WDDisplayWhiteBackground"/>
<vectornator:setting value="true" key="VNSnapToGuides"/>
<vectornator:setting key="WDDynamicGuides" value="false"/>
<vectornator:setting key="UndoHistoryDisabled" value="false"/>
<vectornator:setting key="WDRulersVisible" value="true"/>
<vectornator:setting key="WDGuidesVisible" value="true"/>
<vectornator:setting key="WDOutlineMode" value="false"/>
<vectornator:setting key="VNPencilOnly" value="false"/>
<vectornator:setting key="WDUnits" value="Points"/>
<vectornator:setting value="false" key="IsTimeLapseWatermarkDisabled"/>
<vectornator:setting value="false" key="WDSnapToPoints"/>
<vectornator:setting value="false" key="WDIsolateActiveLayer"/>
</metadata>
<defs>
<path id="Mask" d="M370.94+8L965.42+8C1147.71+7.99999+1295.48+155.773+1295.48+338.06L1295.48+690.74C1295.48+873.027+1147.71+1020.8+965.42+1020.8L370.94+1020.8C188.653+1020.8+40.88+873.027+40.88+690.74L40.88+338.06C40.88+155.773+188.653+7.99999+370.94+8Z"/>
</defs>
<g vectornator:layerName="Layer 2" id="Layer 2">
<g opacity="1">
<path opacity="1" fill="#000000" d="M392.94+44L987.42+44C1169.71+44+1317.48+191.773+1317.48+374.06L1317.48+726.74C1317.48+909.027+1169.71+1056.8+987.42+1056.8L392.94+1056.8C210.653+1056.8+62.88+909.027+62.88+726.74L62.88+374.06C62.88+191.773+210.653+44+392.94+44Z"/>
<path d="M370.94+1024.8C186.444+1024.8+36.88+875.236+36.88+690.74L36.88+338.06C36.88+153.564+186.444+3.99999+370.94+4.00001L965.41+4.00001C1149.91+3.99448+1299.48+153.56+1299.48+338.06L1299.48+690.74C1299.48+875.24+1149.91+1024.81+965.41+1024.8L370.94+1024.8Z" fill="#5bbeb0" opacity="1"/>
<path d="M965.41+8C1147.7+8+1295.48+155.77+1295.48+338.06L1295.48+690.74C1295.48+873.03+1147.7+1020.8+965.41+1020.8L370.94+1020.8C188.65+1020.8+40.88+873+40.88+690.74L40.88+338.06C40.88+155.77+188.65+8+370.94+8L965.41+8M965.41+0L370.94+0C281.259-0.071703+195.23+35.5222+131.816+98.9363C68.4022+162.35+32.8083+248.379+32.88+338.06L32.88+690.74C32.8083+780.421+68.4022+866.45+131.816+929.864C195.23+993.278+281.259+1028.87+370.94+1028.8L965.41+1028.8C1055.09+1028.87+1141.12+993.282+1204.54+929.867C1267.96+866.453+1303.55+780.423+1303.48+690.74L1303.48+338.06C1303.55+248.377+1267.96+162.347+1204.54+98.9328C1141.12+35.5184+1055.09-0.0743483+965.41+0Z" opacity="1" fill="#000000"/>
<path opacity="1" fill="#000000" d="M724.71+391.15C723.974+390.826+723.41+390.204+723.16+389.44L694.64+321.55C693.906+319.71+694.718+317.615+696.5+316.75C697.402+316.368+698.42+316.365+699.325+316.741C700.229+317.117+700.945+317.841+701.31+318.75L726.57+378.58L744.09+336.89C744.746+335.507+746.12+334.607+747.65+334.56C749.234+334.561+750.678+335.466+751.37+336.89L768.89+378.58L794+318.76C794.803+316.912+796.923+316.029+798.8+316.76C800.664+317.547+801.554+319.682+800.8+321.56L772.43+389.14C772.152+389.879+771.67+390.524+771.04+391C770.52+391.454+769.868+391.727+769.18+391.78L768.4+391.78C767.057+391.625+765.918+390.722+765.46+389.45L765.3+389.3L747.63+347.3L730.12+389.15C730.035+389.234+729.979+389.342+729.96+389.46C729.439+390.815+728.161+391.731+726.71+391.79C726.23+391.759+725.758+391.654+725.31+391.48C725.072+391.461+724.853+391.341+724.71+391.15Z"/>
<path opacity="1" fill="#000000" d="M861.27+315.82C881.27+315.82+897.27+333.18+897.27+353.82C897.27+374.46+881.27+391.82+861.27+391.82C841.27+391.82+825.27+374.46+825.27+353.82C825.27+333.18+841.43+315.82+861.27+315.82ZM861.27+384.33C876.77+384.33+889.79+370.69+889.79+353.79C889.79+336.89+876.79+323.1+861.27+323.1C845.75+323.1+832.75+336.9+832.75+353.79C832.75+370.68+845.77+384.33+861.27+384.33Z"/>
<path opacity="1" fill="#000000" d="M922.65+319.69C922.646+318.676+923.058+317.705+923.789+317.002C924.52+316.299+925.507+315.926+926.52+315.97C927.487+315.988+928.407+316.391+929.077+317.089C929.747+317.787+930.111+318.723+930.09+319.69L930.09+336.43C930.393+335.779+930.755+335.156+931.17+334.57C936.91+325.57+946.98+315.97+961.55+315.97C962.541+315.956+963.495+316.344+964.195+317.045C964.896+317.745+965.284+318.699+965.27+319.69C965.243+321.733+963.593+323.383+961.55+323.41C951.63+323.41+944.81+328.99+939.55+335.81C935.657+341.222+932.577+347.175+930.41+353.48C930.194+353.857+930.086+354.286+930.1+354.72L930.1+388.05C930.121+389.017+929.757+389.953+929.087+390.651C928.417+391.349+927.497+391.752+926.53+391.77C925.517+391.814+924.53+391.441+923.799+390.738C923.068+390.035+922.656+389.064+922.66+388.05L922.65+319.69Z"/>
<path fill="#000000" d="M990.69+287C990.69+284.901+992.391+283.2+994.49+283.2C996.589+283.2+998.29+284.901+998.29+287L998.29+360L1043.29+315.21C1044.76+313.861+1047.04+313.911+1048.45+315.322C1049.86+316.734+1049.91+319.008+1048.56+320.48L1019.26+349.77L1048.71+385.58C1049.78+386.646+1050.09+388.267+1049.46+389.647C1048.84+391.028+1047.43+391.878+1045.92+391.78C1044.76+391.882+1043.63+391.346+1042.98+390.38L1013.84+355.2L998.34+370.7L998.34+388.06C998.34+390.159+996.639+391.86+994.54+391.86C992.441+391.86+990.74+390.159+990.74+388.06L990.69+287Z" opacity="1"/>
<path fill="#000000" opacity="1" d="M925.81+72.83C925.81+63.8388+933.014+56.55+941.9+56.55C950.786+56.55+957.99+63.8388+957.99+72.83C957.99+81.8212+950.786+89.11+941.9+89.11C933.014+89.11+925.81+81.8212+925.81+72.83Z"/>
<path opacity="1" fill="#000000" d="M979.82+72.83C979.82+63.8388+987.024+56.55+995.91+56.55C1004.8+56.55+1012+63.8388+1012+72.83C1012+81.8212+1004.8+89.11+995.91+89.11C987.024+89.11+979.82+81.8212+979.82+72.83Z"/>
<path fill="#000000" d="M1031.85+71.66C1031.85+62.6688+1039.05+55.38+1047.94+55.38C1056.83+55.38+1064.03+62.6688+1064.03+71.66C1064.03+80.6512+1056.83+87.94+1047.94+87.94C1039.05+87.94+1031.85+80.6512+1031.85+71.66Z" opacity="1"/>
<path fill="#000000" opacity="1" d="M1204.04+130.6L224.52+130.6"/>
<g opacity="1" vectornator:mask="#Mask">
<clipPath id="ClipPath">
<use fill="none" xlink:href="#Mask" overflow="visible"/>
</clipPath>
<g clip-path="url(#ClipPath)">
<g opacity="1">
<path opacity="1" fill="#000000" d="M142.28+111.4L173.23+148.29C185.563+163.026+185.647+184.458+173.43+199.29L65.43+330.16C50.182+348.761+23.5835+353.332+3+340.89"/>
<path d="M480.33+565.34L303.15+420.26" fill="#000000" opacity="1"/>
<path opacity="1" d="M277.24+421.98C277.24+404.898+290.922+391.05+307.8+391.05C324.678+391.05+338.36+404.898+338.36+421.98C338.36+439.062+324.678+452.91+307.8+452.91C290.922+452.91+277.24+439.062+277.24+421.98Z" fill="#f9f5dd"/>
<path opacity="1" d="M73+324.1L197.22+540.44C200.734+546.29+207.509+549.347+214.22+548.11C251.93+541.06+378.73+522.24+471.91+566.87C474.712+568.211+478.056+567.629+480.24+565.42L480.33+565.34C482.922+562.727+483.17+558.595+480.91+555.69C417.56+473.77+407.59+342.5+405.84+303.89C405.546+297.053+401.087+291.097+394.61+288.89L159.45+216.2" fill="#000000"/>
</g>
</g>
</g>
</g>
<path opacity="1" fill="#5bbeb0" d="M689.443+129.346L1090.23+129.346C1093.45+129.346+1096.05+139.543+1096.05+152.122L1096.05+690.13C1096.05+702.709+1093.45+712.907+1090.23+712.907L689.443+712.907C686.229+712.907+683.623+702.709+683.623+690.13L683.623+152.122C683.623+139.543+686.229+129.346+689.443+129.346Z"/>
<g opacity="1">
<path d="M790.444+517.476L762.807+447.652L736.245+517.476L682.046+383.687L707.631+383.687L742.983+474.214L757.631+435.835L736.245+383.687L761.635+383.687L796.596+472.652L829.604+383.687L842.202+383.687L790.444+517.476Z" opacity="1" fill="#060606"/>
<path opacity="1" fill="#060606" d="M890.053+510.64C896.889+510.64+902.423+507.075+906.655+499.947C910.887+492.818+913.003+483.394+913.003+471.675C913.003+459.891+910.887+450.402+906.655+443.208C902.423+436.014+896.889+432.417+890.053+432.417C883.217+432.417+877.667+436.031+873.403+443.257C869.139+450.484+867.006+459.956+867.006+471.675C867.006+483.329+869.139+492.736+873.403+499.898C877.667+507.059+883.217+510.64+890.053+510.64ZM892.592+517.085C879.702+517.085+868.911+512.658+860.219+503.804C851.528+494.95+847.182+483.817+847.182+470.406C847.182+457.32+850.893+446.659+858.315+438.423C865.737+430.187+875.437+426.07+887.417+426.07C900.437+426.07+911.294+430.497+919.985+439.351C928.676+448.205+933.022+459.305+933.022+472.652C933.022+485.803+929.295+496.496+921.84+504.732C914.386+512.967+904.637+517.085+892.592+517.085Z"/>
<path d="M971.694+514.253L952.651+514.253L952.651+428.609L987.026+428.609C997.703+428.609+1005.81+430.627+1011.34+434.663C1016.88+438.7+1019.64+444.559+1019.64+452.241C1019.64+457.84+1017.98+462.43+1014.66+466.011C1011.34+469.592+1006.75+471.74+1000.89+472.456L1023.06+514.253L1000.31+514.253L979.897+471.48C986.798+471.35+991.86+469.917+995.083+467.183C998.305+464.448+999.917+460.152+999.917+454.292C999.917+447.912+998.338+443.208+995.18+440.181C992.023+437.154+987.124+435.64+980.483+435.64L971.694+435.64L971.694+514.253Z" opacity="1" fill="#060606"/>
<path fill="#060606" opacity="1" d="M1061.05+514.253L1042.01+514.253L1042.01+374.409L1061.05+374.409L1061.05+472.066L1096.21+428.609L1106.85+428.609L1077.46+464.839L1116.03+514.253L1092.2+514.253L1061.05+474.214L1061.05+514.253Z"/>
</g>
</g>
</svg>
