<svg xmlns="http://www.w3.org/2000/svg" xmlns:xlink="http://www.w3.org/1999/xlink" viewBox="0 0 1321.48 1060.8"><defs><style>.cls-1,.cls-6,.cls-8{fill:none;}.cls-2,.cls-4,.cls-5{fill:#2e2e2e;}.cls-2,.cls-5{stroke:#2e2e2e;}.cls-2,.cls-6{stroke-miterlimit:10;}.cls-2{stroke-width:8px;}.cls-3{fill:#5bbeb0;}.cls-5,.cls-8{stroke-linecap:round;stroke-linejoin:round;}.cls-6,.cls-8{stroke:#f9f5dd;stroke-width:6px;}.cls-7{clip-path:url(#clip-path);}.cls-9{fill:#f9f5dd;}</style><clipPath id="clip-path"><rect class="cls-1" x="40.88" y="8" width="1254.6" height="1012.8" rx="330.06"/></clipPath></defs><title>work_button</title><g id="Layer_2" data-name="Layer 2"><g id="Layer_1-2" data-name="Layer 1"><rect class="cls-2" x="62.88" y="44" width="1254.6" height="1012.8" rx="330.06"/><path class="cls-3" d="M370.94,1024.8A334.06,334.06,0,0,1,36.88,690.74V338.06A334.06,334.06,0,0,1,370.94,4H965.41a334.06,334.06,0,0,1,334.07,334.06V690.74A334.06,334.06,0,0,1,965.41,1024.8Z"/><path class="cls-4" d="M965.41,8c182.29,0,330.07,147.77,330.07,330.06V690.74c0,182.29-147.78,330.06-330.07,330.06H370.94C188.65,1020.8,40.88,873,40.88,690.74V338.06C40.88,155.77,188.65,8,370.94,8H965.41m0-8H370.94A337.79,337.79,0,0,0,32.88,338.06V690.74A337.79,337.79,0,0,0,370.94,1028.8H965.41a337.79,337.79,0,0,0,338.07-338.06V338.06A337.79,337.79,0,0,0,965.41,0Z"/><path class="cls-5" d="M724.71,391.15a2.83,2.83,0,0,1-1.55-1.71l-28.52-67.89a3.78,3.78,0,0,1,1.86-4.8,3.65,3.65,0,0,1,4.81,2l25.26,59.83,17.52-41.69a4.08,4.08,0,0,1,3.56-2.33,4.14,4.14,0,0,1,3.72,2.33l17.52,41.69L794,318.76a3.75,3.75,0,0,1,4.8-2,3.71,3.71,0,0,1,2,4.8l-28.37,67.58a4.17,4.17,0,0,1-1.39,1.86,3.2,3.2,0,0,1-1.86.78h-.78a3.56,3.56,0,0,1-2.94-2.33l-.16-.15-17.67-42-17.51,41.85a.56.56,0,0,0-.16.31,3.64,3.64,0,0,1-3.25,2.33,4.71,4.71,0,0,1-1.4-.31A.83.83,0,0,1,724.71,391.15Z"/><path class="cls-5" d="M861.27,315.82c20,0,36,17.36,36,38s-16,38-36,38-36-17.36-36-38S841.43,315.82,861.27,315.82Zm0,68.51c15.5,0,28.52-13.64,28.52-30.54s-13-30.69-28.52-30.69-28.52,13.8-28.52,30.69S845.77,384.33,861.27,384.33Z"/><path class="cls-5" d="M922.65,319.69a3.71,3.71,0,0,1,3.87-3.72,3.64,3.64,0,0,1,3.57,3.72v16.74a11.9,11.9,0,0,1,1.08-1.86c5.74-9,15.81-18.6,30.38-18.6a3.67,3.67,0,0,1,3.72,3.72,3.77,3.77,0,0,1-3.72,3.72c-9.92,0-16.74,5.58-22,12.4a68.25,68.25,0,0,0-9.14,17.67,2.34,2.34,0,0,0-.31,1.24v33.33a3.64,3.64,0,0,1-3.57,3.72,3.71,3.71,0,0,1-3.87-3.72Z"/><path class="cls-5" d="M990.69,287a3.8,3.8,0,0,1,7.6,0v73l45-44.79a3.73,3.73,0,0,1,5.27,5.27l-29.3,29.29,29.45,35.81a3.63,3.63,0,0,1-2.79,6.2,3.21,3.21,0,0,1-2.94-1.4l-29.14-35.18-15.5,15.5v17.36a3.8,3.8,0,0,1-7.6,0Z"/><ellipse class="cls-6" cx="941.9" cy="72.83" rx="16.09" ry="16.28"/><ellipse class="cls-6" cx="995.91" cy="72.83" rx="16.09" ry="16.28"/><ellipse class="cls-6" cx="1047.94" cy="71.66" rx="16.09" ry="16.28"/><line class="cls-6" x1="1204.04" y1="130.6" x2="224.52" y2="130.6"/><g class="cls-7"><path class="cls-8" d="M142.28,111.4l30.95,36.89a39.92,39.92,0,0,1,.2,51l-108,130.87A48.37,48.37,0,0,1,3,340.89"/><line class="cls-6" x1="480.33" y1="565.34" x2="303.15" y2="420.26"/><ellipse class="cls-9" cx="307.8" cy="421.98" rx="30.56" ry="30.93"/><path class="cls-6" d="M73,324.1,197.22,540.44a16.37,16.37,0,0,0,17,7.67c37.71-7.05,164.51-25.87,257.69,18.76a7.29,7.29,0,0,0,8.33-1.45l.09-.08a7.32,7.32,0,0,0,.58-9.65c-63.35-81.92-73.32-213.19-75.07-251.8a16.6,16.6,0,0,0-11.23-15L159.45,216.2"/></g></g></g></svg>