<?xml version="1.0" encoding="utf-8"?>
<!-- Generator: Adobe Illustrator 26.0.2, SVG Export Plug-In . SVG Version: 6.00 Build 0)  -->
<svg version="1.1" id="Layer_1" xmlns="http://www.w3.org/2000/svg" xmlns:xlink="http://www.w3.org/1999/xlink" x="0px" y="0px"
	 viewBox="0 0 1321.5 1060.8" style="enable-background:new 0 0 1321.5 1060.8;" xml:space="preserve">
<style type="text/css">
	.st0{fill:#2E2E2E;stroke:#2E2E2E;stroke-width:8;stroke-miterlimit:10;}
	.st1{fill:#4CAC83;}
	.st2{fill:#2E2E2E;}
	.st3{fill:#2E2E2E;stroke:#2E2E2E;stroke-linecap:round;stroke-linejoin:round;}
	.st4{fill:none;stroke:#F9F5DD;stroke-width:6;stroke-miterlimit:10;}
	.st5{clip-path:url(#SVGID_00000170999483808830128680000001231634695601902486_);}
	.st6{fill:none;stroke:#F9F5DD;stroke-width:6;stroke-linecap:round;stroke-linejoin:round;}
	.st7{fill:#F9F5DD;}
	.st8{enable-background:new    ;}
</style>
<g id="Layer_2_00000080916383633090380210000017229335189384778678_">
	<g id="Layer_1-2">
		<path class="st0" d="M392.9,44h594.5c182.3,0,330.1,147.8,330.1,330.1v352.7c0,182.3-147.8,330.1-330.1,330.1H392.9
			c-182.3,0-330.1-147.8-330.1-330.1V374.1C62.9,191.8,210.7,44,392.9,44z"/>
		<path class="st1" d="M370.9,1024.8c-184.5,0-334.1-149.6-334.1-334.1l0,0V338.1C36.9,153.6,186.4,4,370.9,4l0,0h594.5
			c184.5,0,334.1,149.6,334.1,334l0,0v352.7c0,184.5-149.6,334.1-334.1,334.1l0,0H370.9z"/>
		<path class="st2" d="M965.4,8c182.3,0,330.1,147.8,330.1,330.1v352.7c0,182.3-147.8,330.1-330.1,330.1H370.9
			c-182.3,0-330.1-147.8-330.1-330.1V338.1C40.9,155.8,188.6,8,370.9,8H965.4 M965.4,0H370.9C184.4-0.1,33,151,32.9,337.5
			c0,0.2,0,0.4,0,0.5v352.7c-0.1,186.6,151,337.9,337.5,338.1c0.2,0,0.4,0,0.5,0h594.5c186.6,0.2,337.9-151,338.1-337.5
			c0-0.2,0-0.4,0-0.6V338.1c0.1-186.6-151-338-337.5-338.1C965.8,0,965.6,0,965.4,0z"/>
		<path class="st3" d="M724.7,391.1c-0.7-0.3-1.3-0.9-1.5-1.7l-28.5-67.9c-0.7-1.8,0.1-3.9,1.9-4.8c1.9-0.8,4,0.1,4.8,1.9
			c0,0,0,0,0,0.1l25.3,59.8l17.5-41.7c0.7-1.4,2-2.3,3.6-2.3s3,0.9,3.7,2.3l17.5,41.7l25.1-59.8c0.8-1.8,2.9-2.7,4.8-2
			c1.9,0.8,2.8,2.9,2,4.8l-28.4,67.6c-0.3,0.7-0.8,1.4-1.4,1.9c-0.5,0.5-1.2,0.7-1.9,0.8h-0.8c-1.3-0.2-2.5-1.1-2.9-2.3l-0.2-0.1
			l-17.7-42l-17.5,41.9c-0.1,0.1-0.1,0.2-0.2,0.3c-0.5,1.4-1.8,2.3-3.2,2.3c-0.5,0-1-0.1-1.4-0.3
			C725.1,391.5,724.9,391.3,724.7,391.1z"/>
		<path class="st3" d="M861.3,315.8c20,0,36,17.4,36,38s-16,38-36,38s-36-17.4-36-38S841.4,315.8,861.3,315.8z M861.3,384.3
			c15.5,0,28.5-13.6,28.5-30.5s-13-30.7-28.5-30.7s-28.5,13.8-28.5,30.7S845.8,384.3,861.3,384.3L861.3,384.3z"/>
		<path class="st3" d="M922.7,319.7c0-2,1.6-3.7,3.7-3.7c0.1,0,0.1,0,0.2,0c2,0,3.6,1.7,3.6,3.7l0,0v16.7c0.3-0.7,0.7-1.3,1.1-1.9
			c5.7-9,15.8-18.6,30.4-18.6c2,0,3.7,1.6,3.7,3.6v0.1c0,2-1.7,3.7-3.7,3.7c-9.9,0-16.7,5.6-22,12.4c-3.9,5.4-7,11.4-9.1,17.7
			c-0.2,0.4-0.3,0.8-0.3,1.2V388c0,2-1.5,3.7-3.6,3.7l0,0c-2,0.1-3.8-1.5-3.9-3.5c0-0.1,0-0.1,0-0.2L922.7,319.7z"/>
		<path class="st3" d="M990.7,287c0-2.1,1.7-3.8,3.8-3.8s3.8,1.7,3.8,3.8v73l45-44.8c1.5-1.4,3.9-1.3,5.3,0.2c1.3,1.4,1.3,3.6,0,5
			l-29.3,29.3l29.5,35.8c1.4,1.4,1.4,3.7,0,5.1c-0.7,0.7-1.8,1.1-2.8,1.1c-1.2,0.1-2.3-0.4-2.9-1.4l-29.1-35.2l-15.5,15.5V388
			c0,2.1-1.7,3.8-3.8,3.8s-3.8-1.7-3.8-3.8L990.7,287z"/>
		<ellipse class="st4" cx="941.9" cy="72.8" rx="16.1" ry="16.3"/>
		<ellipse class="st4" cx="995.9" cy="72.8" rx="16.1" ry="16.3"/>
		<ellipse class="st4" cx="1047.9" cy="71.7" rx="16.1" ry="16.3"/>
		<line class="st4" x1="1204" y1="130.6" x2="224.5" y2="130.6"/>
		<g>
			<g>
				<defs>
					<path id="SVGID_1_" d="M370.9,8h594.5c182.3,0,330.1,147.8,330.1,330.1v352.7c0,182.3-147.8,330.1-330.1,330.1H370.9
						c-182.3,0-330.1-147.8-330.1-330.1V338.1C40.9,155.8,188.7,8,370.9,8z"/>
				</defs>
				<clipPath id="SVGID_00000096020592295723872990000015432017566013103778_">
					<use xlink:href="#SVGID_1_"  style="overflow:visible;"/>
				</clipPath>
				<g style="clip-path:url(#SVGID_00000096020592295723872990000015432017566013103778_);">
					<path class="st6" d="M142.3,111.4l30.9,36.9c12.3,14.7,12.4,36.2,0.2,51l-108,130.9C50.2,348.8,23.6,353.3,3,340.9"/>
					<line class="st4" x1="480.3" y1="565.3" x2="303.1" y2="420.3"/>
					<ellipse class="st7" cx="307.8" cy="422" rx="30.6" ry="30.9"/>
					<path class="st4" d="M73,324.1l124.2,216.3c3.5,5.9,10.3,8.9,17,7.7c37.7-7,164.5-25.9,257.7,18.8c2.8,1.3,6.1,0.8,8.3-1.5
						l0.1-0.1c2.6-2.6,2.8-6.7,0.6-9.7c-63.4-81.9-73.3-213.2-75.1-251.8c-0.3-6.8-4.8-12.8-11.2-15l-235.2-72.7"/>
				</g>
			</g>
		</g>
	</g>
</g>
<rect x="660.7" y="247.7" class="st1" width="460.3" height="205"/>
<g class="st8">
	<path d="M723.6,508.5L689,421.2l-33.2,87.3l-67.7-167.2h32l44.2,113.2l18.3-48l-26.7-65.2h31.7l43.7,111.2l41.3-111.2h15.7
		L723.6,508.5z"/>
	<path d="M833.1,508c-16.1,0-29.6-5.5-40.5-16.6c-10.9-11.1-16.3-25-16.3-41.7c0-16.4,4.6-29.7,13.9-40
		c9.3-10.3,21.4-15.4,36.4-15.4c16.3,0,29.8,5.5,40.7,16.6c10.9,11.1,16.3,24.9,16.3,41.6c0,16.4-4.7,29.8-14,40.1
		C860.3,502.8,848.1,508,833.1,508z M829.9,499.9c8.5,0,15.5-4.5,20.8-13.4c5.3-8.9,7.9-20.7,7.9-35.3c0-14.7-2.6-26.6-7.9-35.6
		c-5.3-9-12.2-13.5-20.8-13.5s-15.5,4.5-20.8,13.5c-5.3,9-8,20.9-8,35.5c0,14.6,2.7,26.3,8,35.3
		C814.4,495.4,821.3,499.9,829.9,499.9z"/>
	<path d="M931.9,504.4h-23.8V397.4h43c13.3,0,23.5,2.5,30.4,7.6c6.9,5,10.4,12.4,10.4,22c0,7-2.1,12.7-6.2,17.2
		c-4.2,4.5-9.9,7.2-17.2,8.1l27.7,52.2h-28.4L942.2,451c8.6-0.2,15-2,19-5.4c4-3.4,6-8.8,6-16.1c0-8-2-13.9-5.9-17.6
		s-10.1-5.7-18.4-5.7h-11V504.4z"/>
	<path d="M1043.6,504.4h-23.8V329.6h23.8v122.1l43.9-54.3h13.3l-36.7,45.3l48.2,61.8h-29.8l-38.9-50V504.4z"/>
</g>
</svg>
