<?xml version="1.0" encoding="UTF-8" standalone="no"?> <!-- Created with Vectornator for iOS (http://vectornator.io/) --><!DOCTYPE svg PUBLIC "-//W3C//DTD SVG 1.1//EN" "http://www.w3.org/Graphics/SVG/1.1/DTD/svg11.dtd">
<svg viewBox="0 0 1321.48 1060.8" height="100%" width="100%" xmlns:xlink="http://www.w3.org/1999/xlink" xmlns="http://www.w3.org/2000/svg" xml:space="preserve" style="fill-rule:nonzero;clip-rule:evenodd;stroke-linecap:round;stroke-linejoin:round;" xmlns:vectornator="http://vectornator.io" version="1.1">
<metadata>
<vectornator:setting value="false" key="WDCMYKEnabledKey"/>
<vectornator:setting key="WDSnapToPoints" value="false"/>
<vectornator:setting key="WDDisplayWhiteBackground" value="false"/>
<vectornator:setting value="false" key="WDOutlineMode"/>
<vectornator:setting key="WDIsolateActiveLayer" value="false"/>
<vectornator:setting value="true" key="WDRulersVisible"/>
<vectornator:setting key="VNSnapToGuides" value="true"/>
<vectornator:setting value="false" key="WDSnapToGrid"/>
<vectornator:setting value="false" key="WDDynamicGuides"/>
<vectornator:setting key="VNDimensionsVisible" value="true"/>
<vectornator:setting value="false" key="UndoHistoryDisabled"/>
<vectornator:setting key="WDGuidesVisible" value="true"/>
<vectornator:setting key="WDUnits" value="Points"/>
<vectornator:setting value="false" key="WDSnapToEdges"/>
<vectornator:setting key="VNPencilOnly" value="false"/>
<vectornator:setting key="IsTimeLapseWatermarkDisabled" value="false"/>
</metadata>
<defs>
<path d="M370.94+8L965.42+8C1147.71+7.99999+1295.48+155.773+1295.48+338.06L1295.48+690.74C1295.48+873.027+1147.71+1020.8+965.42+1020.8L370.94+1020.8C188.653+1020.8+40.88+873.027+40.88+690.74L40.88+338.06C40.88+155.773+188.653+7.99999+370.94+8Z" id="Mask"/>
</defs>
<g id="Layer 2" vectornator:layerName="Layer 2">
<g opacity="1">
<path fill="#000000" d="M392.94+44L987.42+44C1169.71+44+1317.48+191.773+1317.48+374.06L1317.48+726.74C1317.48+909.027+1169.71+1056.8+987.42+1056.8L392.94+1056.8C210.653+1056.8+62.88+909.027+62.88+726.74L62.88+374.06C62.88+191.773+210.653+44+392.94+44Z" opacity="1"/>
<path fill="#4cac83" d="M370.94+1024.8C186.444+1024.8+36.88+875.236+36.88+690.74L36.88+338.06C36.88+153.564+186.444+3.99999+370.94+4.00001L965.41+4.00001C1149.91+3.99448+1299.48+153.56+1299.48+338.06L1299.48+690.74C1299.48+875.24+1149.91+1024.81+965.41+1024.8L370.94+1024.8Z" opacity="1"/>
<path opacity="1" d="M965.41+8C1147.7+8+1295.48+155.77+1295.48+338.06L1295.48+690.74C1295.48+873.03+1147.7+1020.8+965.41+1020.8L370.94+1020.8C188.65+1020.8+40.88+873+40.88+690.74L40.88+338.06C40.88+155.77+188.65+8+370.94+8L965.41+8M965.41+0L370.94+0C281.259-0.071703+195.23+35.5222+131.816+98.9363C68.4022+162.35+32.8083+248.379+32.88+338.06L32.88+690.74C32.8083+780.421+68.4022+866.45+131.816+929.864C195.23+993.278+281.259+1028.87+370.94+1028.8L965.41+1028.8C1055.09+1028.87+1141.12+993.282+1204.54+929.867C1267.96+866.453+1303.55+780.423+1303.48+690.74L1303.48+338.06C1303.55+248.377+1267.96+162.347+1204.54+98.9328C1141.12+35.5184+1055.09-0.0743483+965.41+0Z" fill="#000000"/>
<path fill="#000000" d="M724.71+391.15C723.974+390.826+723.41+390.204+723.16+389.44L694.64+321.55C693.906+319.71+694.718+317.615+696.5+316.75C697.402+316.368+698.42+316.365+699.325+316.741C700.229+317.117+700.945+317.841+701.31+318.75L726.57+378.58L744.09+336.89C744.746+335.507+746.12+334.607+747.65+334.56C749.234+334.561+750.678+335.466+751.37+336.89L768.89+378.58L794+318.76C794.803+316.912+796.923+316.029+798.8+316.76C800.664+317.547+801.554+319.682+800.8+321.56L772.43+389.14C772.152+389.879+771.67+390.524+771.04+391C770.52+391.454+769.868+391.727+769.18+391.78L768.4+391.78C767.057+391.625+765.918+390.722+765.46+389.45L765.3+389.3L747.63+347.3L730.12+389.15C730.035+389.234+729.979+389.342+729.96+389.46C729.439+390.815+728.161+391.731+726.71+391.79C726.23+391.759+725.758+391.654+725.31+391.48C725.072+391.461+724.853+391.341+724.71+391.15Z" opacity="1"/>
<path d="M861.27+315.82C881.27+315.82+897.27+333.18+897.27+353.82C897.27+374.46+881.27+391.82+861.27+391.82C841.27+391.82+825.27+374.46+825.27+353.82C825.27+333.18+841.43+315.82+861.27+315.82ZM861.27+384.33C876.77+384.33+889.79+370.69+889.79+353.79C889.79+336.89+876.79+323.1+861.27+323.1C845.75+323.1+832.75+336.9+832.75+353.79C832.75+370.68+845.77+384.33+861.27+384.33Z" fill="#000000" opacity="1"/>
<path opacity="1" fill="#000000" d="M922.65+319.69C922.646+318.676+923.058+317.705+923.789+317.002C924.52+316.299+925.507+315.926+926.52+315.97C927.487+315.988+928.407+316.391+929.077+317.089C929.747+317.787+930.111+318.723+930.09+319.69L930.09+336.43C930.393+335.779+930.755+335.156+931.17+334.57C936.91+325.57+946.98+315.97+961.55+315.97C962.541+315.956+963.495+316.344+964.195+317.045C964.896+317.745+965.284+318.699+965.27+319.69C965.243+321.733+963.593+323.383+961.55+323.41C951.63+323.41+944.81+328.99+939.55+335.81C935.657+341.222+932.577+347.175+930.41+353.48C930.194+353.857+930.086+354.286+930.1+354.72L930.1+388.05C930.121+389.017+929.757+389.953+929.087+390.651C928.417+391.349+927.497+391.752+926.53+391.77C925.517+391.814+924.53+391.441+923.799+390.738C923.068+390.035+922.656+389.064+922.66+388.05L922.65+319.69Z"/>
<path d="M990.69+287C990.69+284.901+992.391+283.2+994.49+283.2C996.589+283.2+998.29+284.901+998.29+287L998.29+360L1043.29+315.21C1044.76+313.861+1047.04+313.911+1048.45+315.322C1049.86+316.734+1049.91+319.008+1048.56+320.48L1019.26+349.77L1048.71+385.58C1049.78+386.646+1050.09+388.267+1049.46+389.647C1048.84+391.028+1047.43+391.878+1045.92+391.78C1044.76+391.882+1043.63+391.346+1042.98+390.38L1013.84+355.2L998.34+370.7L998.34+388.06C998.34+390.159+996.639+391.86+994.54+391.86C992.441+391.86+990.74+390.159+990.74+388.06L990.69+287Z" opacity="1" fill="#000000"/>
<path d="M925.81+72.83C925.81+63.8388+933.014+56.55+941.9+56.55C950.786+56.55+957.99+63.8388+957.99+72.83C957.99+81.8212+950.786+89.11+941.9+89.11C933.014+89.11+925.81+81.8212+925.81+72.83Z" fill="#000000" opacity="1"/>
<path d="M979.82+72.83C979.82+63.8388+987.024+56.55+995.91+56.55C1004.8+56.55+1012+63.8388+1012+72.83C1012+81.8212+1004.8+89.11+995.91+89.11C987.024+89.11+979.82+81.8212+979.82+72.83Z" opacity="1" fill="#000000"/>
<path opacity="1" fill="#000000" d="M1031.85+71.66C1031.85+62.6688+1039.05+55.38+1047.94+55.38C1056.83+55.38+1064.03+62.6688+1064.03+71.66C1064.03+80.6512+1056.83+87.94+1047.94+87.94C1039.05+87.94+1031.85+80.6512+1031.85+71.66Z"/>
<path d="M1204.04+130.6L224.52+130.6" fill="#000000" opacity="1"/>
<g opacity="1" vectornator:mask="#Mask">
<clipPath id="ClipPath">
<use overflow="visible" xlink:href="#Mask" fill="none"/>
</clipPath>
<g clip-path="url(#ClipPath)">
<g opacity="1">
<path opacity="1" fill="#000000" d="M142.28+111.4L173.23+148.29C185.563+163.026+185.647+184.458+173.43+199.29L65.43+330.16C50.182+348.761+23.5835+353.332+3+340.89"/>
<path fill="#000000" d="M480.33+565.34L303.15+420.26" opacity="1"/>
<path opacity="1" fill="#f9f5dd" d="M277.24+421.98C277.24+404.898+290.922+391.05+307.8+391.05C324.678+391.05+338.36+404.898+338.36+421.98C338.36+439.062+324.678+452.91+307.8+452.91C290.922+452.91+277.24+439.062+277.24+421.98Z"/>
<path fill="#000000" opacity="1" d="M73+324.1L197.22+540.44C200.734+546.29+207.509+549.347+214.22+548.11C251.93+541.06+378.73+522.24+471.91+566.87C474.712+568.211+478.056+567.629+480.24+565.42L480.33+565.34C482.922+562.727+483.17+558.595+480.91+555.69C417.56+473.77+407.59+342.5+405.84+303.89C405.546+297.053+401.087+291.097+394.61+288.89L159.45+216.2"/>
</g>
</g>
</g>
</g>
<g opacity="1">
<path opacity="1" fill="#4cac83" d="M669.556+109.346L1070.35+109.346C1073.56+109.346+1076.17+119.543+1076.17+132.122L1076.17+670.13C1076.17+682.709+1073.56+692.907+1070.35+692.907L669.556+692.907C666.341+692.907+663.736+682.709+663.736+670.13L663.736+132.122C663.736+119.543+666.341+109.346+669.556+109.346Z"/>
<g opacity="1">
<path opacity="1" d="M770.557+497.476L742.92+427.652L716.357+497.476L662.158+363.687L687.744+363.687L723.096+454.214L737.744+415.835L716.357+363.687L741.748+363.687L776.709+452.652L809.717+363.687L822.314+363.687L770.557+497.476Z" fill="#060606"/>
<path fill="#060606" opacity="1" d="M870.166+490.64C877.002+490.64+882.536+487.075+886.767+479.947C890.999+472.818+893.115+463.394+893.115+451.675C893.115+439.891+890.999+430.402+886.767+423.208C882.536+416.014+877.002+412.417+870.166+412.417C863.33+412.417+857.78+416.031+853.515+423.257C849.251+430.484+847.119+439.956+847.119+451.675C847.119+463.329+849.251+472.736+853.515+479.898C857.78+487.059+863.33+490.64+870.166+490.64ZM872.705+497.085C859.814+497.085+849.023+492.658+840.332+483.804C831.64+474.95+827.295+463.817+827.295+450.406C827.295+437.32+831.006+426.659+838.428+418.423C845.849+410.187+855.55+406.07+867.529+406.07C880.55+406.07+891.406+410.497+900.098+419.351C908.789+428.205+913.135+439.305+913.135+452.652C913.135+465.803+909.407+476.496+901.953+484.732C894.499+492.967+884.749+497.085+872.705+497.085Z"/>
<path fill="#060606" d="M951.807+494.253L932.764+494.253L932.764+408.609L967.139+408.609C977.816+408.609+985.921+410.627+991.455+414.663C996.989+418.7+999.756+424.559+999.756+432.241C999.756+437.84+998.096+442.43+994.775+446.011C991.455+449.592+986.865+451.74+981.006+452.456L1003.17+494.253L980.42+494.253L960.01+451.48C966.911+451.35+971.973+449.917+975.195+447.183C978.418+444.448+980.029+440.152+980.029+434.292C980.029+427.912+978.45+423.208+975.293+420.181C972.135+417.154+967.236+415.64+960.596+415.64L951.807+415.64L951.807+494.253Z" opacity="1"/>
<path opacity="1" d="M1041.16+494.253L1022.12+494.253L1022.12+354.409L1041.16+354.409L1041.16+452.066L1076.32+408.609L1086.96+408.609L1057.57+444.839L1096.14+494.253L1072.31+494.253L1041.16+454.214L1041.16+494.253Z" fill="#060606"/>
</g>
</g>
</g>
</svg>
